<svg width="500" height="97" viewBox="0 0 500 97" fill="none" xmlns="http://www.w3.org/2000/svg">
<mask id="mask0" mask-type="alpha" maskUnits="userSpaceOnUse" x="0" y="0" width="500" height="97">
<rect width="500" height="97" rx="15" fill="#C4C4C4"/>
</mask>
<g mask="url(#mask0)">
<g style="mix-blend-mode:multiply">
<rect x="-15" y="-10" width="138" height="124" fill="#7B11F8"/>
<rect x="-15" y="-10" width="138" height="124" fill="url(#paint0_linear)" fill-opacity="0.6"/>
</g>
<g style="mix-blend-mode:multiply">
<rect x="123" y="-10" width="385" height="124" fill="url(#paint1_linear)"/>
</g>
<path d="M472.906 61.0889C472.906 58.2764 472.203 47.0264 457.438 47.0264H428.961V75.8545H457.438C458.844 75.8545 472.906 76.2061 472.906 61.0889ZM455.328 35.4249C455.328 35.4249 468.688 35.7764 468.688 22.7686C468.688 17.1436 467.633 10.1124 455.328 10.1124H428.961V35.4249H455.328ZM527.75 -10.9814C527.398 -25.3955 515.797 -36.997 501.383 -37.3486H396.266C381.852 -36.997 370.25 -25.3955 370.25 -10.9814V94.1358C370.25 108.55 381.852 120.151 396.266 120.151H501.383C515.797 120.151 527.398 108.55 527.75 94.1358V-10.9814ZM489.078 63.1983C489.078 80.4249 475.367 85.3467 470.445 86.753C462.008 89.5655 457.789 88.8624 412.789 88.8624V-2.89546H457.438C485.563 -2.89546 484.859 17.4952 484.859 19.9561C484.859 29.4483 479.586 35.7764 471.852 39.292V39.6436C486.617 42.8077 489.078 55.8155 489.078 63.1983Z" fill="white" fill-opacity="0.07"/>
</g>
<path d="M72.4609 57.0781C72.4609 55.9062 72.168 51.2188 66.0156 51.2188H54.1504V63.2305H66.0156C66.6016 63.2305 72.4609 63.377 72.4609 57.0781ZM65.1367 46.3848C65.1367 46.3848 70.7031 46.5312 70.7031 41.1113C70.7031 38.7676 70.2637 35.8379 65.1367 35.8379H54.1504V46.3848H65.1367ZM95.3125 27.0488C95.166 21.043 90.332 16.209 84.3262 16.0625H40.5273C34.5215 16.209 29.6875 21.043 29.6875 27.0488V70.8477C29.6875 76.8535 34.5215 81.6875 40.5273 81.6875H84.3262C90.332 81.6875 95.166 76.8535 95.3125 70.8477V27.0488ZM79.1992 57.957C79.1992 65.1348 73.4863 67.1855 71.4355 67.7715C67.9199 68.9434 66.1621 68.6504 47.4121 68.6504V30.418H66.0156C77.7344 30.418 77.4414 38.9141 77.4414 39.9395C77.4414 43.8945 75.2441 46.5312 72.0215 47.9961V48.1426C78.1738 49.4609 79.1992 54.8809 79.1992 57.957Z" fill="#5E5E5E" fill-opacity="0.45"/>
<path d="M73.4609 57.0781C73.4609 55.9062 73.168 51.2188 67.0156 51.2188H55.1504V63.2305H67.0156C67.6016 63.2305 73.4609 63.377 73.4609 57.0781ZM66.1367 46.3848C66.1367 46.3848 71.7031 46.5312 71.7031 41.1113C71.7031 38.7676 71.2637 35.8379 66.1367 35.8379H55.1504V46.3848H66.1367ZM96.3125 27.0488C96.166 21.043 91.332 16.209 85.3262 16.0625H41.5273C35.5215 16.209 30.6875 21.043 30.6875 27.0488V70.8477C30.6875 76.8535 35.5215 81.6875 41.5273 81.6875H85.3262C91.332 81.6875 96.166 76.8535 96.3125 70.8477V27.0488ZM80.1992 57.957C80.1992 65.1348 74.4863 67.1855 72.4355 67.7715C68.9199 68.9434 67.1621 68.6504 48.4121 68.6504V30.418H67.0156C78.7344 30.418 78.4414 38.9141 78.4414 39.9395C78.4414 43.8945 76.2441 46.5312 73.0215 47.9961V48.1426C79.1738 49.4609 80.1992 54.8809 80.1992 57.957Z" fill="white"/>
<path d="M147.951 69V26.3438H161.896C166.525 26.3438 170.002 27.3008 172.326 29.2148C174.67 31.1289 175.842 33.9609 175.842 37.7109C175.842 39.7031 175.275 41.4707 174.143 43.0137C173.01 44.5371 171.467 45.7188 169.514 46.5586C171.818 47.2031 173.635 48.4336 174.963 50.25C176.311 52.0469 176.984 54.1953 176.984 56.6953C176.984 60.5234 175.744 63.5312 173.264 65.7188C170.783 67.9062 167.277 69 162.746 69H147.951ZM153.576 49.0488V64.4004H162.863C165.48 64.4004 167.541 63.7266 169.045 62.3789C170.568 61.0117 171.33 59.1367 171.33 56.7539C171.33 51.6172 168.537 49.0488 162.951 49.0488H153.576ZM153.576 44.5371H162.072C164.533 44.5371 166.496 43.9219 167.961 42.6914C169.445 41.4609 170.188 39.791 170.188 37.6816C170.188 35.3379 169.504 33.6387 168.137 32.584C166.77 31.5098 164.689 30.9727 161.896 30.9727H153.576V44.5371ZM183.049 52.8574C183.049 49.752 183.654 46.959 184.865 44.4785C186.096 41.998 187.795 40.084 189.963 38.7363C192.15 37.3887 194.641 36.7148 197.434 36.7148C201.75 36.7148 205.236 38.209 207.893 41.1973C210.568 44.1855 211.906 48.1602 211.906 53.1211V53.502C211.906 56.5879 211.311 59.3613 210.119 61.8223C208.947 64.2637 207.258 66.168 205.051 67.5352C202.863 68.9023 200.344 69.5859 197.492 69.5859C193.195 69.5859 189.709 68.0918 187.033 65.1035C184.377 62.1152 183.049 58.1602 183.049 53.2383V52.8574ZM188.498 53.502C188.498 57.0176 189.309 59.8398 190.93 61.9688C192.57 64.0977 194.758 65.1621 197.492 65.1621C200.246 65.1621 202.434 64.0879 204.055 61.9395C205.676 59.7715 206.486 56.7441 206.486 52.8574C206.486 49.3809 205.656 46.5684 203.996 44.4199C202.355 42.252 200.168 41.168 197.434 41.168C194.758 41.168 192.6 42.2324 190.959 44.3613C189.318 46.4902 188.498 49.5371 188.498 53.502ZM217.268 52.8574C217.268 49.752 217.873 46.959 219.084 44.4785C220.314 41.998 222.014 40.084 224.182 38.7363C226.369 37.3887 228.859 36.7148 231.652 36.7148C235.969 36.7148 239.455 38.209 242.111 41.1973C244.787 44.1855 246.125 48.1602 246.125 53.1211V53.502C246.125 56.5879 245.529 59.3613 244.338 61.8223C243.166 64.2637 241.477 66.168 239.27 67.5352C237.082 68.9023 234.562 69.5859 231.711 69.5859C227.414 69.5859 223.928 68.0918 221.252 65.1035C218.596 62.1152 217.268 58.1602 217.268 53.2383V52.8574ZM222.717 53.502C222.717 57.0176 223.527 59.8398 225.148 61.9688C226.789 64.0977 228.977 65.1621 231.711 65.1621C234.465 65.1621 236.652 64.0879 238.273 61.9395C239.895 59.7715 240.705 56.7441 240.705 52.8574C240.705 49.3809 239.875 46.5684 238.215 44.4199C236.574 42.252 234.387 41.168 231.652 41.168C228.977 41.168 226.818 42.2324 225.178 44.3613C223.537 46.4902 222.717 49.5371 222.717 53.502ZM260.275 29.625V37.3008H266.193V41.4902H260.275V61.1484C260.275 62.418 260.539 63.375 261.066 64.0195C261.594 64.6445 262.492 64.957 263.762 64.957C264.387 64.957 265.246 64.8398 266.34 64.6055V69C264.914 69.3906 263.527 69.5859 262.18 69.5859C259.758 69.5859 257.932 68.8535 256.701 67.3887C255.471 65.9238 254.855 63.8438 254.855 61.1484V41.4902H249.084V37.3008H254.855V29.625H260.275ZM291.008 60.5918C291.008 59.127 290.451 57.9941 289.338 57.1934C288.244 56.373 286.32 55.6699 283.566 55.084C280.832 54.498 278.654 53.7949 277.033 52.9746C275.432 52.1543 274.24 51.1777 273.459 50.0449C272.697 48.9121 272.316 47.5645 272.316 46.002C272.316 43.4043 273.41 41.207 275.598 39.4102C277.805 37.6133 280.617 36.7148 284.035 36.7148C287.629 36.7148 290.539 37.6426 292.766 39.498C295.012 41.3535 296.135 43.7266 296.135 46.6172H290.686C290.686 45.1328 290.051 43.8535 288.781 42.7793C287.531 41.7051 285.949 41.168 284.035 41.168C282.062 41.168 280.52 41.5977 279.406 42.457C278.293 43.3164 277.736 44.4395 277.736 45.8262C277.736 47.1348 278.254 48.1211 279.289 48.7852C280.324 49.4492 282.189 50.084 284.885 50.6895C287.6 51.2949 289.797 52.0176 291.477 52.8574C293.156 53.6973 294.396 54.7129 295.197 55.9043C296.018 57.0762 296.428 58.5117 296.428 60.2109C296.428 63.043 295.295 65.3184 293.029 67.0371C290.764 68.7363 287.824 69.5859 284.211 69.5859C281.672 69.5859 279.426 69.1367 277.473 68.2383C275.52 67.3398 273.986 66.0898 272.873 64.4883C271.779 62.8672 271.232 61.1191 271.232 59.2441H276.652C276.75 61.0605 277.473 62.5059 278.82 63.5801C280.188 64.6348 281.984 65.1621 284.211 65.1621C286.262 65.1621 287.902 64.752 289.133 63.9316C290.383 63.0918 291.008 61.9785 291.008 60.5918ZM310.842 29.625V37.3008H316.76V41.4902H310.842V61.1484C310.842 62.418 311.105 63.375 311.633 64.0195C312.16 64.6445 313.059 64.957 314.328 64.957C314.953 64.957 315.812 64.8398 316.906 64.6055V69C315.48 69.3906 314.094 69.5859 312.746 69.5859C310.324 69.5859 308.498 68.8535 307.268 67.3887C306.037 65.9238 305.422 63.8438 305.422 61.1484V41.4902H299.65V37.3008H305.422V29.625H310.842ZM338.439 42.1641C337.619 42.0273 336.73 41.959 335.773 41.959C332.219 41.959 329.807 43.4727 328.537 46.5V69H323.117V37.3008H328.391L328.479 40.9629C330.256 38.1309 332.775 36.7148 336.037 36.7148C337.092 36.7148 337.893 36.8516 338.439 37.125V42.1641ZM361.848 69C361.535 68.375 361.281 67.2617 361.086 65.6602C358.566 68.2773 355.559 69.5859 352.062 69.5859C348.938 69.5859 346.369 68.707 344.357 66.9492C342.365 65.1719 341.369 62.9258 341.369 60.2109C341.369 56.9102 342.619 54.3516 345.119 52.5352C347.639 50.6992 351.174 49.7812 355.725 49.7812H360.998V47.291C360.998 45.3965 360.432 43.8926 359.299 42.7793C358.166 41.6465 356.496 41.0801 354.289 41.0801C352.355 41.0801 350.734 41.5684 349.426 42.5449C348.117 43.5215 347.463 44.7031 347.463 46.0898H342.014C342.014 44.5078 342.57 42.9844 343.684 41.5195C344.816 40.0352 346.34 38.8633 348.254 38.0039C350.188 37.1445 352.307 36.7148 354.611 36.7148C358.264 36.7148 361.125 37.6328 363.195 39.4688C365.266 41.2852 366.34 43.7949 366.418 46.998V61.5879C366.418 64.498 366.789 66.8125 367.531 68.5312V69H361.848ZM352.854 64.8691C354.553 64.8691 356.164 64.4297 357.688 63.5508C359.211 62.6719 360.314 61.5293 360.998 60.123V53.6191H356.75C350.109 53.6191 346.789 55.5625 346.789 59.4492C346.789 61.1484 347.355 62.4766 348.488 63.4336C349.621 64.3906 351.076 64.8691 352.854 64.8691ZM401.691 53.502C401.691 58.3262 400.588 62.2129 398.381 65.1621C396.174 68.1113 393.186 69.5859 389.416 69.5859C385.568 69.5859 382.541 68.3652 380.334 65.9238V81.1875H374.914V37.3008H379.865L380.129 40.8164C382.336 38.082 385.402 36.7148 389.328 36.7148C393.137 36.7148 396.145 38.1504 398.352 41.0215C400.578 43.8926 401.691 47.8867 401.691 53.0039V53.502ZM396.271 52.8867C396.271 49.3125 395.51 46.4902 393.986 44.4199C392.463 42.3496 390.373 41.3145 387.717 41.3145C384.436 41.3145 381.975 42.7695 380.334 45.6797V60.8262C381.955 63.7168 384.436 65.1621 387.775 65.1621C390.373 65.1621 392.434 64.1367 393.957 62.0859C395.5 60.0156 396.271 56.9492 396.271 52.8867Z" fill="#5E5E5E" fill-opacity="0.45"/>
<path d="M148.951 69V26.3438H162.896C167.525 26.3438 171.002 27.3008 173.326 29.2148C175.67 31.1289 176.842 33.9609 176.842 37.7109C176.842 39.7031 176.275 41.4707 175.143 43.0137C174.01 44.5371 172.467 45.7188 170.514 46.5586C172.818 47.2031 174.635 48.4336 175.963 50.25C177.311 52.0469 177.984 54.1953 177.984 56.6953C177.984 60.5234 176.744 63.5312 174.264 65.7188C171.783 67.9062 168.277 69 163.746 69H148.951ZM154.576 49.0488V64.4004H163.863C166.48 64.4004 168.541 63.7266 170.045 62.3789C171.568 61.0117 172.33 59.1367 172.33 56.7539C172.33 51.6172 169.537 49.0488 163.951 49.0488H154.576ZM154.576 44.5371H163.072C165.533 44.5371 167.496 43.9219 168.961 42.6914C170.445 41.4609 171.188 39.791 171.188 37.6816C171.188 35.3379 170.504 33.6387 169.137 32.584C167.77 31.5098 165.689 30.9727 162.896 30.9727H154.576V44.5371ZM184.049 52.8574C184.049 49.752 184.654 46.959 185.865 44.4785C187.096 41.998 188.795 40.084 190.963 38.7363C193.15 37.3887 195.641 36.7148 198.434 36.7148C202.75 36.7148 206.236 38.209 208.893 41.1973C211.568 44.1855 212.906 48.1602 212.906 53.1211V53.502C212.906 56.5879 212.311 59.3613 211.119 61.8223C209.947 64.2637 208.258 66.168 206.051 67.5352C203.863 68.9023 201.344 69.5859 198.492 69.5859C194.195 69.5859 190.709 68.0918 188.033 65.1035C185.377 62.1152 184.049 58.1602 184.049 53.2383V52.8574ZM189.498 53.502C189.498 57.0176 190.309 59.8398 191.93 61.9688C193.57 64.0977 195.758 65.1621 198.492 65.1621C201.246 65.1621 203.434 64.0879 205.055 61.9395C206.676 59.7715 207.486 56.7441 207.486 52.8574C207.486 49.3809 206.656 46.5684 204.996 44.4199C203.355 42.252 201.168 41.168 198.434 41.168C195.758 41.168 193.6 42.2324 191.959 44.3613C190.318 46.4902 189.498 49.5371 189.498 53.502ZM218.268 52.8574C218.268 49.752 218.873 46.959 220.084 44.4785C221.314 41.998 223.014 40.084 225.182 38.7363C227.369 37.3887 229.859 36.7148 232.652 36.7148C236.969 36.7148 240.455 38.209 243.111 41.1973C245.787 44.1855 247.125 48.1602 247.125 53.1211V53.502C247.125 56.5879 246.529 59.3613 245.338 61.8223C244.166 64.2637 242.477 66.168 240.27 67.5352C238.082 68.9023 235.562 69.5859 232.711 69.5859C228.414 69.5859 224.928 68.0918 222.252 65.1035C219.596 62.1152 218.268 58.1602 218.268 53.2383V52.8574ZM223.717 53.502C223.717 57.0176 224.527 59.8398 226.148 61.9688C227.789 64.0977 229.977 65.1621 232.711 65.1621C235.465 65.1621 237.652 64.0879 239.273 61.9395C240.895 59.7715 241.705 56.7441 241.705 52.8574C241.705 49.3809 240.875 46.5684 239.215 44.4199C237.574 42.252 235.387 41.168 232.652 41.168C229.977 41.168 227.818 42.2324 226.178 44.3613C224.537 46.4902 223.717 49.5371 223.717 53.502ZM261.275 29.625V37.3008H267.193V41.4902H261.275V61.1484C261.275 62.418 261.539 63.375 262.066 64.0195C262.594 64.6445 263.492 64.957 264.762 64.957C265.387 64.957 266.246 64.8398 267.34 64.6055V69C265.914 69.3906 264.527 69.5859 263.18 69.5859C260.758 69.5859 258.932 68.8535 257.701 67.3887C256.471 65.9238 255.855 63.8438 255.855 61.1484V41.4902H250.084V37.3008H255.855V29.625H261.275ZM292.008 60.5918C292.008 59.127 291.451 57.9941 290.338 57.1934C289.244 56.373 287.32 55.6699 284.566 55.084C281.832 54.498 279.654 53.7949 278.033 52.9746C276.432 52.1543 275.24 51.1777 274.459 50.0449C273.697 48.9121 273.316 47.5645 273.316 46.002C273.316 43.4043 274.41 41.207 276.598 39.4102C278.805 37.6133 281.617 36.7148 285.035 36.7148C288.629 36.7148 291.539 37.6426 293.766 39.498C296.012 41.3535 297.135 43.7266 297.135 46.6172H291.686C291.686 45.1328 291.051 43.8535 289.781 42.7793C288.531 41.7051 286.949 41.168 285.035 41.168C283.062 41.168 281.52 41.5977 280.406 42.457C279.293 43.3164 278.736 44.4395 278.736 45.8262C278.736 47.1348 279.254 48.1211 280.289 48.7852C281.324 49.4492 283.189 50.084 285.885 50.6895C288.6 51.2949 290.797 52.0176 292.477 52.8574C294.156 53.6973 295.396 54.7129 296.197 55.9043C297.018 57.0762 297.428 58.5117 297.428 60.2109C297.428 63.043 296.295 65.3184 294.029 67.0371C291.764 68.7363 288.824 69.5859 285.211 69.5859C282.672 69.5859 280.426 69.1367 278.473 68.2383C276.52 67.3398 274.986 66.0898 273.873 64.4883C272.779 62.8672 272.232 61.1191 272.232 59.2441H277.652C277.75 61.0605 278.473 62.5059 279.82 63.5801C281.188 64.6348 282.984 65.1621 285.211 65.1621C287.262 65.1621 288.902 64.752 290.133 63.9316C291.383 63.0918 292.008 61.9785 292.008 60.5918ZM311.842 29.625V37.3008H317.76V41.4902H311.842V61.1484C311.842 62.418 312.105 63.375 312.633 64.0195C313.16 64.6445 314.059 64.957 315.328 64.957C315.953 64.957 316.812 64.8398 317.906 64.6055V69C316.48 69.3906 315.094 69.5859 313.746 69.5859C311.324 69.5859 309.498 68.8535 308.268 67.3887C307.037 65.9238 306.422 63.8438 306.422 61.1484V41.4902H300.65V37.3008H306.422V29.625H311.842ZM339.439 42.1641C338.619 42.0273 337.73 41.959 336.773 41.959C333.219 41.959 330.807 43.4727 329.537 46.5V69H324.117V37.3008H329.391L329.479 40.9629C331.256 38.1309 333.775 36.7148 337.037 36.7148C338.092 36.7148 338.893 36.8516 339.439 37.125V42.1641ZM362.848 69C362.535 68.375 362.281 67.2617 362.086 65.6602C359.566 68.2773 356.559 69.5859 353.062 69.5859C349.938 69.5859 347.369 68.707 345.357 66.9492C343.365 65.1719 342.369 62.9258 342.369 60.2109C342.369 56.9102 343.619 54.3516 346.119 52.5352C348.639 50.6992 352.174 49.7812 356.725 49.7812H361.998V47.291C361.998 45.3965 361.432 43.8926 360.299 42.7793C359.166 41.6465 357.496 41.0801 355.289 41.0801C353.355 41.0801 351.734 41.5684 350.426 42.5449C349.117 43.5215 348.463 44.7031 348.463 46.0898H343.014C343.014 44.5078 343.57 42.9844 344.684 41.5195C345.816 40.0352 347.34 38.8633 349.254 38.0039C351.188 37.1445 353.307 36.7148 355.611 36.7148C359.264 36.7148 362.125 37.6328 364.195 39.4688C366.266 41.2852 367.34 43.7949 367.418 46.998V61.5879C367.418 64.498 367.789 66.8125 368.531 68.5312V69H362.848ZM353.854 64.8691C355.553 64.8691 357.164 64.4297 358.688 63.5508C360.211 62.6719 361.314 61.5293 361.998 60.123V53.6191H357.75C351.109 53.6191 347.789 55.5625 347.789 59.4492C347.789 61.1484 348.355 62.4766 349.488 63.4336C350.621 64.3906 352.076 64.8691 353.854 64.8691ZM402.691 53.502C402.691 58.3262 401.588 62.2129 399.381 65.1621C397.174 68.1113 394.186 69.5859 390.416 69.5859C386.568 69.5859 383.541 68.3652 381.334 65.9238V81.1875H375.914V37.3008H380.865L381.129 40.8164C383.336 38.082 386.402 36.7148 390.328 36.7148C394.137 36.7148 397.145 38.1504 399.352 41.0215C401.578 43.8926 402.691 47.8867 402.691 53.0039V53.502ZM397.271 52.8867C397.271 49.3125 396.51 46.4902 394.986 44.4199C393.463 42.3496 391.373 41.3145 388.717 41.3145C385.436 41.3145 382.975 42.7695 381.334 45.6797V60.8262C382.955 63.7168 385.436 65.1621 388.775 65.1621C391.373 65.1621 393.434 64.1367 394.957 62.0859C396.5 60.0156 397.271 56.9492 397.271 52.8867Z" fill="white"/>
<defs>
<linearGradient id="paint0_linear" x1="54" y1="-10" x2="54" y2="114" gradientUnits="userSpaceOnUse">
<stop stop-color="white" stop-opacity="0"/>
<stop offset="1" stop-opacity="0.33"/>
</linearGradient>
<linearGradient id="paint1_linear" x1="315.5" y1="-10" x2="315.5" y2="114" gradientUnits="userSpaceOnUse">
<stop stop-opacity="0.78"/>
<stop offset="0.454792" stop-color="#242424"/>
<stop offset="1" stop-color="#020202"/>
</linearGradient>
</defs>
</svg>
