<svg width="500" height="97" viewBox="0 0 500 97" fill="none" xmlns="http://www.w3.org/2000/svg">
<mask id="mask0" mask-type="alpha" maskUnits="userSpaceOnUse" x="0" y="0" width="500" height="97">
<rect width="500" height="97" rx="15" fill="#C4C4C4"/>
</mask>
<g mask="url(#mask0)">
<g style="mix-blend-mode:multiply">
<rect x="-15" y="-10" width="138" height="124" fill="#339933"/>
<rect x="-15" y="-10" width="138" height="124" fill="url(#paint0_linear)" fill-opacity="0.6"/>
</g>
<g style="mix-blend-mode:multiply">
<rect x="123" y="-10" width="385" height="124" fill="url(#paint1_linear)"/>
</g>
<path d="M477.594 110.308C478.297 110.308 479 110.308 479.703 109.956L500.094 98.003C501.148 97.2998 502.203 95.8936 502.203 94.4873V70.9326C502.203 69.5264 501.148 68.1201 500.094 67.417L479.703 55.4639C478.297 54.7608 476.539 54.7608 475.484 55.4639L455.094 67.417C453.688 68.1201 452.984 69.5264 452.984 70.9326V94.4873C452.984 95.8936 453.688 97.2998 455.094 98.003L460.367 101.167C462.828 102.573 463.883 102.573 464.938 102.573C468.805 102.573 471.266 100.112 471.266 96.2451V73.042C471.266 72.6905 470.914 72.3389 470.563 72.3389H468.102C467.75 72.3389 467.398 72.6905 467.398 73.042V96.2451C467.398 98.003 465.641 99.7608 462.477 98.003L456.852 94.8389L456.5 94.4873V70.9326L456.852 70.5811L477.242 58.628C477.594 58.628 477.594 58.628 477.945 58.628L498.336 70.5811C498.336 70.5811 498.336 70.5811 498.336 70.9326V94.4873C498.336 94.8389 498.336 94.8389 498.336 94.8389L477.945 106.792C477.594 106.792 477.242 106.792 477.242 106.792L471.969 103.628H471.617C470.211 104.331 469.859 104.683 468.453 105.034C468.102 105.034 467.75 105.386 468.805 105.737L475.484 109.956C476.188 110.308 476.891 110.308 477.594 110.308ZM494.117 87.4561C494.117 82.8858 490.953 81.8311 484.625 80.7764C478.297 80.0733 477.945 79.7217 477.945 78.3155C477.945 76.9092 478.297 75.503 482.867 75.503C487.086 75.503 488.844 76.2061 489.195 79.0186C489.547 79.3701 489.547 79.3701 489.898 79.3701H492.711C492.711 79.3701 492.711 79.3701 493.063 79.3701V79.0186C492.711 74.0967 489.547 71.6358 482.867 71.6358C477.242 71.6358 473.727 74.0967 473.727 78.3155C473.727 82.8858 477.242 83.9405 482.867 84.6436C489.547 85.3467 489.898 86.0498 489.898 87.4561C489.898 89.917 488.141 90.6201 483.922 90.6201C478.297 90.6201 477.242 89.2139 476.891 86.753C476.891 86.4014 476.539 86.0498 476.188 86.0498H473.727C473.375 86.0498 473.023 86.4014 473.023 86.753C473.023 90.2686 474.781 94.1358 483.922 94.1358C490.25 94.1358 494.117 91.6748 494.117 87.4561ZM513.102 69.878C513.102 67.417 511.344 65.6592 509.234 65.6592C507.125 65.6592 505.367 67.417 505.367 69.878C505.367 71.9873 507.125 73.7451 509.234 73.7451C511.344 73.7451 513.102 71.9873 513.102 69.878ZM512.398 69.878C512.398 71.6358 510.992 73.042 509.234 73.042C507.477 73.042 506.07 71.6358 506.07 69.878C506.07 67.7686 507.477 66.3623 509.234 66.3623C510.992 66.3623 512.398 67.7686 512.398 69.878ZM510.992 71.9873C510.641 71.6358 510.641 70.9326 510.641 70.5811C510.641 70.2295 510.641 69.878 509.938 69.878C510.289 69.5264 510.641 69.5264 510.641 68.8233C510.641 67.417 509.938 67.417 509.234 67.417H507.828V71.9873H508.531V70.2295H509.234C509.586 70.2295 509.586 70.2295 509.938 70.5811C509.938 70.5811 509.938 71.6358 509.938 71.9873H510.992ZM509.938 68.8233C509.938 69.1748 509.938 69.5264 509.234 69.5264H508.531V68.1201H509.234C509.586 68.1201 509.938 68.1201 509.938 68.8233ZM414.664 18.5498C414.664 17.8467 413.961 16.792 413.258 16.4405L391.813 4.13577C391.461 3.78421 391.109 3.78421 390.406 3.78421C390.055 3.78421 389.703 3.78421 389 4.13577L367.555 16.4405C366.852 16.792 366.5 17.8467 366.5 18.5498V51.9483C366.5 52.6514 366.5 53.003 366.852 53.3545C367.555 53.3545 367.906 53.3545 368.258 53.3545L381.266 45.9717C381.969 45.2686 382.32 44.5655 382.32 43.5108V28.042C382.32 26.9873 383.023 26.2842 383.727 25.9326L389 22.7686C389.703 22.417 390.055 22.417 390.406 22.417C390.758 22.417 391.461 22.417 391.813 22.7686L397.086 25.9326C398.141 26.2842 398.492 26.9873 398.492 28.042V43.5108C398.492 44.5655 398.844 45.2686 399.898 45.9717L412.555 53.3545C412.906 53.3545 413.609 53.3545 413.961 53.3545C414.313 53.003 414.664 52.6514 414.664 51.9483V18.5498ZM532.438 -17.6611C532.438 -18.7158 532.086 -19.4189 531.031 -20.122L518.375 -27.1533C517.32 -27.5049 516.266 -27.1533 516.266 -26.0986V6.94827C516.266 7.6514 515.563 8.00296 514.859 7.6514L509.586 4.8389C508.883 4.13577 507.828 4.13577 507.125 4.8389L485.328 17.1436C484.625 17.4951 484.273 18.5498 484.273 19.253V44.2139C484.273 45.2686 484.625 45.9717 485.328 46.6748L507.125 58.9795C507.828 59.3311 508.883 59.3311 509.586 58.9795L531.031 46.6748C532.086 45.9717 532.438 45.2686 532.438 44.2139V-17.6611ZM516.266 27.6905V36.128C516.266 36.4795 516.266 36.4795 515.914 36.8311L508.531 41.0498C508.531 41.0498 508.18 41.0498 507.828 41.0498L500.445 36.8311C500.445 36.4795 500.094 36.4795 500.094 36.128V27.6905C500.094 27.3389 500.445 26.9873 500.445 26.9873L507.828 22.7686C508.18 22.7686 508.531 22.7686 508.531 22.7686L515.914 26.9873C516.266 26.9873 516.266 27.3389 516.266 27.6905ZM590.094 27.3389C590.797 26.9873 591.5 25.9326 591.5 25.2295V18.9014C591.5 18.1983 590.797 17.1436 590.094 16.792L568.648 4.48734C567.945 3.78421 566.891 3.78421 566.188 4.48734L544.391 16.792C543.688 17.1436 543.336 18.1983 543.336 18.9014V43.8623C543.336 44.917 543.688 45.6201 544.391 46.3233L565.836 58.2764C566.539 58.9795 567.594 58.9795 568.297 58.2764L581.305 51.2451C582.359 50.542 582.359 49.4873 581.305 48.7842L559.859 36.4795C559.156 36.128 559.156 35.7764 559.156 35.4248V27.6905C559.156 26.9873 559.156 26.6358 559.859 26.2842L566.539 22.417C566.891 22.417 567.242 22.417 567.594 22.417L574.625 26.2842C574.977 26.6358 575.328 26.9873 575.328 27.6905V33.667C575.328 34.7217 576.383 35.4248 577.086 34.7217L590.094 27.3389ZM563.023 28.3936C562.672 28.7451 562.672 28.7451 562.672 29.0967V33.667C562.672 34.0186 562.672 34.0186 563.023 34.0186L566.891 36.4795C567.242 36.8311 567.242 36.8311 567.594 36.4795L571.813 34.0186C571.813 34.0186 571.813 34.0186 571.813 33.667V29.0967C571.813 28.7451 571.813 28.7451 571.813 28.3936L567.594 26.2842C567.242 25.9326 567.242 25.9326 566.891 26.2842L563.023 28.3936ZM473.375 43.8623V19.253C473.375 18.1983 473.023 17.1436 471.969 16.792L450.523 4.48734C449.82 4.13577 448.766 4.13577 448.063 4.48734L426.617 16.792C425.914 17.1436 425.211 18.1983 425.211 19.253V43.8623C425.211 44.917 425.914 45.6201 426.617 45.9717L448.063 58.628C449.117 58.9795 449.82 58.9795 450.875 58.628L472.32 45.9717C472.672 45.6201 473.375 45.2686 473.375 44.5655C473.375 44.2139 473.375 44.2139 473.375 43.8623ZM447.359 -0.0829773V0.268585H447.008L447.359 -0.0829773Z" fill="white" fill-opacity="0.07"/>
</g>
<path d="M61.9141 77.5859C62.207 77.5859 62.5 77.5859 62.793 77.4395L71.2891 72.459C71.7285 72.166 72.168 71.5801 72.168 70.9941V61.1797C72.168 60.5938 71.7285 60.0078 71.2891 59.7148L62.793 54.7344C62.207 54.4414 61.4746 54.4414 61.0352 54.7344L52.5391 59.7148C51.9531 60.0078 51.6602 60.5938 51.6602 61.1797V70.9941C51.6602 71.5801 51.9531 72.166 52.5391 72.459L54.7363 73.7773C55.7617 74.3633 56.2012 74.3633 56.6406 74.3633C58.252 74.3633 59.2773 73.3379 59.2773 71.7266V62.0586C59.2773 61.9121 59.1309 61.7656 58.9844 61.7656H57.959C57.8125 61.7656 57.666 61.9121 57.666 62.0586V71.7266C57.666 72.459 56.9336 73.1914 55.6152 72.459L53.2715 71.1406L53.125 70.9941V61.1797L53.2715 61.0332L61.7676 56.0527C61.9141 56.0527 61.9141 56.0527 62.0605 56.0527L70.5566 61.0332C70.5566 61.0332 70.5566 61.0332 70.5566 61.1797V70.9941C70.5566 71.1406 70.5566 71.1406 70.5566 71.1406L62.0605 76.1211C61.9141 76.1211 61.7676 76.1211 61.7676 76.1211L59.5703 74.8027H59.4238C58.8379 75.0957 58.6914 75.2422 58.1055 75.3887C57.959 75.3887 57.8125 75.5352 58.252 75.6816L61.0352 77.4395C61.3281 77.5859 61.6211 77.5859 61.9141 77.5859ZM68.7988 68.0645C68.7988 66.1602 67.4805 65.7207 64.8438 65.2812C62.207 64.9883 62.0605 64.8418 62.0605 64.2559C62.0605 63.6699 62.207 63.084 64.1113 63.084C65.8691 63.084 66.6016 63.377 66.748 64.5488C66.8945 64.6953 66.8945 64.6953 67.041 64.6953H68.2129C68.2129 64.6953 68.2129 64.6953 68.3594 64.6953V64.5488C68.2129 62.498 66.8945 61.4727 64.1113 61.4727C61.7676 61.4727 60.3027 62.498 60.3027 64.2559C60.3027 66.1602 61.7676 66.5996 64.1113 66.8926C66.8945 67.1855 67.041 67.4785 67.041 68.0645C67.041 69.0898 66.3086 69.3828 64.5508 69.3828C62.207 69.3828 61.7676 68.7969 61.6211 67.7715C61.6211 67.625 61.4746 67.4785 61.3281 67.4785H60.3027C60.1562 67.4785 60.0098 67.625 60.0098 67.7715C60.0098 69.2363 60.7422 70.8477 64.5508 70.8477C67.1875 70.8477 68.7988 69.8223 68.7988 68.0645ZM76.709 60.7402C76.709 59.7148 75.9766 58.9824 75.0977 58.9824C74.2188 58.9824 73.4863 59.7148 73.4863 60.7402C73.4863 61.6191 74.2188 62.3516 75.0977 62.3516C75.9766 62.3516 76.709 61.6191 76.709 60.7402ZM76.416 60.7402C76.416 61.4727 75.8301 62.0586 75.0977 62.0586C74.3652 62.0586 73.7793 61.4727 73.7793 60.7402C73.7793 59.8613 74.3652 59.2754 75.0977 59.2754C75.8301 59.2754 76.416 59.8613 76.416 60.7402ZM75.8301 61.6191C75.6836 61.4727 75.6836 61.1797 75.6836 61.0332C75.6836 60.8867 75.6836 60.7402 75.3906 60.7402C75.5371 60.5938 75.6836 60.5938 75.6836 60.3008C75.6836 59.7148 75.3906 59.7148 75.0977 59.7148H74.5117V61.6191H74.8047V60.8867H75.0977C75.2441 60.8867 75.2441 60.8867 75.3906 61.0332C75.3906 61.0332 75.3906 61.4727 75.3906 61.6191H75.8301ZM75.3906 60.3008C75.3906 60.4473 75.3906 60.5938 75.0977 60.5938H74.8047V60.0078H75.0977C75.2441 60.0078 75.3906 60.0078 75.3906 60.3008ZM35.6934 39.3535C35.6934 39.0605 35.4004 38.6211 35.1074 38.4746L26.1719 33.3477C26.0254 33.2012 25.8789 33.2012 25.5859 33.2012C25.4395 33.2012 25.293 33.2012 25 33.3477L16.0645 38.4746C15.7715 38.6211 15.625 39.0605 15.625 39.3535V53.2695C15.625 53.5625 15.625 53.709 15.7715 53.8555C16.0645 53.8555 16.2109 53.8555 16.3574 53.8555L21.7773 50.7793C22.0703 50.4863 22.2168 50.1934 22.2168 49.7539V43.3086C22.2168 42.8691 22.5098 42.5762 22.8027 42.4297L25 41.1113C25.293 40.9648 25.4395 40.9648 25.5859 40.9648C25.7324 40.9648 26.0254 40.9648 26.1719 41.1113L28.3691 42.4297C28.8086 42.5762 28.9551 42.8691 28.9551 43.3086V49.7539C28.9551 50.1934 29.1016 50.4863 29.541 50.7793L34.8145 53.8555C34.9609 53.8555 35.2539 53.8555 35.4004 53.8555C35.5469 53.709 35.6934 53.5625 35.6934 53.2695V39.3535ZM84.7656 24.2656C84.7656 23.8262 84.6191 23.5332 84.1797 23.2402L78.9062 20.3105C78.4668 20.1641 78.0273 20.3105 78.0273 20.75V34.5195C78.0273 34.8125 77.7344 34.959 77.4414 34.8125L75.2441 33.6406C74.9512 33.3477 74.5117 33.3477 74.2188 33.6406L65.1367 38.7676C64.8438 38.9141 64.6973 39.3535 64.6973 39.6465V50.0469C64.6973 50.4863 64.8438 50.7793 65.1367 51.0723L74.2188 56.1992C74.5117 56.3457 74.9512 56.3457 75.2441 56.1992L84.1797 51.0723C84.6191 50.7793 84.7656 50.4863 84.7656 50.0469V24.2656ZM78.0273 43.1621V46.6777C78.0273 46.8242 78.0273 46.8242 77.8809 46.9707L74.8047 48.7285C74.8047 48.7285 74.6582 48.7285 74.5117 48.7285L71.4355 46.9707C71.4355 46.8242 71.2891 46.8242 71.2891 46.6777V43.1621C71.2891 43.0156 71.4355 42.8691 71.4355 42.8691L74.5117 41.1113C74.6582 41.1113 74.8047 41.1113 74.8047 41.1113L77.8809 42.8691C78.0273 42.8691 78.0273 43.0156 78.0273 43.1621ZM108.789 43.0156C109.082 42.8691 109.375 42.4297 109.375 42.1367V39.5C109.375 39.207 109.082 38.7676 108.789 38.6211L99.8535 33.4941C99.5605 33.2012 99.1211 33.2012 98.8281 33.4941L89.7461 38.6211C89.4531 38.7676 89.3066 39.207 89.3066 39.5V49.9004C89.3066 50.3398 89.4531 50.6328 89.7461 50.9258L98.6816 55.9062C98.9746 56.1992 99.4141 56.1992 99.707 55.9062L105.127 52.9766C105.566 52.6836 105.566 52.2441 105.127 51.9512L96.1914 46.8242C95.8984 46.6777 95.8984 46.5312 95.8984 46.3848V43.1621C95.8984 42.8691 95.8984 42.7227 96.1914 42.5762L98.9746 40.9648C99.1211 40.9648 99.2676 40.9648 99.4141 40.9648L102.344 42.5762C102.49 42.7227 102.637 42.8691 102.637 43.1621V45.6523C102.637 46.0918 103.076 46.3848 103.369 46.0918L108.789 43.0156ZM97.5098 43.4551C97.3633 43.6016 97.3633 43.6016 97.3633 43.748V45.6523C97.3633 45.7988 97.3633 45.7988 97.5098 45.7988L99.1211 46.8242C99.2676 46.9707 99.2676 46.9707 99.4141 46.8242L101.172 45.7988C101.172 45.7988 101.172 45.7988 101.172 45.6523V43.748C101.172 43.6016 101.172 43.6016 101.172 43.4551L99.4141 42.5762C99.2676 42.4297 99.2676 42.4297 99.1211 42.5762L97.5098 43.4551ZM60.1562 49.9004V39.6465C60.1562 39.207 60.0098 38.7676 59.5703 38.6211L50.6348 33.4941C50.3418 33.3477 49.9023 33.3477 49.6094 33.4941L40.6738 38.6211C40.3809 38.7676 40.0879 39.207 40.0879 39.6465V49.9004C40.0879 50.3398 40.3809 50.6328 40.6738 50.7793L49.6094 56.0527C50.0488 56.1992 50.3418 56.1992 50.7812 56.0527L59.7168 50.7793C59.8633 50.6328 60.1562 50.4863 60.1562 50.1934C60.1562 50.0469 60.1562 50.0469 60.1562 49.9004ZM49.3164 31.5898V31.7363H49.1699L49.3164 31.5898Z" fill="#5E5E5E" fill-opacity="0.45"/>
<path d="M62.9141 77.5859C63.207 77.5859 63.5 77.5859 63.793 77.4395L72.2891 72.459C72.7285 72.166 73.168 71.5801 73.168 70.9941V61.1797C73.168 60.5938 72.7285 60.0078 72.2891 59.7148L63.793 54.7344C63.207 54.4414 62.4746 54.4414 62.0352 54.7344L53.5391 59.7148C52.9531 60.0078 52.6602 60.5938 52.6602 61.1797V70.9941C52.6602 71.5801 52.9531 72.166 53.5391 72.459L55.7363 73.7773C56.7617 74.3633 57.2012 74.3633 57.6406 74.3633C59.252 74.3633 60.2773 73.3379 60.2773 71.7266V62.0586C60.2773 61.9121 60.1309 61.7656 59.9844 61.7656H58.959C58.8125 61.7656 58.666 61.9121 58.666 62.0586V71.7266C58.666 72.459 57.9336 73.1914 56.6152 72.459L54.2715 71.1406L54.125 70.9941V61.1797L54.2715 61.0332L62.7676 56.0527C62.9141 56.0527 62.9141 56.0527 63.0605 56.0527L71.5566 61.0332C71.5566 61.0332 71.5566 61.0332 71.5566 61.1797V70.9941C71.5566 71.1406 71.5566 71.1406 71.5566 71.1406L63.0605 76.1211C62.9141 76.1211 62.7676 76.1211 62.7676 76.1211L60.5703 74.8027H60.4238C59.8379 75.0957 59.6914 75.2422 59.1055 75.3887C58.959 75.3887 58.8125 75.5352 59.252 75.6816L62.0352 77.4395C62.3281 77.5859 62.6211 77.5859 62.9141 77.5859ZM69.7988 68.0645C69.7988 66.1602 68.4805 65.7207 65.8438 65.2812C63.207 64.9883 63.0605 64.8418 63.0605 64.2559C63.0605 63.6699 63.207 63.084 65.1113 63.084C66.8691 63.084 67.6016 63.377 67.748 64.5488C67.8945 64.6953 67.8945 64.6953 68.041 64.6953H69.2129C69.2129 64.6953 69.2129 64.6953 69.3594 64.6953V64.5488C69.2129 62.498 67.8945 61.4727 65.1113 61.4727C62.7676 61.4727 61.3027 62.498 61.3027 64.2559C61.3027 66.1602 62.7676 66.5996 65.1113 66.8926C67.8945 67.1855 68.041 67.4785 68.041 68.0645C68.041 69.0898 67.3086 69.3828 65.5508 69.3828C63.207 69.3828 62.7676 68.7969 62.6211 67.7715C62.6211 67.625 62.4746 67.4785 62.3281 67.4785H61.3027C61.1562 67.4785 61.0098 67.625 61.0098 67.7715C61.0098 69.2363 61.7422 70.8477 65.5508 70.8477C68.1875 70.8477 69.7988 69.8223 69.7988 68.0645ZM77.709 60.7402C77.709 59.7148 76.9766 58.9824 76.0977 58.9824C75.2188 58.9824 74.4863 59.7148 74.4863 60.7402C74.4863 61.6191 75.2188 62.3516 76.0977 62.3516C76.9766 62.3516 77.709 61.6191 77.709 60.7402ZM77.416 60.7402C77.416 61.4727 76.8301 62.0586 76.0977 62.0586C75.3652 62.0586 74.7793 61.4727 74.7793 60.7402C74.7793 59.8613 75.3652 59.2754 76.0977 59.2754C76.8301 59.2754 77.416 59.8613 77.416 60.7402ZM76.8301 61.6191C76.6836 61.4727 76.6836 61.1797 76.6836 61.0332C76.6836 60.8867 76.6836 60.7402 76.3906 60.7402C76.5371 60.5938 76.6836 60.5938 76.6836 60.3008C76.6836 59.7148 76.3906 59.7148 76.0977 59.7148H75.5117V61.6191H75.8047V60.8867H76.0977C76.2441 60.8867 76.2441 60.8867 76.3906 61.0332C76.3906 61.0332 76.3906 61.4727 76.3906 61.6191H76.8301ZM76.3906 60.3008C76.3906 60.4473 76.3906 60.5938 76.0977 60.5938H75.8047V60.0078H76.0977C76.2441 60.0078 76.3906 60.0078 76.3906 60.3008ZM36.6934 39.3535C36.6934 39.0605 36.4004 38.6211 36.1074 38.4746L27.1719 33.3477C27.0254 33.2012 26.8789 33.2012 26.5859 33.2012C26.4395 33.2012 26.293 33.2012 26 33.3477L17.0645 38.4746C16.7715 38.6211 16.625 39.0605 16.625 39.3535V53.2695C16.625 53.5625 16.625 53.709 16.7715 53.8555C17.0645 53.8555 17.2109 53.8555 17.3574 53.8555L22.7773 50.7793C23.0703 50.4863 23.2168 50.1934 23.2168 49.7539V43.3086C23.2168 42.8691 23.5098 42.5762 23.8027 42.4297L26 41.1113C26.293 40.9648 26.4395 40.9648 26.5859 40.9648C26.7324 40.9648 27.0254 40.9648 27.1719 41.1113L29.3691 42.4297C29.8086 42.5762 29.9551 42.8691 29.9551 43.3086V49.7539C29.9551 50.1934 30.1016 50.4863 30.541 50.7793L35.8145 53.8555C35.9609 53.8555 36.2539 53.8555 36.4004 53.8555C36.5469 53.709 36.6934 53.5625 36.6934 53.2695V39.3535ZM85.7656 24.2656C85.7656 23.8262 85.6191 23.5332 85.1797 23.2402L79.9062 20.3105C79.4668 20.1641 79.0273 20.3105 79.0273 20.75V34.5195C79.0273 34.8125 78.7344 34.959 78.4414 34.8125L76.2441 33.6406C75.9512 33.3477 75.5117 33.3477 75.2188 33.6406L66.1367 38.7676C65.8438 38.9141 65.6973 39.3535 65.6973 39.6465V50.0469C65.6973 50.4863 65.8438 50.7793 66.1367 51.0723L75.2188 56.1992C75.5117 56.3457 75.9512 56.3457 76.2441 56.1992L85.1797 51.0723C85.6191 50.7793 85.7656 50.4863 85.7656 50.0469V24.2656ZM79.0273 43.1621V46.6777C79.0273 46.8242 79.0273 46.8242 78.8809 46.9707L75.8047 48.7285C75.8047 48.7285 75.6582 48.7285 75.5117 48.7285L72.4355 46.9707C72.4355 46.8242 72.2891 46.8242 72.2891 46.6777V43.1621C72.2891 43.0156 72.4355 42.8691 72.4355 42.8691L75.5117 41.1113C75.6582 41.1113 75.8047 41.1113 75.8047 41.1113L78.8809 42.8691C79.0273 42.8691 79.0273 43.0156 79.0273 43.1621ZM109.789 43.0156C110.082 42.8691 110.375 42.4297 110.375 42.1367V39.5C110.375 39.207 110.082 38.7676 109.789 38.6211L100.854 33.4941C100.561 33.2012 100.121 33.2012 99.8281 33.4941L90.7461 38.6211C90.4531 38.7676 90.3066 39.207 90.3066 39.5V49.9004C90.3066 50.3398 90.4531 50.6328 90.7461 50.9258L99.6816 55.9062C99.9746 56.1992 100.414 56.1992 100.707 55.9062L106.127 52.9766C106.566 52.6836 106.566 52.2441 106.127 51.9512L97.1914 46.8242C96.8984 46.6777 96.8984 46.5312 96.8984 46.3848V43.1621C96.8984 42.8691 96.8984 42.7227 97.1914 42.5762L99.9746 40.9648C100.121 40.9648 100.268 40.9648 100.414 40.9648L103.344 42.5762C103.49 42.7227 103.637 42.8691 103.637 43.1621V45.6523C103.637 46.0918 104.076 46.3848 104.369 46.0918L109.789 43.0156ZM98.5098 43.4551C98.3633 43.6016 98.3633 43.6016 98.3633 43.748V45.6523C98.3633 45.7988 98.3633 45.7988 98.5098 45.7988L100.121 46.8242C100.268 46.9707 100.268 46.9707 100.414 46.8242L102.172 45.7988C102.172 45.7988 102.172 45.7988 102.172 45.6523V43.748C102.172 43.6016 102.172 43.6016 102.172 43.4551L100.414 42.5762C100.268 42.4297 100.268 42.4297 100.121 42.5762L98.5098 43.4551ZM61.1562 49.9004V39.6465C61.1562 39.207 61.0098 38.7676 60.5703 38.6211L51.6348 33.4941C51.3418 33.3477 50.9023 33.3477 50.6094 33.4941L41.6738 38.6211C41.3809 38.7676 41.0879 39.207 41.0879 39.6465V49.9004C41.0879 50.3398 41.3809 50.6328 41.6738 50.7793L50.6094 56.0527C51.0488 56.1992 51.3418 56.1992 51.7812 56.0527L60.7168 50.7793C60.8633 50.6328 61.1562 50.4863 61.1562 50.1934C61.1562 50.0469 61.1562 50.0469 61.1562 49.9004ZM50.3164 31.5898V31.7363H50.1699L50.3164 31.5898Z" fill="white"/>
<path d="M180.734 69H175.08L153.605 36.1289V69H147.951V26.3438H153.605L175.139 59.3613V26.3438H180.734V69ZM188.439 52.8574C188.439 49.752 189.045 46.959 190.256 44.4785C191.486 41.998 193.186 40.084 195.354 38.7363C197.541 37.3887 200.031 36.7148 202.824 36.7148C207.141 36.7148 210.627 38.209 213.283 41.1973C215.959 44.1855 217.297 48.1602 217.297 53.1211V53.502C217.297 56.5879 216.701 59.3613 215.51 61.8223C214.338 64.2637 212.648 66.168 210.441 67.5352C208.254 68.9023 205.734 69.5859 202.883 69.5859C198.586 69.5859 195.1 68.0918 192.424 65.1035C189.768 62.1152 188.439 58.1602 188.439 53.2383V52.8574ZM193.889 53.502C193.889 57.0176 194.699 59.8398 196.32 61.9688C197.961 64.0977 200.148 65.1621 202.883 65.1621C205.637 65.1621 207.824 64.0879 209.445 61.9395C211.066 59.7715 211.877 56.7441 211.877 52.8574C211.877 49.3809 211.047 46.5684 209.387 44.4199C207.746 42.252 205.559 41.168 202.824 41.168C200.148 41.168 197.99 42.2324 196.35 44.3613C194.709 46.4902 193.889 49.5371 193.889 53.502ZM222.775 52.8867C222.775 48.0234 223.928 44.1172 226.232 41.168C228.537 38.1992 231.555 36.7148 235.285 36.7148C238.996 36.7148 241.936 37.9844 244.104 40.5234V24H249.523V69H244.543L244.279 65.6016C242.111 68.2578 239.094 69.5859 235.227 69.5859C231.555 69.5859 228.557 68.082 226.232 65.0742C223.928 62.0664 222.775 58.1406 222.775 53.2969V52.8867ZM228.195 53.502C228.195 57.0957 228.938 59.9082 230.422 61.9395C231.906 63.9707 233.957 64.9863 236.574 64.9863C240.012 64.9863 242.521 63.4434 244.104 60.3574V45.7969C242.482 42.8086 239.992 41.3145 236.633 41.3145C233.977 41.3145 231.906 42.3398 230.422 44.3906C228.938 46.4414 228.195 49.4785 228.195 53.502ZM271.115 69.5859C266.818 69.5859 263.322 68.1797 260.627 65.3672C257.932 62.5352 256.584 58.7559 256.584 54.0293V53.0332C256.584 49.8887 257.18 47.0859 258.371 44.625C259.582 42.1445 261.262 40.2109 263.41 38.8242C265.578 37.418 267.922 36.7148 270.441 36.7148C274.562 36.7148 277.766 38.0723 280.051 40.7871C282.336 43.502 283.479 47.3887 283.479 52.4473V54.7031H262.004C262.082 57.8281 262.99 60.3574 264.729 62.291C266.486 64.2051 268.713 65.1621 271.408 65.1621C273.322 65.1621 274.943 64.7715 276.271 63.9902C277.6 63.209 278.762 62.1738 279.758 60.8848L283.068 63.4629C280.412 67.5449 276.428 69.5859 271.115 69.5859ZM270.441 41.168C268.254 41.168 266.418 41.9688 264.934 43.5703C263.449 45.1523 262.531 47.3789 262.18 50.25H278.059V49.8398C277.902 47.0859 277.16 44.957 275.832 43.4531C274.504 41.9297 272.707 41.168 270.441 41.168ZM308.498 26.3438H314.152V56.5488C314.152 60.6309 312.922 63.8242 310.461 66.1289C308.02 68.4336 304.758 69.5859 300.676 69.5859C296.438 69.5859 293.137 68.502 290.773 66.334C288.41 64.166 287.229 61.1289 287.229 57.2227H292.854C292.854 59.6641 293.518 61.5684 294.846 62.9355C296.193 64.3027 298.137 64.9863 300.676 64.9863C303 64.9863 304.875 64.2539 306.301 62.7891C307.746 61.3242 308.479 59.2734 308.498 56.6367V26.3438ZM336.301 49.9863C331.477 48.5996 327.961 46.9004 325.754 44.8887C323.566 42.8574 322.473 40.3574 322.473 37.3887C322.473 34.0293 323.811 31.2559 326.486 29.0684C329.182 26.8613 332.678 25.7578 336.975 25.7578C339.904 25.7578 342.512 26.3242 344.797 27.457C347.102 28.5898 348.879 30.1523 350.129 32.1445C351.398 34.1367 352.033 36.3145 352.033 38.6777H346.379C346.379 36.0996 345.559 34.0781 343.918 32.6133C342.277 31.1289 339.963 30.3867 336.975 30.3867C334.201 30.3867 332.033 31.002 330.471 32.2324C328.928 33.4434 328.156 35.1328 328.156 37.3008C328.156 39.0391 328.889 40.5137 330.354 41.7246C331.838 42.916 334.348 44.0098 337.883 45.0059C341.438 46.002 344.211 47.1055 346.203 48.3164C348.215 49.5078 349.699 50.9043 350.656 52.5059C351.633 54.1074 352.121 55.9922 352.121 58.1602C352.121 61.6172 350.773 64.3906 348.078 66.4805C345.383 68.5508 341.779 69.5859 337.268 69.5859C334.338 69.5859 331.604 69.0293 329.064 67.916C326.525 66.7832 324.562 65.2402 323.176 63.2871C321.809 61.334 321.125 59.1172 321.125 56.6367H326.779C326.779 59.2148 327.727 61.2559 329.621 62.7598C331.535 64.2441 334.084 64.9863 337.268 64.9863C340.236 64.9863 342.512 64.3809 344.094 63.1699C345.676 61.959 346.467 60.3086 346.467 58.2188C346.467 56.1289 345.734 54.5176 344.27 53.3848C342.805 52.2324 340.148 51.0996 336.301 49.9863Z" fill="#5E5E5E" fill-opacity="0.45"/>
<path d="M181.734 69H176.08L154.605 36.1289V69H148.951V26.3438H154.605L176.139 59.3613V26.3438H181.734V69ZM189.439 52.8574C189.439 49.752 190.045 46.959 191.256 44.4785C192.486 41.998 194.186 40.084 196.354 38.7363C198.541 37.3887 201.031 36.7148 203.824 36.7148C208.141 36.7148 211.627 38.209 214.283 41.1973C216.959 44.1855 218.297 48.1602 218.297 53.1211V53.502C218.297 56.5879 217.701 59.3613 216.51 61.8223C215.338 64.2637 213.648 66.168 211.441 67.5352C209.254 68.9023 206.734 69.5859 203.883 69.5859C199.586 69.5859 196.1 68.0918 193.424 65.1035C190.768 62.1152 189.439 58.1602 189.439 53.2383V52.8574ZM194.889 53.502C194.889 57.0176 195.699 59.8398 197.32 61.9688C198.961 64.0977 201.148 65.1621 203.883 65.1621C206.637 65.1621 208.824 64.0879 210.445 61.9395C212.066 59.7715 212.877 56.7441 212.877 52.8574C212.877 49.3809 212.047 46.5684 210.387 44.4199C208.746 42.252 206.559 41.168 203.824 41.168C201.148 41.168 198.99 42.2324 197.35 44.3613C195.709 46.4902 194.889 49.5371 194.889 53.502ZM223.775 52.8867C223.775 48.0234 224.928 44.1172 227.232 41.168C229.537 38.1992 232.555 36.7148 236.285 36.7148C239.996 36.7148 242.936 37.9844 245.104 40.5234V24H250.523V69H245.543L245.279 65.6016C243.111 68.2578 240.094 69.5859 236.227 69.5859C232.555 69.5859 229.557 68.082 227.232 65.0742C224.928 62.0664 223.775 58.1406 223.775 53.2969V52.8867ZM229.195 53.502C229.195 57.0957 229.938 59.9082 231.422 61.9395C232.906 63.9707 234.957 64.9863 237.574 64.9863C241.012 64.9863 243.521 63.4434 245.104 60.3574V45.7969C243.482 42.8086 240.992 41.3145 237.633 41.3145C234.977 41.3145 232.906 42.3398 231.422 44.3906C229.938 46.4414 229.195 49.4785 229.195 53.502ZM272.115 69.5859C267.818 69.5859 264.322 68.1797 261.627 65.3672C258.932 62.5352 257.584 58.7559 257.584 54.0293V53.0332C257.584 49.8887 258.18 47.0859 259.371 44.625C260.582 42.1445 262.262 40.2109 264.41 38.8242C266.578 37.418 268.922 36.7148 271.441 36.7148C275.562 36.7148 278.766 38.0723 281.051 40.7871C283.336 43.502 284.479 47.3887 284.479 52.4473V54.7031H263.004C263.082 57.8281 263.99 60.3574 265.729 62.291C267.486 64.2051 269.713 65.1621 272.408 65.1621C274.322 65.1621 275.943 64.7715 277.271 63.9902C278.6 63.209 279.762 62.1738 280.758 60.8848L284.068 63.4629C281.412 67.5449 277.428 69.5859 272.115 69.5859ZM271.441 41.168C269.254 41.168 267.418 41.9688 265.934 43.5703C264.449 45.1523 263.531 47.3789 263.18 50.25H279.059V49.8398C278.902 47.0859 278.16 44.957 276.832 43.4531C275.504 41.9297 273.707 41.168 271.441 41.168ZM309.498 26.3438H315.152V56.5488C315.152 60.6309 313.922 63.8242 311.461 66.1289C309.02 68.4336 305.758 69.5859 301.676 69.5859C297.438 69.5859 294.137 68.502 291.773 66.334C289.41 64.166 288.229 61.1289 288.229 57.2227H293.854C293.854 59.6641 294.518 61.5684 295.846 62.9355C297.193 64.3027 299.137 64.9863 301.676 64.9863C304 64.9863 305.875 64.2539 307.301 62.7891C308.746 61.3242 309.479 59.2734 309.498 56.6367V26.3438ZM337.301 49.9863C332.477 48.5996 328.961 46.9004 326.754 44.8887C324.566 42.8574 323.473 40.3574 323.473 37.3887C323.473 34.0293 324.811 31.2559 327.486 29.0684C330.182 26.8613 333.678 25.7578 337.975 25.7578C340.904 25.7578 343.512 26.3242 345.797 27.457C348.102 28.5898 349.879 30.1523 351.129 32.1445C352.398 34.1367 353.033 36.3145 353.033 38.6777H347.379C347.379 36.0996 346.559 34.0781 344.918 32.6133C343.277 31.1289 340.963 30.3867 337.975 30.3867C335.201 30.3867 333.033 31.002 331.471 32.2324C329.928 33.4434 329.156 35.1328 329.156 37.3008C329.156 39.0391 329.889 40.5137 331.354 41.7246C332.838 42.916 335.348 44.0098 338.883 45.0059C342.438 46.002 345.211 47.1055 347.203 48.3164C349.215 49.5078 350.699 50.9043 351.656 52.5059C352.633 54.1074 353.121 55.9922 353.121 58.1602C353.121 61.6172 351.773 64.3906 349.078 66.4805C346.383 68.5508 342.779 69.5859 338.268 69.5859C335.338 69.5859 332.604 69.0293 330.064 67.916C327.525 66.7832 325.562 65.2402 324.176 63.2871C322.809 61.334 322.125 59.1172 322.125 56.6367H327.779C327.779 59.2148 328.727 61.2559 330.621 62.7598C332.535 64.2441 335.084 64.9863 338.268 64.9863C341.236 64.9863 343.512 64.3809 345.094 63.1699C346.676 61.959 347.467 60.3086 347.467 58.2188C347.467 56.1289 346.734 54.5176 345.27 53.3848C343.805 52.2324 341.148 51.0996 337.301 49.9863Z" fill="white"/>
<defs>
<linearGradient id="paint0_linear" x1="54" y1="-10" x2="54" y2="114" gradientUnits="userSpaceOnUse">
<stop stop-color="white" stop-opacity="0"/>
<stop offset="1" stop-opacity="0.33"/>
</linearGradient>
<linearGradient id="paint1_linear" x1="315.5" y1="-10" x2="315.5" y2="114" gradientUnits="userSpaceOnUse">
<stop stop-opacity="0.78"/>
<stop offset="0.454792" stop-color="#242424"/>
<stop offset="1" stop-color="#020202"/>
</linearGradient>
</defs>
</svg>
