<svg width="500" height="97" viewBox="0 0 500 97" fill="none" xmlns="http://www.w3.org/2000/svg">
<mask id="mask0" mask-type="alpha" maskUnits="userSpaceOnUse" x="0" y="0" width="500" height="97">
<rect width="500" height="97" rx="15" fill="#C4C4C4"/>
</mask>
<g mask="url(#mask0)">
<g style="mix-blend-mode:multiply">
<rect x="-15" y="-10" width="138" height="124" fill="#30A9ED"/>
<rect x="-15" y="-10" width="138" height="124" fill="url(#paint0_linear)" fill-opacity="0.6"/>
</g>
<g style="mix-blend-mode:multiply">
<rect x="123" y="-10" width="385" height="124" fill="url(#paint1_linear)"/>
</g>
<path d="M528.773 -12.4089C526.078 -13.31 523.832 -14.2111 521.586 -14.6616C521.586 -16.4639 522.035 -18.2661 522.484 -20.0683C527.875 -46.6511 524.281 -68.2778 512.152 -75.4867C500.473 -82.245 481.156 -75.0361 461.391 -57.915C459.594 -56.5633 457.797 -54.7611 456 -52.9589C454.652 -54.3106 453.305 -55.2117 452.406 -56.5633C431.742 -74.5856 411.078 -82.245 398.949 -75.0361C387.27 -68.2778 383.676 -48.0028 388.617 -22.3211C389.066 -20.0683 389.516 -17.365 390.414 -15.1122C387.27 -14.2111 384.574 -13.31 381.879 -12.4089C358.07 -3.84828 341 9.21784 341 22.7345C341 36.7018 358.969 51.1196 384.125 59.6801C385.922 60.1307 388.168 61.0318 389.965 61.4823C389.516 64.1857 389.066 66.889 388.168 69.5923C383.676 94.3729 387.27 114.197 398.949 120.956C411.078 128.165 431.742 120.956 451.508 103.384C452.855 102.032 454.652 100.681 456 99.329C458.246 101.131 460.043 102.933 462.289 104.736C481.605 121.406 500.473 128.165 512.152 121.406C524.281 114.197 528.324 93.0213 523.383 66.889C522.934 65.0868 522.484 62.834 522.035 61.0318C523.383 60.5812 524.73 60.1307 526.078 59.6801C552.133 51.1196 571 37.1523 571 22.7345C571 9.21784 553.031 -4.29884 528.773 -12.4089ZM467.68 -50.7061C484.75 -65.5745 500.023 -70.9811 507.211 -66.9261C514.848 -62.8711 517.992 -44.8489 513.051 -21.8705C512.602 -20.0683 512.602 -18.7166 512.152 -17.365C501.82 -19.6177 491.938 -20.9694 481.605 -21.8705C475.766 -30.4311 469.477 -38.5411 462.738 -46.2006C464.535 -47.5522 465.883 -49.3544 467.68 -50.7061ZM416.02 46.1634C418.266 50.2184 420.512 53.8229 423.207 57.8779C416.02 56.9768 408.832 56.0757 402.094 54.2734C404.34 47.9657 406.586 41.2073 409.281 34.449C411.527 38.504 413.773 42.1084 416.02 46.1634ZM402.094 -7.90329C408.832 -9.70551 415.57 -10.6066 422.758 -11.5077C420.512 -7.90329 418.266 -3.84828 416.02 -0.243835C413.773 3.81116 411.527 7.41562 409.281 11.4706C406.586 4.71228 404.34 -1.5955 402.094 -7.90329ZM414.672 23.1851C417.367 16.8773 420.961 10.5695 424.105 4.71228C427.699 -1.14495 431.293 -7.00217 435.336 -12.8594C442.074 -13.31 448.812 -13.7605 456 -13.7605C462.738 -13.7605 469.926 -13.31 476.215 -12.8594C480.258 -7.00217 483.852 -1.14495 487.445 4.71228C490.59 10.5695 494.184 16.4267 496.879 22.7345C494.184 29.0423 491.039 35.3501 487.445 41.2073C483.852 47.0645 480.258 52.9218 476.664 58.779C469.926 59.2296 462.738 59.6801 456 59.6801C448.812 59.6801 442.074 59.2296 435.336 58.779C431.293 52.9218 427.699 47.0645 424.105 41.2073C420.961 35.3501 417.816 29.0423 414.672 23.1851ZM495.531 46.1634C498.227 42.1084 500.023 38.0534 502.27 33.9984C504.965 40.7568 507.66 47.0645 509.906 53.8229C502.719 55.6251 495.98 56.9768 488.793 57.4273C491.039 53.8229 493.285 49.7679 495.531 46.1634ZM502.27 11.4706C500.023 7.41562 497.777 3.81116 495.531 -0.243835C493.285 -3.84828 491.039 -7.90329 488.793 -11.5077C495.98 -10.6066 503.168 -9.25496 509.457 -7.90329C507.211 -1.14495 504.965 5.16283 502.27 11.4706ZM456 -38.9917C460.492 -34.0355 464.984 -28.6289 469.027 -22.7716C460.492 -23.2222 451.508 -23.2222 442.523 -22.7716C447.016 -28.6289 451.508 -34.0355 456 -38.9917ZM403.891 -66.9261C411.527 -70.9811 428.148 -64.6734 445.668 -49.3544C447.016 -48.0028 447.914 -47.1017 449.262 -46.2006C442.074 -38.5411 435.785 -30.4311 429.945 -21.8705C419.613 -20.9694 409.73 -19.6177 399.848 -17.365C398.949 -19.6177 398.5 -21.8705 398.051 -24.5739C394.008 -46.2006 396.703 -62.4206 403.891 -66.9261ZM392.66 52.0207C390.863 51.5701 389.066 51.1196 387.27 50.2184C377.836 47.0645 366.605 42.559 358.969 36.2512C354.477 33.0973 351.332 28.1412 350.434 22.7345C350.434 14.6245 364.809 3.81116 385.023 -3.39773C387.719 -4.29884 390.414 -4.7494 393.109 -5.65051C395.805 4.26173 399.848 13.7234 403.891 23.1851C399.398 32.1962 395.805 42.1084 392.66 52.0207ZM445.219 96.1752C437.582 102.933 429.047 108.34 419.613 111.945C414.672 114.648 409.281 114.648 403.891 112.846C396.703 108.34 394.008 92.5707 398.051 71.3946C398.5 68.6912 398.949 65.9879 399.398 63.7351C409.73 65.9879 419.613 67.3396 429.945 68.2407C435.785 76.3507 442.523 84.4607 449.262 92.1201C447.914 93.4718 446.566 94.8235 445.219 96.1752ZM456 85.3618C451.508 80.4057 447.016 74.999 442.523 68.6912C447.016 69.1418 451.508 69.1418 456 69.1418C460.492 69.1418 464.984 69.1418 469.477 68.6912C465.434 74.5485 460.941 79.9551 456 85.3618ZM514.848 98.8785C514.398 104.285 511.703 109.241 507.66 112.846C500.473 116.901 485.199 111.494 468.578 97.5268C466.781 95.7246 464.984 93.9224 462.738 92.1201C469.926 84.4607 476.215 76.8012 482.055 68.2407C492.387 67.3396 502.27 65.5373 512.602 63.2846C513.051 65.0868 513.5 66.889 513.949 68.6912C515.746 78.6035 516.195 88.9663 514.848 98.8785ZM522.934 50.2184C521.586 50.669 520.688 51.1196 519.34 51.5701C516.195 41.6579 512.152 32.1962 507.66 22.7345C512.152 13.7234 515.746 4.26173 518.891 -5.65051C521.137 -4.7494 523.383 -4.29884 525.629 -3.39773C546.293 3.81116 561.117 14.6245 561.117 22.7345C561.117 31.2951 545.395 43.0095 522.934 50.2184ZM456 43.4601C467.23 43.4601 476.215 34.449 476.215 22.7345C476.215 11.4706 467.23 2.4595 456 2.4595C444.32 2.4595 435.336 11.4706 435.336 22.7345C435.336 34.449 444.32 43.4601 456 43.4601Z" fill="white" fill-opacity="0.08"/>
</g>
<path d="M85.2812 38.0312C84.4375 37.75 83.7344 37.4688 83.0312 37.3281C83.0312 36.7656 83.1719 36.2031 83.3125 35.6406C85 27.3438 83.875 20.5938 80.0781 18.3438C76.4219 16.2344 70.375 18.4844 64.1875 23.8281C63.625 24.25 63.0625 24.8125 62.5 25.375C62.0781 24.9531 61.6562 24.6719 61.375 24.25C54.9062 18.625 48.4375 16.2344 44.6406 18.4844C40.9844 20.5938 39.8594 26.9219 41.4062 34.9375C41.5469 35.6406 41.6875 36.4844 41.9688 37.1875C40.9844 37.4688 40.1406 37.75 39.2969 38.0312C31.8438 40.7031 26.5 44.7812 26.5 49C26.5 53.3594 32.125 57.8594 40 60.5312C40.5625 60.6719 41.2656 60.9531 41.8281 61.0938C41.6875 61.9375 41.5469 62.7812 41.2656 63.625C39.8594 71.3594 40.9844 77.5469 44.6406 79.6562C48.4375 81.9062 54.9062 79.6562 61.0938 74.1719C61.5156 73.75 62.0781 73.3281 62.5 72.9062C63.2031 73.4688 63.7656 74.0312 64.4688 74.5938C70.5156 79.7969 76.4219 81.9062 80.0781 79.7969C83.875 77.5469 85.1406 70.9375 83.5938 62.7812C83.4531 62.2188 83.3125 61.5156 83.1719 60.9531C83.5938 60.8125 84.0156 60.6719 84.4375 60.5312C92.5938 57.8594 98.5 53.5 98.5 49C98.5 44.7812 92.875 40.5625 85.2812 38.0312ZM66.1562 26.0781C71.5 21.4375 76.2812 19.75 78.5312 21.0156C80.9219 22.2812 81.9062 27.9062 80.3594 35.0781C80.2188 35.6406 80.2188 36.0625 80.0781 36.4844C76.8438 35.7812 73.75 35.3594 70.5156 35.0781C68.6875 32.4062 66.7188 29.875 64.6094 27.4844C65.1719 27.0625 65.5938 26.5 66.1562 26.0781ZM49.9844 56.3125C50.6875 57.5781 51.3906 58.7031 52.2344 59.9688C49.9844 59.6875 47.7344 59.4062 45.625 58.8438C46.3281 56.875 47.0312 54.7656 47.875 52.6562C48.5781 53.9219 49.2812 55.0469 49.9844 56.3125ZM45.625 39.4375C47.7344 38.875 49.8438 38.5938 52.0938 38.3125C51.3906 39.4375 50.6875 40.7031 49.9844 41.8281C49.2812 43.0938 48.5781 44.2188 47.875 45.4844C47.0312 43.375 46.3281 41.4062 45.625 39.4375ZM49.5625 49.1406C50.4062 47.1719 51.5312 45.2031 52.5156 43.375C53.6406 41.5469 54.7656 39.7188 56.0312 37.8906C58.1406 37.75 60.25 37.6094 62.5 37.6094C64.6094 37.6094 66.8594 37.75 68.8281 37.8906C70.0938 39.7188 71.2188 41.5469 72.3438 43.375C73.3281 45.2031 74.4531 47.0312 75.2969 49C74.4531 50.9688 73.4688 52.9375 72.3438 54.7656C71.2188 56.5938 70.0938 58.4219 68.9688 60.25C66.8594 60.3906 64.6094 60.5312 62.5 60.5312C60.25 60.5312 58.1406 60.3906 56.0312 60.25C54.7656 58.4219 53.6406 56.5938 52.5156 54.7656C51.5312 52.9375 50.5469 50.9688 49.5625 49.1406ZM74.875 56.3125C75.7188 55.0469 76.2812 53.7812 76.9844 52.5156C77.8281 54.625 78.6719 56.5938 79.375 58.7031C77.125 59.2656 75.0156 59.6875 72.7656 59.8281C73.4688 58.7031 74.1719 57.4375 74.875 56.3125ZM76.9844 45.4844C76.2812 44.2188 75.5781 43.0938 74.875 41.8281C74.1719 40.7031 73.4688 39.4375 72.7656 38.3125C75.0156 38.5938 77.2656 39.0156 79.2344 39.4375C78.5312 41.5469 77.8281 43.5156 76.9844 45.4844ZM62.5 29.7344C63.9062 31.2812 65.3125 32.9688 66.5781 34.7969C63.9062 34.6562 61.0938 34.6562 58.2812 34.7969C59.6875 32.9688 61.0938 31.2812 62.5 29.7344ZM46.1875 21.0156C48.5781 19.75 53.7812 21.7188 59.2656 26.5C59.6875 26.9219 59.9688 27.2031 60.3906 27.4844C58.1406 29.875 56.1719 32.4062 54.3438 35.0781C51.1094 35.3594 48.0156 35.7812 44.9219 36.4844C44.6406 35.7812 44.5 35.0781 44.3594 34.2344C43.0938 27.4844 43.9375 22.4219 46.1875 21.0156ZM42.6719 58.1406C42.1094 58 41.5469 57.8594 40.9844 57.5781C38.0312 56.5938 34.5156 55.1875 32.125 53.2188C30.7188 52.2344 29.7344 50.6875 29.4531 49C29.4531 46.4688 33.9531 43.0938 40.2812 40.8438C41.125 40.5625 41.9688 40.4219 42.8125 40.1406C43.6562 43.2344 44.9219 46.1875 46.1875 49.1406C44.7812 51.9531 43.6562 55.0469 42.6719 58.1406ZM59.125 71.9219C56.7344 74.0312 54.0625 75.7188 51.1094 76.8438C49.5625 77.6875 47.875 77.6875 46.1875 77.125C43.9375 75.7188 43.0938 70.7969 44.3594 64.1875C44.5 63.3438 44.6406 62.5 44.7812 61.7969C48.0156 62.5 51.1094 62.9219 54.3438 63.2031C56.1719 65.7344 58.2812 68.2656 60.3906 70.6562C59.9688 71.0781 59.5469 71.5 59.125 71.9219ZM62.5 68.5469C61.0938 67 59.6875 65.3125 58.2812 63.3438C59.6875 63.4844 61.0938 63.4844 62.5 63.4844C63.9062 63.4844 65.3125 63.4844 66.7188 63.3438C65.4531 65.1719 64.0469 66.8594 62.5 68.5469ZM80.9219 72.7656C80.7812 74.4531 79.9375 76 78.6719 77.125C76.4219 78.3906 71.6406 76.7031 66.4375 72.3438C65.875 71.7812 65.3125 71.2188 64.6094 70.6562C66.8594 68.2656 68.8281 65.875 70.6562 63.2031C73.8906 62.9219 76.9844 62.3594 80.2188 61.6562C80.3594 62.2188 80.5 62.7812 80.6406 63.3438C81.2031 66.4375 81.3438 69.6719 80.9219 72.7656ZM83.4531 57.5781C83.0312 57.7188 82.75 57.8594 82.3281 58C81.3438 54.9062 80.0781 51.9531 78.6719 49C80.0781 46.1875 81.2031 43.2344 82.1875 40.1406C82.8906 40.4219 83.5938 40.5625 84.2969 40.8438C90.7656 43.0938 95.4062 46.4688 95.4062 49C95.4062 51.6719 90.4844 55.3281 83.4531 57.5781ZM62.5 55.4688C66.0156 55.4688 68.8281 52.6562 68.8281 49C68.8281 45.4844 66.0156 42.6719 62.5 42.6719C58.8438 42.6719 56.0312 45.4844 56.0312 49C56.0312 52.6562 58.8438 55.4688 62.5 55.4688Z" fill="#5E5E5E" fill-opacity="0.47"/>
<path d="M86.2812 38.0312C85.4375 37.75 84.7344 37.4688 84.0312 37.3281C84.0312 36.7656 84.1719 36.2031 84.3125 35.6406C86 27.3438 84.875 20.5938 81.0781 18.3438C77.4219 16.2344 71.375 18.4844 65.1875 23.8281C64.625 24.25 64.0625 24.8125 63.5 25.375C63.0781 24.9531 62.6562 24.6719 62.375 24.25C55.9062 18.625 49.4375 16.2344 45.6406 18.4844C41.9844 20.5938 40.8594 26.9219 42.4062 34.9375C42.5469 35.6406 42.6875 36.4844 42.9688 37.1875C41.9844 37.4688 41.1406 37.75 40.2969 38.0312C32.8438 40.7031 27.5 44.7812 27.5 49C27.5 53.3594 33.125 57.8594 41 60.5312C41.5625 60.6719 42.2656 60.9531 42.8281 61.0938C42.6875 61.9375 42.5469 62.7812 42.2656 63.625C40.8594 71.3594 41.9844 77.5469 45.6406 79.6562C49.4375 81.9062 55.9062 79.6562 62.0938 74.1719C62.5156 73.75 63.0781 73.3281 63.5 72.9062C64.2031 73.4688 64.7656 74.0312 65.4688 74.5938C71.5156 79.7969 77.4219 81.9062 81.0781 79.7969C84.875 77.5469 86.1406 70.9375 84.5938 62.7812C84.4531 62.2188 84.3125 61.5156 84.1719 60.9531C84.5938 60.8125 85.0156 60.6719 85.4375 60.5312C93.5938 57.8594 99.5 53.5 99.5 49C99.5 44.7812 93.875 40.5625 86.2812 38.0312ZM67.1562 26.0781C72.5 21.4375 77.2812 19.75 79.5312 21.0156C81.9219 22.2812 82.9062 27.9062 81.3594 35.0781C81.2188 35.6406 81.2188 36.0625 81.0781 36.4844C77.8438 35.7812 74.75 35.3594 71.5156 35.0781C69.6875 32.4062 67.7188 29.875 65.6094 27.4844C66.1719 27.0625 66.5938 26.5 67.1562 26.0781ZM50.9844 56.3125C51.6875 57.5781 52.3906 58.7031 53.2344 59.9688C50.9844 59.6875 48.7344 59.4062 46.625 58.8438C47.3281 56.875 48.0312 54.7656 48.875 52.6562C49.5781 53.9219 50.2812 55.0469 50.9844 56.3125ZM46.625 39.4375C48.7344 38.875 50.8438 38.5938 53.0938 38.3125C52.3906 39.4375 51.6875 40.7031 50.9844 41.8281C50.2812 43.0938 49.5781 44.2188 48.875 45.4844C48.0312 43.375 47.3281 41.4062 46.625 39.4375ZM50.5625 49.1406C51.4062 47.1719 52.5312 45.2031 53.5156 43.375C54.6406 41.5469 55.7656 39.7188 57.0312 37.8906C59.1406 37.75 61.25 37.6094 63.5 37.6094C65.6094 37.6094 67.8594 37.75 69.8281 37.8906C71.0938 39.7188 72.2188 41.5469 73.3438 43.375C74.3281 45.2031 75.4531 47.0312 76.2969 49C75.4531 50.9688 74.4688 52.9375 73.3438 54.7656C72.2188 56.5938 71.0938 58.4219 69.9688 60.25C67.8594 60.3906 65.6094 60.5312 63.5 60.5312C61.25 60.5312 59.1406 60.3906 57.0312 60.25C55.7656 58.4219 54.6406 56.5938 53.5156 54.7656C52.5312 52.9375 51.5469 50.9688 50.5625 49.1406ZM75.875 56.3125C76.7188 55.0469 77.2812 53.7812 77.9844 52.5156C78.8281 54.625 79.6719 56.5938 80.375 58.7031C78.125 59.2656 76.0156 59.6875 73.7656 59.8281C74.4688 58.7031 75.1719 57.4375 75.875 56.3125ZM77.9844 45.4844C77.2812 44.2188 76.5781 43.0938 75.875 41.8281C75.1719 40.7031 74.4688 39.4375 73.7656 38.3125C76.0156 38.5938 78.2656 39.0156 80.2344 39.4375C79.5312 41.5469 78.8281 43.5156 77.9844 45.4844ZM63.5 29.7344C64.9062 31.2812 66.3125 32.9688 67.5781 34.7969C64.9062 34.6562 62.0938 34.6562 59.2812 34.7969C60.6875 32.9688 62.0938 31.2812 63.5 29.7344ZM47.1875 21.0156C49.5781 19.75 54.7812 21.7188 60.2656 26.5C60.6875 26.9219 60.9688 27.2031 61.3906 27.4844C59.1406 29.875 57.1719 32.4062 55.3438 35.0781C52.1094 35.3594 49.0156 35.7812 45.9219 36.4844C45.6406 35.7812 45.5 35.0781 45.3594 34.2344C44.0938 27.4844 44.9375 22.4219 47.1875 21.0156ZM43.6719 58.1406C43.1094 58 42.5469 57.8594 41.9844 57.5781C39.0312 56.5938 35.5156 55.1875 33.125 53.2188C31.7188 52.2344 30.7344 50.6875 30.4531 49C30.4531 46.4688 34.9531 43.0938 41.2812 40.8438C42.125 40.5625 42.9688 40.4219 43.8125 40.1406C44.6562 43.2344 45.9219 46.1875 47.1875 49.1406C45.7812 51.9531 44.6562 55.0469 43.6719 58.1406ZM60.125 71.9219C57.7344 74.0312 55.0625 75.7188 52.1094 76.8438C50.5625 77.6875 48.875 77.6875 47.1875 77.125C44.9375 75.7188 44.0938 70.7969 45.3594 64.1875C45.5 63.3438 45.6406 62.5 45.7812 61.7969C49.0156 62.5 52.1094 62.9219 55.3438 63.2031C57.1719 65.7344 59.2812 68.2656 61.3906 70.6562C60.9688 71.0781 60.5469 71.5 60.125 71.9219ZM63.5 68.5469C62.0938 67 60.6875 65.3125 59.2812 63.3438C60.6875 63.4844 62.0938 63.4844 63.5 63.4844C64.9062 63.4844 66.3125 63.4844 67.7188 63.3438C66.4531 65.1719 65.0469 66.8594 63.5 68.5469ZM81.9219 72.7656C81.7812 74.4531 80.9375 76 79.6719 77.125C77.4219 78.3906 72.6406 76.7031 67.4375 72.3438C66.875 71.7812 66.3125 71.2188 65.6094 70.6562C67.8594 68.2656 69.8281 65.875 71.6562 63.2031C74.8906 62.9219 77.9844 62.3594 81.2188 61.6562C81.3594 62.2188 81.5 62.7812 81.6406 63.3438C82.2031 66.4375 82.3438 69.6719 81.9219 72.7656ZM84.4531 57.5781C84.0312 57.7188 83.75 57.8594 83.3281 58C82.3438 54.9062 81.0781 51.9531 79.6719 49C81.0781 46.1875 82.2031 43.2344 83.1875 40.1406C83.8906 40.4219 84.5938 40.5625 85.2969 40.8438C91.7656 43.0938 96.4062 46.4688 96.4062 49C96.4062 51.6719 91.4844 55.3281 84.4531 57.5781ZM63.5 55.4688C67.0156 55.4688 69.8281 52.6562 69.8281 49C69.8281 45.4844 67.0156 42.6719 63.5 42.6719C59.8438 42.6719 57.0312 45.4844 57.0312 49C57.0312 52.6562 59.8438 55.4688 63.5 55.4688Z" fill="white"/>
<path d="M190.715 52.293H178.691V73H171.906V21.8125H188.852C194.617 21.8125 199.047 23.125 202.141 25.75C205.258 28.375 206.816 32.1953 206.816 37.2109C206.816 40.3984 205.949 43.1758 204.215 45.543C202.504 47.9102 200.113 49.6797 197.043 50.8516L209.066 72.5781V73H201.824L190.715 52.293ZM178.691 46.7734H189.062C192.414 46.7734 195.074 45.9062 197.043 44.1719C199.035 42.4375 200.031 40.1172 200.031 37.2109C200.031 34.0469 199.082 31.6211 197.184 29.9336C195.309 28.2461 192.59 27.3906 189.027 27.3672H178.691V46.7734ZM231.074 73.7031C225.918 73.7031 221.723 72.0156 218.488 68.6406C215.254 65.2422 213.637 60.707 213.637 55.0352V53.8398C213.637 50.0664 214.352 46.7031 215.781 43.75C217.234 40.7734 219.25 38.4531 221.828 36.7891C224.43 35.1016 227.242 34.2578 230.266 34.2578C235.211 34.2578 239.055 35.8867 241.797 39.1445C244.539 42.4023 245.91 47.0664 245.91 53.1367V55.8438H220.141C220.234 59.5938 221.324 62.6289 223.41 64.9492C225.52 67.2461 228.191 68.3945 231.426 68.3945C233.723 68.3945 235.668 67.9258 237.262 66.9883C238.855 66.0508 240.25 64.8086 241.445 63.2617L245.418 66.3555C242.23 71.2539 237.449 73.7031 231.074 73.7031ZM230.266 39.6016C227.641 39.6016 225.438 40.5625 223.656 42.4844C221.875 44.3828 220.773 47.0547 220.352 50.5H239.406V50.0078C239.219 46.7031 238.328 44.1484 236.734 42.3438C235.141 40.5156 232.984 39.6016 230.266 39.6016ZM276.953 73C276.578 72.25 276.273 70.9141 276.039 68.9922C273.016 72.1328 269.406 73.7031 265.211 73.7031C261.461 73.7031 258.379 72.6484 255.965 70.5391C253.574 68.4062 252.379 65.7109 252.379 62.4531C252.379 58.4922 253.879 55.4219 256.879 53.2422C259.902 51.0391 264.145 49.9375 269.605 49.9375H275.934V46.9492C275.934 44.6758 275.254 42.8711 273.895 41.5352C272.535 40.1758 270.531 39.4961 267.883 39.4961C265.562 39.4961 263.617 40.082 262.047 41.2539C260.477 42.4258 259.691 43.8438 259.691 45.5078H253.152C253.152 43.6094 253.82 41.7812 255.156 40.0234C256.516 38.2422 258.344 36.8359 260.641 35.8047C262.961 34.7734 265.504 34.2578 268.27 34.2578C272.652 34.2578 276.086 35.3594 278.57 37.5625C281.055 39.7422 282.344 42.7539 282.438 46.5977V64.1055C282.438 67.5977 282.883 70.375 283.773 72.4375V73H276.953ZM266.16 68.043C268.199 68.043 270.133 67.5156 271.961 66.4609C273.789 65.4062 275.113 64.0352 275.934 62.3477V54.543H270.836C262.867 54.543 258.883 56.875 258.883 61.5391C258.883 63.5781 259.562 65.1719 260.922 66.3203C262.281 67.4688 264.027 68.043 266.16 68.043ZM307.891 68.3945C310.211 68.3945 312.238 67.6914 313.973 66.2852C315.707 64.8789 316.668 63.1211 316.855 61.0117H323.008C322.891 63.1914 322.141 65.2656 320.758 67.2344C319.375 69.2031 317.523 70.7734 315.203 71.9453C312.906 73.1172 310.469 73.7031 307.891 73.7031C302.711 73.7031 298.586 71.9805 295.516 68.5352C292.469 65.0664 290.945 60.332 290.945 54.332V53.2422C290.945 49.5391 291.625 46.2461 292.984 43.3633C294.344 40.4805 296.289 38.2422 298.82 36.6484C301.375 35.0547 304.387 34.2578 307.855 34.2578C312.121 34.2578 315.66 35.5352 318.473 38.0898C321.309 40.6445 322.82 43.9609 323.008 48.0391H316.855C316.668 45.5781 315.73 43.5625 314.043 41.9922C312.379 40.3984 310.316 39.6016 307.855 39.6016C304.551 39.6016 301.984 40.7969 300.156 43.1875C298.352 45.5547 297.449 48.9883 297.449 53.4883V54.7188C297.449 59.1016 298.352 62.4766 300.156 64.8438C301.961 67.2109 304.539 68.3945 307.891 68.3945ZM339.145 25.75V34.9609H346.246V39.9883H339.145V63.5781C339.145 65.1016 339.461 66.25 340.094 67.0234C340.727 67.7734 341.805 68.1484 343.328 68.1484C344.078 68.1484 345.109 68.0078 346.422 67.7266V73C344.711 73.4688 343.047 73.7031 341.43 73.7031C338.523 73.7031 336.332 72.8242 334.855 71.0664C333.379 69.3086 332.641 66.8125 332.641 63.5781V39.9883H325.715V34.9609H332.641V25.75H339.145ZM376.34 21.8125H383.125V58.0586C383.125 62.957 381.648 66.7891 378.695 69.5547C375.766 72.3203 371.852 73.7031 366.953 73.7031C361.867 73.7031 357.906 72.4023 355.07 69.8008C352.234 67.1992 350.816 63.5547 350.816 58.8672H357.566C357.566 61.7969 358.363 64.082 359.957 65.7227C361.574 67.3633 363.906 68.1836 366.953 68.1836C369.742 68.1836 371.992 67.3047 373.703 65.5469C375.438 63.7891 376.316 61.3281 376.34 58.1641V21.8125ZM409.703 50.1836C403.914 48.5195 399.695 46.4805 397.047 44.0664C394.422 41.6289 393.109 38.6289 393.109 35.0664C393.109 31.0352 394.715 27.707 397.926 25.082C401.16 22.4336 405.355 21.1094 410.512 21.1094C414.027 21.1094 417.156 21.7891 419.898 23.1484C422.664 24.5078 424.797 26.3828 426.297 28.7734C427.82 31.1641 428.582 33.7773 428.582 36.6133H421.797C421.797 33.5195 420.812 31.0938 418.844 29.3359C416.875 27.5547 414.098 26.6641 410.512 26.6641C407.184 26.6641 404.582 27.4023 402.707 28.8789C400.855 30.332 399.93 32.3594 399.93 34.9609C399.93 37.0469 400.809 38.8164 402.566 40.2695C404.348 41.6992 407.359 43.0117 411.602 44.207C415.867 45.4023 419.195 46.7266 421.586 48.1797C424 49.6094 425.781 51.2852 426.93 53.207C428.102 55.1289 428.688 57.3906 428.688 59.9922C428.688 64.1406 427.07 67.4688 423.836 69.9766C420.602 72.4609 416.277 73.7031 410.863 73.7031C407.348 73.7031 404.066 73.0352 401.02 71.6992C397.973 70.3398 395.617 68.4883 393.953 66.1445C392.312 63.8008 391.492 61.1406 391.492 58.1641H398.277C398.277 61.2578 399.414 63.707 401.688 65.5117C403.984 67.293 407.043 68.1836 410.863 68.1836C414.426 68.1836 417.156 67.457 419.055 66.0039C420.953 64.5508 421.902 62.5703 421.902 60.0625C421.902 57.5547 421.023 55.6211 419.266 54.2617C417.508 52.8789 414.32 51.5195 409.703 50.1836Z" fill="#5E5E5E" fill-opacity="0.47"/>
<path d="M192.715 52.293H180.691V73H173.906V21.8125H190.852C196.617 21.8125 201.047 23.125 204.141 25.75C207.258 28.375 208.816 32.1953 208.816 37.2109C208.816 40.3984 207.949 43.1758 206.215 45.543C204.504 47.9102 202.113 49.6797 199.043 50.8516L211.066 72.5781V73H203.824L192.715 52.293ZM180.691 46.7734H191.062C194.414 46.7734 197.074 45.9062 199.043 44.1719C201.035 42.4375 202.031 40.1172 202.031 37.2109C202.031 34.0469 201.082 31.6211 199.184 29.9336C197.309 28.2461 194.59 27.3906 191.027 27.3672H180.691V46.7734ZM233.074 73.7031C227.918 73.7031 223.723 72.0156 220.488 68.6406C217.254 65.2422 215.637 60.707 215.637 55.0352V53.8398C215.637 50.0664 216.352 46.7031 217.781 43.75C219.234 40.7734 221.25 38.4531 223.828 36.7891C226.43 35.1016 229.242 34.2578 232.266 34.2578C237.211 34.2578 241.055 35.8867 243.797 39.1445C246.539 42.4023 247.91 47.0664 247.91 53.1367V55.8438H222.141C222.234 59.5938 223.324 62.6289 225.41 64.9492C227.52 67.2461 230.191 68.3945 233.426 68.3945C235.723 68.3945 237.668 67.9258 239.262 66.9883C240.855 66.0508 242.25 64.8086 243.445 63.2617L247.418 66.3555C244.23 71.2539 239.449 73.7031 233.074 73.7031ZM232.266 39.6016C229.641 39.6016 227.438 40.5625 225.656 42.4844C223.875 44.3828 222.773 47.0547 222.352 50.5H241.406V50.0078C241.219 46.7031 240.328 44.1484 238.734 42.3438C237.141 40.5156 234.984 39.6016 232.266 39.6016ZM278.953 73C278.578 72.25 278.273 70.9141 278.039 68.9922C275.016 72.1328 271.406 73.7031 267.211 73.7031C263.461 73.7031 260.379 72.6484 257.965 70.5391C255.574 68.4062 254.379 65.7109 254.379 62.4531C254.379 58.4922 255.879 55.4219 258.879 53.2422C261.902 51.0391 266.145 49.9375 271.605 49.9375H277.934V46.9492C277.934 44.6758 277.254 42.8711 275.895 41.5352C274.535 40.1758 272.531 39.4961 269.883 39.4961C267.562 39.4961 265.617 40.082 264.047 41.2539C262.477 42.4258 261.691 43.8438 261.691 45.5078H255.152C255.152 43.6094 255.82 41.7812 257.156 40.0234C258.516 38.2422 260.344 36.8359 262.641 35.8047C264.961 34.7734 267.504 34.2578 270.27 34.2578C274.652 34.2578 278.086 35.3594 280.57 37.5625C283.055 39.7422 284.344 42.7539 284.438 46.5977V64.1055C284.438 67.5977 284.883 70.375 285.773 72.4375V73H278.953ZM268.16 68.043C270.199 68.043 272.133 67.5156 273.961 66.4609C275.789 65.4062 277.113 64.0352 277.934 62.3477V54.543H272.836C264.867 54.543 260.883 56.875 260.883 61.5391C260.883 63.5781 261.562 65.1719 262.922 66.3203C264.281 67.4688 266.027 68.043 268.16 68.043ZM309.891 68.3945C312.211 68.3945 314.238 67.6914 315.973 66.2852C317.707 64.8789 318.668 63.1211 318.855 61.0117H325.008C324.891 63.1914 324.141 65.2656 322.758 67.2344C321.375 69.2031 319.523 70.7734 317.203 71.9453C314.906 73.1172 312.469 73.7031 309.891 73.7031C304.711 73.7031 300.586 71.9805 297.516 68.5352C294.469 65.0664 292.945 60.332 292.945 54.332V53.2422C292.945 49.5391 293.625 46.2461 294.984 43.3633C296.344 40.4805 298.289 38.2422 300.82 36.6484C303.375 35.0547 306.387 34.2578 309.855 34.2578C314.121 34.2578 317.66 35.5352 320.473 38.0898C323.309 40.6445 324.82 43.9609 325.008 48.0391H318.855C318.668 45.5781 317.73 43.5625 316.043 41.9922C314.379 40.3984 312.316 39.6016 309.855 39.6016C306.551 39.6016 303.984 40.7969 302.156 43.1875C300.352 45.5547 299.449 48.9883 299.449 53.4883V54.7188C299.449 59.1016 300.352 62.4766 302.156 64.8438C303.961 67.2109 306.539 68.3945 309.891 68.3945ZM341.145 25.75V34.9609H348.246V39.9883H341.145V63.5781C341.145 65.1016 341.461 66.25 342.094 67.0234C342.727 67.7734 343.805 68.1484 345.328 68.1484C346.078 68.1484 347.109 68.0078 348.422 67.7266V73C346.711 73.4688 345.047 73.7031 343.43 73.7031C340.523 73.7031 338.332 72.8242 336.855 71.0664C335.379 69.3086 334.641 66.8125 334.641 63.5781V39.9883H327.715V34.9609H334.641V25.75H341.145ZM378.34 21.8125H385.125V58.0586C385.125 62.957 383.648 66.7891 380.695 69.5547C377.766 72.3203 373.852 73.7031 368.953 73.7031C363.867 73.7031 359.906 72.4023 357.07 69.8008C354.234 67.1992 352.816 63.5547 352.816 58.8672H359.566C359.566 61.7969 360.363 64.082 361.957 65.7227C363.574 67.3633 365.906 68.1836 368.953 68.1836C371.742 68.1836 373.992 67.3047 375.703 65.5469C377.438 63.7891 378.316 61.3281 378.34 58.1641V21.8125ZM411.703 50.1836C405.914 48.5195 401.695 46.4805 399.047 44.0664C396.422 41.6289 395.109 38.6289 395.109 35.0664C395.109 31.0352 396.715 27.707 399.926 25.082C403.16 22.4336 407.355 21.1094 412.512 21.1094C416.027 21.1094 419.156 21.7891 421.898 23.1484C424.664 24.5078 426.797 26.3828 428.297 28.7734C429.82 31.1641 430.582 33.7773 430.582 36.6133H423.797C423.797 33.5195 422.812 31.0938 420.844 29.3359C418.875 27.5547 416.098 26.6641 412.512 26.6641C409.184 26.6641 406.582 27.4023 404.707 28.8789C402.855 30.332 401.93 32.3594 401.93 34.9609C401.93 37.0469 402.809 38.8164 404.566 40.2695C406.348 41.6992 409.359 43.0117 413.602 44.207C417.867 45.4023 421.195 46.7266 423.586 48.1797C426 49.6094 427.781 51.2852 428.93 53.207C430.102 55.1289 430.688 57.3906 430.688 59.9922C430.688 64.1406 429.07 67.4688 425.836 69.9766C422.602 72.4609 418.277 73.7031 412.863 73.7031C409.348 73.7031 406.066 73.0352 403.02 71.6992C399.973 70.3398 397.617 68.4883 395.953 66.1445C394.312 63.8008 393.492 61.1406 393.492 58.1641H400.277C400.277 61.2578 401.414 63.707 403.688 65.5117C405.984 67.293 409.043 68.1836 412.863 68.1836C416.426 68.1836 419.156 67.457 421.055 66.0039C422.953 64.5508 423.902 62.5703 423.902 60.0625C423.902 57.5547 423.023 55.6211 421.266 54.2617C419.508 52.8789 416.32 51.5195 411.703 50.1836Z" fill="white"/>
<defs>
<linearGradient id="paint0_linear" x1="54" y1="-10" x2="54" y2="114" gradientUnits="userSpaceOnUse">
<stop stop-color="white" stop-opacity="0"/>
<stop offset="1" stop-opacity="0.33"/>
</linearGradient>
<linearGradient id="paint1_linear" x1="315.5" y1="-10" x2="315.5" y2="114" gradientUnits="userSpaceOnUse">
<stop stop-opacity="0.78"/>
<stop offset="0.454792" stop-color="#242424"/>
<stop offset="1" stop-color="#020202"/>
</linearGradient>
</defs>
</svg>
