<svg width="500" height="97" viewBox="0 0 500 97" fill="none" xmlns="http://www.w3.org/2000/svg">
<mask id="mask0" mask-type="alpha" maskUnits="userSpaceOnUse" x="0" y="0" width="500" height="97">
<rect width="500" height="97" rx="15" fill="#C4C4C4"/>
</mask>
<g mask="url(#mask0)">
<g style="mix-blend-mode:multiply">
<rect x="-15" y="-10" width="138" height="124" fill="#30A9ED"/>
<rect x="-15" y="-10" width="138" height="124" fill="url(#paint0_linear)" fill-opacity="0.6"/>
</g>
<g style="mix-blend-mode:multiply">
<rect x="123" y="-10" width="385" height="124" fill="url(#paint1_linear)"/>
</g>
<path d="M528.773 -12.4089C526.078 -13.31 523.832 -14.2111 521.586 -14.6616C521.586 -16.4639 522.035 -18.2661 522.484 -20.0683C527.875 -46.6511 524.281 -68.2778 512.152 -75.4867C500.473 -82.245 481.156 -75.0361 461.391 -57.915C459.594 -56.5633 457.797 -54.7611 456 -52.9589C454.652 -54.3106 453.305 -55.2117 452.406 -56.5633C431.742 -74.5856 411.078 -82.245 398.949 -75.0361C387.27 -68.2778 383.676 -48.0028 388.617 -22.3211C389.066 -20.0683 389.516 -17.365 390.414 -15.1122C387.27 -14.2111 384.574 -13.31 381.879 -12.4089C358.07 -3.84828 341 9.21784 341 22.7345C341 36.7018 358.969 51.1196 384.125 59.6801C385.922 60.1307 388.168 61.0318 389.965 61.4823C389.516 64.1857 389.066 66.889 388.168 69.5923C383.676 94.3729 387.27 114.197 398.949 120.956C411.078 128.165 431.742 120.956 451.508 103.384C452.855 102.032 454.652 100.681 456 99.329C458.246 101.131 460.043 102.933 462.289 104.736C481.605 121.406 500.473 128.165 512.152 121.406C524.281 114.197 528.324 93.0213 523.383 66.889C522.934 65.0868 522.484 62.834 522.035 61.0318C523.383 60.5812 524.73 60.1307 526.078 59.6801C552.133 51.1196 571 37.1523 571 22.7345C571 9.21784 553.031 -4.29884 528.773 -12.4089ZM467.68 -50.7061C484.75 -65.5745 500.023 -70.9811 507.211 -66.9261C514.848 -62.8711 517.992 -44.8489 513.051 -21.8705C512.602 -20.0683 512.602 -18.7166 512.152 -17.365C501.82 -19.6177 491.938 -20.9694 481.605 -21.8705C475.766 -30.4311 469.477 -38.5411 462.738 -46.2006C464.535 -47.5522 465.883 -49.3544 467.68 -50.7061ZM416.02 46.1634C418.266 50.2184 420.512 53.8229 423.207 57.8779C416.02 56.9768 408.832 56.0757 402.094 54.2734C404.34 47.9657 406.586 41.2073 409.281 34.449C411.527 38.504 413.773 42.1084 416.02 46.1634ZM402.094 -7.90329C408.832 -9.70551 415.57 -10.6066 422.758 -11.5077C420.512 -7.90329 418.266 -3.84828 416.02 -0.243835C413.773 3.81116 411.527 7.41562 409.281 11.4706C406.586 4.71228 404.34 -1.5955 402.094 -7.90329ZM414.672 23.1851C417.367 16.8773 420.961 10.5695 424.105 4.71228C427.699 -1.14495 431.293 -7.00217 435.336 -12.8594C442.074 -13.31 448.812 -13.7605 456 -13.7605C462.738 -13.7605 469.926 -13.31 476.215 -12.8594C480.258 -7.00217 483.852 -1.14495 487.445 4.71228C490.59 10.5695 494.184 16.4267 496.879 22.7345C494.184 29.0423 491.039 35.3501 487.445 41.2073C483.852 47.0645 480.258 52.9218 476.664 58.779C469.926 59.2296 462.738 59.6801 456 59.6801C448.812 59.6801 442.074 59.2296 435.336 58.779C431.293 52.9218 427.699 47.0645 424.105 41.2073C420.961 35.3501 417.816 29.0423 414.672 23.1851ZM495.531 46.1634C498.227 42.1084 500.023 38.0534 502.27 33.9984C504.965 40.7568 507.66 47.0645 509.906 53.8229C502.719 55.6251 495.98 56.9768 488.793 57.4273C491.039 53.8229 493.285 49.7679 495.531 46.1634ZM502.27 11.4706C500.023 7.41562 497.777 3.81116 495.531 -0.243835C493.285 -3.84828 491.039 -7.90329 488.793 -11.5077C495.98 -10.6066 503.168 -9.25496 509.457 -7.90329C507.211 -1.14495 504.965 5.16283 502.27 11.4706ZM456 -38.9917C460.492 -34.0355 464.984 -28.6289 469.027 -22.7716C460.492 -23.2222 451.508 -23.2222 442.523 -22.7716C447.016 -28.6289 451.508 -34.0355 456 -38.9917ZM403.891 -66.9261C411.527 -70.9811 428.148 -64.6734 445.668 -49.3544C447.016 -48.0028 447.914 -47.1017 449.262 -46.2006C442.074 -38.5411 435.785 -30.4311 429.945 -21.8705C419.613 -20.9694 409.73 -19.6177 399.848 -17.365C398.949 -19.6177 398.5 -21.8705 398.051 -24.5739C394.008 -46.2006 396.703 -62.4206 403.891 -66.9261ZM392.66 52.0207C390.863 51.5701 389.066 51.1196 387.27 50.2184C377.836 47.0645 366.605 42.559 358.969 36.2512C354.477 33.0973 351.332 28.1412 350.434 22.7345C350.434 14.6245 364.809 3.81116 385.023 -3.39773C387.719 -4.29884 390.414 -4.7494 393.109 -5.65051C395.805 4.26173 399.848 13.7234 403.891 23.1851C399.398 32.1962 395.805 42.1084 392.66 52.0207ZM445.219 96.1752C437.582 102.933 429.047 108.34 419.613 111.945C414.672 114.648 409.281 114.648 403.891 112.846C396.703 108.34 394.008 92.5707 398.051 71.3946C398.5 68.6912 398.949 65.9879 399.398 63.7351C409.73 65.9879 419.613 67.3396 429.945 68.2407C435.785 76.3507 442.523 84.4607 449.262 92.1201C447.914 93.4718 446.566 94.8235 445.219 96.1752ZM456 85.3618C451.508 80.4057 447.016 74.999 442.523 68.6912C447.016 69.1418 451.508 69.1418 456 69.1418C460.492 69.1418 464.984 69.1418 469.477 68.6912C465.434 74.5485 460.941 79.9551 456 85.3618ZM514.848 98.8785C514.398 104.285 511.703 109.241 507.66 112.846C500.473 116.901 485.199 111.494 468.578 97.5268C466.781 95.7246 464.984 93.9224 462.738 92.1201C469.926 84.4607 476.215 76.8012 482.055 68.2407C492.387 67.3396 502.27 65.5373 512.602 63.2846C513.051 65.0868 513.5 66.889 513.949 68.6912C515.746 78.6035 516.195 88.9663 514.848 98.8785ZM522.934 50.2184C521.586 50.669 520.688 51.1196 519.34 51.5701C516.195 41.6579 512.152 32.1962 507.66 22.7345C512.152 13.7234 515.746 4.26173 518.891 -5.65051C521.137 -4.7494 523.383 -4.29884 525.629 -3.39773C546.293 3.81116 561.117 14.6245 561.117 22.7345C561.117 31.2951 545.395 43.0095 522.934 50.2184ZM456 43.4601C467.23 43.4601 476.215 34.449 476.215 22.7345C476.215 11.4706 467.23 2.4595 456 2.4595C444.32 2.4595 435.336 11.4706 435.336 22.7345C435.336 34.449 444.32 43.4601 456 43.4601Z" fill="white" fill-opacity="0.08"/>
</g>
<path d="M85.2812 38.0312C84.4375 37.75 83.7344 37.4688 83.0312 37.3281C83.0312 36.7656 83.1719 36.2031 83.3125 35.6406C85 27.3438 83.875 20.5938 80.0781 18.3438C76.4219 16.2344 70.375 18.4844 64.1875 23.8281C63.625 24.25 63.0625 24.8125 62.5 25.375C62.0781 24.9531 61.6562 24.6719 61.375 24.25C54.9062 18.625 48.4375 16.2344 44.6406 18.4844C40.9844 20.5938 39.8594 26.9219 41.4062 34.9375C41.5469 35.6406 41.6875 36.4844 41.9688 37.1875C40.9844 37.4688 40.1406 37.75 39.2969 38.0312C31.8438 40.7031 26.5 44.7812 26.5 49C26.5 53.3594 32.125 57.8594 40 60.5312C40.5625 60.6719 41.2656 60.9531 41.8281 61.0938C41.6875 61.9375 41.5469 62.7812 41.2656 63.625C39.8594 71.3594 40.9844 77.5469 44.6406 79.6562C48.4375 81.9062 54.9062 79.6562 61.0938 74.1719C61.5156 73.75 62.0781 73.3281 62.5 72.9062C63.2031 73.4688 63.7656 74.0312 64.4688 74.5938C70.5156 79.7969 76.4219 81.9062 80.0781 79.7969C83.875 77.5469 85.1406 70.9375 83.5938 62.7812C83.4531 62.2188 83.3125 61.5156 83.1719 60.9531C83.5938 60.8125 84.0156 60.6719 84.4375 60.5312C92.5938 57.8594 98.5 53.5 98.5 49C98.5 44.7812 92.875 40.5625 85.2812 38.0312ZM66.1562 26.0781C71.5 21.4375 76.2812 19.75 78.5312 21.0156C80.9219 22.2812 81.9062 27.9062 80.3594 35.0781C80.2188 35.6406 80.2188 36.0625 80.0781 36.4844C76.8438 35.7812 73.75 35.3594 70.5156 35.0781C68.6875 32.4062 66.7188 29.875 64.6094 27.4844C65.1719 27.0625 65.5938 26.5 66.1562 26.0781ZM49.9844 56.3125C50.6875 57.5781 51.3906 58.7031 52.2344 59.9688C49.9844 59.6875 47.7344 59.4062 45.625 58.8438C46.3281 56.875 47.0312 54.7656 47.875 52.6562C48.5781 53.9219 49.2812 55.0469 49.9844 56.3125ZM45.625 39.4375C47.7344 38.875 49.8438 38.5938 52.0938 38.3125C51.3906 39.4375 50.6875 40.7031 49.9844 41.8281C49.2812 43.0938 48.5781 44.2188 47.875 45.4844C47.0312 43.375 46.3281 41.4062 45.625 39.4375ZM49.5625 49.1406C50.4062 47.1719 51.5312 45.2031 52.5156 43.375C53.6406 41.5469 54.7656 39.7188 56.0312 37.8906C58.1406 37.75 60.25 37.6094 62.5 37.6094C64.6094 37.6094 66.8594 37.75 68.8281 37.8906C70.0938 39.7188 71.2188 41.5469 72.3438 43.375C73.3281 45.2031 74.4531 47.0312 75.2969 49C74.4531 50.9688 73.4688 52.9375 72.3438 54.7656C71.2188 56.5938 70.0938 58.4219 68.9688 60.25C66.8594 60.3906 64.6094 60.5312 62.5 60.5312C60.25 60.5312 58.1406 60.3906 56.0312 60.25C54.7656 58.4219 53.6406 56.5938 52.5156 54.7656C51.5312 52.9375 50.5469 50.9688 49.5625 49.1406ZM74.875 56.3125C75.7188 55.0469 76.2812 53.7812 76.9844 52.5156C77.8281 54.625 78.6719 56.5938 79.375 58.7031C77.125 59.2656 75.0156 59.6875 72.7656 59.8281C73.4688 58.7031 74.1719 57.4375 74.875 56.3125ZM76.9844 45.4844C76.2812 44.2188 75.5781 43.0938 74.875 41.8281C74.1719 40.7031 73.4688 39.4375 72.7656 38.3125C75.0156 38.5938 77.2656 39.0156 79.2344 39.4375C78.5312 41.5469 77.8281 43.5156 76.9844 45.4844ZM62.5 29.7344C63.9062 31.2812 65.3125 32.9688 66.5781 34.7969C63.9062 34.6562 61.0938 34.6562 58.2812 34.7969C59.6875 32.9688 61.0938 31.2812 62.5 29.7344ZM46.1875 21.0156C48.5781 19.75 53.7812 21.7188 59.2656 26.5C59.6875 26.9219 59.9688 27.2031 60.3906 27.4844C58.1406 29.875 56.1719 32.4062 54.3438 35.0781C51.1094 35.3594 48.0156 35.7812 44.9219 36.4844C44.6406 35.7812 44.5 35.0781 44.3594 34.2344C43.0938 27.4844 43.9375 22.4219 46.1875 21.0156ZM42.6719 58.1406C42.1094 58 41.5469 57.8594 40.9844 57.5781C38.0312 56.5938 34.5156 55.1875 32.125 53.2188C30.7188 52.2344 29.7344 50.6875 29.4531 49C29.4531 46.4688 33.9531 43.0938 40.2812 40.8438C41.125 40.5625 41.9688 40.4219 42.8125 40.1406C43.6562 43.2344 44.9219 46.1875 46.1875 49.1406C44.7812 51.9531 43.6562 55.0469 42.6719 58.1406ZM59.125 71.9219C56.7344 74.0312 54.0625 75.7188 51.1094 76.8438C49.5625 77.6875 47.875 77.6875 46.1875 77.125C43.9375 75.7188 43.0938 70.7969 44.3594 64.1875C44.5 63.3438 44.6406 62.5 44.7812 61.7969C48.0156 62.5 51.1094 62.9219 54.3438 63.2031C56.1719 65.7344 58.2812 68.2656 60.3906 70.6562C59.9688 71.0781 59.5469 71.5 59.125 71.9219ZM62.5 68.5469C61.0938 67 59.6875 65.3125 58.2812 63.3438C59.6875 63.4844 61.0938 63.4844 62.5 63.4844C63.9062 63.4844 65.3125 63.4844 66.7188 63.3438C65.4531 65.1719 64.0469 66.8594 62.5 68.5469ZM80.9219 72.7656C80.7812 74.4531 79.9375 76 78.6719 77.125C76.4219 78.3906 71.6406 76.7031 66.4375 72.3438C65.875 71.7812 65.3125 71.2188 64.6094 70.6562C66.8594 68.2656 68.8281 65.875 70.6562 63.2031C73.8906 62.9219 76.9844 62.3594 80.2188 61.6562C80.3594 62.2188 80.5 62.7812 80.6406 63.3438C81.2031 66.4375 81.3438 69.6719 80.9219 72.7656ZM83.4531 57.5781C83.0312 57.7188 82.75 57.8594 82.3281 58C81.3438 54.9062 80.0781 51.9531 78.6719 49C80.0781 46.1875 81.2031 43.2344 82.1875 40.1406C82.8906 40.4219 83.5938 40.5625 84.2969 40.8438C90.7656 43.0938 95.4062 46.4688 95.4062 49C95.4062 51.6719 90.4844 55.3281 83.4531 57.5781ZM62.5 55.4688C66.0156 55.4688 68.8281 52.6562 68.8281 49C68.8281 45.4844 66.0156 42.6719 62.5 42.6719C58.8438 42.6719 56.0312 45.4844 56.0312 49C56.0312 52.6562 58.8438 55.4688 62.5 55.4688Z" fill="#5E5E5E" fill-opacity="0.47"/>
<path d="M86.2812 38.0312C85.4375 37.75 84.7344 37.4688 84.0312 37.3281C84.0312 36.7656 84.1719 36.2031 84.3125 35.6406C86 27.3438 84.875 20.5938 81.0781 18.3438C77.4219 16.2344 71.375 18.4844 65.1875 23.8281C64.625 24.25 64.0625 24.8125 63.5 25.375C63.0781 24.9531 62.6562 24.6719 62.375 24.25C55.9062 18.625 49.4375 16.2344 45.6406 18.4844C41.9844 20.5938 40.8594 26.9219 42.4062 34.9375C42.5469 35.6406 42.6875 36.4844 42.9688 37.1875C41.9844 37.4688 41.1406 37.75 40.2969 38.0312C32.8438 40.7031 27.5 44.7812 27.5 49C27.5 53.3594 33.125 57.8594 41 60.5312C41.5625 60.6719 42.2656 60.9531 42.8281 61.0938C42.6875 61.9375 42.5469 62.7812 42.2656 63.625C40.8594 71.3594 41.9844 77.5469 45.6406 79.6562C49.4375 81.9062 55.9062 79.6562 62.0938 74.1719C62.5156 73.75 63.0781 73.3281 63.5 72.9062C64.2031 73.4688 64.7656 74.0312 65.4688 74.5938C71.5156 79.7969 77.4219 81.9062 81.0781 79.7969C84.875 77.5469 86.1406 70.9375 84.5938 62.7812C84.4531 62.2188 84.3125 61.5156 84.1719 60.9531C84.5938 60.8125 85.0156 60.6719 85.4375 60.5312C93.5938 57.8594 99.5 53.5 99.5 49C99.5 44.7812 93.875 40.5625 86.2812 38.0312ZM67.1562 26.0781C72.5 21.4375 77.2812 19.75 79.5312 21.0156C81.9219 22.2812 82.9062 27.9062 81.3594 35.0781C81.2188 35.6406 81.2188 36.0625 81.0781 36.4844C77.8438 35.7812 74.75 35.3594 71.5156 35.0781C69.6875 32.4062 67.7188 29.875 65.6094 27.4844C66.1719 27.0625 66.5938 26.5 67.1562 26.0781ZM50.9844 56.3125C51.6875 57.5781 52.3906 58.7031 53.2344 59.9688C50.9844 59.6875 48.7344 59.4062 46.625 58.8438C47.3281 56.875 48.0312 54.7656 48.875 52.6562C49.5781 53.9219 50.2812 55.0469 50.9844 56.3125ZM46.625 39.4375C48.7344 38.875 50.8438 38.5938 53.0938 38.3125C52.3906 39.4375 51.6875 40.7031 50.9844 41.8281C50.2812 43.0938 49.5781 44.2188 48.875 45.4844C48.0312 43.375 47.3281 41.4062 46.625 39.4375ZM50.5625 49.1406C51.4062 47.1719 52.5312 45.2031 53.5156 43.375C54.6406 41.5469 55.7656 39.7188 57.0312 37.8906C59.1406 37.75 61.25 37.6094 63.5 37.6094C65.6094 37.6094 67.8594 37.75 69.8281 37.8906C71.0938 39.7188 72.2188 41.5469 73.3438 43.375C74.3281 45.2031 75.4531 47.0312 76.2969 49C75.4531 50.9688 74.4688 52.9375 73.3438 54.7656C72.2188 56.5938 71.0938 58.4219 69.9688 60.25C67.8594 60.3906 65.6094 60.5312 63.5 60.5312C61.25 60.5312 59.1406 60.3906 57.0312 60.25C55.7656 58.4219 54.6406 56.5938 53.5156 54.7656C52.5312 52.9375 51.5469 50.9688 50.5625 49.1406ZM75.875 56.3125C76.7188 55.0469 77.2812 53.7812 77.9844 52.5156C78.8281 54.625 79.6719 56.5938 80.375 58.7031C78.125 59.2656 76.0156 59.6875 73.7656 59.8281C74.4688 58.7031 75.1719 57.4375 75.875 56.3125ZM77.9844 45.4844C77.2812 44.2188 76.5781 43.0938 75.875 41.8281C75.1719 40.7031 74.4688 39.4375 73.7656 38.3125C76.0156 38.5938 78.2656 39.0156 80.2344 39.4375C79.5312 41.5469 78.8281 43.5156 77.9844 45.4844ZM63.5 29.7344C64.9062 31.2812 66.3125 32.9688 67.5781 34.7969C64.9062 34.6562 62.0938 34.6562 59.2812 34.7969C60.6875 32.9688 62.0938 31.2812 63.5 29.7344ZM47.1875 21.0156C49.5781 19.75 54.7812 21.7188 60.2656 26.5C60.6875 26.9219 60.9688 27.2031 61.3906 27.4844C59.1406 29.875 57.1719 32.4062 55.3438 35.0781C52.1094 35.3594 49.0156 35.7812 45.9219 36.4844C45.6406 35.7812 45.5 35.0781 45.3594 34.2344C44.0938 27.4844 44.9375 22.4219 47.1875 21.0156ZM43.6719 58.1406C43.1094 58 42.5469 57.8594 41.9844 57.5781C39.0312 56.5938 35.5156 55.1875 33.125 53.2188C31.7188 52.2344 30.7344 50.6875 30.4531 49C30.4531 46.4688 34.9531 43.0938 41.2812 40.8438C42.125 40.5625 42.9688 40.4219 43.8125 40.1406C44.6562 43.2344 45.9219 46.1875 47.1875 49.1406C45.7812 51.9531 44.6562 55.0469 43.6719 58.1406ZM60.125 71.9219C57.7344 74.0312 55.0625 75.7188 52.1094 76.8438C50.5625 77.6875 48.875 77.6875 47.1875 77.125C44.9375 75.7188 44.0938 70.7969 45.3594 64.1875C45.5 63.3438 45.6406 62.5 45.7812 61.7969C49.0156 62.5 52.1094 62.9219 55.3438 63.2031C57.1719 65.7344 59.2812 68.2656 61.3906 70.6562C60.9688 71.0781 60.5469 71.5 60.125 71.9219ZM63.5 68.5469C62.0938 67 60.6875 65.3125 59.2812 63.3438C60.6875 63.4844 62.0938 63.4844 63.5 63.4844C64.9062 63.4844 66.3125 63.4844 67.7188 63.3438C66.4531 65.1719 65.0469 66.8594 63.5 68.5469ZM81.9219 72.7656C81.7812 74.4531 80.9375 76 79.6719 77.125C77.4219 78.3906 72.6406 76.7031 67.4375 72.3438C66.875 71.7812 66.3125 71.2188 65.6094 70.6562C67.8594 68.2656 69.8281 65.875 71.6562 63.2031C74.8906 62.9219 77.9844 62.3594 81.2188 61.6562C81.3594 62.2188 81.5 62.7812 81.6406 63.3438C82.2031 66.4375 82.3438 69.6719 81.9219 72.7656ZM84.4531 57.5781C84.0312 57.7188 83.75 57.8594 83.3281 58C82.3438 54.9062 81.0781 51.9531 79.6719 49C81.0781 46.1875 82.2031 43.2344 83.1875 40.1406C83.8906 40.4219 84.5938 40.5625 85.2969 40.8438C91.7656 43.0938 96.4062 46.4688 96.4062 49C96.4062 51.6719 91.4844 55.3281 84.4531 57.5781ZM63.5 55.4688C67.0156 55.4688 69.8281 52.6562 69.8281 49C69.8281 45.4844 67.0156 42.6719 63.5 42.6719C59.8438 42.6719 57.0312 45.4844 57.0312 49C57.0312 52.6562 59.8438 55.4688 63.5 55.4688Z" fill="white"/>
<path d="M163.596 51.7441H153.576V69H147.922V26.3438H162.043C166.848 26.3438 170.539 27.4375 173.117 29.625C175.715 31.8125 177.014 34.9961 177.014 39.1758C177.014 41.832 176.291 44.1465 174.846 46.1191C173.42 48.0918 171.428 49.5664 168.869 50.543L178.889 68.6484V69H172.854L163.596 51.7441ZM153.576 47.1445H162.219C165.012 47.1445 167.229 46.4219 168.869 44.9766C170.529 43.5312 171.359 41.5977 171.359 39.1758C171.359 36.5391 170.568 34.5176 168.986 33.1113C167.424 31.7051 165.158 30.9922 162.189 30.9727H153.576V47.1445ZM197.229 69.5859C192.932 69.5859 189.436 68.1797 186.74 65.3672C184.045 62.5352 182.697 58.7559 182.697 54.0293V53.0332C182.697 49.8887 183.293 47.0859 184.484 44.625C185.695 42.1445 187.375 40.2109 189.523 38.8242C191.691 37.418 194.035 36.7148 196.555 36.7148C200.676 36.7148 203.879 38.0723 206.164 40.7871C208.449 43.502 209.592 47.3887 209.592 52.4473V54.7031H188.117C188.195 57.8281 189.104 60.3574 190.842 62.291C192.6 64.2051 194.826 65.1621 197.521 65.1621C199.436 65.1621 201.057 64.7715 202.385 63.9902C203.713 63.209 204.875 62.1738 205.871 60.8848L209.182 63.4629C206.525 67.5449 202.541 69.5859 197.229 69.5859ZM196.555 41.168C194.367 41.168 192.531 41.9688 191.047 43.5703C189.562 45.1523 188.645 47.3789 188.293 50.25H204.172V49.8398C204.016 47.0859 203.273 44.957 201.945 43.4531C200.617 41.9297 198.82 41.168 196.555 41.168ZM235.461 69C235.148 68.375 234.895 67.2617 234.699 65.6602C232.18 68.2773 229.172 69.5859 225.676 69.5859C222.551 69.5859 219.982 68.707 217.971 66.9492C215.979 65.1719 214.982 62.9258 214.982 60.2109C214.982 56.9102 216.232 54.3516 218.732 52.5352C221.252 50.6992 224.787 49.7812 229.338 49.7812H234.611V47.291C234.611 45.3965 234.045 43.8926 232.912 42.7793C231.779 41.6465 230.109 41.0801 227.902 41.0801C225.969 41.0801 224.348 41.5684 223.039 42.5449C221.73 43.5215 221.076 44.7031 221.076 46.0898H215.627C215.627 44.5078 216.184 42.9844 217.297 41.5195C218.43 40.0352 219.953 38.8633 221.867 38.0039C223.801 37.1445 225.92 36.7148 228.225 36.7148C231.877 36.7148 234.738 37.6328 236.809 39.4688C238.879 41.2852 239.953 43.7949 240.031 46.998V61.5879C240.031 64.498 240.402 66.8125 241.145 68.5312V69H235.461ZM226.467 64.8691C228.166 64.8691 229.777 64.4297 231.301 63.5508C232.824 62.6719 233.928 61.5293 234.611 60.123V53.6191H230.363C223.723 53.6191 220.402 55.5625 220.402 59.4492C220.402 61.1484 220.969 62.4766 222.102 63.4336C223.234 64.3906 224.689 64.8691 226.467 64.8691ZM261.242 65.1621C263.176 65.1621 264.865 64.5762 266.311 63.4043C267.756 62.2324 268.557 60.7676 268.713 59.0098H273.84C273.742 60.8262 273.117 62.5547 271.965 64.1953C270.812 65.8359 269.27 67.1445 267.336 68.1211C265.422 69.0977 263.391 69.5859 261.242 69.5859C256.926 69.5859 253.488 68.1504 250.93 65.2793C248.391 62.3887 247.121 58.4434 247.121 53.4434V52.5352C247.121 49.4492 247.688 46.7051 248.82 44.3027C249.953 41.9004 251.574 40.0352 253.684 38.707C255.812 37.3789 258.322 36.7148 261.213 36.7148C264.768 36.7148 267.717 37.7793 270.061 39.9082C272.424 42.0371 273.684 44.8008 273.84 48.1992H268.713C268.557 46.1484 267.775 44.4688 266.369 43.1602C264.982 41.832 263.264 41.168 261.213 41.168C258.459 41.168 256.32 42.1641 254.797 44.1562C253.293 46.1289 252.541 48.9902 252.541 52.7402V53.7656C252.541 57.418 253.293 60.2305 254.797 62.2031C256.301 64.1758 258.449 65.1621 261.242 65.1621ZM287.287 29.625V37.3008H293.205V41.4902H287.287V61.1484C287.287 62.418 287.551 63.375 288.078 64.0195C288.605 64.6445 289.504 64.957 290.773 64.957C291.398 64.957 292.258 64.8398 293.352 64.6055V69C291.926 69.3906 290.539 69.5859 289.191 69.5859C286.77 69.5859 284.943 68.8535 283.713 67.3887C282.482 65.9238 281.867 63.8438 281.867 61.1484V41.4902H276.096V37.3008H281.867V29.625H287.287ZM348.078 69H342.424L320.949 36.1289V69H315.295V26.3438H320.949L342.482 59.3613V26.3438H348.078V69ZM376.789 69C376.477 68.375 376.223 67.2617 376.027 65.6602C373.508 68.2773 370.5 69.5859 367.004 69.5859C363.879 69.5859 361.311 68.707 359.299 66.9492C357.307 65.1719 356.311 62.9258 356.311 60.2109C356.311 56.9102 357.561 54.3516 360.061 52.5352C362.58 50.6992 366.115 49.7812 370.666 49.7812H375.939V47.291C375.939 45.3965 375.373 43.8926 374.24 42.7793C373.107 41.6465 371.438 41.0801 369.23 41.0801C367.297 41.0801 365.676 41.5684 364.367 42.5449C363.059 43.5215 362.404 44.7031 362.404 46.0898H356.955C356.955 44.5078 357.512 42.9844 358.625 41.5195C359.758 40.0352 361.281 38.8633 363.195 38.0039C365.129 37.1445 367.248 36.7148 369.553 36.7148C373.205 36.7148 376.066 37.6328 378.137 39.4688C380.207 41.2852 381.281 43.7949 381.359 46.998V61.5879C381.359 64.498 381.73 66.8125 382.473 68.5312V69H376.789ZM367.795 64.8691C369.494 64.8691 371.105 64.4297 372.629 63.5508C374.152 62.6719 375.256 61.5293 375.939 60.123V53.6191H371.691C365.051 53.6191 361.73 55.5625 361.73 59.4492C361.73 61.1484 362.297 62.4766 363.43 63.4336C364.562 64.3906 366.018 64.8691 367.795 64.8691ZM397.209 29.625V37.3008H403.127V41.4902H397.209V61.1484C397.209 62.418 397.473 63.375 398 64.0195C398.527 64.6445 399.426 64.957 400.695 64.957C401.32 64.957 402.18 64.8398 403.273 64.6055V69C401.848 69.3906 400.461 69.5859 399.113 69.5859C396.691 69.5859 394.865 68.8535 393.635 67.3887C392.404 65.9238 391.789 63.8438 391.789 61.1484V41.4902H386.018V37.3008H391.789V29.625H397.209ZM415.373 69H409.953V37.3008H415.373V69ZM409.514 28.8926C409.514 28.0137 409.777 27.2715 410.305 26.666C410.852 26.0605 411.652 25.7578 412.707 25.7578C413.762 25.7578 414.562 26.0605 415.109 26.666C415.656 27.2715 415.93 28.0137 415.93 28.8926C415.93 29.7715 415.656 30.5039 415.109 31.0898C414.562 31.6758 413.762 31.9688 412.707 31.9688C411.652 31.9688 410.852 31.6758 410.305 31.0898C409.777 30.5039 409.514 29.7715 409.514 28.8926ZM434.533 61.6465L442.385 37.3008H447.922L436.555 69H432.424L420.939 37.3008H426.477L434.533 61.6465ZM465.881 69.5859C461.584 69.5859 458.088 68.1797 455.393 65.3672C452.697 62.5352 451.35 58.7559 451.35 54.0293V53.0332C451.35 49.8887 451.945 47.0859 453.137 44.625C454.348 42.1445 456.027 40.2109 458.176 38.8242C460.344 37.418 462.688 36.7148 465.207 36.7148C469.328 36.7148 472.531 38.0723 474.816 40.7871C477.102 43.502 478.244 47.3887 478.244 52.4473V54.7031H456.77C456.848 57.8281 457.756 60.3574 459.494 62.291C461.252 64.2051 463.479 65.1621 466.174 65.1621C468.088 65.1621 469.709 64.7715 471.037 63.9902C472.365 63.209 473.527 62.1738 474.523 60.8848L477.834 63.4629C475.178 67.5449 471.193 69.5859 465.881 69.5859ZM465.207 41.168C463.02 41.168 461.184 41.9688 459.699 43.5703C458.215 45.1523 457.297 47.3789 456.945 50.25H472.824V49.8398C472.668 47.0859 471.926 44.957 470.598 43.4531C469.27 41.9297 467.473 41.168 465.207 41.168Z" fill="#5E5E5E" fill-opacity="0.47"/>
<path d="M163.596 51.7441H153.576V69H147.922V26.3438H162.043C166.848 26.3438 170.539 27.4375 173.117 29.625C175.715 31.8125 177.014 34.9961 177.014 39.1758C177.014 41.832 176.291 44.1465 174.846 46.1191C173.42 48.0918 171.428 49.5664 168.869 50.543L178.889 68.6484V69H172.854L163.596 51.7441ZM153.576 47.1445H162.219C165.012 47.1445 167.229 46.4219 168.869 44.9766C170.529 43.5312 171.359 41.5977 171.359 39.1758C171.359 36.5391 170.568 34.5176 168.986 33.1113C167.424 31.7051 165.158 30.9922 162.189 30.9727H153.576V47.1445ZM197.229 69.5859C192.932 69.5859 189.436 68.1797 186.74 65.3672C184.045 62.5352 182.697 58.7559 182.697 54.0293V53.0332C182.697 49.8887 183.293 47.0859 184.484 44.625C185.695 42.1445 187.375 40.2109 189.523 38.8242C191.691 37.418 194.035 36.7148 196.555 36.7148C200.676 36.7148 203.879 38.0723 206.164 40.7871C208.449 43.502 209.592 47.3887 209.592 52.4473V54.7031H188.117C188.195 57.8281 189.104 60.3574 190.842 62.291C192.6 64.2051 194.826 65.1621 197.521 65.1621C199.436 65.1621 201.057 64.7715 202.385 63.9902C203.713 63.209 204.875 62.1738 205.871 60.8848L209.182 63.4629C206.525 67.5449 202.541 69.5859 197.229 69.5859ZM196.555 41.168C194.367 41.168 192.531 41.9688 191.047 43.5703C189.562 45.1523 188.645 47.3789 188.293 50.25H204.172V49.8398C204.016 47.0859 203.273 44.957 201.945 43.4531C200.617 41.9297 198.82 41.168 196.555 41.168ZM235.461 69C235.148 68.375 234.895 67.2617 234.699 65.6602C232.18 68.2773 229.172 69.5859 225.676 69.5859C222.551 69.5859 219.982 68.707 217.971 66.9492C215.979 65.1719 214.982 62.9258 214.982 60.2109C214.982 56.9102 216.232 54.3516 218.732 52.5352C221.252 50.6992 224.787 49.7812 229.338 49.7812H234.611V47.291C234.611 45.3965 234.045 43.8926 232.912 42.7793C231.779 41.6465 230.109 41.0801 227.902 41.0801C225.969 41.0801 224.348 41.5684 223.039 42.5449C221.73 43.5215 221.076 44.7031 221.076 46.0898H215.627C215.627 44.5078 216.184 42.9844 217.297 41.5195C218.43 40.0352 219.953 38.8633 221.867 38.0039C223.801 37.1445 225.92 36.7148 228.225 36.7148C231.877 36.7148 234.738 37.6328 236.809 39.4688C238.879 41.2852 239.953 43.7949 240.031 46.998V61.5879C240.031 64.498 240.402 66.8125 241.145 68.5312V69H235.461ZM226.467 64.8691C228.166 64.8691 229.777 64.4297 231.301 63.5508C232.824 62.6719 233.928 61.5293 234.611 60.123V53.6191H230.363C223.723 53.6191 220.402 55.5625 220.402 59.4492C220.402 61.1484 220.969 62.4766 222.102 63.4336C223.234 64.3906 224.689 64.8691 226.467 64.8691ZM261.242 65.1621C263.176 65.1621 264.865 64.5762 266.311 63.4043C267.756 62.2324 268.557 60.7676 268.713 59.0098H273.84C273.742 60.8262 273.117 62.5547 271.965 64.1953C270.812 65.8359 269.27 67.1445 267.336 68.1211C265.422 69.0977 263.391 69.5859 261.242 69.5859C256.926 69.5859 253.488 68.1504 250.93 65.2793C248.391 62.3887 247.121 58.4434 247.121 53.4434V52.5352C247.121 49.4492 247.688 46.7051 248.82 44.3027C249.953 41.9004 251.574 40.0352 253.684 38.707C255.812 37.3789 258.322 36.7148 261.213 36.7148C264.768 36.7148 267.717 37.7793 270.061 39.9082C272.424 42.0371 273.684 44.8008 273.84 48.1992H268.713C268.557 46.1484 267.775 44.4688 266.369 43.1602C264.982 41.832 263.264 41.168 261.213 41.168C258.459 41.168 256.32 42.1641 254.797 44.1562C253.293 46.1289 252.541 48.9902 252.541 52.7402V53.7656C252.541 57.418 253.293 60.2305 254.797 62.2031C256.301 64.1758 258.449 65.1621 261.242 65.1621ZM287.287 29.625V37.3008H293.205V41.4902H287.287V61.1484C287.287 62.418 287.551 63.375 288.078 64.0195C288.605 64.6445 289.504 64.957 290.773 64.957C291.398 64.957 292.258 64.8398 293.352 64.6055V69C291.926 69.3906 290.539 69.5859 289.191 69.5859C286.77 69.5859 284.943 68.8535 283.713 67.3887C282.482 65.9238 281.867 63.8438 281.867 61.1484V41.4902H276.096V37.3008H281.867V29.625H287.287ZM348.078 69H342.424L320.949 36.1289V69H315.295V26.3438H320.949L342.482 59.3613V26.3438H348.078V69ZM376.789 69C376.477 68.375 376.223 67.2617 376.027 65.6602C373.508 68.2773 370.5 69.5859 367.004 69.5859C363.879 69.5859 361.311 68.707 359.299 66.9492C357.307 65.1719 356.311 62.9258 356.311 60.2109C356.311 56.9102 357.561 54.3516 360.061 52.5352C362.58 50.6992 366.115 49.7812 370.666 49.7812H375.939V47.291C375.939 45.3965 375.373 43.8926 374.24 42.7793C373.107 41.6465 371.438 41.0801 369.23 41.0801C367.297 41.0801 365.676 41.5684 364.367 42.5449C363.059 43.5215 362.404 44.7031 362.404 46.0898H356.955C356.955 44.5078 357.512 42.9844 358.625 41.5195C359.758 40.0352 361.281 38.8633 363.195 38.0039C365.129 37.1445 367.248 36.7148 369.553 36.7148C373.205 36.7148 376.066 37.6328 378.137 39.4688C380.207 41.2852 381.281 43.7949 381.359 46.998V61.5879C381.359 64.498 381.73 66.8125 382.473 68.5312V69H376.789ZM367.795 64.8691C369.494 64.8691 371.105 64.4297 372.629 63.5508C374.152 62.6719 375.256 61.5293 375.939 60.123V53.6191H371.691C365.051 53.6191 361.73 55.5625 361.73 59.4492C361.73 61.1484 362.297 62.4766 363.43 63.4336C364.562 64.3906 366.018 64.8691 367.795 64.8691ZM397.209 29.625V37.3008H403.127V41.4902H397.209V61.1484C397.209 62.418 397.473 63.375 398 64.0195C398.527 64.6445 399.426 64.957 400.695 64.957C401.32 64.957 402.18 64.8398 403.273 64.6055V69C401.848 69.3906 400.461 69.5859 399.113 69.5859C396.691 69.5859 394.865 68.8535 393.635 67.3887C392.404 65.9238 391.789 63.8438 391.789 61.1484V41.4902H386.018V37.3008H391.789V29.625H397.209ZM415.373 69H409.953V37.3008H415.373V69ZM409.514 28.8926C409.514 28.0137 409.777 27.2715 410.305 26.666C410.852 26.0605 411.652 25.7578 412.707 25.7578C413.762 25.7578 414.562 26.0605 415.109 26.666C415.656 27.2715 415.93 28.0137 415.93 28.8926C415.93 29.7715 415.656 30.5039 415.109 31.0898C414.562 31.6758 413.762 31.9688 412.707 31.9688C411.652 31.9688 410.852 31.6758 410.305 31.0898C409.777 30.5039 409.514 29.7715 409.514 28.8926ZM434.533 61.6465L442.385 37.3008H447.922L436.555 69H432.424L420.939 37.3008H426.477L434.533 61.6465ZM465.881 69.5859C461.584 69.5859 458.088 68.1797 455.393 65.3672C452.697 62.5352 451.35 58.7559 451.35 54.0293V53.0332C451.35 49.8887 451.945 47.0859 453.137 44.625C454.348 42.1445 456.027 40.2109 458.176 38.8242C460.344 37.418 462.688 36.7148 465.207 36.7148C469.328 36.7148 472.531 38.0723 474.816 40.7871C477.102 43.502 478.244 47.3887 478.244 52.4473V54.7031H456.77C456.848 57.8281 457.756 60.3574 459.494 62.291C461.252 64.2051 463.479 65.1621 466.174 65.1621C468.088 65.1621 469.709 64.7715 471.037 63.9902C472.365 63.209 473.527 62.1738 474.523 60.8848L477.834 63.4629C475.178 67.5449 471.193 69.5859 465.881 69.5859ZM465.207 41.168C463.02 41.168 461.184 41.9688 459.699 43.5703C458.215 45.1523 457.297 47.3789 456.945 50.25H472.824V49.8398C472.668 47.0859 471.926 44.957 470.598 43.4531C469.27 41.9297 467.473 41.168 465.207 41.168Z" fill="white"/>
<defs>
<linearGradient id="paint0_linear" x1="54" y1="-10" x2="54" y2="114" gradientUnits="userSpaceOnUse">
<stop stop-color="white" stop-opacity="0"/>
<stop offset="1" stop-opacity="0.33"/>
</linearGradient>
<linearGradient id="paint1_linear" x1="315.5" y1="-10" x2="315.5" y2="114" gradientUnits="userSpaceOnUse">
<stop stop-opacity="0.78"/>
<stop offset="0.454792" stop-color="#242424"/>
<stop offset="1" stop-color="#020202"/>
</linearGradient>
</defs>
</svg>
