<svg width="639" height="97" viewBox="0 0 639 97" fill="none" xmlns="http://www.w3.org/2000/svg">
<mask id="mask0" mask-type="alpha" maskUnits="userSpaceOnUse" x="0" y="0" width="639" height="97">
<rect width="639" height="97" rx="15" fill="#C4C4C4"/>
</mask>
<g mask="url(#mask0)">
<g style="mix-blend-mode:multiply">
<rect x="-15" y="-10" width="138" height="124" fill="#FFEB39"/>
<rect x="-15" y="-10" width="138" height="124" fill="url(#paint0_linear)" fill-opacity="0.6"/>
</g>
<g style="mix-blend-mode:multiply">
<rect x="123" y="-10" width="526" height="124" fill="url(#paint1_linear)"/>
</g>
<path d="M504.459 -5.06734H521.422V85.5479C521.422 97.794 517.73 107.374 510.348 114.288C503.023 121.202 493.238 124.659 480.992 124.659C468.277 124.659 458.375 121.407 451.285 114.903C444.195 108.399 440.65 99.2881 440.65 87.5694H457.525C457.525 94.8936 459.518 100.606 463.502 104.708C467.545 108.81 473.375 110.86 480.992 110.86C487.965 110.86 493.59 108.663 497.867 104.269C502.203 99.8741 504.4 93.7217 504.459 85.8116V-5.06734ZM623.902 91.4366C623.902 84.3467 621.412 78.751 616.432 74.6495C611.451 70.4893 602.34 66.5635 589.098 62.8721C575.855 59.1221 566.188 55.0499 560.094 50.6553C551.422 44.4444 547.086 36.2999 547.086 26.2217C547.086 16.4366 551.1 8.49712 559.127 2.40337C567.213 -3.74898 577.525 -6.82515 590.064 -6.82515C598.561 -6.82515 606.148 -5.18452 612.828 -1.90327C619.566 1.37798 624.781 5.94829 628.473 11.8077C632.164 17.667 634.01 24.2002 634.01 31.4073H623.111C623.111 22.6768 620.123 15.6749 614.146 10.4014C608.17 5.06938 600.143 2.40337 590.064 2.40337C580.279 2.40337 572.486 4.60063 566.686 8.99516C560.885 13.3311 557.984 19.0147 557.984 26.0459C557.984 32.5499 560.592 37.8526 565.807 41.9541C571.021 46.0557 579.371 49.6885 590.855 52.8526C602.34 55.9581 611.041 59.21 616.959 62.6084C622.877 65.9483 627.33 69.962 630.318 74.6495C633.307 79.337 634.801 84.8741 634.801 91.2608C634.801 101.339 630.758 109.425 622.672 115.519C614.645 121.612 604.039 124.659 590.855 124.659C581.832 124.659 573.541 123.048 565.982 119.825C558.482 116.603 552.77 112.091 548.844 106.29C544.977 100.489 543.043 93.8389 543.043 86.3389H553.854C553.854 95.3624 557.223 102.481 563.961 107.696C570.699 112.911 579.664 115.519 590.855 115.519C600.816 115.519 608.814 113.321 614.85 108.927C620.885 104.532 623.902 98.7022 623.902 91.4366Z" fill="white" fill-opacity="0.07"/>
</g>
<path d="M48.1079 20.6797H55.1758V58.436C55.1758 63.5386 53.6377 67.5303 50.5615 70.4111C47.5098 73.292 43.4326 74.7324 38.3301 74.7324C33.0322 74.7324 28.9062 73.3774 25.9521 70.6675C22.998 67.9575 21.521 64.1611 21.521 59.2783H28.5522C28.5522 62.3301 29.3823 64.7104 31.0425 66.4194C32.7271 68.1284 35.1562 68.9829 38.3301 68.9829C41.2354 68.9829 43.5791 68.0674 45.3613 66.2363C47.168 64.4053 48.0835 61.8418 48.1079 58.5459V20.6797ZM97.876 60.8896C97.876 57.9355 96.8384 55.604 94.7632 53.895C92.688 52.1616 88.8916 50.5259 83.374 48.9878C77.8564 47.4253 73.8281 45.7285 71.2891 43.8975C67.6758 41.3096 65.8691 37.916 65.8691 33.7168C65.8691 29.6396 67.5415 26.3315 70.8862 23.7925C74.2554 21.229 78.5522 19.9473 83.7769 19.9473C87.3169 19.9473 90.4785 20.6309 93.2617 21.998C96.0693 23.3652 98.2422 25.2695 99.7803 27.7109C101.318 30.1523 102.087 32.8745 102.087 35.8774H97.5464C97.5464 32.2397 96.3013 29.3223 93.811 27.125C91.3208 24.9033 87.9761 23.7925 83.7769 23.7925C79.6997 23.7925 76.4526 24.708 74.0356 26.5391C71.6187 28.3457 70.4102 30.7139 70.4102 33.6436C70.4102 36.3535 71.4966 38.563 73.6694 40.272C75.8423 41.981 79.3213 43.4946 84.1064 44.813C88.8916 46.1069 92.5171 47.4619 94.9829 48.8779C97.4487 50.2695 99.3042 51.9419 100.549 53.895C101.794 55.8481 102.417 58.1553 102.417 60.8164C102.417 65.0156 100.732 68.3848 97.3633 70.9238C94.0186 73.4629 89.5996 74.7324 84.1064 74.7324C80.3467 74.7324 76.8921 74.061 73.7427 72.7183C70.6177 71.3755 68.2373 69.4956 66.6016 67.0786C64.9902 64.6616 64.1846 61.8906 64.1846 58.7656H68.689C68.689 62.5254 70.0928 65.4917 72.9004 67.6646C75.708 69.8374 79.4434 70.9238 84.1064 70.9238C88.2568 70.9238 91.5894 70.0083 94.104 68.1772C96.6187 66.3462 97.876 63.917 97.876 60.8896Z" fill="#5E5E5E" fill-opacity="0.45"/>
<path d="M49.1079 20.6797H56.1758V58.436C56.1758 63.5386 54.6377 67.5303 51.5615 70.4111C48.5098 73.292 44.4326 74.7324 39.3301 74.7324C34.0322 74.7324 29.9062 73.3774 26.9521 70.6675C23.998 67.9575 22.521 64.1611 22.521 59.2783H29.5522C29.5522 62.3301 30.3823 64.7104 32.0425 66.4194C33.7271 68.1284 36.1562 68.9829 39.3301 68.9829C42.2354 68.9829 44.5791 68.0674 46.3613 66.2363C48.168 64.4053 49.0835 61.8418 49.1079 58.5459V20.6797ZM98.876 60.8896C98.876 57.9355 97.8384 55.604 95.7632 53.895C93.688 52.1616 89.8916 50.5259 84.374 48.9878C78.8564 47.4253 74.8281 45.7285 72.2891 43.8975C68.6758 41.3096 66.8691 37.916 66.8691 33.7168C66.8691 29.6396 68.5415 26.3315 71.8862 23.7925C75.2554 21.229 79.5522 19.9473 84.7769 19.9473C88.3169 19.9473 91.4785 20.6309 94.2617 21.998C97.0693 23.3652 99.2422 25.2695 100.78 27.7109C102.318 30.1523 103.087 32.8745 103.087 35.8774H98.5464C98.5464 32.2397 97.3013 29.3223 94.811 27.125C92.3208 24.9033 88.9761 23.7925 84.7769 23.7925C80.6997 23.7925 77.4526 24.708 75.0356 26.5391C72.6187 28.3457 71.4102 30.7139 71.4102 33.6436C71.4102 36.3535 72.4966 38.563 74.6694 40.272C76.8423 41.981 80.3213 43.4946 85.1064 44.813C89.8916 46.1069 93.5171 47.4619 95.9829 48.8779C98.4487 50.2695 100.304 51.9419 101.549 53.895C102.794 55.8481 103.417 58.1553 103.417 60.8164C103.417 65.0156 101.732 68.3848 98.3633 70.9238C95.0186 73.4629 90.5996 74.7324 85.1064 74.7324C81.3467 74.7324 77.8921 74.061 74.7427 72.7183C71.6177 71.3755 69.2373 69.4956 67.6016 67.0786C65.9902 64.6616 65.1846 61.8906 65.1846 58.7656H69.689C69.689 62.5254 71.0928 65.4917 73.9004 67.6646C76.708 69.8374 80.4434 70.9238 85.1064 70.9238C89.2568 70.9238 92.5894 70.0083 95.104 68.1772C97.6187 66.3462 98.876 63.917 98.876 60.8896Z" fill="white"/>
<path d="M165.822 26.3438H171.477V56.5488C171.477 60.6309 170.246 63.8242 167.785 66.1289C165.344 68.4336 162.082 69.5859 158 69.5859C153.762 69.5859 150.461 68.502 148.098 66.334C145.734 64.166 144.553 61.1289 144.553 57.2227H150.178C150.178 59.6641 150.842 61.5684 152.17 62.9355C153.518 64.3027 155.461 64.9863 158 64.9863C160.324 64.9863 162.199 64.2539 163.625 62.7891C165.07 61.3242 165.803 59.2734 165.822 56.6367V26.3438ZM199.777 69C199.465 68.375 199.211 67.2617 199.016 65.6602C196.496 68.2773 193.488 69.5859 189.992 69.5859C186.867 69.5859 184.299 68.707 182.287 66.9492C180.295 65.1719 179.299 62.9258 179.299 60.2109C179.299 56.9102 180.549 54.3516 183.049 52.5352C185.568 50.6992 189.104 49.7812 193.654 49.7812H198.928V47.291C198.928 45.3965 198.361 43.8926 197.229 42.7793C196.096 41.6465 194.426 41.0801 192.219 41.0801C190.285 41.0801 188.664 41.5684 187.355 42.5449C186.047 43.5215 185.393 44.7031 185.393 46.0898H179.943C179.943 44.5078 180.5 42.9844 181.613 41.5195C182.746 40.0352 184.27 38.8633 186.184 38.0039C188.117 37.1445 190.236 36.7148 192.541 36.7148C196.193 36.7148 199.055 37.6328 201.125 39.4688C203.195 41.2852 204.27 43.7949 204.348 46.998V61.5879C204.348 64.498 204.719 66.8125 205.461 68.5312V69H199.777ZM190.783 64.8691C192.482 64.8691 194.094 64.4297 195.617 63.5508C197.141 62.6719 198.244 61.5293 198.928 60.123V53.6191H194.68C188.039 53.6191 184.719 55.5625 184.719 59.4492C184.719 61.1484 185.285 62.4766 186.418 63.4336C187.551 64.3906 189.006 64.8691 190.783 64.8691ZM222.834 61.6465L230.686 37.3008H236.223L224.855 69H220.725L209.24 37.3008H214.777L222.834 61.6465ZM260.539 69C260.227 68.375 259.973 67.2617 259.777 65.6602C257.258 68.2773 254.25 69.5859 250.754 69.5859C247.629 69.5859 245.061 68.707 243.049 66.9492C241.057 65.1719 240.061 62.9258 240.061 60.2109C240.061 56.9102 241.311 54.3516 243.811 52.5352C246.33 50.6992 249.865 49.7812 254.416 49.7812H259.689V47.291C259.689 45.3965 259.123 43.8926 257.99 42.7793C256.857 41.6465 255.188 41.0801 252.98 41.0801C251.047 41.0801 249.426 41.5684 248.117 42.5449C246.809 43.5215 246.154 44.7031 246.154 46.0898H240.705C240.705 44.5078 241.262 42.9844 242.375 41.5195C243.508 40.0352 245.031 38.8633 246.945 38.0039C248.879 37.1445 250.998 36.7148 253.303 36.7148C256.955 36.7148 259.816 37.6328 261.887 39.4688C263.957 41.2852 265.031 43.7949 265.109 46.998V61.5879C265.109 64.498 265.48 66.8125 266.223 68.5312V69H260.539ZM251.545 64.8691C253.244 64.8691 254.855 64.4297 256.379 63.5508C257.902 62.6719 259.006 61.5293 259.689 60.123V53.6191H255.441C248.801 53.6191 245.48 55.5625 245.48 59.4492C245.48 61.1484 246.047 62.4766 247.18 63.4336C248.312 64.3906 249.768 64.8691 251.545 64.8691ZM292.062 60.5918C292.062 59.127 291.506 57.9941 290.393 57.1934C289.299 56.373 287.375 55.6699 284.621 55.084C281.887 54.498 279.709 53.7949 278.088 52.9746C276.486 52.1543 275.295 51.1777 274.514 50.0449C273.752 48.9121 273.371 47.5645 273.371 46.002C273.371 43.4043 274.465 41.207 276.652 39.4102C278.859 37.6133 281.672 36.7148 285.09 36.7148C288.684 36.7148 291.594 37.6426 293.82 39.498C296.066 41.3535 297.189 43.7266 297.189 46.6172H291.74C291.74 45.1328 291.105 43.8535 289.836 42.7793C288.586 41.7051 287.004 41.168 285.09 41.168C283.117 41.168 281.574 41.5977 280.461 42.457C279.348 43.3164 278.791 44.4395 278.791 45.8262C278.791 47.1348 279.309 48.1211 280.344 48.7852C281.379 49.4492 283.244 50.084 285.939 50.6895C288.654 51.2949 290.852 52.0176 292.531 52.8574C294.211 53.6973 295.451 54.7129 296.252 55.9043C297.072 57.0762 297.482 58.5117 297.482 60.2109C297.482 63.043 296.35 65.3184 294.084 67.0371C291.818 68.7363 288.879 69.5859 285.266 69.5859C282.727 69.5859 280.48 69.1367 278.527 68.2383C276.574 67.3398 275.041 66.0898 273.928 64.4883C272.834 62.8672 272.287 61.1191 272.287 59.2441H277.707C277.805 61.0605 278.527 62.5059 279.875 63.5801C281.242 64.6348 283.039 65.1621 285.266 65.1621C287.316 65.1621 288.957 64.752 290.188 63.9316C291.438 63.0918 292.062 61.9785 292.062 60.5918ZM317.258 65.1621C319.191 65.1621 320.881 64.5762 322.326 63.4043C323.771 62.2324 324.572 60.7676 324.729 59.0098H329.855C329.758 60.8262 329.133 62.5547 327.98 64.1953C326.828 65.8359 325.285 67.1445 323.352 68.1211C321.438 69.0977 319.406 69.5859 317.258 69.5859C312.941 69.5859 309.504 68.1504 306.945 65.2793C304.406 62.3887 303.137 58.4434 303.137 53.4434V52.5352C303.137 49.4492 303.703 46.7051 304.836 44.3027C305.969 41.9004 307.59 40.0352 309.699 38.707C311.828 37.3789 314.338 36.7148 317.229 36.7148C320.783 36.7148 323.732 37.7793 326.076 39.9082C328.439 42.0371 329.699 44.8008 329.855 48.1992H324.729C324.572 46.1484 323.791 44.4688 322.385 43.1602C320.998 41.832 319.279 41.168 317.229 41.168C314.475 41.168 312.336 42.1641 310.812 44.1562C309.309 46.1289 308.557 48.9902 308.557 52.7402V53.7656C308.557 57.418 309.309 60.2305 310.812 62.2031C312.316 64.1758 314.465 65.1621 317.258 65.1621ZM351.271 42.1641C350.451 42.0273 349.562 41.959 348.605 41.959C345.051 41.959 342.639 43.4727 341.369 46.5V69H335.949V37.3008H341.223L341.311 40.9629C343.088 38.1309 345.607 36.7148 348.869 36.7148C349.924 36.7148 350.725 36.8516 351.271 37.125V42.1641ZM362.17 69H356.75V37.3008H362.17V69ZM356.311 28.8926C356.311 28.0137 356.574 27.2715 357.102 26.666C357.648 26.0605 358.449 25.7578 359.504 25.7578C360.559 25.7578 361.359 26.0605 361.906 26.666C362.453 27.2715 362.727 28.0137 362.727 28.8926C362.727 29.7715 362.453 30.5039 361.906 31.0898C361.359 31.6758 360.559 31.9688 359.504 31.9688C358.449 31.9688 357.648 31.6758 357.102 31.0898C356.574 30.5039 356.311 29.7715 356.311 28.8926ZM397.648 53.502C397.648 58.3262 396.545 62.2129 394.338 65.1621C392.131 68.1113 389.143 69.5859 385.373 69.5859C381.525 69.5859 378.498 68.3652 376.291 65.9238V81.1875H370.871V37.3008H375.822L376.086 40.8164C378.293 38.082 381.359 36.7148 385.285 36.7148C389.094 36.7148 392.102 38.1504 394.309 41.0215C396.535 43.8926 397.648 47.8867 397.648 53.0039V53.502ZM392.229 52.8867C392.229 49.3125 391.467 46.4902 389.943 44.4199C388.42 42.3496 386.33 41.3145 383.674 41.3145C380.393 41.3145 377.932 42.7695 376.291 45.6797V60.8262C377.912 63.7168 380.393 65.1621 383.732 65.1621C386.33 65.1621 388.391 64.1367 389.914 62.0859C391.457 60.0156 392.229 56.9492 392.229 52.8867ZM411.916 29.625V37.3008H417.834V41.4902H411.916V61.1484C411.916 62.418 412.18 63.375 412.707 64.0195C413.234 64.6445 414.133 64.957 415.402 64.957C416.027 64.957 416.887 64.8398 417.98 64.6055V69C416.555 69.3906 415.168 69.5859 413.82 69.5859C411.398 69.5859 409.572 68.8535 408.342 67.3887C407.111 65.9238 406.496 63.8438 406.496 61.1484V41.4902H400.725V37.3008H406.496V29.625H411.916Z" fill="#5E5E5E" fill-opacity="0.45"/>
<path d="M166.822 26.3438H172.477V56.5488C172.477 60.6309 171.246 63.8242 168.785 66.1289C166.344 68.4336 163.082 69.5859 159 69.5859C154.762 69.5859 151.461 68.502 149.098 66.334C146.734 64.166 145.553 61.1289 145.553 57.2227H151.178C151.178 59.6641 151.842 61.5684 153.17 62.9355C154.518 64.3027 156.461 64.9863 159 64.9863C161.324 64.9863 163.199 64.2539 164.625 62.7891C166.07 61.3242 166.803 59.2734 166.822 56.6367V26.3438ZM200.777 69C200.465 68.375 200.211 67.2617 200.016 65.6602C197.496 68.2773 194.488 69.5859 190.992 69.5859C187.867 69.5859 185.299 68.707 183.287 66.9492C181.295 65.1719 180.299 62.9258 180.299 60.2109C180.299 56.9102 181.549 54.3516 184.049 52.5352C186.568 50.6992 190.104 49.7812 194.654 49.7812H199.928V47.291C199.928 45.3965 199.361 43.8926 198.229 42.7793C197.096 41.6465 195.426 41.0801 193.219 41.0801C191.285 41.0801 189.664 41.5684 188.355 42.5449C187.047 43.5215 186.393 44.7031 186.393 46.0898H180.943C180.943 44.5078 181.5 42.9844 182.613 41.5195C183.746 40.0352 185.27 38.8633 187.184 38.0039C189.117 37.1445 191.236 36.7148 193.541 36.7148C197.193 36.7148 200.055 37.6328 202.125 39.4688C204.195 41.2852 205.27 43.7949 205.348 46.998V61.5879C205.348 64.498 205.719 66.8125 206.461 68.5312V69H200.777ZM191.783 64.8691C193.482 64.8691 195.094 64.4297 196.617 63.5508C198.141 62.6719 199.244 61.5293 199.928 60.123V53.6191H195.68C189.039 53.6191 185.719 55.5625 185.719 59.4492C185.719 61.1484 186.285 62.4766 187.418 63.4336C188.551 64.3906 190.006 64.8691 191.783 64.8691ZM223.834 61.6465L231.686 37.3008H237.223L225.855 69H221.725L210.24 37.3008H215.777L223.834 61.6465ZM261.539 69C261.227 68.375 260.973 67.2617 260.777 65.6602C258.258 68.2773 255.25 69.5859 251.754 69.5859C248.629 69.5859 246.061 68.707 244.049 66.9492C242.057 65.1719 241.061 62.9258 241.061 60.2109C241.061 56.9102 242.311 54.3516 244.811 52.5352C247.33 50.6992 250.865 49.7812 255.416 49.7812H260.689V47.291C260.689 45.3965 260.123 43.8926 258.99 42.7793C257.857 41.6465 256.188 41.0801 253.98 41.0801C252.047 41.0801 250.426 41.5684 249.117 42.5449C247.809 43.5215 247.154 44.7031 247.154 46.0898H241.705C241.705 44.5078 242.262 42.9844 243.375 41.5195C244.508 40.0352 246.031 38.8633 247.945 38.0039C249.879 37.1445 251.998 36.7148 254.303 36.7148C257.955 36.7148 260.816 37.6328 262.887 39.4688C264.957 41.2852 266.031 43.7949 266.109 46.998V61.5879C266.109 64.498 266.48 66.8125 267.223 68.5312V69H261.539ZM252.545 64.8691C254.244 64.8691 255.855 64.4297 257.379 63.5508C258.902 62.6719 260.006 61.5293 260.689 60.123V53.6191H256.441C249.801 53.6191 246.48 55.5625 246.48 59.4492C246.48 61.1484 247.047 62.4766 248.18 63.4336C249.312 64.3906 250.768 64.8691 252.545 64.8691ZM293.062 60.5918C293.062 59.127 292.506 57.9941 291.393 57.1934C290.299 56.373 288.375 55.6699 285.621 55.084C282.887 54.498 280.709 53.7949 279.088 52.9746C277.486 52.1543 276.295 51.1777 275.514 50.0449C274.752 48.9121 274.371 47.5645 274.371 46.002C274.371 43.4043 275.465 41.207 277.652 39.4102C279.859 37.6133 282.672 36.7148 286.09 36.7148C289.684 36.7148 292.594 37.6426 294.82 39.498C297.066 41.3535 298.189 43.7266 298.189 46.6172H292.74C292.74 45.1328 292.105 43.8535 290.836 42.7793C289.586 41.7051 288.004 41.168 286.09 41.168C284.117 41.168 282.574 41.5977 281.461 42.457C280.348 43.3164 279.791 44.4395 279.791 45.8262C279.791 47.1348 280.309 48.1211 281.344 48.7852C282.379 49.4492 284.244 50.084 286.939 50.6895C289.654 51.2949 291.852 52.0176 293.531 52.8574C295.211 53.6973 296.451 54.7129 297.252 55.9043C298.072 57.0762 298.482 58.5117 298.482 60.2109C298.482 63.043 297.35 65.3184 295.084 67.0371C292.818 68.7363 289.879 69.5859 286.266 69.5859C283.727 69.5859 281.48 69.1367 279.527 68.2383C277.574 67.3398 276.041 66.0898 274.928 64.4883C273.834 62.8672 273.287 61.1191 273.287 59.2441H278.707C278.805 61.0605 279.527 62.5059 280.875 63.5801C282.242 64.6348 284.039 65.1621 286.266 65.1621C288.316 65.1621 289.957 64.752 291.188 63.9316C292.438 63.0918 293.062 61.9785 293.062 60.5918ZM318.258 65.1621C320.191 65.1621 321.881 64.5762 323.326 63.4043C324.771 62.2324 325.572 60.7676 325.729 59.0098H330.855C330.758 60.8262 330.133 62.5547 328.98 64.1953C327.828 65.8359 326.285 67.1445 324.352 68.1211C322.438 69.0977 320.406 69.5859 318.258 69.5859C313.941 69.5859 310.504 68.1504 307.945 65.2793C305.406 62.3887 304.137 58.4434 304.137 53.4434V52.5352C304.137 49.4492 304.703 46.7051 305.836 44.3027C306.969 41.9004 308.59 40.0352 310.699 38.707C312.828 37.3789 315.338 36.7148 318.229 36.7148C321.783 36.7148 324.732 37.7793 327.076 39.9082C329.439 42.0371 330.699 44.8008 330.855 48.1992H325.729C325.572 46.1484 324.791 44.4688 323.385 43.1602C321.998 41.832 320.279 41.168 318.229 41.168C315.475 41.168 313.336 42.1641 311.812 44.1562C310.309 46.1289 309.557 48.9902 309.557 52.7402V53.7656C309.557 57.418 310.309 60.2305 311.812 62.2031C313.316 64.1758 315.465 65.1621 318.258 65.1621ZM352.271 42.1641C351.451 42.0273 350.562 41.959 349.605 41.959C346.051 41.959 343.639 43.4727 342.369 46.5V69H336.949V37.3008H342.223L342.311 40.9629C344.088 38.1309 346.607 36.7148 349.869 36.7148C350.924 36.7148 351.725 36.8516 352.271 37.125V42.1641ZM363.17 69H357.75V37.3008H363.17V69ZM357.311 28.8926C357.311 28.0137 357.574 27.2715 358.102 26.666C358.648 26.0605 359.449 25.7578 360.504 25.7578C361.559 25.7578 362.359 26.0605 362.906 26.666C363.453 27.2715 363.727 28.0137 363.727 28.8926C363.727 29.7715 363.453 30.5039 362.906 31.0898C362.359 31.6758 361.559 31.9688 360.504 31.9688C359.449 31.9688 358.648 31.6758 358.102 31.0898C357.574 30.5039 357.311 29.7715 357.311 28.8926ZM398.648 53.502C398.648 58.3262 397.545 62.2129 395.338 65.1621C393.131 68.1113 390.143 69.5859 386.373 69.5859C382.525 69.5859 379.498 68.3652 377.291 65.9238V81.1875H371.871V37.3008H376.822L377.086 40.8164C379.293 38.082 382.359 36.7148 386.285 36.7148C390.094 36.7148 393.102 38.1504 395.309 41.0215C397.535 43.8926 398.648 47.8867 398.648 53.0039V53.502ZM393.229 52.8867C393.229 49.3125 392.467 46.4902 390.943 44.4199C389.42 42.3496 387.33 41.3145 384.674 41.3145C381.393 41.3145 378.932 42.7695 377.291 45.6797V60.8262C378.912 63.7168 381.393 65.1621 384.732 65.1621C387.33 65.1621 389.391 64.1367 390.914 62.0859C392.457 60.0156 393.229 56.9492 393.229 52.8867ZM412.916 29.625V37.3008H418.834V41.4902H412.916V61.1484C412.916 62.418 413.18 63.375 413.707 64.0195C414.234 64.6445 415.133 64.957 416.402 64.957C417.027 64.957 417.887 64.8398 418.98 64.6055V69C417.555 69.3906 416.168 69.5859 414.82 69.5859C412.398 69.5859 410.572 68.8535 409.342 67.3887C408.111 65.9238 407.496 63.8438 407.496 61.1484V41.4902H401.725V37.3008H407.496V29.625H412.916Z" fill="white"/>
<defs>
<linearGradient id="paint0_linear" x1="54" y1="-10" x2="54" y2="114" gradientUnits="userSpaceOnUse">
<stop stop-color="white" stop-opacity="0"/>
<stop offset="1" stop-opacity="0.33"/>
</linearGradient>
<linearGradient id="paint1_linear" x1="386" y1="-10" x2="386" y2="114" gradientUnits="userSpaceOnUse">
<stop stop-opacity="0.78"/>
<stop offset="0.454792" stop-color="#242424"/>
<stop offset="1" stop-color="#020202"/>
</linearGradient>
</defs>
</svg>
