<svg width="489" height="97" viewBox="0 0 489 97" fill="none" xmlns="http://www.w3.org/2000/svg">
<mask id="mask0" mask-type="alpha" maskUnits="userSpaceOnUse" x="0" y="0" width="488" height="97">
<rect width="488" height="97" rx="15" fill="#C4C4C4"/>
</mask>
<g mask="url(#mask0)">
<g style="mix-blend-mode:multiply">
<rect x="-15" y="-10" width="138" height="124" fill="#777BB3"/>
<rect x="-15" y="-10" width="138" height="124" fill="url(#paint0_linear)" fill-opacity="0.6"/>
</g>
<g style="mix-blend-mode:multiply">
<rect x="123" y="-10" width="385" height="124" fill="url(#paint1_linear)"/>
</g>
<path d="M393 8.31546C453.117 8.31546 499.523 33.628 499.523 61.4014C499.523 89.5264 453.117 114.839 393 114.839C332.531 114.839 286.125 89.5264 286.125 61.4014C286.125 33.628 332.531 8.31546 393 8.31546ZM393 2.3389C330.773 2.3389 280.5 28.7061 280.5 61.4014C280.5 94.0967 330.773 120.815 393 120.815C454.875 120.815 505.5 94.0967 505.5 61.4014C505.5 28.7061 454.875 2.3389 393 2.3389ZM357.141 56.8311C354.328 70.8936 344.484 69.4873 332.531 69.4873L337.102 44.878C350.461 44.878 359.602 43.4717 357.141 56.8311ZM314.602 94.7998H327.609L330.422 78.9795C344.836 78.9795 353.977 80.0342 362.414 72.2998C371.555 63.8623 373.664 48.7451 367.336 41.3623C363.82 37.4951 358.547 35.3858 350.813 35.3858H326.203L314.602 94.7998ZM379.992 19.5655L368.391 78.9795H381.047L387.727 44.878C398.273 44.878 402.492 44.5264 404.602 46.6358C406.359 48.7451 405.305 50.8545 400.031 78.9795H413.039C418.664 50.1514 421.125 43.8233 415.852 39.253C410.93 34.6826 400.734 35.3858 389.484 35.3858L392.648 19.5655H379.992ZM458.039 56.8311C455.227 71.2451 445.031 69.4873 433.078 69.4873L438 44.878C451.359 44.878 460.5 43.4717 458.039 56.8311ZM415.5 94.7998H428.508L431.32 78.9795C446.438 78.9795 454.875 79.6826 462.961 72.2998C472.453 63.8623 474.563 48.7451 468.234 41.3623C464.719 37.4951 459.094 35.3858 451.711 35.3858H427.102L415.5 94.7998Z" fill="white" fill-opacity="0.07"/>
</g>
<path d="M62.5 26.7559C87.5488 26.7559 106.885 37.3027 106.885 48.875C106.885 60.5938 87.5488 71.1406 62.5 71.1406C37.3047 71.1406 17.9688 60.5938 17.9688 48.875C17.9688 37.3027 37.3047 26.7559 62.5 26.7559ZM62.5 24.2656C36.5723 24.2656 15.625 35.252 15.625 48.875C15.625 62.498 36.5723 73.6309 62.5 73.6309C88.2812 73.6309 109.375 62.498 109.375 48.875C109.375 35.252 88.2812 24.2656 62.5 24.2656ZM47.5586 46.9707C46.3867 52.8301 42.2852 52.2441 37.3047 52.2441L39.209 41.9902C44.7754 41.9902 48.584 41.4043 47.5586 46.9707ZM29.834 62.791H35.2539L36.4258 56.1992C42.4316 56.1992 46.2402 56.6387 49.7559 53.416C53.5645 49.9004 54.4434 43.6016 51.8066 40.5254C50.3418 38.9141 48.1445 38.0352 44.9219 38.0352H34.668L29.834 62.791ZM57.0801 31.4434L52.2461 56.1992H57.5195L60.3027 41.9902C64.6973 41.9902 66.4551 41.8438 67.334 42.7227C68.0664 43.6016 67.627 44.4805 65.4297 56.1992H70.8496C73.1934 44.1875 74.2188 41.5508 72.0215 39.6465C69.9707 37.7422 65.7227 38.0352 61.0352 38.0352L62.3535 31.4434H57.0801ZM89.5996 46.9707C88.4277 52.9766 84.1797 52.2441 79.1992 52.2441L81.25 41.9902C86.8164 41.9902 90.625 41.4043 89.5996 46.9707ZM71.875 62.791H77.2949L78.4668 56.1992C84.7656 56.1992 88.2812 56.4922 91.6504 53.416C95.6055 49.9004 96.4844 43.6016 93.8477 40.5254C92.3828 38.9141 90.0391 38.0352 86.9629 38.0352H76.709L71.875 62.791Z" fill="#5E5E5E" fill-opacity="0.45"/>
<path d="M63.5 26.7559C88.5488 26.7559 107.885 37.3027 107.885 48.875C107.885 60.5938 88.5488 71.1406 63.5 71.1406C38.3047 71.1406 18.9688 60.5938 18.9688 48.875C18.9688 37.3027 38.3047 26.7559 63.5 26.7559ZM63.5 24.2656C37.5723 24.2656 16.625 35.252 16.625 48.875C16.625 62.498 37.5723 73.6309 63.5 73.6309C89.2812 73.6309 110.375 62.498 110.375 48.875C110.375 35.252 89.2812 24.2656 63.5 24.2656ZM48.5586 46.9707C47.3867 52.8301 43.2852 52.2441 38.3047 52.2441L40.209 41.9902C45.7754 41.9902 49.584 41.4043 48.5586 46.9707ZM30.834 62.791H36.2539L37.4258 56.1992C43.4316 56.1992 47.2402 56.6387 50.7559 53.416C54.5645 49.9004 55.4434 43.6016 52.8066 40.5254C51.3418 38.9141 49.1445 38.0352 45.9219 38.0352H35.668L30.834 62.791ZM58.0801 31.4434L53.2461 56.1992H58.5195L61.3027 41.9902C65.6973 41.9902 67.4551 41.8438 68.334 42.7227C69.0664 43.6016 68.627 44.4805 66.4297 56.1992H71.8496C74.1934 44.1875 75.2188 41.5508 73.0215 39.6465C70.9707 37.7422 66.7227 38.0352 62.0352 38.0352L63.3535 31.4434H58.0801ZM90.5996 46.9707C89.4277 52.9766 85.1797 52.2441 80.1992 52.2441L82.25 41.9902C87.8164 41.9902 91.625 41.4043 90.5996 46.9707ZM72.875 62.791H78.2949L79.4668 56.1992C85.7656 56.1992 89.2812 56.4922 92.6504 53.416C96.6055 49.9004 97.4844 43.6016 94.8477 40.5254C93.3828 38.9141 91.0391 38.0352 87.9629 38.0352H77.709L72.875 62.791Z" fill="white"/>
<path d="M153.576 52.3008V69H147.951V26.3438H163.684C168.352 26.3438 172.004 27.5352 174.641 29.918C177.297 32.3008 178.625 35.4551 178.625 39.3809C178.625 43.5215 177.326 46.7148 174.729 48.9609C172.15 51.1875 168.449 52.3008 163.625 52.3008H153.576ZM153.576 47.7012H163.684C166.691 47.7012 168.996 46.998 170.598 45.5918C172.199 44.166 173 42.1152 173 39.4395C173 36.9004 172.199 34.8691 170.598 33.3457C168.996 31.8223 166.799 31.0312 164.006 30.9727H153.576V47.7012ZM218.586 69H212.932V49.2832H191.428V69H185.803V26.3438H191.428V44.6836H212.932V26.3438H218.586V69ZM234.201 52.3008V69H228.576V26.3438H244.309C248.977 26.3438 252.629 27.5352 255.266 29.918C257.922 32.3008 259.25 35.4551 259.25 39.3809C259.25 43.5215 257.951 46.7148 255.354 48.9609C252.775 51.1875 249.074 52.3008 244.25 52.3008H234.201ZM234.201 47.7012H244.309C247.316 47.7012 249.621 46.998 251.223 45.5918C252.824 44.166 253.625 42.1152 253.625 39.4395C253.625 36.9004 252.824 34.8691 251.223 33.3457C249.621 31.8223 247.424 31.0312 244.631 30.9727H234.201V47.7012Z" fill="#5E5E5E" fill-opacity="0.45"/>
<path d="M154.576 52.3008V69H148.951V26.3438H164.684C169.352 26.3438 173.004 27.5352 175.641 29.918C178.297 32.3008 179.625 35.4551 179.625 39.3809C179.625 43.5215 178.326 46.7148 175.729 48.9609C173.15 51.1875 169.449 52.3008 164.625 52.3008H154.576ZM154.576 47.7012H164.684C167.691 47.7012 169.996 46.998 171.598 45.5918C173.199 44.166 174 42.1152 174 39.4395C174 36.9004 173.199 34.8691 171.598 33.3457C169.996 31.8223 167.799 31.0312 165.006 30.9727H154.576V47.7012ZM219.586 69H213.932V49.2832H192.428V69H186.803V26.3438H192.428V44.6836H213.932V26.3438H219.586V69ZM235.201 52.3008V69H229.576V26.3438H245.309C249.977 26.3438 253.629 27.5352 256.266 29.918C258.922 32.3008 260.25 35.4551 260.25 39.3809C260.25 43.5215 258.951 46.7148 256.354 48.9609C253.775 51.1875 250.074 52.3008 245.25 52.3008H235.201ZM235.201 47.7012H245.309C248.316 47.7012 250.621 46.998 252.223 45.5918C253.824 44.166 254.625 42.1152 254.625 39.4395C254.625 36.9004 253.824 34.8691 252.223 33.3457C250.621 31.8223 248.424 31.0312 245.631 30.9727H235.201V47.7012Z" fill="white"/>
<defs>
<linearGradient id="paint0_linear" x1="54" y1="-10" x2="54" y2="114" gradientUnits="userSpaceOnUse">
<stop stop-color="white" stop-opacity="0"/>
<stop offset="1" stop-opacity="0.33"/>
</linearGradient>
<linearGradient id="paint1_linear" x1="315.5" y1="-10" x2="315.5" y2="114" gradientUnits="userSpaceOnUse">
<stop stop-opacity="0.78"/>
<stop offset="0.454792" stop-color="#242424"/>
<stop offset="1" stop-color="#020202"/>
</linearGradient>
</defs>
</svg>
