<svg width="488" height="97" viewBox="0 0 488 97" fill="none" xmlns="http://www.w3.org/2000/svg">
<mask id="mask0" mask-type="alpha" maskUnits="userSpaceOnUse" x="0" y="0" width="488" height="97">
<rect width="488" height="97" rx="15" fill="#C4C4C4"/>
</mask>
<g mask="url(#mask0)">
<g style="mix-blend-mode:multiply">
<rect x="-15" y="-10" width="138" height="124" fill="#CC6699"/>
<rect x="-15" y="-10" width="138" height="124" fill="url(#paint0_linear)" fill-opacity="0.6"/>
</g>
<g style="mix-blend-mode:multiply">
<rect x="123" y="-10" width="385" height="124" fill="url(#paint1_linear)"/>
</g>
<path d="M402.32 94.6436C402.32 94.9952 402.32 94.9952 402.32 94.6436V94.6436ZM489.859 64.0577C482.828 64.0577 475.797 65.8155 469.469 68.9795C467.711 64.7608 465.25 61.2452 464.898 58.4327C464.547 55.2686 464.195 53.1592 464.547 49.6436C465.25 45.7764 467.359 40.1514 467.359 39.7999C467.359 39.4483 467.008 37.6905 462.438 37.6905C457.867 37.6905 454 38.3936 453.297 39.7999C452.594 41.9092 451.891 44.0186 451.539 46.4795C450.836 50.3467 442.398 65.1124 437.828 72.8467C436.422 69.6827 435.016 67.2217 434.664 65.1124C434.313 61.9483 433.961 59.8389 434.313 56.3233C434.664 52.4561 437.125 47.1827 437.125 46.4795C436.773 46.128 436.422 44.3702 431.852 44.3702C427.281 44.3702 423.414 45.0733 423.063 46.4795C422.711 47.5342 422.008 50.3467 421.305 53.1592C420.25 55.6202 409.352 80.2295 406.539 86.5577C404.781 89.7217 403.727 92.5342 402.672 94.292C402.672 94.6436 402.672 94.6436 402.32 94.6436C402.672 94.6436 402.672 94.292 402.672 94.6436C401.969 96.0499 401.266 96.753 401.266 96.753C400.914 98.1592 400.211 99.2139 399.859 99.2139C399.508 99.2139 399.156 96.0499 399.859 92.1827C401.617 83.3936 405.484 70.3858 405.484 70.0342C405.484 69.6827 406.188 67.2217 403.023 66.167C399.508 65.1124 398.453 66.8702 398.102 66.8702L397.75 67.5733C397.75 67.5733 401.266 52.8077 391.07 52.8077C384.391 52.8077 375.602 59.8389 371.031 66.167C368.219 67.5733 362.242 71.0889 355.914 74.6045C353.453 75.6592 350.992 77.0655 348.531 78.4717L348.18 78.1202C335.523 64.4092 312.32 54.917 313.375 36.9874C313.727 30.3077 315.836 13.0811 358.023 -7.66109C392.477 -24.8876 419.898 -20.3173 424.82 -9.77046C431.5 5.34673 410.055 33.1202 374.195 36.9874C360.484 38.3936 353.453 33.1202 351.695 31.3624C349.586 29.253 349.586 29.253 348.883 29.6045C347.477 29.9561 348.18 32.0655 348.883 33.1202C349.938 35.9327 354.156 40.8545 361.539 43.3155C368.219 45.4249 384.391 46.4795 403.727 39.0967C425.172 30.6592 442.047 7.4561 437.125 -12.2314C432.203 -31.9189 399.508 -38.5986 368.219 -27.3486C349.586 -21.0205 329.547 -10.4736 315.133 2.88579C298.258 19.0577 295.445 32.7686 296.5 38.7452C300.719 59.4874 329.195 72.8467 340.445 83.042C340.094 83.3936 339.391 83.3936 339.039 83.7452C333.063 86.5577 311.617 98.1592 305.992 110.112C300.016 123.823 307.047 133.667 311.617 134.722C326.383 138.94 341.5 131.558 349.586 119.605C357.672 107.3 356.617 91.8311 352.75 84.4483C352.75 84.4483 352.75 84.4483 352.75 84.0967C354.156 83.3936 355.914 82.3389 357.32 81.6358C360.133 79.878 362.945 78.4717 365.406 77.0655C364 80.5811 362.945 85.1514 362.594 91.8311C361.891 99.5655 365.055 109.761 369.273 113.628C371.031 115.386 373.492 115.386 374.547 115.386C379.469 115.386 381.578 111.519 384.039 106.597C387.203 100.62 389.664 93.9405 389.664 93.9405C389.664 93.9405 386.5 112.222 395.641 112.222C398.805 112.222 401.969 108.003 403.727 105.894C403.727 105.894 403.727 105.894 403.727 105.542C404.078 104.839 404.43 104.487 404.43 104.487C405.836 102.378 408.648 97.1045 412.867 88.3155C418.844 77.0655 424.117 63.3545 424.117 63.3545C424.82 66.167 425.523 69.3311 426.227 72.1436C427.281 75.6592 429.391 79.1749 431.148 82.6905C429.742 84.7999 429.039 85.8545 429.039 85.8545C427.984 87.2608 426.578 88.667 425.523 90.0733C420.953 95.6983 415.68 101.675 414.977 103.433C413.922 105.542 414.273 106.948 416.031 108.355C417.086 109.058 419.195 109.409 421.305 109.058C425.523 108.706 428.336 108.003 429.742 107.3C432.203 106.245 434.664 105.19 436.773 103.433C441.344 100.269 443.805 95.6983 443.453 89.3702C443.453 86.2061 442.398 82.6905 440.992 79.5264C441.344 79.1749 441.695 78.4717 442.398 77.7686C449.078 67.5733 454.703 56.3233 454.703 56.3233C455.055 59.4874 455.758 62.6514 456.813 65.4639C457.516 68.2764 459.273 71.4405 460.68 74.6045C454.352 79.878 450.133 86.2061 448.727 90.0733C446.266 97.4561 448.375 100.972 451.891 101.675C453.648 102.026 456.109 101.323 458.219 100.62C460.68 99.5655 463.492 98.1592 465.602 96.753C470.172 93.2374 474.391 88.667 474.039 82.6905C474.039 79.878 472.984 77.0655 471.93 74.6045C477.555 72.1436 484.938 70.7374 494.078 71.792C513.414 74.253 517.281 86.5577 516.578 91.4795C515.875 96.753 511.656 99.5655 510.25 100.269C508.844 101.323 508.492 101.323 508.844 102.026C508.844 103.081 509.547 103.081 510.602 102.73C512.359 102.378 520.797 98.5108 521.148 89.0186C521.852 77.0655 510.25 64.0577 489.859 64.0577ZM339.039 115.034C332.711 122.065 323.57 124.878 319.703 122.417C315.484 119.956 317.242 109.761 325.328 102.026C329.898 97.4561 336.227 93.2374 340.445 90.7764C341.5 90.0733 342.555 89.3702 344.313 88.3155C344.664 88.3155 344.664 87.9639 344.664 87.9639C345.016 87.9639 345.367 87.6124 345.719 87.6124C348.883 98.1592 346.07 107.651 339.039 115.034ZM386.5 83.042C384.039 88.3155 379.469 102.378 376.656 101.675C374.195 101.323 372.438 90.4249 375.953 79.878C377.711 74.6045 381.578 68.2764 383.688 65.8155C387.203 61.9483 391.07 60.542 392.125 62.2999C393.18 64.0577 387.906 79.5264 386.5 83.042ZM425.523 101.675C424.469 102.026 423.414 102.378 423.063 102.026C422.711 102.026 423.414 101.323 423.414 101.323C423.414 101.323 428.336 96.0499 430.445 93.5889C431.5 92.1827 432.906 90.7764 434.313 88.667C434.313 89.0186 434.313 89.0186 434.313 89.3702C434.313 95.6983 427.984 99.917 425.523 101.675ZM455.406 94.6436C454.703 94.292 455.055 92.5342 457.164 87.6124C458.219 85.503 460.328 81.9874 463.844 78.8233C464.195 79.878 464.547 81.2842 464.547 82.6905C464.547 90.4249 458.922 93.5889 455.406 94.6436Z" fill="white" fill-opacity="0.07"/>
</g>
<path d="M59.7168 66.8926C59.7168 67.0391 59.7168 67.0391 59.7168 66.8926V66.8926ZM96.1914 54.1484C93.2617 54.1484 90.332 54.8809 87.6953 56.1992C86.9629 54.4414 85.9375 52.9766 85.791 51.8047C85.6445 50.4863 85.498 49.6074 85.6445 48.1426C85.9375 46.5312 86.8164 44.1875 86.8164 44.041C86.8164 43.8945 86.6699 43.1621 84.7656 43.1621C82.8613 43.1621 81.25 43.4551 80.957 44.041C80.6641 44.9199 80.3711 45.7988 80.2246 46.8242C79.9316 48.4355 76.416 54.5879 74.5117 57.8105C73.9258 56.4922 73.3398 55.4668 73.1934 54.5879C73.0469 53.2695 72.9004 52.3906 73.0469 50.9258C73.1934 49.3145 74.2188 47.1172 74.2188 46.8242C74.0723 46.6777 73.9258 45.9453 72.0215 45.9453C70.1172 45.9453 68.5059 46.2383 68.3594 46.8242C68.2129 47.2637 67.9199 48.4355 67.627 49.6074C67.1875 50.6328 62.6465 60.8867 61.4746 63.5234C60.7422 64.8418 60.3027 66.0137 59.8633 66.7461C59.8633 66.8926 59.8633 66.8926 59.7168 66.8926C59.8633 66.8926 59.8633 66.7461 59.8633 66.8926C59.5703 67.4785 59.2773 67.7715 59.2773 67.7715C59.1309 68.3574 58.8379 68.7969 58.6914 68.7969C58.5449 68.7969 58.3984 67.4785 58.6914 65.8672C59.4238 62.2051 61.0352 56.7852 61.0352 56.6387C61.0352 56.4922 61.3281 55.4668 60.0098 55.0273C58.5449 54.5879 58.1055 55.3203 57.959 55.3203L57.8125 55.6133C57.8125 55.6133 59.2773 49.4609 55.0293 49.4609C52.2461 49.4609 48.584 52.3906 46.6797 55.0273C45.5078 55.6133 43.0176 57.0781 40.3809 58.543C39.3555 58.9824 38.3301 59.5684 37.3047 60.1543L37.1582 60.0078C31.8848 54.2949 22.2168 50.3398 22.6562 42.8691C22.8027 40.0859 23.6816 32.9082 41.2598 24.2656C55.6152 17.0879 67.041 18.9922 69.0918 23.3867C71.875 29.6855 62.9395 41.2578 47.998 42.8691C42.2852 43.4551 39.3555 41.2578 38.623 40.5254C37.7441 39.6465 37.7441 39.6465 37.4512 39.793C36.8652 39.9395 37.1582 40.8184 37.4512 41.2578C37.8906 42.4297 39.6484 44.4805 42.7246 45.5059C45.5078 46.3848 52.2461 46.8242 60.3027 43.748C69.2383 40.2324 76.2695 30.5645 74.2188 22.3613C72.168 14.1582 58.5449 11.375 45.5078 16.0625C37.7441 18.6992 29.3945 23.0938 23.3887 28.6602C16.3574 35.3984 15.1855 41.1113 15.625 43.6016C17.3828 52.2441 29.248 57.8105 33.9355 62.0586C33.7891 62.2051 33.4961 62.2051 33.3496 62.3516C30.8594 63.5234 21.9238 68.3574 19.5801 73.3379C17.0898 79.0508 20.0195 83.1523 21.9238 83.5918C28.0762 85.3496 34.375 82.2734 37.7441 77.293C41.1133 72.166 40.6738 65.7207 39.0625 62.6445C39.0625 62.6445 39.0625 62.6445 39.0625 62.498C39.6484 62.2051 40.3809 61.7656 40.9668 61.4727C42.1387 60.7402 43.3105 60.1543 44.3359 59.5684C43.75 61.0332 43.3105 62.9375 43.1641 65.7207C42.8711 68.9434 44.1895 73.1914 45.9473 74.8027C46.6797 75.5352 47.7051 75.5352 48.1445 75.5352C50.1953 75.5352 51.0742 73.9238 52.0996 71.873C53.418 69.3828 54.4434 66.5996 54.4434 66.5996C54.4434 66.5996 53.125 74.2168 56.9336 74.2168C58.252 74.2168 59.5703 72.459 60.3027 71.5801C60.3027 71.5801 60.3027 71.5801 60.3027 71.4336C60.4492 71.1406 60.5957 70.9941 60.5957 70.9941C61.1816 70.1152 62.3535 67.918 64.1113 64.2559C66.6016 59.5684 68.7988 53.8555 68.7988 53.8555C69.0918 55.0273 69.3848 56.3457 69.6777 57.5176C70.1172 58.9824 70.9961 60.4473 71.7285 61.9121C71.1426 62.791 70.8496 63.2305 70.8496 63.2305C70.4102 63.8164 69.8242 64.4023 69.3848 64.9883C67.4805 67.332 65.2832 69.8223 64.9902 70.5547C64.5508 71.4336 64.6973 72.0195 65.4297 72.6055C65.8691 72.8984 66.748 73.0449 67.627 72.8984C69.3848 72.752 70.5566 72.459 71.1426 72.166C72.168 71.7266 73.1934 71.2871 74.0723 70.5547C75.9766 69.2363 77.002 67.332 76.8555 64.6953C76.8555 63.377 76.416 61.9121 75.8301 60.5938C75.9766 60.4473 76.123 60.1543 76.416 59.8613C79.1992 55.6133 81.543 50.9258 81.543 50.9258C81.6895 52.2441 81.9824 53.5625 82.4219 54.7344C82.7148 55.9062 83.4473 57.2246 84.0332 58.543C81.3965 60.7402 79.6387 63.377 79.0527 64.9883C78.0273 68.0645 78.9062 69.5293 80.3711 69.8223C81.1035 69.9688 82.1289 69.6758 83.0078 69.3828C84.0332 68.9434 85.2051 68.3574 86.084 67.7715C87.9883 66.3066 89.7461 64.4023 89.5996 61.9121C89.5996 60.7402 89.1602 59.5684 88.7207 58.543C91.0645 57.5176 94.1406 56.9316 97.9492 57.3711C106.006 58.3965 107.617 63.5234 107.324 65.5742C107.031 67.7715 105.273 68.9434 104.688 69.2363C104.102 69.6758 103.955 69.6758 104.102 69.9688C104.102 70.4082 104.395 70.4082 104.834 70.2617C105.566 70.1152 109.082 68.5039 109.229 64.5488C109.521 59.5684 104.688 54.1484 96.1914 54.1484ZM33.3496 75.3887C30.7129 78.3184 26.9043 79.4902 25.293 78.4648C23.5352 77.4395 24.2676 73.1914 27.6367 69.9688C29.541 68.0645 32.1777 66.3066 33.9355 65.2812C34.375 64.9883 34.8145 64.6953 35.5469 64.2559C35.6934 64.2559 35.6934 64.1094 35.6934 64.1094C35.8398 64.1094 35.9863 63.9629 36.1328 63.9629C37.4512 68.3574 36.2793 72.3125 33.3496 75.3887ZM53.125 62.0586C52.0996 64.2559 50.1953 70.1152 49.0234 69.8223C47.998 69.6758 47.2656 65.1348 48.7305 60.7402C49.4629 58.543 51.0742 55.9062 51.9531 54.8809C53.418 53.2695 55.0293 52.6836 55.4688 53.416C55.9082 54.1484 53.7109 60.5938 53.125 62.0586ZM69.3848 69.8223C68.9453 69.9688 68.5059 70.1152 68.3594 69.9688C68.2129 69.9688 68.5059 69.6758 68.5059 69.6758C68.5059 69.6758 70.5566 67.4785 71.4355 66.4531C71.875 65.8672 72.4609 65.2812 73.0469 64.4023C73.0469 64.5488 73.0469 64.5488 73.0469 64.6953C73.0469 67.332 70.4102 69.0898 69.3848 69.8223ZM81.8359 66.8926C81.543 66.7461 81.6895 66.0137 82.5684 63.9629C83.0078 63.084 83.8867 61.6191 85.3516 60.3008C85.498 60.7402 85.6445 61.3262 85.6445 61.9121C85.6445 65.1348 83.3008 66.4531 81.8359 66.8926Z" fill="#5E5E5E" fill-opacity="0.45"/>
<path d="M60.7168 66.8926C60.7168 67.0391 60.7168 67.0391 60.7168 66.8926V66.8926ZM97.1914 54.1484C94.2617 54.1484 91.332 54.8809 88.6953 56.1992C87.9629 54.4414 86.9375 52.9766 86.791 51.8047C86.6445 50.4863 86.498 49.6074 86.6445 48.1426C86.9375 46.5312 87.8164 44.1875 87.8164 44.041C87.8164 43.8945 87.6699 43.1621 85.7656 43.1621C83.8613 43.1621 82.25 43.4551 81.957 44.041C81.6641 44.9199 81.3711 45.7988 81.2246 46.8242C80.9316 48.4355 77.416 54.5879 75.5117 57.8105C74.9258 56.4922 74.3398 55.4668 74.1934 54.5879C74.0469 53.2695 73.9004 52.3906 74.0469 50.9258C74.1934 49.3145 75.2188 47.1172 75.2188 46.8242C75.0723 46.6777 74.9258 45.9453 73.0215 45.9453C71.1172 45.9453 69.5059 46.2383 69.3594 46.8242C69.2129 47.2637 68.9199 48.4355 68.627 49.6074C68.1875 50.6328 63.6465 60.8867 62.4746 63.5234C61.7422 64.8418 61.3027 66.0137 60.8633 66.7461C60.8633 66.8926 60.8633 66.8926 60.7168 66.8926C60.8633 66.8926 60.8633 66.7461 60.8633 66.8926C60.5703 67.4785 60.2773 67.7715 60.2773 67.7715C60.1309 68.3574 59.8379 68.7969 59.6914 68.7969C59.5449 68.7969 59.3984 67.4785 59.6914 65.8672C60.4238 62.2051 62.0352 56.7852 62.0352 56.6387C62.0352 56.4922 62.3281 55.4668 61.0098 55.0273C59.5449 54.5879 59.1055 55.3203 58.959 55.3203L58.8125 55.6133C58.8125 55.6133 60.2773 49.4609 56.0293 49.4609C53.2461 49.4609 49.584 52.3906 47.6797 55.0273C46.5078 55.6133 44.0176 57.0781 41.3809 58.543C40.3555 58.9824 39.3301 59.5684 38.3047 60.1543L38.1582 60.0078C32.8848 54.2949 23.2168 50.3398 23.6562 42.8691C23.8027 40.0859 24.6816 32.9082 42.2598 24.2656C56.6152 17.0879 68.041 18.9922 70.0918 23.3867C72.875 29.6855 63.9395 41.2578 48.998 42.8691C43.2852 43.4551 40.3555 41.2578 39.623 40.5254C38.7441 39.6465 38.7441 39.6465 38.4512 39.793C37.8652 39.9395 38.1582 40.8184 38.4512 41.2578C38.8906 42.4297 40.6484 44.4805 43.7246 45.5059C46.5078 46.3848 53.2461 46.8242 61.3027 43.748C70.2383 40.2324 77.2695 30.5645 75.2188 22.3613C73.168 14.1582 59.5449 11.375 46.5078 16.0625C38.7441 18.6992 30.3945 23.0938 24.3887 28.6602C17.3574 35.3984 16.1855 41.1113 16.625 43.6016C18.3828 52.2441 30.248 57.8105 34.9355 62.0586C34.7891 62.2051 34.4961 62.2051 34.3496 62.3516C31.8594 63.5234 22.9238 68.3574 20.5801 73.3379C18.0898 79.0508 21.0195 83.1523 22.9238 83.5918C29.0762 85.3496 35.375 82.2734 38.7441 77.293C42.1133 72.166 41.6738 65.7207 40.0625 62.6445C40.0625 62.6445 40.0625 62.6445 40.0625 62.498C40.6484 62.2051 41.3809 61.7656 41.9668 61.4727C43.1387 60.7402 44.3105 60.1543 45.3359 59.5684C44.75 61.0332 44.3105 62.9375 44.1641 65.7207C43.8711 68.9434 45.1895 73.1914 46.9473 74.8027C47.6797 75.5352 48.7051 75.5352 49.1445 75.5352C51.1953 75.5352 52.0742 73.9238 53.0996 71.873C54.418 69.3828 55.4434 66.5996 55.4434 66.5996C55.4434 66.5996 54.125 74.2168 57.9336 74.2168C59.252 74.2168 60.5703 72.459 61.3027 71.5801C61.3027 71.5801 61.3027 71.5801 61.3027 71.4336C61.4492 71.1406 61.5957 70.9941 61.5957 70.9941C62.1816 70.1152 63.3535 67.918 65.1113 64.2559C67.6016 59.5684 69.7988 53.8555 69.7988 53.8555C70.0918 55.0273 70.3848 56.3457 70.6777 57.5176C71.1172 58.9824 71.9961 60.4473 72.7285 61.9121C72.1426 62.791 71.8496 63.2305 71.8496 63.2305C71.4102 63.8164 70.8242 64.4023 70.3848 64.9883C68.4805 67.332 66.2832 69.8223 65.9902 70.5547C65.5508 71.4336 65.6973 72.0195 66.4297 72.6055C66.8691 72.8984 67.748 73.0449 68.627 72.8984C70.3848 72.752 71.5566 72.459 72.1426 72.166C73.168 71.7266 74.1934 71.2871 75.0723 70.5547C76.9766 69.2363 78.002 67.332 77.8555 64.6953C77.8555 63.377 77.416 61.9121 76.8301 60.5938C76.9766 60.4473 77.123 60.1543 77.416 59.8613C80.1992 55.6133 82.543 50.9258 82.543 50.9258C82.6895 52.2441 82.9824 53.5625 83.4219 54.7344C83.7148 55.9062 84.4473 57.2246 85.0332 58.543C82.3965 60.7402 80.6387 63.377 80.0527 64.9883C79.0273 68.0645 79.9062 69.5293 81.3711 69.8223C82.1035 69.9688 83.1289 69.6758 84.0078 69.3828C85.0332 68.9434 86.2051 68.3574 87.084 67.7715C88.9883 66.3066 90.7461 64.4023 90.5996 61.9121C90.5996 60.7402 90.1602 59.5684 89.7207 58.543C92.0645 57.5176 95.1406 56.9316 98.9492 57.3711C107.006 58.3965 108.617 63.5234 108.324 65.5742C108.031 67.7715 106.273 68.9434 105.688 69.2363C105.102 69.6758 104.955 69.6758 105.102 69.9688C105.102 70.4082 105.395 70.4082 105.834 70.2617C106.566 70.1152 110.082 68.5039 110.229 64.5488C110.521 59.5684 105.688 54.1484 97.1914 54.1484ZM34.3496 75.3887C31.7129 78.3184 27.9043 79.4902 26.293 78.4648C24.5352 77.4395 25.2676 73.1914 28.6367 69.9688C30.541 68.0645 33.1777 66.3066 34.9355 65.2812C35.375 64.9883 35.8145 64.6953 36.5469 64.2559C36.6934 64.2559 36.6934 64.1094 36.6934 64.1094C36.8398 64.1094 36.9863 63.9629 37.1328 63.9629C38.4512 68.3574 37.2793 72.3125 34.3496 75.3887ZM54.125 62.0586C53.0996 64.2559 51.1953 70.1152 50.0234 69.8223C48.998 69.6758 48.2656 65.1348 49.7305 60.7402C50.4629 58.543 52.0742 55.9062 52.9531 54.8809C54.418 53.2695 56.0293 52.6836 56.4688 53.416C56.9082 54.1484 54.7109 60.5938 54.125 62.0586ZM70.3848 69.8223C69.9453 69.9688 69.5059 70.1152 69.3594 69.9688C69.2129 69.9688 69.5059 69.6758 69.5059 69.6758C69.5059 69.6758 71.5566 67.4785 72.4355 66.4531C72.875 65.8672 73.4609 65.2812 74.0469 64.4023C74.0469 64.5488 74.0469 64.5488 74.0469 64.6953C74.0469 67.332 71.4102 69.0898 70.3848 69.8223ZM82.8359 66.8926C82.543 66.7461 82.6895 66.0137 83.5684 63.9629C84.0078 63.084 84.8867 61.6191 86.3516 60.3008C86.498 60.7402 86.6445 61.3262 86.6445 61.9121C86.6445 65.1348 84.3008 66.4531 82.8359 66.8926Z" fill="white"/>
<path d="M160.52 49.9863C155.695 48.5996 152.18 46.9004 149.973 44.8887C147.785 42.8574 146.691 40.3574 146.691 37.3887C146.691 34.0293 148.029 31.2559 150.705 29.0684C153.4 26.8613 156.896 25.7578 161.193 25.7578C164.123 25.7578 166.73 26.3242 169.016 27.457C171.32 28.5898 173.098 30.1523 174.348 32.1445C175.617 34.1367 176.252 36.3145 176.252 38.6777H170.598C170.598 36.0996 169.777 34.0781 168.137 32.6133C166.496 31.1289 164.182 30.3867 161.193 30.3867C158.42 30.3867 156.252 31.002 154.689 32.2324C153.146 33.4434 152.375 35.1328 152.375 37.3008C152.375 39.0391 153.107 40.5137 154.572 41.7246C156.057 42.916 158.566 44.0098 162.102 45.0059C165.656 46.002 168.43 47.1055 170.422 48.3164C172.434 49.5078 173.918 50.9043 174.875 52.5059C175.852 54.1074 176.34 55.9922 176.34 58.1602C176.34 61.6172 174.992 64.3906 172.297 66.4805C169.602 68.5508 165.998 69.5859 161.486 69.5859C158.557 69.5859 155.822 69.0293 153.283 67.916C150.744 66.7832 148.781 65.2402 147.395 63.2871C146.027 61.334 145.344 59.1172 145.344 56.6367H150.998C150.998 59.2148 151.945 61.2559 153.84 62.7598C155.754 64.2441 158.303 64.9863 161.486 64.9863C164.455 64.9863 166.73 64.3809 168.312 63.1699C169.895 61.959 170.686 60.3086 170.686 58.2188C170.686 56.1289 169.953 54.5176 168.488 53.3848C167.023 52.2324 164.367 51.0996 160.52 49.9863ZM202.297 69C201.984 68.375 201.73 67.2617 201.535 65.6602C199.016 68.2773 196.008 69.5859 192.512 69.5859C189.387 69.5859 186.818 68.707 184.807 66.9492C182.814 65.1719 181.818 62.9258 181.818 60.2109C181.818 56.9102 183.068 54.3516 185.568 52.5352C188.088 50.6992 191.623 49.7812 196.174 49.7812H201.447V47.291C201.447 45.3965 200.881 43.8926 199.748 42.7793C198.615 41.6465 196.945 41.0801 194.738 41.0801C192.805 41.0801 191.184 41.5684 189.875 42.5449C188.566 43.5215 187.912 44.7031 187.912 46.0898H182.463C182.463 44.5078 183.02 42.9844 184.133 41.5195C185.266 40.0352 186.789 38.8633 188.703 38.0039C190.637 37.1445 192.756 36.7148 195.061 36.7148C198.713 36.7148 201.574 37.6328 203.645 39.4688C205.715 41.2852 206.789 43.7949 206.867 46.998V61.5879C206.867 64.498 207.238 66.8125 207.98 68.5312V69H202.297ZM193.303 64.8691C195.002 64.8691 196.613 64.4297 198.137 63.5508C199.66 62.6719 200.764 61.5293 201.447 60.123V53.6191H197.199C190.559 53.6191 187.238 55.5625 187.238 59.4492C187.238 61.1484 187.805 62.4766 188.938 63.4336C190.07 64.3906 191.525 64.8691 193.303 64.8691ZM233.82 60.5918C233.82 59.127 233.264 57.9941 232.15 57.1934C231.057 56.373 229.133 55.6699 226.379 55.084C223.645 54.498 221.467 53.7949 219.846 52.9746C218.244 52.1543 217.053 51.1777 216.271 50.0449C215.51 48.9121 215.129 47.5645 215.129 46.002C215.129 43.4043 216.223 41.207 218.41 39.4102C220.617 37.6133 223.43 36.7148 226.848 36.7148C230.441 36.7148 233.352 37.6426 235.578 39.498C237.824 41.3535 238.947 43.7266 238.947 46.6172H233.498C233.498 45.1328 232.863 43.8535 231.594 42.7793C230.344 41.7051 228.762 41.168 226.848 41.168C224.875 41.168 223.332 41.5977 222.219 42.457C221.105 43.3164 220.549 44.4395 220.549 45.8262C220.549 47.1348 221.066 48.1211 222.102 48.7852C223.137 49.4492 225.002 50.084 227.697 50.6895C230.412 51.2949 232.609 52.0176 234.289 52.8574C235.969 53.6973 237.209 54.7129 238.01 55.9043C238.83 57.0762 239.24 58.5117 239.24 60.2109C239.24 63.043 238.107 65.3184 235.842 67.0371C233.576 68.7363 230.637 69.5859 227.023 69.5859C224.484 69.5859 222.238 69.1367 220.285 68.2383C218.332 67.3398 216.799 66.0898 215.686 64.4883C214.592 62.8672 214.045 61.1191 214.045 59.2441H219.465C219.562 61.0605 220.285 62.5059 221.633 63.5801C223 64.6348 224.797 65.1621 227.023 65.1621C229.074 65.1621 230.715 64.752 231.945 63.9316C233.195 63.0918 233.82 61.9785 233.82 60.5918ZM264.758 60.5918C264.758 59.127 264.201 57.9941 263.088 57.1934C261.994 56.373 260.07 55.6699 257.316 55.084C254.582 54.498 252.404 53.7949 250.783 52.9746C249.182 52.1543 247.99 51.1777 247.209 50.0449C246.447 48.9121 246.066 47.5645 246.066 46.002C246.066 43.4043 247.16 41.207 249.348 39.4102C251.555 37.6133 254.367 36.7148 257.785 36.7148C261.379 36.7148 264.289 37.6426 266.516 39.498C268.762 41.3535 269.885 43.7266 269.885 46.6172H264.436C264.436 45.1328 263.801 43.8535 262.531 42.7793C261.281 41.7051 259.699 41.168 257.785 41.168C255.812 41.168 254.27 41.5977 253.156 42.457C252.043 43.3164 251.486 44.4395 251.486 45.8262C251.486 47.1348 252.004 48.1211 253.039 48.7852C254.074 49.4492 255.939 50.084 258.635 50.6895C261.35 51.2949 263.547 52.0176 265.227 52.8574C266.906 53.6973 268.146 54.7129 268.947 55.9043C269.768 57.0762 270.178 58.5117 270.178 60.2109C270.178 63.043 269.045 65.3184 266.779 67.0371C264.514 68.7363 261.574 69.5859 257.961 69.5859C255.422 69.5859 253.176 69.1367 251.223 68.2383C249.27 67.3398 247.736 66.0898 246.623 64.4883C245.529 62.8672 244.982 61.1191 244.982 59.2441H250.402C250.5 61.0605 251.223 62.5059 252.57 63.5801C253.938 64.6348 255.734 65.1621 257.961 65.1621C260.012 65.1621 261.652 64.752 262.883 63.9316C264.133 63.0918 264.758 61.9785 264.758 60.5918Z" fill="#5E5E5E" fill-opacity="0.45"/>
<path d="M160.52 49.9863C155.695 48.5996 152.18 46.9004 149.973 44.8887C147.785 42.8574 146.691 40.3574 146.691 37.3887C146.691 34.0293 148.029 31.2559 150.705 29.0684C153.4 26.8613 156.896 25.7578 161.193 25.7578C164.123 25.7578 166.73 26.3242 169.016 27.457C171.32 28.5898 173.098 30.1523 174.348 32.1445C175.617 34.1367 176.252 36.3145 176.252 38.6777H170.598C170.598 36.0996 169.777 34.0781 168.137 32.6133C166.496 31.1289 164.182 30.3867 161.193 30.3867C158.42 30.3867 156.252 31.002 154.689 32.2324C153.146 33.4434 152.375 35.1328 152.375 37.3008C152.375 39.0391 153.107 40.5137 154.572 41.7246C156.057 42.916 158.566 44.0098 162.102 45.0059C165.656 46.002 168.43 47.1055 170.422 48.3164C172.434 49.5078 173.918 50.9043 174.875 52.5059C175.852 54.1074 176.34 55.9922 176.34 58.1602C176.34 61.6172 174.992 64.3906 172.297 66.4805C169.602 68.5508 165.998 69.5859 161.486 69.5859C158.557 69.5859 155.822 69.0293 153.283 67.916C150.744 66.7832 148.781 65.2402 147.395 63.2871C146.027 61.334 145.344 59.1172 145.344 56.6367H150.998C150.998 59.2148 151.945 61.2559 153.84 62.7598C155.754 64.2441 158.303 64.9863 161.486 64.9863C164.455 64.9863 166.73 64.3809 168.312 63.1699C169.895 61.959 170.686 60.3086 170.686 58.2188C170.686 56.1289 169.953 54.5176 168.488 53.3848C167.023 52.2324 164.367 51.0996 160.52 49.9863ZM202.297 69C201.984 68.375 201.73 67.2617 201.535 65.6602C199.016 68.2773 196.008 69.5859 192.512 69.5859C189.387 69.5859 186.818 68.707 184.807 66.9492C182.814 65.1719 181.818 62.9258 181.818 60.2109C181.818 56.9102 183.068 54.3516 185.568 52.5352C188.088 50.6992 191.623 49.7812 196.174 49.7812H201.447V47.291C201.447 45.3965 200.881 43.8926 199.748 42.7793C198.615 41.6465 196.945 41.0801 194.738 41.0801C192.805 41.0801 191.184 41.5684 189.875 42.5449C188.566 43.5215 187.912 44.7031 187.912 46.0898H182.463C182.463 44.5078 183.02 42.9844 184.133 41.5195C185.266 40.0352 186.789 38.8633 188.703 38.0039C190.637 37.1445 192.756 36.7148 195.061 36.7148C198.713 36.7148 201.574 37.6328 203.645 39.4688C205.715 41.2852 206.789 43.7949 206.867 46.998V61.5879C206.867 64.498 207.238 66.8125 207.98 68.5312V69H202.297ZM193.303 64.8691C195.002 64.8691 196.613 64.4297 198.137 63.5508C199.66 62.6719 200.764 61.5293 201.447 60.123V53.6191H197.199C190.559 53.6191 187.238 55.5625 187.238 59.4492C187.238 61.1484 187.805 62.4766 188.938 63.4336C190.07 64.3906 191.525 64.8691 193.303 64.8691ZM233.82 60.5918C233.82 59.127 233.264 57.9941 232.15 57.1934C231.057 56.373 229.133 55.6699 226.379 55.084C223.645 54.498 221.467 53.7949 219.846 52.9746C218.244 52.1543 217.053 51.1777 216.271 50.0449C215.51 48.9121 215.129 47.5645 215.129 46.002C215.129 43.4043 216.223 41.207 218.41 39.4102C220.617 37.6133 223.43 36.7148 226.848 36.7148C230.441 36.7148 233.352 37.6426 235.578 39.498C237.824 41.3535 238.947 43.7266 238.947 46.6172H233.498C233.498 45.1328 232.863 43.8535 231.594 42.7793C230.344 41.7051 228.762 41.168 226.848 41.168C224.875 41.168 223.332 41.5977 222.219 42.457C221.105 43.3164 220.549 44.4395 220.549 45.8262C220.549 47.1348 221.066 48.1211 222.102 48.7852C223.137 49.4492 225.002 50.084 227.697 50.6895C230.412 51.2949 232.609 52.0176 234.289 52.8574C235.969 53.6973 237.209 54.7129 238.01 55.9043C238.83 57.0762 239.24 58.5117 239.24 60.2109C239.24 63.043 238.107 65.3184 235.842 67.0371C233.576 68.7363 230.637 69.5859 227.023 69.5859C224.484 69.5859 222.238 69.1367 220.285 68.2383C218.332 67.3398 216.799 66.0898 215.686 64.4883C214.592 62.8672 214.045 61.1191 214.045 59.2441H219.465C219.562 61.0605 220.285 62.5059 221.633 63.5801C223 64.6348 224.797 65.1621 227.023 65.1621C229.074 65.1621 230.715 64.752 231.945 63.9316C233.195 63.0918 233.82 61.9785 233.82 60.5918ZM264.758 60.5918C264.758 59.127 264.201 57.9941 263.088 57.1934C261.994 56.373 260.07 55.6699 257.316 55.084C254.582 54.498 252.404 53.7949 250.783 52.9746C249.182 52.1543 247.99 51.1777 247.209 50.0449C246.447 48.9121 246.066 47.5645 246.066 46.002C246.066 43.4043 247.16 41.207 249.348 39.4102C251.555 37.6133 254.367 36.7148 257.785 36.7148C261.379 36.7148 264.289 37.6426 266.516 39.498C268.762 41.3535 269.885 43.7266 269.885 46.6172H264.436C264.436 45.1328 263.801 43.8535 262.531 42.7793C261.281 41.7051 259.699 41.168 257.785 41.168C255.812 41.168 254.27 41.5977 253.156 42.457C252.043 43.3164 251.486 44.4395 251.486 45.8262C251.486 47.1348 252.004 48.1211 253.039 48.7852C254.074 49.4492 255.939 50.084 258.635 50.6895C261.35 51.2949 263.547 52.0176 265.227 52.8574C266.906 53.6973 268.146 54.7129 268.947 55.9043C269.768 57.0762 270.178 58.5117 270.178 60.2109C270.178 63.043 269.045 65.3184 266.779 67.0371C264.514 68.7363 261.574 69.5859 257.961 69.5859C255.422 69.5859 253.176 69.1367 251.223 68.2383C249.27 67.3398 247.736 66.0898 246.623 64.4883C245.529 62.8672 244.982 61.1191 244.982 59.2441H250.402C250.5 61.0605 251.223 62.5059 252.57 63.5801C253.938 64.6348 255.734 65.1621 257.961 65.1621C260.012 65.1621 261.652 64.752 262.883 63.9316C264.133 63.0918 264.758 61.9785 264.758 60.5918Z" fill="white"/>
<defs>
<linearGradient id="paint0_linear" x1="54" y1="-10" x2="54" y2="114" gradientUnits="userSpaceOnUse">
<stop stop-color="white" stop-opacity="0"/>
<stop offset="1" stop-opacity="0.33"/>
</linearGradient>
<linearGradient id="paint1_linear" x1="315.5" y1="-10" x2="315.5" y2="114" gradientUnits="userSpaceOnUse">
<stop stop-opacity="0.78"/>
<stop offset="0.454792" stop-color="#242424"/>
<stop offset="1" stop-color="#020202"/>
</linearGradient>
</defs>
</svg>
