<svg width="639" height="97" viewBox="0 0 639 97" fill="none" xmlns="http://www.w3.org/2000/svg">
<mask id="mask0" mask-type="alpha" maskUnits="userSpaceOnUse" x="0" y="0" width="639" height="97">
<rect width="639" height="97" rx="15" fill="#C4C4C4"/>
</mask>
<g mask="url(#mask0)">
<g style="mix-blend-mode:multiply">
<rect x="-15" y="-10" width="138" height="124" fill="#1D84E4"/>
<rect x="-15" y="-10" width="138" height="124" fill="url(#paint0_linear)" fill-opacity="0.6"/>
</g>
<g style="mix-blend-mode:multiply">
<rect x="123" y="-10" width="598" height="124" fill="url(#paint1_linear)"/>
</g>
<path d="M523.221 31.8194H482.088V145.901H465.301V31.8194H424.256V17.9327H523.221V31.8194ZM615.945 114.437C615.945 107.347 613.455 101.751 608.475 97.6495C603.494 93.4893 594.383 89.5635 581.141 85.8721C567.898 82.1221 558.23 78.0498 552.137 73.6553C543.465 67.4444 539.129 59.2998 539.129 49.2217C539.129 39.4366 543.143 31.4971 551.17 25.4034C559.256 19.251 569.568 16.1748 582.107 16.1748C590.604 16.1748 598.191 17.8155 604.871 21.0967C611.609 24.378 616.824 28.9483 620.516 34.8077C624.207 40.667 626.053 47.2002 626.053 54.4073H615.154C615.154 45.6768 612.166 38.6748 606.189 33.4014C600.213 28.0694 592.186 25.4034 582.107 25.4034C572.322 25.4034 564.529 27.6006 558.729 31.9952C552.928 36.3311 550.027 42.0147 550.027 49.0459C550.027 55.5498 552.635 60.8526 557.85 64.9541C563.064 69.0557 571.414 72.6885 582.898 75.8526C594.383 78.958 603.084 82.21 609.002 85.6084C614.92 88.9483 619.373 92.962 622.361 97.6495C625.35 102.337 626.844 107.874 626.844 114.261C626.844 124.339 622.801 132.425 614.715 138.519C606.688 144.612 596.082 147.659 582.898 147.659C573.875 147.659 565.584 146.048 558.025 142.825C550.525 139.603 544.813 135.091 540.887 129.29C537.02 123.489 535.086 116.839 535.086 109.339H545.896C545.896 118.362 549.266 125.481 556.004 130.696C562.742 135.911 571.707 138.519 582.898 138.519C592.859 138.519 600.857 136.321 606.893 131.927C612.928 127.532 615.945 121.702 615.945 114.437Z" fill="white" fill-opacity="0.07"/>
</g>
<path d="M60.9253 26.4658H43.7866V74H36.792V26.4658H19.6899V20.6797H60.9253V26.4658ZM99.5605 60.8896C99.5605 57.9355 98.5229 55.604 96.4478 53.895C94.3726 52.1616 90.5762 50.5259 85.0586 48.9878C79.541 47.4253 75.5127 45.7285 72.9736 43.8975C69.3604 41.3096 67.5537 37.916 67.5537 33.7168C67.5537 29.6396 69.2261 26.3315 72.5708 23.7925C75.9399 21.229 80.2368 19.9473 85.4614 19.9473C89.0015 19.9473 92.1631 20.6309 94.9463 21.998C97.7539 23.3652 99.9268 25.2695 101.465 27.7109C103.003 30.1523 103.772 32.8745 103.772 35.8774H99.231C99.231 32.2397 97.9858 29.3223 95.4956 27.125C93.0054 24.9033 89.6606 23.7925 85.4614 23.7925C81.3843 23.7925 78.1372 24.708 75.7202 26.5391C73.3032 28.3457 72.0947 30.7139 72.0947 33.6436C72.0947 36.3535 73.1812 38.563 75.354 40.272C77.5269 41.981 81.0059 43.4946 85.791 44.813C90.5762 46.1069 94.2017 47.4619 96.6675 48.8779C99.1333 50.2695 100.989 51.9419 102.234 53.895C103.479 55.8481 104.102 58.1553 104.102 60.8164C104.102 65.0156 102.417 68.3848 99.0479 70.9238C95.7031 73.4629 91.2842 74.7324 85.791 74.7324C82.0312 74.7324 78.5767 74.061 75.4272 72.7183C72.3022 71.3755 69.9219 69.4956 68.2861 67.0786C66.6748 64.6616 65.8691 61.8906 65.8691 58.7656H70.3735C70.3735 62.5254 71.7773 65.4917 74.585 67.6646C77.3926 69.8374 81.1279 70.9238 85.791 70.9238C89.9414 70.9238 93.2739 70.0083 95.7886 68.1772C98.3032 66.3462 99.5605 63.917 99.5605 60.8896Z" fill="#5E5E5E" fill-opacity="0.45"/>
<path d="M61.9253 26.4658H44.7866V74H37.792V26.4658H20.6899V20.6797H61.9253V26.4658ZM100.561 60.8896C100.561 57.9355 99.5229 55.604 97.4478 53.895C95.3726 52.1616 91.5762 50.5259 86.0586 48.9878C80.541 47.4253 76.5127 45.7285 73.9736 43.8975C70.3604 41.3096 68.5537 37.916 68.5537 33.7168C68.5537 29.6396 70.2261 26.3315 73.5708 23.7925C76.9399 21.229 81.2368 19.9473 86.4614 19.9473C90.0015 19.9473 93.1631 20.6309 95.9463 21.998C98.7539 23.3652 100.927 25.2695 102.465 27.7109C104.003 30.1523 104.772 32.8745 104.772 35.8774H100.231C100.231 32.2397 98.9858 29.3223 96.4956 27.125C94.0054 24.9033 90.6606 23.7925 86.4614 23.7925C82.3843 23.7925 79.1372 24.708 76.7202 26.5391C74.3032 28.3457 73.0947 30.7139 73.0947 33.6436C73.0947 36.3535 74.1812 38.563 76.354 40.272C78.5269 41.981 82.0059 43.4946 86.791 44.813C91.5762 46.1069 95.2017 47.4619 97.6675 48.8779C100.133 50.2695 101.989 51.9419 103.234 53.895C104.479 55.8481 105.102 58.1553 105.102 60.8164C105.102 65.0156 103.417 68.3848 100.048 70.9238C96.7031 73.4629 92.2842 74.7324 86.791 74.7324C83.0312 74.7324 79.5767 74.061 76.4272 72.7183C73.3022 71.3755 70.9219 69.4956 69.2861 67.0786C67.6748 64.6616 66.8691 61.8906 66.8691 58.7656H71.3735C71.3735 62.5254 72.7773 65.4917 75.585 67.6646C78.3926 69.8374 82.1279 70.9238 86.791 70.9238C90.9414 70.9238 94.2739 70.0083 96.7886 68.1772C99.3032 66.3462 100.561 63.917 100.561 60.8896Z" fill="white"/>
<path d="M177.424 30.9727H163.713V69H158.117V30.9727H144.436V26.3438H177.424V30.9727ZM191.164 61.0605L198.547 37.3008H204.348L191.604 73.8926C189.631 79.166 186.496 81.8027 182.199 81.8027L181.174 81.7148L179.152 81.334V76.9395L180.617 77.0566C182.453 77.0566 183.879 76.6855 184.895 75.9434C185.93 75.2012 186.779 73.8438 187.443 71.8711L188.645 68.6484L177.336 37.3008H183.254L191.164 61.0605ZM235.988 53.502C235.988 58.3262 234.885 62.2129 232.678 65.1621C230.471 68.1113 227.482 69.5859 223.713 69.5859C219.865 69.5859 216.838 68.3652 214.631 65.9238V81.1875H209.211V37.3008H214.162L214.426 40.8164C216.633 38.082 219.699 36.7148 223.625 36.7148C227.434 36.7148 230.441 38.1504 232.648 41.0215C234.875 43.8926 235.988 47.8867 235.988 53.0039V53.502ZM230.568 52.8867C230.568 49.3125 229.807 46.4902 228.283 44.4199C226.76 42.3496 224.67 41.3145 222.014 41.3145C218.732 41.3145 216.271 42.7695 214.631 45.6797V60.8262C216.252 63.7168 218.732 65.1621 222.072 65.1621C224.67 65.1621 226.73 64.1367 228.254 62.0859C229.797 60.0156 230.568 56.9492 230.568 52.8867ZM256.057 69.5859C251.76 69.5859 248.264 68.1797 245.568 65.3672C242.873 62.5352 241.525 58.7559 241.525 54.0293V53.0332C241.525 49.8887 242.121 47.0859 243.312 44.625C244.523 42.1445 246.203 40.2109 248.352 38.8242C250.52 37.418 252.863 36.7148 255.383 36.7148C259.504 36.7148 262.707 38.0723 264.992 40.7871C267.277 43.502 268.42 47.3887 268.42 52.4473V54.7031H246.945C247.023 57.8281 247.932 60.3574 249.67 62.291C251.428 64.2051 253.654 65.1621 256.35 65.1621C258.264 65.1621 259.885 64.7715 261.213 63.9902C262.541 63.209 263.703 62.1738 264.699 60.8848L268.01 63.4629C265.354 67.5449 261.369 69.5859 256.057 69.5859ZM255.383 41.168C253.195 41.168 251.359 41.9688 249.875 43.5703C248.391 45.1523 247.473 47.3789 247.121 50.25H263V49.8398C262.844 47.0859 262.102 44.957 260.773 43.4531C259.445 41.9297 257.648 41.168 255.383 41.168ZM293.176 60.5918C293.176 59.127 292.619 57.9941 291.506 57.1934C290.412 56.373 288.488 55.6699 285.734 55.084C283 54.498 280.822 53.7949 279.201 52.9746C277.6 52.1543 276.408 51.1777 275.627 50.0449C274.865 48.9121 274.484 47.5645 274.484 46.002C274.484 43.4043 275.578 41.207 277.766 39.4102C279.973 37.6133 282.785 36.7148 286.203 36.7148C289.797 36.7148 292.707 37.6426 294.934 39.498C297.18 41.3535 298.303 43.7266 298.303 46.6172H292.854C292.854 45.1328 292.219 43.8535 290.949 42.7793C289.699 41.7051 288.117 41.168 286.203 41.168C284.23 41.168 282.688 41.5977 281.574 42.457C280.461 43.3164 279.904 44.4395 279.904 45.8262C279.904 47.1348 280.422 48.1211 281.457 48.7852C282.492 49.4492 284.357 50.084 287.053 50.6895C289.768 51.2949 291.965 52.0176 293.645 52.8574C295.324 53.6973 296.564 54.7129 297.365 55.9043C298.186 57.0762 298.596 58.5117 298.596 60.2109C298.596 63.043 297.463 65.3184 295.197 67.0371C292.932 68.7363 289.992 69.5859 286.379 69.5859C283.84 69.5859 281.594 69.1367 279.641 68.2383C277.688 67.3398 276.154 66.0898 275.041 64.4883C273.947 62.8672 273.4 61.1191 273.4 59.2441H278.82C278.918 61.0605 279.641 62.5059 280.988 63.5801C282.355 64.6348 284.152 65.1621 286.379 65.1621C288.43 65.1621 290.07 64.752 291.301 63.9316C292.551 63.0918 293.176 61.9785 293.176 60.5918ZM318.371 65.1621C320.305 65.1621 321.994 64.5762 323.439 63.4043C324.885 62.2324 325.686 60.7676 325.842 59.0098H330.969C330.871 60.8262 330.246 62.5547 329.094 64.1953C327.941 65.8359 326.398 67.1445 324.465 68.1211C322.551 69.0977 320.52 69.5859 318.371 69.5859C314.055 69.5859 310.617 68.1504 308.059 65.2793C305.52 62.3887 304.25 58.4434 304.25 53.4434V52.5352C304.25 49.4492 304.816 46.7051 305.949 44.3027C307.082 41.9004 308.703 40.0352 310.812 38.707C312.941 37.3789 315.451 36.7148 318.342 36.7148C321.896 36.7148 324.846 37.7793 327.189 39.9082C329.553 42.0371 330.812 44.8008 330.969 48.1992H325.842C325.686 46.1484 324.904 44.4688 323.498 43.1602C322.111 41.832 320.393 41.168 318.342 41.168C315.588 41.168 313.449 42.1641 311.926 44.1562C310.422 46.1289 309.67 48.9902 309.67 52.7402V53.7656C309.67 57.418 310.422 60.2305 311.926 62.2031C313.43 64.1758 315.578 65.1621 318.371 65.1621ZM352.385 42.1641C351.564 42.0273 350.676 41.959 349.719 41.959C346.164 41.959 343.752 43.4727 342.482 46.5V69H337.062V37.3008H342.336L342.424 40.9629C344.201 38.1309 346.721 36.7148 349.982 36.7148C351.037 36.7148 351.838 36.8516 352.385 37.125V42.1641ZM363.283 69H357.863V37.3008H363.283V69ZM357.424 28.8926C357.424 28.0137 357.688 27.2715 358.215 26.666C358.762 26.0605 359.562 25.7578 360.617 25.7578C361.672 25.7578 362.473 26.0605 363.02 26.666C363.566 27.2715 363.84 28.0137 363.84 28.8926C363.84 29.7715 363.566 30.5039 363.02 31.0898C362.473 31.6758 361.672 31.9688 360.617 31.9688C359.562 31.9688 358.762 31.6758 358.215 31.0898C357.688 30.5039 357.424 29.7715 357.424 28.8926ZM398.762 53.502C398.762 58.3262 397.658 62.2129 395.451 65.1621C393.244 68.1113 390.256 69.5859 386.486 69.5859C382.639 69.5859 379.611 68.3652 377.404 65.9238V81.1875H371.984V37.3008H376.936L377.199 40.8164C379.406 38.082 382.473 36.7148 386.398 36.7148C390.207 36.7148 393.215 38.1504 395.422 41.0215C397.648 43.8926 398.762 47.8867 398.762 53.0039V53.502ZM393.342 52.8867C393.342 49.3125 392.58 46.4902 391.057 44.4199C389.533 42.3496 387.443 41.3145 384.787 41.3145C381.506 41.3145 379.045 42.7695 377.404 45.6797V60.8262C379.025 63.7168 381.506 65.1621 384.846 65.1621C387.443 65.1621 389.504 64.1367 391.027 62.0859C392.57 60.0156 393.342 56.9492 393.342 52.8867ZM413.029 29.625V37.3008H418.947V41.4902H413.029V61.1484C413.029 62.418 413.293 63.375 413.82 64.0195C414.348 64.6445 415.246 64.957 416.516 64.957C417.141 64.957 418 64.8398 419.094 64.6055V69C417.668 69.3906 416.281 69.5859 414.934 69.5859C412.512 69.5859 410.686 68.8535 409.455 67.3887C408.225 65.9238 407.609 63.8438 407.609 61.1484V41.4902H401.838V37.3008H407.609V29.625H413.029Z" fill="#5E5E5E" fill-opacity="0.45"/>
<path d="M178.424 30.9727H164.713V69H159.117V30.9727H145.436V26.3438H178.424V30.9727ZM192.164 61.0605L199.547 37.3008H205.348L192.604 73.8926C190.631 79.166 187.496 81.8027 183.199 81.8027L182.174 81.7148L180.152 81.334V76.9395L181.617 77.0566C183.453 77.0566 184.879 76.6855 185.895 75.9434C186.93 75.2012 187.779 73.8438 188.443 71.8711L189.645 68.6484L178.336 37.3008H184.254L192.164 61.0605ZM236.988 53.502C236.988 58.3262 235.885 62.2129 233.678 65.1621C231.471 68.1113 228.482 69.5859 224.713 69.5859C220.865 69.5859 217.838 68.3652 215.631 65.9238V81.1875H210.211V37.3008H215.162L215.426 40.8164C217.633 38.082 220.699 36.7148 224.625 36.7148C228.434 36.7148 231.441 38.1504 233.648 41.0215C235.875 43.8926 236.988 47.8867 236.988 53.0039V53.502ZM231.568 52.8867C231.568 49.3125 230.807 46.4902 229.283 44.4199C227.76 42.3496 225.67 41.3145 223.014 41.3145C219.732 41.3145 217.271 42.7695 215.631 45.6797V60.8262C217.252 63.7168 219.732 65.1621 223.072 65.1621C225.67 65.1621 227.73 64.1367 229.254 62.0859C230.797 60.0156 231.568 56.9492 231.568 52.8867ZM257.057 69.5859C252.76 69.5859 249.264 68.1797 246.568 65.3672C243.873 62.5352 242.525 58.7559 242.525 54.0293V53.0332C242.525 49.8887 243.121 47.0859 244.312 44.625C245.523 42.1445 247.203 40.2109 249.352 38.8242C251.52 37.418 253.863 36.7148 256.383 36.7148C260.504 36.7148 263.707 38.0723 265.992 40.7871C268.277 43.502 269.42 47.3887 269.42 52.4473V54.7031H247.945C248.023 57.8281 248.932 60.3574 250.67 62.291C252.428 64.2051 254.654 65.1621 257.35 65.1621C259.264 65.1621 260.885 64.7715 262.213 63.9902C263.541 63.209 264.703 62.1738 265.699 60.8848L269.01 63.4629C266.354 67.5449 262.369 69.5859 257.057 69.5859ZM256.383 41.168C254.195 41.168 252.359 41.9688 250.875 43.5703C249.391 45.1523 248.473 47.3789 248.121 50.25H264V49.8398C263.844 47.0859 263.102 44.957 261.773 43.4531C260.445 41.9297 258.648 41.168 256.383 41.168ZM294.176 60.5918C294.176 59.127 293.619 57.9941 292.506 57.1934C291.412 56.373 289.488 55.6699 286.734 55.084C284 54.498 281.822 53.7949 280.201 52.9746C278.6 52.1543 277.408 51.1777 276.627 50.0449C275.865 48.9121 275.484 47.5645 275.484 46.002C275.484 43.4043 276.578 41.207 278.766 39.4102C280.973 37.6133 283.785 36.7148 287.203 36.7148C290.797 36.7148 293.707 37.6426 295.934 39.498C298.18 41.3535 299.303 43.7266 299.303 46.6172H293.854C293.854 45.1328 293.219 43.8535 291.949 42.7793C290.699 41.7051 289.117 41.168 287.203 41.168C285.23 41.168 283.688 41.5977 282.574 42.457C281.461 43.3164 280.904 44.4395 280.904 45.8262C280.904 47.1348 281.422 48.1211 282.457 48.7852C283.492 49.4492 285.357 50.084 288.053 50.6895C290.768 51.2949 292.965 52.0176 294.645 52.8574C296.324 53.6973 297.564 54.7129 298.365 55.9043C299.186 57.0762 299.596 58.5117 299.596 60.2109C299.596 63.043 298.463 65.3184 296.197 67.0371C293.932 68.7363 290.992 69.5859 287.379 69.5859C284.84 69.5859 282.594 69.1367 280.641 68.2383C278.688 67.3398 277.154 66.0898 276.041 64.4883C274.947 62.8672 274.4 61.1191 274.4 59.2441H279.82C279.918 61.0605 280.641 62.5059 281.988 63.5801C283.355 64.6348 285.152 65.1621 287.379 65.1621C289.43 65.1621 291.07 64.752 292.301 63.9316C293.551 63.0918 294.176 61.9785 294.176 60.5918ZM319.371 65.1621C321.305 65.1621 322.994 64.5762 324.439 63.4043C325.885 62.2324 326.686 60.7676 326.842 59.0098H331.969C331.871 60.8262 331.246 62.5547 330.094 64.1953C328.941 65.8359 327.398 67.1445 325.465 68.1211C323.551 69.0977 321.52 69.5859 319.371 69.5859C315.055 69.5859 311.617 68.1504 309.059 65.2793C306.52 62.3887 305.25 58.4434 305.25 53.4434V52.5352C305.25 49.4492 305.816 46.7051 306.949 44.3027C308.082 41.9004 309.703 40.0352 311.812 38.707C313.941 37.3789 316.451 36.7148 319.342 36.7148C322.896 36.7148 325.846 37.7793 328.189 39.9082C330.553 42.0371 331.812 44.8008 331.969 48.1992H326.842C326.686 46.1484 325.904 44.4688 324.498 43.1602C323.111 41.832 321.393 41.168 319.342 41.168C316.588 41.168 314.449 42.1641 312.926 44.1562C311.422 46.1289 310.67 48.9902 310.67 52.7402V53.7656C310.67 57.418 311.422 60.2305 312.926 62.2031C314.43 64.1758 316.578 65.1621 319.371 65.1621ZM353.385 42.1641C352.564 42.0273 351.676 41.959 350.719 41.959C347.164 41.959 344.752 43.4727 343.482 46.5V69H338.062V37.3008H343.336L343.424 40.9629C345.201 38.1309 347.721 36.7148 350.982 36.7148C352.037 36.7148 352.838 36.8516 353.385 37.125V42.1641ZM364.283 69H358.863V37.3008H364.283V69ZM358.424 28.8926C358.424 28.0137 358.688 27.2715 359.215 26.666C359.762 26.0605 360.562 25.7578 361.617 25.7578C362.672 25.7578 363.473 26.0605 364.02 26.666C364.566 27.2715 364.84 28.0137 364.84 28.8926C364.84 29.7715 364.566 30.5039 364.02 31.0898C363.473 31.6758 362.672 31.9688 361.617 31.9688C360.562 31.9688 359.762 31.6758 359.215 31.0898C358.688 30.5039 358.424 29.7715 358.424 28.8926ZM399.762 53.502C399.762 58.3262 398.658 62.2129 396.451 65.1621C394.244 68.1113 391.256 69.5859 387.486 69.5859C383.639 69.5859 380.611 68.3652 378.404 65.9238V81.1875H372.984V37.3008H377.936L378.199 40.8164C380.406 38.082 383.473 36.7148 387.398 36.7148C391.207 36.7148 394.215 38.1504 396.422 41.0215C398.648 43.8926 399.762 47.8867 399.762 53.0039V53.502ZM394.342 52.8867C394.342 49.3125 393.58 46.4902 392.057 44.4199C390.533 42.3496 388.443 41.3145 385.787 41.3145C382.506 41.3145 380.045 42.7695 378.404 45.6797V60.8262C380.025 63.7168 382.506 65.1621 385.846 65.1621C388.443 65.1621 390.504 64.1367 392.027 62.0859C393.57 60.0156 394.342 56.9492 394.342 52.8867ZM414.029 29.625V37.3008H419.947V41.4902H414.029V61.1484C414.029 62.418 414.293 63.375 414.82 64.0195C415.348 64.6445 416.246 64.957 417.516 64.957C418.141 64.957 419 64.8398 420.094 64.6055V69C418.668 69.3906 417.281 69.5859 415.934 69.5859C413.512 69.5859 411.686 68.8535 410.455 67.3887C409.225 65.9238 408.609 63.8438 408.609 61.1484V41.4902H402.838V37.3008H408.609V29.625H414.029Z" fill="white"/>
<defs>
<linearGradient id="paint0_linear" x1="54" y1="-10" x2="54" y2="114" gradientUnits="userSpaceOnUse">
<stop stop-color="white" stop-opacity="0"/>
<stop offset="1" stop-opacity="0.33"/>
</linearGradient>
<linearGradient id="paint1_linear" x1="422" y1="-10" x2="422" y2="114" gradientUnits="userSpaceOnUse">
<stop stop-opacity="0.78"/>
<stop offset="0.454792" stop-color="#242424"/>
<stop offset="1" stop-color="#020202"/>
</linearGradient>
</defs>
</svg>
