<svg width="500" height="97" viewBox="0 0 500 97" fill="none" xmlns="http://www.w3.org/2000/svg">
<mask id="mask0" mask-type="alpha" maskUnits="userSpaceOnUse" x="0" y="0" width="500" height="97">
<rect width="500" height="97" rx="15" fill="white"/>
</mask>
<g mask="url(#mask0)">
<rect x="-15" y="-10" width="138" height="124" fill="#97DA54"/>
<rect x="-15" y="-10" width="138" height="124" fill="url(#paint0_linear)" fill-opacity="0.6"/>
<rect x="123" y="-10" width="385" height="124" fill="url(#paint1_linear)"/>
<path d="M407.594 44.9952C407.945 44.9952 408.297 45.3467 408.648 45.3467C409 45.3467 409.703 45.3467 409.703 44.9952C409.703 44.6436 409 44.292 408.648 43.9405C407.945 43.5889 407.242 43.5889 406.891 43.9405C406.539 43.9405 406.539 44.292 406.539 44.292C406.539 44.6436 407.242 44.6436 407.594 44.9952ZM399.859 45.3467C400.563 45.3467 400.563 44.9952 400.914 44.9952C401.617 44.6436 402.32 44.6436 402.32 44.292C402.32 44.292 402.32 43.9405 401.969 43.9405C401.617 43.5889 400.914 43.5889 400.211 43.9405C399.859 44.292 398.805 44.6436 399.156 44.9952C399.156 45.3467 399.508 45.6983 399.859 45.3467ZM477.906 143.433C476.5 142.026 475.797 139.565 475.094 136.753C474.742 133.589 473.688 130.776 471.578 128.667C471.227 128.315 470.523 127.964 470.172 127.612C469.82 127.261 469.117 127.261 468.766 126.909C471.93 117.417 470.523 107.925 467.359 99.1358C463.492 88.5889 456.461 79.4483 451.188 73.1202C444.859 65.3858 439.234 58.3545 439.234 47.8077C439.586 31.6358 440.992 1.75298 412.516 1.40141C376.656 1.40141 385.797 37.9639 385.094 49.2139C384.742 57.2999 382.984 63.628 377.359 71.7139C370.68 79.7999 361.188 92.4561 356.969 105.815C354.859 112.144 353.805 118.472 354.859 124.448C352.398 126.558 350.641 129.722 348.883 131.831C347.477 133.237 345.367 133.589 342.906 134.644C340.445 135.347 337.984 136.753 336.578 139.565C335.523 140.972 335.523 142.378 335.523 144.136C335.523 145.542 335.523 146.948 335.875 148.355C336.227 151.167 336.578 153.628 336.227 155.386C334.469 160.659 334.117 164.175 335.523 166.636C336.578 169.097 339.391 170.503 342.555 170.855C348.531 172.261 356.617 171.909 363.297 175.425C370.328 178.94 377.359 180.347 382.984 178.94C386.852 178.237 390.367 175.776 392.125 171.909C396.344 171.909 401.266 170.151 409 169.448C414.273 169.097 420.953 171.558 428.336 171.206C428.688 171.909 429.039 172.612 429.391 173.315C432.203 179.292 437.477 182.105 443.453 181.401C449.43 181.05 455.406 177.534 460.328 171.558C465.25 165.933 472.984 163.472 478.258 160.308C481.07 158.901 483.18 156.792 483.18 153.98C483.18 151.167 481.773 148.003 477.906 143.433ZM408.648 32.3389C412.164 24.6045 420.602 24.6045 424.117 31.9874C426.578 37.2608 425.523 42.8858 422.711 46.4014C422.008 46.0499 420.602 45.3467 418.141 44.6436C418.492 44.292 419.195 43.5889 419.547 42.8858C421.305 38.667 419.547 33.3936 416.383 33.3936C413.922 33.042 411.461 37.2608 412.164 41.4795C410.758 40.7764 409 40.0733 407.594 40.0733C407.242 37.6124 407.594 34.7999 408.648 32.3389ZM394.586 28.1202C398.102 28.1202 401.617 33.042 401.266 40.0733C399.859 40.4249 398.805 40.7764 397.398 41.4795C398.102 38.3155 396.344 34.4483 394.234 34.7999C391.07 34.7999 390.719 42.1827 393.531 44.6436C393.883 44.9952 394.234 44.6436 391.422 46.4014C386.148 41.4795 387.906 28.1202 394.586 28.1202ZM389.664 49.5655C391.773 47.8077 394.586 46.0499 394.586 45.6983C396.344 44.292 399.508 40.7764 404.43 40.7764C406.891 40.7764 410.055 41.8311 413.57 43.9405C415.68 45.3467 417.438 45.6983 421.305 47.1045C424.469 48.5108 426.227 50.6202 425.172 53.7842C424.117 56.2452 421.305 58.7061 417.086 60.1124C413.219 61.167 410.055 65.7374 403.727 65.3858C402.32 65.0342 401.266 65.0342 400.211 64.6827C397.398 63.2764 395.992 60.8155 393.18 59.4092C390.367 57.6514 388.609 55.542 388.258 53.7842C387.555 52.0264 388.258 50.6202 389.664 49.5655ZM390.719 166.987C390.016 179.292 375.25 178.94 364.352 173.315C353.805 167.69 340.094 170.855 337.281 165.581C336.578 163.823 336.578 161.011 338.336 156.44V156.089C339.039 153.628 338.688 150.464 337.984 148.003C337.633 145.19 337.633 142.73 338.336 140.972C339.742 138.511 341.5 137.456 343.609 136.753C347.125 135.698 347.828 135.698 350.641 133.237C352.398 131.48 353.805 128.667 355.563 126.909C357.32 125.151 359.078 124.097 361.891 124.448C364.703 125.151 367.164 126.909 369.625 130.073L376.305 142.73C379.82 149.761 391.422 159.605 390.719 166.987ZM390.367 157.847C388.961 155.386 386.852 152.925 385.094 150.815C387.906 150.815 390.367 150.112 391.07 148.003C391.773 145.542 391.07 142.73 388.609 139.214C383.688 132.534 374.898 127.612 374.898 127.612C370.328 124.8 367.516 120.933 366.461 117.065C365.055 113.198 365.406 108.98 366.461 104.761C368.219 96.6749 372.789 88.9405 375.953 84.0186C376.656 83.3155 376.305 85.0733 372.789 91.4014C369.977 97.0264 364.352 110.034 371.734 120.23C372.086 112.847 373.844 105.464 376.656 98.7842C380.875 88.9405 390.016 72.417 390.719 59.0577C391.07 59.4092 392.125 60.1124 392.828 60.4639C394.234 61.5186 395.641 62.9249 397.047 63.9795C401.617 67.4952 407.242 67.1436 412.164 64.3311C414.273 63.2764 416.031 61.8702 417.789 61.167C421.305 60.1124 423.766 58.3545 425.523 55.8936C428.336 66.792 434.664 82.2608 438.531 89.6436C440.641 93.8624 444.859 102.3 446.969 112.495C448.023 112.495 449.43 112.495 450.836 112.847C455.406 100.19 446.617 86.8311 442.398 82.9639C440.992 81.5577 440.641 80.8545 441.695 80.8545C445.914 84.7217 451.891 92.4561 454 101.597C455.055 105.464 455.055 109.683 454 113.901C459.977 116.362 466.656 120.23 464.898 126.206C464.195 126.206 463.844 126.206 463.492 126.206C464.547 122.69 462.086 120.23 455.406 117.065C448.375 114.253 442.75 114.253 442.047 121.636C437.828 123.042 435.367 126.558 434.313 131.128C433.609 134.995 433.258 139.917 432.906 145.19C432.555 148.003 431.5 151.519 430.445 155.386C419.195 163.472 403.375 166.987 390.367 157.847ZM480.719 153.98C480.367 159.605 466.305 160.659 458.57 170.151C454 175.776 448.375 178.589 443.102 179.292C438.18 179.644 433.961 177.534 431.5 172.261C429.742 168.394 430.445 164.175 431.852 159.605C433.258 154.683 435.016 149.409 435.367 145.19C435.719 139.917 435.719 135.347 436.773 131.831C437.828 127.964 439.234 125.503 441.695 124.448C441.695 124.097 441.695 124.097 442.047 124.097C442.047 128.667 444.508 133.589 448.375 134.644C452.945 135.698 459.273 131.831 462.086 128.667C465.25 128.667 467.711 128.315 469.82 130.425C473.336 133.589 472.633 141.323 476.148 145.19C479.664 149.409 481.07 151.87 480.719 153.98ZM391.07 53.7842C391.773 54.4874 392.828 55.542 393.883 56.2452C395.992 58.003 399.508 60.1124 403.375 60.1124C407.594 60.1124 411.461 58.003 414.625 56.2452C416.383 55.1905 418.492 53.7842 419.898 52.7295C421.305 51.3233 422.008 50.2686 420.953 50.2686C419.898 50.2686 419.898 51.3233 418.844 52.0264C417.086 53.0811 415.328 54.8389 413.922 55.542C411.461 56.9483 406.891 59.0577 403.375 59.0577C399.859 59.0577 396.695 57.2999 394.586 55.542C393.531 54.8389 392.477 53.7842 391.773 53.4327C391.422 52.7295 391.422 51.6749 390.367 51.6749C390.016 51.6749 389.664 52.7295 391.07 53.7842Z" fill="white" fill-opacity="0.07"/>
</g>
<path d="M61.9141 29.5391C62.0605 29.5391 62.207 29.6855 62.3535 29.6855C62.5 29.6855 62.793 29.6855 62.793 29.5391C62.793 29.3926 62.5 29.2461 62.3535 29.0996C62.0605 28.9531 61.7676 28.9531 61.6211 29.0996C61.4746 29.0996 61.4746 29.2461 61.4746 29.2461C61.4746 29.3926 61.7676 29.3926 61.9141 29.5391ZM58.6914 29.6855C58.9844 29.6855 58.9844 29.5391 59.1309 29.5391C59.4238 29.3926 59.7168 29.3926 59.7168 29.2461C59.7168 29.2461 59.7168 29.0996 59.5703 29.0996C59.4238 28.9531 59.1309 28.9531 58.8379 29.0996C58.6914 29.2461 58.252 29.3926 58.3984 29.5391C58.3984 29.6855 58.5449 29.832 58.6914 29.6855ZM91.2109 70.5547C90.625 69.9688 90.332 68.9434 90.0391 67.7715C89.8926 66.4531 89.4531 65.2812 88.5742 64.4023C88.4277 64.2559 88.1348 64.1094 87.9883 63.9629C87.8418 63.8164 87.5488 63.8164 87.4023 63.6699C88.7207 59.7148 88.1348 55.7598 86.8164 52.0977C85.2051 47.7031 82.2754 43.8945 80.0781 41.2578C77.4414 38.0352 75.0977 35.1055 75.0977 30.7109C75.2441 23.9727 75.8301 11.5215 63.9648 11.375C49.0234 11.375 52.832 26.6094 52.5391 31.2969C52.3926 34.666 51.6602 37.3027 49.3164 40.6719C46.5332 44.041 42.5781 49.3145 40.8203 54.8809C39.9414 57.5176 39.502 60.1543 39.9414 62.6445C38.916 63.5234 38.1836 64.8418 37.4512 65.7207C36.8652 66.3066 35.9863 66.4531 34.9609 66.8926C33.9355 67.1855 32.9102 67.7715 32.3242 68.9434C31.8848 69.5293 31.8848 70.1152 31.8848 70.8477C31.8848 71.4336 31.8848 72.0195 32.0312 72.6055C32.1777 73.7773 32.3242 74.8027 32.1777 75.5352C31.4453 77.7324 31.2988 79.1973 31.8848 80.2227C32.3242 81.248 33.4961 81.834 34.8145 81.9805C37.3047 82.5664 40.6738 82.4199 43.457 83.8848C46.3867 85.3496 49.3164 85.9355 51.6602 85.3496C53.2715 85.0566 54.7363 84.0312 55.4688 82.4199C57.2266 82.4199 59.2773 81.6875 62.5 81.3945C64.6973 81.248 67.4805 82.2734 70.5566 82.127C70.7031 82.4199 70.8496 82.7129 70.9961 83.0059C72.168 85.4961 74.3652 86.668 76.8555 86.375C79.3457 86.2285 81.8359 84.7637 83.8867 82.2734C85.9375 79.9297 89.1602 78.9043 91.3574 77.5859C92.5293 77 93.4082 76.1211 93.4082 74.9492C93.4082 73.7773 92.8223 72.459 91.2109 70.5547ZM62.3535 24.2656C63.8184 21.043 67.334 21.043 68.7988 24.1191C69.8242 26.3164 69.3848 28.6602 68.2129 30.125C67.9199 29.9785 67.334 29.6855 66.3086 29.3926C66.4551 29.2461 66.748 28.9531 66.8945 28.6602C67.627 26.9023 66.8945 24.7051 65.5762 24.7051C64.5508 24.5586 63.5254 26.3164 63.8184 28.0742C63.2324 27.7812 62.5 27.4883 61.9141 27.4883C61.7676 26.4629 61.9141 25.291 62.3535 24.2656ZM56.4941 22.5078C57.959 22.5078 59.4238 24.5586 59.2773 27.4883C58.6914 27.6348 58.252 27.7812 57.666 28.0742C57.959 26.7559 57.2266 25.1445 56.3477 25.291C55.0293 25.291 54.8828 28.3672 56.0547 29.3926C56.2012 29.5391 56.3477 29.3926 55.1758 30.125C52.9785 28.0742 53.7109 22.5078 56.4941 22.5078ZM54.4434 31.4434C55.3223 30.7109 56.4941 29.9785 56.4941 29.832C57.2266 29.2461 58.5449 27.7812 60.5957 27.7812C61.6211 27.7812 62.9395 28.2207 64.4043 29.0996C65.2832 29.6855 66.0156 29.832 67.627 30.418C68.9453 31.0039 69.6777 31.8828 69.2383 33.2012C68.7988 34.2266 67.627 35.252 65.8691 35.8379C64.2578 36.2773 62.9395 38.1816 60.3027 38.0352C59.7168 37.8887 59.2773 37.8887 58.8379 37.7422C57.666 37.1562 57.0801 36.1309 55.9082 35.5449C54.7363 34.8125 54.0039 33.9336 53.8574 33.2012C53.5645 32.4688 53.8574 31.8828 54.4434 31.4434ZM54.8828 80.3691C54.5898 85.4961 48.4375 85.3496 43.8965 83.0059C39.502 80.6621 33.7891 81.9805 32.6172 79.7832C32.3242 79.0508 32.3242 77.8789 33.0566 75.9746V75.8281C33.3496 74.8027 33.2031 73.4844 32.9102 72.459C32.7637 71.2871 32.7637 70.2617 33.0566 69.5293C33.6426 68.5039 34.375 68.0645 35.2539 67.7715C36.7188 67.332 37.0117 67.332 38.1836 66.3066C38.916 65.5742 39.502 64.4023 40.2344 63.6699C40.9668 62.9375 41.6992 62.498 42.8711 62.6445C44.043 62.9375 45.0684 63.6699 46.0938 64.9883L48.877 70.2617C50.3418 73.1914 55.1758 77.293 54.8828 80.3691ZM54.7363 76.5605C54.1504 75.5352 53.2715 74.5098 52.5391 73.6309C53.7109 73.6309 54.7363 73.3379 55.0293 72.459C55.3223 71.4336 55.0293 70.2617 54.0039 68.7969C51.9531 66.0137 48.291 63.9629 48.291 63.9629C46.3867 62.791 45.2148 61.1797 44.7754 59.5684C44.1895 57.957 44.3359 56.1992 44.7754 54.4414C45.5078 51.0723 47.4121 47.8496 48.7305 45.7988C49.0234 45.5059 48.877 46.2383 47.4121 48.875C46.2402 51.2188 43.8965 56.6387 46.9727 60.8867C47.1191 57.8105 47.8516 54.7344 49.0234 51.9512C50.7812 47.8496 54.5898 40.9648 54.8828 35.3984C55.0293 35.5449 55.4688 35.8379 55.7617 35.9844C56.3477 36.4238 56.9336 37.0098 57.5195 37.4492C59.4238 38.9141 61.7676 38.7676 63.8184 37.5957C64.6973 37.1562 65.4297 36.5703 66.1621 36.2773C67.627 35.8379 68.6523 35.1055 69.3848 34.0801C70.5566 38.6211 73.1934 45.0664 74.8047 48.1426C75.6836 49.9004 77.4414 53.416 78.3203 57.6641C78.7598 57.6641 79.3457 57.6641 79.9316 57.8105C81.8359 52.5371 78.1738 46.9707 76.416 45.3594C75.8301 44.7734 75.6836 44.4805 76.123 44.4805C77.8809 46.0918 80.3711 49.3145 81.25 53.123C81.6895 54.7344 81.6895 56.4922 81.25 58.25C83.7402 59.2754 86.5234 60.8867 85.791 63.377C85.498 63.377 85.3516 63.377 85.2051 63.377C85.6445 61.9121 84.6191 60.8867 81.8359 59.5684C78.9062 58.3965 76.5625 58.3965 76.2695 61.4727C74.5117 62.0586 73.4863 63.5234 73.0469 65.4277C72.7539 67.0391 72.6074 69.0898 72.4609 71.2871C72.3145 72.459 71.875 73.9238 71.4355 75.5352C66.748 78.9043 60.1562 80.3691 54.7363 76.5605ZM92.3828 74.9492C92.2363 77.293 86.377 77.7324 83.1543 81.6875C81.25 84.0312 78.9062 85.2031 76.709 85.4961C74.6582 85.6426 72.9004 84.7637 71.875 82.5664C71.1426 80.9551 71.4355 79.1973 72.0215 77.293C72.6074 75.2422 73.3398 73.0449 73.4863 71.2871C73.6328 69.0898 73.6328 67.1855 74.0723 65.7207C74.5117 64.1094 75.0977 63.084 76.123 62.6445C76.123 62.498 76.123 62.498 76.2695 62.498C76.2695 64.4023 77.2949 66.4531 78.9062 66.8926C80.8105 67.332 83.4473 65.7207 84.6191 64.4023C85.9375 64.4023 86.9629 64.2559 87.8418 65.1348C89.3066 66.4531 89.0137 69.6758 90.4785 71.2871C91.9434 73.0449 92.5293 74.0703 92.3828 74.9492ZM55.0293 33.2012C55.3223 33.4941 55.7617 33.9336 56.2012 34.2266C57.0801 34.959 58.5449 35.8379 60.1562 35.8379C61.9141 35.8379 63.5254 34.959 64.8438 34.2266C65.5762 33.7871 66.4551 33.2012 67.041 32.7617C67.627 32.1758 67.9199 31.7363 67.4805 31.7363C67.041 31.7363 67.041 32.1758 66.6016 32.4688C65.8691 32.9082 65.1367 33.6406 64.5508 33.9336C63.5254 34.5195 61.6211 35.3984 60.1562 35.3984C58.6914 35.3984 57.373 34.666 56.4941 33.9336C56.0547 33.6406 55.6152 33.2012 55.3223 33.0547C55.1758 32.7617 55.1758 32.3223 54.7363 32.3223C54.5898 32.3223 54.4434 32.7617 55.0293 33.2012Z" fill="#5E5E5E" fill-opacity="0.45"/>
<path d="M62.9141 29.5391C63.0605 29.5391 63.207 29.6855 63.3535 29.6855C63.5 29.6855 63.793 29.6855 63.793 29.5391C63.793 29.3926 63.5 29.2461 63.3535 29.0996C63.0605 28.9531 62.7676 28.9531 62.6211 29.0996C62.4746 29.0996 62.4746 29.2461 62.4746 29.2461C62.4746 29.3926 62.7676 29.3926 62.9141 29.5391ZM59.6914 29.6855C59.9844 29.6855 59.9844 29.5391 60.1309 29.5391C60.4238 29.3926 60.7168 29.3926 60.7168 29.2461C60.7168 29.2461 60.7168 29.0996 60.5703 29.0996C60.4238 28.9531 60.1309 28.9531 59.8379 29.0996C59.6914 29.2461 59.252 29.3926 59.3984 29.5391C59.3984 29.6855 59.5449 29.832 59.6914 29.6855ZM92.2109 70.5547C91.625 69.9688 91.332 68.9434 91.0391 67.7715C90.8926 66.4531 90.4531 65.2812 89.5742 64.4023C89.4277 64.2559 89.1348 64.1094 88.9883 63.9629C88.8418 63.8164 88.5488 63.8164 88.4023 63.6699C89.7207 59.7148 89.1348 55.7598 87.8164 52.0977C86.2051 47.7031 83.2754 43.8945 81.0781 41.2578C78.4414 38.0352 76.0977 35.1055 76.0977 30.7109C76.2441 23.9727 76.8301 11.5215 64.9648 11.375C50.0234 11.375 53.832 26.6094 53.5391 31.2969C53.3926 34.666 52.6602 37.3027 50.3164 40.6719C47.5332 44.041 43.5781 49.3145 41.8203 54.8809C40.9414 57.5176 40.502 60.1543 40.9414 62.6445C39.916 63.5234 39.1836 64.8418 38.4512 65.7207C37.8652 66.3066 36.9863 66.4531 35.9609 66.8926C34.9355 67.1855 33.9102 67.7715 33.3242 68.9434C32.8848 69.5293 32.8848 70.1152 32.8848 70.8477C32.8848 71.4336 32.8848 72.0195 33.0312 72.6055C33.1777 73.7773 33.3242 74.8027 33.1777 75.5352C32.4453 77.7324 32.2988 79.1973 32.8848 80.2227C33.3242 81.248 34.4961 81.834 35.8145 81.9805C38.3047 82.5664 41.6738 82.4199 44.457 83.8848C47.3867 85.3496 50.3164 85.9355 52.6602 85.3496C54.2715 85.0566 55.7363 84.0312 56.4688 82.4199C58.2266 82.4199 60.2773 81.6875 63.5 81.3945C65.6973 81.248 68.4805 82.2734 71.5566 82.127C71.7031 82.4199 71.8496 82.7129 71.9961 83.0059C73.168 85.4961 75.3652 86.668 77.8555 86.375C80.3457 86.2285 82.8359 84.7637 84.8867 82.2734C86.9375 79.9297 90.1602 78.9043 92.3574 77.5859C93.5293 77 94.4082 76.1211 94.4082 74.9492C94.4082 73.7773 93.8223 72.459 92.2109 70.5547ZM63.3535 24.2656C64.8184 21.043 68.334 21.043 69.7988 24.1191C70.8242 26.3164 70.3848 28.6602 69.2129 30.125C68.9199 29.9785 68.334 29.6855 67.3086 29.3926C67.4551 29.2461 67.748 28.9531 67.8945 28.6602C68.627 26.9023 67.8945 24.7051 66.5762 24.7051C65.5508 24.5586 64.5254 26.3164 64.8184 28.0742C64.2324 27.7812 63.5 27.4883 62.9141 27.4883C62.7676 26.4629 62.9141 25.291 63.3535 24.2656ZM57.4941 22.5078C58.959 22.5078 60.4238 24.5586 60.2773 27.4883C59.6914 27.6348 59.252 27.7812 58.666 28.0742C58.959 26.7559 58.2266 25.1445 57.3477 25.291C56.0293 25.291 55.8828 28.3672 57.0547 29.3926C57.2012 29.5391 57.3477 29.3926 56.1758 30.125C53.9785 28.0742 54.7109 22.5078 57.4941 22.5078ZM55.4434 31.4434C56.3223 30.7109 57.4941 29.9785 57.4941 29.832C58.2266 29.2461 59.5449 27.7812 61.5957 27.7812C62.6211 27.7812 63.9395 28.2207 65.4043 29.0996C66.2832 29.6855 67.0156 29.832 68.627 30.418C69.9453 31.0039 70.6777 31.8828 70.2383 33.2012C69.7988 34.2266 68.627 35.252 66.8691 35.8379C65.2578 36.2773 63.9395 38.1816 61.3027 38.0352C60.7168 37.8887 60.2773 37.8887 59.8379 37.7422C58.666 37.1562 58.0801 36.1309 56.9082 35.5449C55.7363 34.8125 55.0039 33.9336 54.8574 33.2012C54.5645 32.4688 54.8574 31.8828 55.4434 31.4434ZM55.8828 80.3691C55.5898 85.4961 49.4375 85.3496 44.8965 83.0059C40.502 80.6621 34.7891 81.9805 33.6172 79.7832C33.3242 79.0508 33.3242 77.8789 34.0566 75.9746V75.8281C34.3496 74.8027 34.2031 73.4844 33.9102 72.459C33.7637 71.2871 33.7637 70.2617 34.0566 69.5293C34.6426 68.5039 35.375 68.0645 36.2539 67.7715C37.7188 67.332 38.0117 67.332 39.1836 66.3066C39.916 65.5742 40.502 64.4023 41.2344 63.6699C41.9668 62.9375 42.6992 62.498 43.8711 62.6445C45.043 62.9375 46.0684 63.6699 47.0938 64.9883L49.877 70.2617C51.3418 73.1914 56.1758 77.293 55.8828 80.3691ZM55.7363 76.5605C55.1504 75.5352 54.2715 74.5098 53.5391 73.6309C54.7109 73.6309 55.7363 73.3379 56.0293 72.459C56.3223 71.4336 56.0293 70.2617 55.0039 68.7969C52.9531 66.0137 49.291 63.9629 49.291 63.9629C47.3867 62.791 46.2148 61.1797 45.7754 59.5684C45.1895 57.957 45.3359 56.1992 45.7754 54.4414C46.5078 51.0723 48.4121 47.8496 49.7305 45.7988C50.0234 45.5059 49.877 46.2383 48.4121 48.875C47.2402 51.2188 44.8965 56.6387 47.9727 60.8867C48.1191 57.8105 48.8516 54.7344 50.0234 51.9512C51.7812 47.8496 55.5898 40.9648 55.8828 35.3984C56.0293 35.5449 56.4688 35.8379 56.7617 35.9844C57.3477 36.4238 57.9336 37.0098 58.5195 37.4492C60.4238 38.9141 62.7676 38.7676 64.8184 37.5957C65.6973 37.1562 66.4297 36.5703 67.1621 36.2773C68.627 35.8379 69.6523 35.1055 70.3848 34.0801C71.5566 38.6211 74.1934 45.0664 75.8047 48.1426C76.6836 49.9004 78.4414 53.416 79.3203 57.6641C79.7598 57.6641 80.3457 57.6641 80.9316 57.8105C82.8359 52.5371 79.1738 46.9707 77.416 45.3594C76.8301 44.7734 76.6836 44.4805 77.123 44.4805C78.8809 46.0918 81.3711 49.3145 82.25 53.123C82.6895 54.7344 82.6895 56.4922 82.25 58.25C84.7402 59.2754 87.5234 60.8867 86.791 63.377C86.498 63.377 86.3516 63.377 86.2051 63.377C86.6445 61.9121 85.6191 60.8867 82.8359 59.5684C79.9062 58.3965 77.5625 58.3965 77.2695 61.4727C75.5117 62.0586 74.4863 63.5234 74.0469 65.4277C73.7539 67.0391 73.6074 69.0898 73.4609 71.2871C73.3145 72.459 72.875 73.9238 72.4355 75.5352C67.748 78.9043 61.1562 80.3691 55.7363 76.5605ZM93.3828 74.9492C93.2363 77.293 87.377 77.7324 84.1543 81.6875C82.25 84.0312 79.9062 85.2031 77.709 85.4961C75.6582 85.6426 73.9004 84.7637 72.875 82.5664C72.1426 80.9551 72.4355 79.1973 73.0215 77.293C73.6074 75.2422 74.3398 73.0449 74.4863 71.2871C74.6328 69.0898 74.6328 67.1855 75.0723 65.7207C75.5117 64.1094 76.0977 63.084 77.123 62.6445C77.123 62.498 77.123 62.498 77.2695 62.498C77.2695 64.4023 78.2949 66.4531 79.9062 66.8926C81.8105 67.332 84.4473 65.7207 85.6191 64.4023C86.9375 64.4023 87.9629 64.2559 88.8418 65.1348C90.3066 66.4531 90.0137 69.6758 91.4785 71.2871C92.9434 73.0449 93.5293 74.0703 93.3828 74.9492ZM56.0293 33.2012C56.3223 33.4941 56.7617 33.9336 57.2012 34.2266C58.0801 34.959 59.5449 35.8379 61.1562 35.8379C62.9141 35.8379 64.5254 34.959 65.8438 34.2266C66.5762 33.7871 67.4551 33.2012 68.041 32.7617C68.627 32.1758 68.9199 31.7363 68.4805 31.7363C68.041 31.7363 68.041 32.1758 67.6016 32.4688C66.8691 32.9082 66.1367 33.6406 65.5508 33.9336C64.5254 34.5195 62.6211 35.3984 61.1562 35.3984C59.6914 35.3984 58.373 34.666 57.4941 33.9336C57.0547 33.6406 56.6152 33.2012 56.3223 33.0547C56.1758 32.7617 56.1758 32.3223 55.7363 32.3223C55.5898 32.3223 55.4434 32.7617 56.0293 33.2012Z" fill="white"/>
<path d="M153.605 64.4004H173.82V69H147.951V26.3438H153.605V64.4004ZM185.275 69H179.855V37.3008H185.275V69ZM179.416 28.8926C179.416 28.0137 179.68 27.2715 180.207 26.666C180.754 26.0605 181.555 25.7578 182.609 25.7578C183.664 25.7578 184.465 26.0605 185.012 26.666C185.559 27.2715 185.832 28.0137 185.832 28.8926C185.832 29.7715 185.559 30.5039 185.012 31.0898C184.465 31.6758 183.664 31.9688 182.609 31.9688C181.555 31.9688 180.754 31.6758 180.207 31.0898C179.68 30.5039 179.416 29.7715 179.416 28.8926ZM199.104 37.3008L199.279 41.2852C201.701 38.2383 204.865 36.7148 208.771 36.7148C215.471 36.7148 218.85 40.4941 218.908 48.0527V69H213.488V48.0234C213.469 45.7383 212.941 44.0488 211.906 42.9551C210.891 41.8613 209.299 41.3145 207.131 41.3145C205.373 41.3145 203.83 41.7832 202.502 42.7207C201.174 43.6582 200.139 44.8887 199.396 46.4121V69H193.977V37.3008H199.104ZM246.652 65.8652C244.543 68.3457 241.447 69.5859 237.365 69.5859C233.986 69.5859 231.408 68.6094 229.631 66.6562C227.873 64.6836 226.984 61.7734 226.965 57.9258V37.3008H232.385V57.7793C232.385 62.584 234.338 64.9863 238.244 64.9863C242.385 64.9863 245.139 63.4434 246.506 60.3574V37.3008H251.926V69H246.77L246.652 65.8652ZM270.822 48.873L277.854 37.3008H284.182L273.811 52.9746L284.504 69H278.234L270.91 57.1348L263.586 69H257.287L267.98 52.9746L257.609 37.3008H263.879L270.822 48.873Z" fill="#5E5E5E" fill-opacity="0.45"/>
<path d="M154.605 64.4004H174.82V69H148.951V26.3438H154.605V64.4004ZM186.275 69H180.855V37.3008H186.275V69ZM180.416 28.8926C180.416 28.0137 180.68 27.2715 181.207 26.666C181.754 26.0605 182.555 25.7578 183.609 25.7578C184.664 25.7578 185.465 26.0605 186.012 26.666C186.559 27.2715 186.832 28.0137 186.832 28.8926C186.832 29.7715 186.559 30.5039 186.012 31.0898C185.465 31.6758 184.664 31.9688 183.609 31.9688C182.555 31.9688 181.754 31.6758 181.207 31.0898C180.68 30.5039 180.416 29.7715 180.416 28.8926ZM200.104 37.3008L200.279 41.2852C202.701 38.2383 205.865 36.7148 209.771 36.7148C216.471 36.7148 219.85 40.4941 219.908 48.0527V69H214.488V48.0234C214.469 45.7383 213.941 44.0488 212.906 42.9551C211.891 41.8613 210.299 41.3145 208.131 41.3145C206.373 41.3145 204.83 41.7832 203.502 42.7207C202.174 43.6582 201.139 44.8887 200.396 46.4121V69H194.977V37.3008H200.104ZM247.652 65.8652C245.543 68.3457 242.447 69.5859 238.365 69.5859C234.986 69.5859 232.408 68.6094 230.631 66.6562C228.873 64.6836 227.984 61.7734 227.965 57.9258V37.3008H233.385V57.7793C233.385 62.584 235.338 64.9863 239.244 64.9863C243.385 64.9863 246.139 63.4434 247.506 60.3574V37.3008H252.926V69H247.77L247.652 65.8652ZM271.822 48.873L278.854 37.3008H285.182L274.811 52.9746L285.504 69H279.234L271.91 57.1348L264.586 69H258.287L268.98 52.9746L258.609 37.3008H264.879L271.822 48.873Z" fill="white"/>
<defs>
<linearGradient id="paint0_linear" x1="54" y1="-10" x2="54" y2="114" gradientUnits="userSpaceOnUse">
<stop stop-color="white" stop-opacity="0"/>
<stop offset="1" stop-opacity="0.33"/>
</linearGradient>
<linearGradient id="paint1_linear" x1="315.5" y1="-10" x2="315.5" y2="114" gradientUnits="userSpaceOnUse">
<stop stop-opacity="0.78"/>
<stop offset="0.454792" stop-color="#242424"/>
<stop offset="1" stop-color="#020202"/>
</linearGradient>
</defs>
</svg>
