<svg width="500" height="97" viewBox="0 0 500 97" fill="none" xmlns="http://www.w3.org/2000/svg">
<mask id="mask0" mask-type="alpha" maskUnits="userSpaceOnUse" x="0" y="0" width="500" height="97">
<rect width="500" height="97" rx="15" fill="white"/>
</mask>
<g mask="url(#mask0)">
<rect x="-15" y="-10" width="138" height="124" fill="#E65E17"/>
<rect x="-15" y="-10" width="138" height="124" fill="url(#paint0_linear)" fill-opacity="0.6"/>
<rect x="123" y="-10" width="385" height="124" fill="url(#paint1_linear)"/>
<path d="M449 -45.7861C400.836 -45.7861 361.813 -6.76266 361.813 41.4014C361.813 89.5655 400.836 128.589 449 128.589C497.164 128.589 536.188 89.5655 536.188 41.4014C536.188 -6.76266 497.164 -45.7861 449 -45.7861ZM467.281 -13.0908C470.445 -18.3642 477.477 -20.122 482.75 -16.958C488.023 -13.7939 489.781 -7.11423 486.617 -1.84079C483.805 3.78421 476.773 5.54202 471.5 2.37796C466.227 -0.786102 464.117 -7.46579 467.281 -13.0908ZM392.398 52.6514C386.07 52.6514 381.148 47.7295 381.148 41.4014C381.148 35.4248 386.07 30.503 392.398 30.503C398.727 30.503 403.648 35.4248 403.648 41.4014C403.648 47.7295 398.727 52.6514 392.398 52.6514ZM402.242 53.7061C409.977 47.7295 409.977 35.7764 402.242 29.4483C405.406 17.8467 412.438 8.00296 422.281 1.32327L430.367 15.3858C412.438 28.042 412.438 55.1123 430.367 67.7686L422.281 81.4795C412.438 75.1514 405.406 65.3076 402.242 53.7061ZM482.75 100.112C477.125 103.276 470.445 101.519 467.281 95.8936C464.117 90.6201 466.227 83.9405 471.5 80.7764C476.773 77.6123 483.805 79.3701 486.617 84.9951C489.781 90.2686 488.023 96.9483 482.75 100.112ZM482.75 75.8545C473.258 71.9873 463.063 77.9639 461.656 88.1592C459.547 88.5108 444.43 93.0811 427.555 84.6436L435.289 70.5811C455.328 79.7217 478.883 66.3623 480.641 44.5655H496.813C496.109 56.8701 490.836 67.7686 482.75 75.8545ZM480.641 38.5889C478.883 16.792 455.68 3.08109 435.289 12.5733L427.555 -1.48923C444.43 -9.92673 459.547 -5.35641 461.305 -5.00485C463.063 5.19046 473.258 11.167 482.75 7.29984C490.836 15.3858 496.109 26.2842 496.813 38.5889H480.641Z" fill="white" fill-opacity="0.07"/>
</g>
<path d="M62.5 12.5469C42.4316 12.5469 26.1719 28.8066 26.1719 48.875C26.1719 68.9434 42.4316 85.2031 62.5 85.2031C82.5684 85.2031 98.8281 68.9434 98.8281 48.875C98.8281 28.8066 82.5684 12.5469 62.5 12.5469ZM70.1172 26.1699C71.4355 23.9727 74.3652 23.2402 76.5625 24.5586C78.7598 25.877 79.4922 28.6602 78.1738 30.8574C77.002 33.2012 74.0723 33.9336 71.875 32.6152C69.6777 31.2969 68.7988 28.5137 70.1172 26.1699ZM38.916 53.5625C36.2793 53.5625 34.2285 51.5117 34.2285 48.875C34.2285 46.3848 36.2793 44.334 38.916 44.334C41.5527 44.334 43.6035 46.3848 43.6035 48.875C43.6035 51.5117 41.5527 53.5625 38.916 53.5625ZM43.0176 54.002C46.2402 51.5117 46.2402 46.5312 43.0176 43.8945C44.3359 39.0605 47.2656 34.959 51.3672 32.1758L54.7363 38.0352C47.2656 43.3086 47.2656 54.5879 54.7363 59.8613L51.3672 65.5742C47.2656 62.9375 44.3359 58.8359 43.0176 54.002ZM76.5625 73.3379C74.2188 74.6562 71.4355 73.9238 70.1172 71.5801C68.7988 69.3828 69.6777 66.5996 71.875 65.2812C74.0723 63.9629 77.002 64.6953 78.1738 67.0391C79.4922 69.2363 78.7598 72.0195 76.5625 73.3379ZM76.5625 63.2305C72.6074 61.6191 68.3594 64.1094 67.7734 68.3574C66.8945 68.5039 60.5957 70.4082 53.5645 66.8926L56.7871 61.0332C65.1367 64.8418 74.9512 59.2754 75.6836 50.1934H82.4219C82.1289 55.3203 79.9316 59.8613 76.5625 63.2305ZM75.6836 47.7031C74.9512 38.6211 65.2832 32.9082 56.7871 36.8633L53.5645 31.0039C60.5957 27.4883 66.8945 29.3926 67.627 29.5391C68.3594 33.7871 72.6074 36.2773 76.5625 34.666C79.9316 38.0352 82.1289 42.5762 82.4219 47.7031H75.6836Z" fill="#5E5E5E" fill-opacity="0.45"/>
<path d="M63.5 12.5469C43.4316 12.5469 27.1719 28.8066 27.1719 48.875C27.1719 68.9434 43.4316 85.2031 63.5 85.2031C83.5684 85.2031 99.8281 68.9434 99.8281 48.875C99.8281 28.8066 83.5684 12.5469 63.5 12.5469ZM71.1172 26.1699C72.4355 23.9727 75.3652 23.2402 77.5625 24.5586C79.7598 25.877 80.4922 28.6602 79.1738 30.8574C78.002 33.2012 75.0723 33.9336 72.875 32.6152C70.6777 31.2969 69.7988 28.5137 71.1172 26.1699ZM39.916 53.5625C37.2793 53.5625 35.2285 51.5117 35.2285 48.875C35.2285 46.3848 37.2793 44.334 39.916 44.334C42.5527 44.334 44.6035 46.3848 44.6035 48.875C44.6035 51.5117 42.5527 53.5625 39.916 53.5625ZM44.0176 54.002C47.2402 51.5117 47.2402 46.5312 44.0176 43.8945C45.3359 39.0605 48.2656 34.959 52.3672 32.1758L55.7363 38.0352C48.2656 43.3086 48.2656 54.5879 55.7363 59.8613L52.3672 65.5742C48.2656 62.9375 45.3359 58.8359 44.0176 54.002ZM77.5625 73.3379C75.2188 74.6562 72.4355 73.9238 71.1172 71.5801C69.7988 69.3828 70.6777 66.5996 72.875 65.2812C75.0723 63.9629 78.002 64.6953 79.1738 67.0391C80.4922 69.2363 79.7598 72.0195 77.5625 73.3379ZM77.5625 63.2305C73.6074 61.6191 69.3594 64.1094 68.7734 68.3574C67.8945 68.5039 61.5957 70.4082 54.5645 66.8926L57.7871 61.0332C66.1367 64.8418 75.9512 59.2754 76.6836 50.1934H83.4219C83.1289 55.3203 80.9316 59.8613 77.5625 63.2305ZM76.6836 47.7031C75.9512 38.6211 66.2832 32.9082 57.7871 36.8633L54.5645 31.0039C61.5957 27.4883 67.8945 29.3926 68.627 29.5391C69.3594 33.7871 73.6074 36.2773 77.5625 34.666C80.9316 38.0352 83.1289 42.5762 83.4219 47.7031H76.6836Z" fill="white"/>
<path d="M153.605 64.4004H173.82V69H147.951V26.3438H153.605V64.4004ZM185.275 69H179.855V37.3008H185.275V69ZM179.416 28.8926C179.416 28.0137 179.68 27.2715 180.207 26.666C180.754 26.0605 181.555 25.7578 182.609 25.7578C183.664 25.7578 184.465 26.0605 185.012 26.666C185.559 27.2715 185.832 28.0137 185.832 28.8926C185.832 29.7715 185.559 30.5039 185.012 31.0898C184.465 31.6758 183.664 31.9688 182.609 31.9688C181.555 31.9688 180.754 31.6758 180.207 31.0898C179.68 30.5039 179.416 29.7715 179.416 28.8926ZM199.104 37.3008L199.279 41.2852C201.701 38.2383 204.865 36.7148 208.771 36.7148C215.471 36.7148 218.85 40.4941 218.908 48.0527V69H213.488V48.0234C213.469 45.7383 212.941 44.0488 211.906 42.9551C210.891 41.8613 209.299 41.3145 207.131 41.3145C205.373 41.3145 203.83 41.7832 202.502 42.7207C201.174 43.6582 200.139 44.8887 199.396 46.4121V69H193.977V37.3008H199.104ZM246.652 65.8652C244.543 68.3457 241.447 69.5859 237.365 69.5859C233.986 69.5859 231.408 68.6094 229.631 66.6562C227.873 64.6836 226.984 61.7734 226.965 57.9258V37.3008H232.385V57.7793C232.385 62.584 234.338 64.9863 238.244 64.9863C242.385 64.9863 245.139 63.4434 246.506 60.3574V37.3008H251.926V69H246.77L246.652 65.8652ZM270.822 48.873L277.854 37.3008H284.182L273.811 52.9746L284.504 69H278.234L270.91 57.1348L263.586 69H257.287L267.98 52.9746L257.609 37.3008H263.879L270.822 48.873Z" fill="#5E5E5E" fill-opacity="0.45"/>
<path d="M154.605 64.4004H174.82V69H148.951V26.3438H154.605V64.4004ZM186.275 69H180.855V37.3008H186.275V69ZM180.416 28.8926C180.416 28.0137 180.68 27.2715 181.207 26.666C181.754 26.0605 182.555 25.7578 183.609 25.7578C184.664 25.7578 185.465 26.0605 186.012 26.666C186.559 27.2715 186.832 28.0137 186.832 28.8926C186.832 29.7715 186.559 30.5039 186.012 31.0898C185.465 31.6758 184.664 31.9688 183.609 31.9688C182.555 31.9688 181.754 31.6758 181.207 31.0898C180.68 30.5039 180.416 29.7715 180.416 28.8926ZM200.104 37.3008L200.279 41.2852C202.701 38.2383 205.865 36.7148 209.771 36.7148C216.471 36.7148 219.85 40.4941 219.908 48.0527V69H214.488V48.0234C214.469 45.7383 213.941 44.0488 212.906 42.9551C211.891 41.8613 210.299 41.3145 208.131 41.3145C206.373 41.3145 204.83 41.7832 203.502 42.7207C202.174 43.6582 201.139 44.8887 200.396 46.4121V69H194.977V37.3008H200.104ZM247.652 65.8652C245.543 68.3457 242.447 69.5859 238.365 69.5859C234.986 69.5859 232.408 68.6094 230.631 66.6562C228.873 64.6836 227.984 61.7734 227.965 57.9258V37.3008H233.385V57.7793C233.385 62.584 235.338 64.9863 239.244 64.9863C243.385 64.9863 246.139 63.4434 247.506 60.3574V37.3008H252.926V69H247.77L247.652 65.8652ZM271.822 48.873L278.854 37.3008H285.182L274.811 52.9746L285.504 69H279.234L271.91 57.1348L264.586 69H258.287L268.98 52.9746L258.609 37.3008H264.879L271.822 48.873Z" fill="white"/>
<defs>
<linearGradient id="paint0_linear" x1="54" y1="-10" x2="54" y2="114" gradientUnits="userSpaceOnUse">
<stop stop-color="white" stop-opacity="0"/>
<stop offset="1" stop-opacity="0.33"/>
</linearGradient>
<linearGradient id="paint1_linear" x1="315.5" y1="-10" x2="315.5" y2="114" gradientUnits="userSpaceOnUse">
<stop stop-opacity="0.78"/>
<stop offset="0.454792" stop-color="#242424"/>
<stop offset="1" stop-color="#020202"/>
</linearGradient>
</defs>
</svg>
