<svg width="489" height="97" viewBox="0 0 489 97" fill="none" xmlns="http://www.w3.org/2000/svg">
<mask id="mask0" mask-type="alpha" maskUnits="userSpaceOnUse" x="0" y="0" width="441" height="97">
<rect width="441" height="97" rx="15" fill="#C4C4C4"/>
</mask>
<g mask="url(#mask0)">
<g style="mix-blend-mode:multiply">
<rect x="-15" y="-10" width="138" height="124" fill="#CD3738"/>
<rect x="-15" y="-10" width="138" height="124" fill="url(#paint0_linear)" fill-opacity="0.6"/>
</g>
<g style="mix-blend-mode:multiply">
<rect x="123" y="-10" width="385" height="124" fill="url(#paint1_linear)"/>
</g>
<path d="M409 52.6514V30.1514H397.75V52.6514H409ZM510.25 7.65141H307.75V75.1514H364V86.4014H409V75.1514H510.25V7.65141ZM364 18.9014V63.9014H352.75V30.1514H341.5V63.9014H319V18.9014H364ZM420.25 18.9014V63.9014H397.75V75.1514H375.25V18.9014H420.25ZM499 18.9014V63.9014H487.75V30.1514H476.5V63.9014H465.25V30.1514H454V63.9014H431.5V18.9014H499Z" fill="white" fill-opacity="0.07"/>
</g>
<path d="M62.5 53.5625V44.1875H57.8125V53.5625H62.5ZM104.688 34.8125H20.3125V62.9375H43.75V67.625H62.5V62.9375H104.688V34.8125ZM43.75 39.5V58.25H39.0625V44.1875H34.375V58.25H25V39.5H43.75ZM67.1875 39.5V58.25H57.8125V62.9375H48.4375V39.5H67.1875ZM100 39.5V58.25H95.3125V44.1875H90.625V58.25H85.9375V44.1875H81.25V58.25H71.875V39.5H100Z" fill="#5E5E5E" fill-opacity="0.45"/>
<path d="M63.5 53.5625V44.1875H58.8125V53.5625H63.5ZM105.688 34.8125H21.3125V62.9375H44.75V67.625H63.5V62.9375H105.688V34.8125ZM44.75 39.5V58.25H40.0625V44.1875H35.375V58.25H26V39.5H44.75ZM68.1875 39.5V58.25H58.8125V62.9375H49.4375V39.5H68.1875ZM101 39.5V58.25H96.3125V44.1875H91.625V58.25H86.9375V44.1875H82.25V58.25H72.875V39.5H101Z" fill="white"/>
<path d="M180.734 69H175.08L153.605 36.1289V69H147.951V26.3438H153.605L175.139 59.3613V26.3438H180.734V69ZM196.35 52.3008V69H190.725V26.3438H206.457C211.125 26.3438 214.777 27.5352 217.414 29.918C220.07 32.3008 221.398 35.4551 221.398 39.3809C221.398 43.5215 220.1 46.7148 217.502 48.9609C214.924 51.1875 211.223 52.3008 206.398 52.3008H196.35ZM196.35 47.7012H206.457C209.465 47.7012 211.77 46.998 213.371 45.5918C214.973 44.166 215.773 42.1152 215.773 39.4395C215.773 36.9004 214.973 34.8691 213.371 33.3457C211.77 31.8223 209.572 31.0312 206.779 30.9727H196.35V47.7012ZM235.842 26.3438L249.787 61.1484L263.732 26.3438H271.027V69H265.402V52.3887L265.93 34.459L251.926 69H247.619L233.645 34.5469L234.201 52.3887V69H228.576V26.3438H235.842Z" fill="#5E5E5E" fill-opacity="0.45"/>
<path d="M181.734 69H176.08L154.605 36.1289V69H148.951V26.3438H154.605L176.139 59.3613V26.3438H181.734V69ZM197.35 52.3008V69H191.725V26.3438H207.457C212.125 26.3438 215.777 27.5352 218.414 29.918C221.07 32.3008 222.398 35.4551 222.398 39.3809C222.398 43.5215 221.1 46.7148 218.502 48.9609C215.924 51.1875 212.223 52.3008 207.398 52.3008H197.35ZM197.35 47.7012H207.457C210.465 47.7012 212.77 46.998 214.371 45.5918C215.973 44.166 216.773 42.1152 216.773 39.4395C216.773 36.9004 215.973 34.8691 214.371 33.3457C212.77 31.8223 210.572 31.0312 207.779 30.9727H197.35V47.7012ZM236.842 26.3438L250.787 61.1484L264.732 26.3438H272.027V69H266.402V52.3887L266.93 34.459L252.926 69H248.619L234.645 34.5469L235.201 52.3887V69H229.576V26.3438H236.842Z" fill="white"/>
<defs>
<linearGradient id="paint0_linear" x1="54" y1="-10" x2="54" y2="114" gradientUnits="userSpaceOnUse">
<stop stop-color="white" stop-opacity="0"/>
<stop offset="1" stop-opacity="0.33"/>
</linearGradient>
<linearGradient id="paint1_linear" x1="315.5" y1="-10" x2="315.5" y2="114" gradientUnits="userSpaceOnUse">
<stop stop-opacity="0.78"/>
<stop offset="0.454792" stop-color="#242424"/>
<stop offset="1" stop-color="#020202"/>
</linearGradient>
</defs>
</svg>
