<svg width="500" height="97" viewBox="0 0 500 97" fill="none" xmlns="http://www.w3.org/2000/svg">
<mask id="mask0" mask-type="alpha" maskUnits="userSpaceOnUse" x="0" y="0" width="500" height="97">
<rect width="500" height="97" rx="15" fill="white"/>
</mask>
<g mask="url(#mask0)">
<rect x="-15" y="-10" width="138" height="124" fill="#0079D6"/>
<rect x="-15" y="-10" width="138" height="124" fill="url(#paint0_linear)" fill-opacity="0.6"/>
<rect x="123" y="-10" width="385" height="124" fill="url(#paint1_linear)"/>
<path d="M370.25 -15.5517V37.8858H434.586V-24.3408L370.25 -15.5517ZM370.25 98.7061L434.586 107.495V45.9717H370.25V98.7061ZM441.617 108.55L527.75 120.151V45.9717H441.617V108.55ZM441.617 -25.3955V37.8858H527.75V-37.3486L441.617 -25.3955Z" fill="white" fill-opacity="0.07"/>
</g>
<path d="M29.6875 25.1445V47.4102H56.4941V21.4824L29.6875 25.1445ZM29.6875 72.752L56.4941 76.4141V50.7793H29.6875V72.752ZM59.4238 76.8535L95.3125 81.6875V50.7793H59.4238V76.8535ZM59.4238 21.043V47.4102H95.3125V16.0625L59.4238 21.043Z" fill="#5E5E5E" fill-opacity="0.45"/>
<path d="M30.6875 25.1445V47.4102H57.4941V21.4824L30.6875 25.1445ZM30.6875 72.752L57.4941 76.4141V50.7793H30.6875V72.752ZM60.4238 76.8535L96.3125 81.6875V50.7793H60.4238V76.8535ZM60.4238 21.043V47.4102H96.3125V16.0625L60.4238 21.043Z" fill="white"/>
<path d="M157.15 55.5527L157.971 61.1777L159.172 56.1094L167.609 26.3438H172.355L180.588 56.1094L181.76 61.2656L182.668 55.5234L189.289 26.3438H194.943L184.602 69H179.475L170.686 37.916L170.012 34.6641L169.338 37.916L160.227 69H155.1L144.787 26.3438H150.412L157.15 55.5527ZM206.252 69H200.832V37.3008H206.252V69ZM200.393 28.8926C200.393 28.0137 200.656 27.2715 201.184 26.666C201.73 26.0605 202.531 25.7578 203.586 25.7578C204.641 25.7578 205.441 26.0605 205.988 26.666C206.535 27.2715 206.809 28.0137 206.809 28.8926C206.809 29.7715 206.535 30.5039 205.988 31.0898C205.441 31.6758 204.641 31.9688 203.586 31.9688C202.531 31.9688 201.73 31.6758 201.184 31.0898C200.656 30.5039 200.393 29.7715 200.393 28.8926ZM220.08 37.3008L220.256 41.2852C222.678 38.2383 225.842 36.7148 229.748 36.7148C236.447 36.7148 239.826 40.4941 239.885 48.0527V69H234.465V48.0234C234.445 45.7383 233.918 44.0488 232.883 42.9551C231.867 41.8613 230.275 41.3145 228.107 41.3145C226.35 41.3145 224.807 41.7832 223.479 42.7207C222.15 43.6582 221.115 44.8887 220.373 46.4121V69H214.953V37.3008H220.08ZM246.74 52.8867C246.74 48.0234 247.893 44.1172 250.197 41.168C252.502 38.1992 255.52 36.7148 259.25 36.7148C262.961 36.7148 265.9 37.9844 268.068 40.5234V24H273.488V69H268.508L268.244 65.6016C266.076 68.2578 263.059 69.5859 259.191 69.5859C255.52 69.5859 252.521 68.082 250.197 65.0742C247.893 62.0664 246.74 58.1406 246.74 53.2969V52.8867ZM252.16 53.502C252.16 57.0957 252.902 59.9082 254.387 61.9395C255.871 63.9707 257.922 64.9863 260.539 64.9863C263.977 64.9863 266.486 63.4434 268.068 60.3574V45.7969C266.447 42.8086 263.957 41.3145 260.598 41.3145C257.941 41.3145 255.871 42.3398 254.387 44.3906C252.902 46.4414 252.16 49.4785 252.16 53.502ZM280.49 52.8574C280.49 49.752 281.096 46.959 282.307 44.4785C283.537 41.998 285.236 40.084 287.404 38.7363C289.592 37.3887 292.082 36.7148 294.875 36.7148C299.191 36.7148 302.678 38.209 305.334 41.1973C308.01 44.1855 309.348 48.1602 309.348 53.1211V53.502C309.348 56.5879 308.752 59.3613 307.561 61.8223C306.389 64.2637 304.699 66.168 302.492 67.5352C300.305 68.9023 297.785 69.5859 294.934 69.5859C290.637 69.5859 287.15 68.0918 284.475 65.1035C281.818 62.1152 280.49 58.1602 280.49 53.2383V52.8574ZM285.939 53.502C285.939 57.0176 286.75 59.8398 288.371 61.9688C290.012 64.0977 292.199 65.1621 294.934 65.1621C297.688 65.1621 299.875 64.0879 301.496 61.9395C303.117 59.7715 303.928 56.7441 303.928 52.8574C303.928 49.3809 303.098 46.5684 301.438 44.4199C299.797 42.252 297.609 41.168 294.875 41.168C292.199 41.168 290.041 42.2324 288.4 44.3613C286.76 46.4902 285.939 49.5371 285.939 53.502ZM344.211 61.5293L350.305 37.3008H355.725L346.496 69H342.102L334.396 44.9766L326.896 69H322.502L313.303 37.3008H318.693L324.934 61.0312L332.316 37.3008H336.682L344.211 61.5293ZM379.719 60.5918C379.719 59.127 379.162 57.9941 378.049 57.1934C376.955 56.373 375.031 55.6699 372.277 55.084C369.543 54.498 367.365 53.7949 365.744 52.9746C364.143 52.1543 362.951 51.1777 362.17 50.0449C361.408 48.9121 361.027 47.5645 361.027 46.002C361.027 43.4043 362.121 41.207 364.309 39.4102C366.516 37.6133 369.328 36.7148 372.746 36.7148C376.34 36.7148 379.25 37.6426 381.477 39.498C383.723 41.3535 384.846 43.7266 384.846 46.6172H379.396C379.396 45.1328 378.762 43.8535 377.492 42.7793C376.242 41.7051 374.66 41.168 372.746 41.168C370.773 41.168 369.23 41.5977 368.117 42.457C367.004 43.3164 366.447 44.4395 366.447 45.8262C366.447 47.1348 366.965 48.1211 368 48.7852C369.035 49.4492 370.9 50.084 373.596 50.6895C376.311 51.2949 378.508 52.0176 380.188 52.8574C381.867 53.6973 383.107 54.7129 383.908 55.9043C384.729 57.0762 385.139 58.5117 385.139 60.2109C385.139 63.043 384.006 65.3184 381.74 67.0371C379.475 68.7363 376.535 69.5859 372.922 69.5859C370.383 69.5859 368.137 69.1367 366.184 68.2383C364.23 67.3398 362.697 66.0898 361.584 64.4883C360.49 62.8672 359.943 61.1191 359.943 59.2441H365.363C365.461 61.0605 366.184 62.5059 367.531 63.5801C368.898 64.6348 370.695 65.1621 372.922 65.1621C374.973 65.1621 376.613 64.752 377.844 63.9316C379.094 63.0918 379.719 61.9785 379.719 60.5918Z" fill="#5E5E5E" fill-opacity="0.45"/>
<path d="M158.15 55.5527L158.971 61.1777L160.172 56.1094L168.609 26.3438H173.355L181.588 56.1094L182.76 61.2656L183.668 55.5234L190.289 26.3438H195.943L185.602 69H180.475L171.686 37.916L171.012 34.6641L170.338 37.916L161.227 69H156.1L145.787 26.3438H151.412L158.15 55.5527ZM207.252 69H201.832V37.3008H207.252V69ZM201.393 28.8926C201.393 28.0137 201.656 27.2715 202.184 26.666C202.73 26.0605 203.531 25.7578 204.586 25.7578C205.641 25.7578 206.441 26.0605 206.988 26.666C207.535 27.2715 207.809 28.0137 207.809 28.8926C207.809 29.7715 207.535 30.5039 206.988 31.0898C206.441 31.6758 205.641 31.9688 204.586 31.9688C203.531 31.9688 202.73 31.6758 202.184 31.0898C201.656 30.5039 201.393 29.7715 201.393 28.8926ZM221.08 37.3008L221.256 41.2852C223.678 38.2383 226.842 36.7148 230.748 36.7148C237.447 36.7148 240.826 40.4941 240.885 48.0527V69H235.465V48.0234C235.445 45.7383 234.918 44.0488 233.883 42.9551C232.867 41.8613 231.275 41.3145 229.107 41.3145C227.35 41.3145 225.807 41.7832 224.479 42.7207C223.15 43.6582 222.115 44.8887 221.373 46.4121V69H215.953V37.3008H221.08ZM247.74 52.8867C247.74 48.0234 248.893 44.1172 251.197 41.168C253.502 38.1992 256.52 36.7148 260.25 36.7148C263.961 36.7148 266.9 37.9844 269.068 40.5234V24H274.488V69H269.508L269.244 65.6016C267.076 68.2578 264.059 69.5859 260.191 69.5859C256.52 69.5859 253.521 68.082 251.197 65.0742C248.893 62.0664 247.74 58.1406 247.74 53.2969V52.8867ZM253.16 53.502C253.16 57.0957 253.902 59.9082 255.387 61.9395C256.871 63.9707 258.922 64.9863 261.539 64.9863C264.977 64.9863 267.486 63.4434 269.068 60.3574V45.7969C267.447 42.8086 264.957 41.3145 261.598 41.3145C258.941 41.3145 256.871 42.3398 255.387 44.3906C253.902 46.4414 253.16 49.4785 253.16 53.502ZM281.49 52.8574C281.49 49.752 282.096 46.959 283.307 44.4785C284.537 41.998 286.236 40.084 288.404 38.7363C290.592 37.3887 293.082 36.7148 295.875 36.7148C300.191 36.7148 303.678 38.209 306.334 41.1973C309.01 44.1855 310.348 48.1602 310.348 53.1211V53.502C310.348 56.5879 309.752 59.3613 308.561 61.8223C307.389 64.2637 305.699 66.168 303.492 67.5352C301.305 68.9023 298.785 69.5859 295.934 69.5859C291.637 69.5859 288.15 68.0918 285.475 65.1035C282.818 62.1152 281.49 58.1602 281.49 53.2383V52.8574ZM286.939 53.502C286.939 57.0176 287.75 59.8398 289.371 61.9688C291.012 64.0977 293.199 65.1621 295.934 65.1621C298.688 65.1621 300.875 64.0879 302.496 61.9395C304.117 59.7715 304.928 56.7441 304.928 52.8574C304.928 49.3809 304.098 46.5684 302.438 44.4199C300.797 42.252 298.609 41.168 295.875 41.168C293.199 41.168 291.041 42.2324 289.4 44.3613C287.76 46.4902 286.939 49.5371 286.939 53.502ZM345.211 61.5293L351.305 37.3008H356.725L347.496 69H343.102L335.396 44.9766L327.896 69H323.502L314.303 37.3008H319.693L325.934 61.0312L333.316 37.3008H337.682L345.211 61.5293ZM380.719 60.5918C380.719 59.127 380.162 57.9941 379.049 57.1934C377.955 56.373 376.031 55.6699 373.277 55.084C370.543 54.498 368.365 53.7949 366.744 52.9746C365.143 52.1543 363.951 51.1777 363.17 50.0449C362.408 48.9121 362.027 47.5645 362.027 46.002C362.027 43.4043 363.121 41.207 365.309 39.4102C367.516 37.6133 370.328 36.7148 373.746 36.7148C377.34 36.7148 380.25 37.6426 382.477 39.498C384.723 41.3535 385.846 43.7266 385.846 46.6172H380.396C380.396 45.1328 379.762 43.8535 378.492 42.7793C377.242 41.7051 375.66 41.168 373.746 41.168C371.773 41.168 370.23 41.5977 369.117 42.457C368.004 43.3164 367.447 44.4395 367.447 45.8262C367.447 47.1348 367.965 48.1211 369 48.7852C370.035 49.4492 371.9 50.084 374.596 50.6895C377.311 51.2949 379.508 52.0176 381.188 52.8574C382.867 53.6973 384.107 54.7129 384.908 55.9043C385.729 57.0762 386.139 58.5117 386.139 60.2109C386.139 63.043 385.006 65.3184 382.74 67.0371C380.475 68.7363 377.535 69.5859 373.922 69.5859C371.383 69.5859 369.137 69.1367 367.184 68.2383C365.23 67.3398 363.697 66.0898 362.584 64.4883C361.49 62.8672 360.943 61.1191 360.943 59.2441H366.363C366.461 61.0605 367.184 62.5059 368.531 63.5801C369.898 64.6348 371.695 65.1621 373.922 65.1621C375.973 65.1621 377.613 64.752 378.844 63.9316C380.094 63.0918 380.719 61.9785 380.719 60.5918Z" fill="white"/>
<defs>
<linearGradient id="paint0_linear" x1="54" y1="-10" x2="54" y2="114" gradientUnits="userSpaceOnUse">
<stop stop-color="white" stop-opacity="0"/>
<stop offset="1" stop-opacity="0.33"/>
</linearGradient>
<linearGradient id="paint1_linear" x1="315.5" y1="-10" x2="315.5" y2="114" gradientUnits="userSpaceOnUse">
<stop stop-opacity="0.78"/>
<stop offset="0.454792" stop-color="#242424"/>
<stop offset="1" stop-color="#020202"/>
</linearGradient>
</defs>
</svg>
