<svg width="489" height="97" viewBox="0 0 489 97" fill="none" xmlns="http://www.w3.org/2000/svg">
<mask id="mask0" mask-type="alpha" maskUnits="userSpaceOnUse" x="0" y="0" width="443" height="97">
<rect width="443" height="97" rx="15" fill="#C4C4C4"/>
</mask>
<g mask="url(#mask0)">
<g style="mix-blend-mode:multiply">
<rect x="-15" y="-10" width="138" height="124" fill="#2C8EBB"/>
<rect x="-15" y="-10" width="138" height="124" fill="url(#paint0_linear)" fill-opacity="0.6"/>
</g>
<g style="mix-blend-mode:multiply">
<rect x="123" y="-10" width="385" height="124" fill="url(#paint1_linear)"/>
</g>
<path d="M409.977 93.042C414.547 91.9873 414.195 84.9561 408.57 84.9561C402.242 85.3077 396.969 88.4717 392.398 90.9327C384.313 95.8545 380.094 96.2061 379.742 95.8545C379.039 94.7998 382.203 86.3623 378.688 76.167C374.82 65.2686 368.492 62.4561 368.844 61.753C370.953 58.2373 376.578 52.2608 378.688 41.7139C379.742 35.0342 379.391 24.1358 376.578 18.5108C376.227 17.8077 371.305 20.2686 371.305 20.2686C371.305 20.2686 366.734 10.4248 365.68 9.72172C361.461 6.90922 357.242 20.2686 357.242 20.2686C357.242 20.2686 348.102 18.8623 340.719 26.5967C339.313 28.3545 337.203 29.0577 335.445 29.7608C334.742 30.1123 334.039 30.1123 332.281 34.6827C329.469 42.0655 336.852 50.1514 336.852 50.1514C321.031 61.0498 322.086 76.5186 322.438 80.0342C312.594 88.8233 316.461 98.667 318.57 101.831C320.328 104.292 322.086 103.237 322.086 103.237C322.086 103.237 318.219 107.808 322.086 109.917C325.25 111.675 331.227 112.73 334.391 109.565C336.5 107.456 337.203 102.183 337.906 100.425C338.258 99.7217 338.609 101.48 341.422 103.237C341.422 103.237 335.797 105.347 338.258 110.972C338.961 112.73 341.422 113.784 345.992 113.784C347.398 113.784 365.328 112.73 369.898 111.675C372.711 110.972 373.414 109.565 373.414 109.565C393.102 104.292 396.266 96.2061 409.977 93.042ZM446.188 61.4014C446.188 13.5889 406.813 -25.7861 359 -25.7861C310.836 -25.7861 271.813 13.5889 271.813 61.4014C271.813 109.565 310.836 148.589 359 148.589C406.813 148.589 446.188 109.565 446.188 61.4014ZM418.063 88.1202C418.766 92.6905 415.953 96.9092 411.383 97.9639C406.461 99.0186 404.352 100.073 398.023 103.94C389.234 109.917 379.742 113.081 376.227 114.136C375.172 115.19 373.414 115.894 370.953 116.597C366.031 118.003 348.102 119.058 345.641 119.058C340.016 119.058 336.852 117.3 335.094 115.19C330.172 117.651 324.195 116.597 319.625 114.487C316.813 112.73 314.703 109.917 315.406 106.05C313.297 103.589 305.563 90.5811 317.516 77.9248C316.813 63.1592 323.492 54.7217 329.82 49.0967C327.711 45.2295 325.25 38.9014 327.359 32.9248C329.117 28.7061 330.523 26.2452 333.336 25.1905C334.742 24.4873 336.148 24.1358 336.852 23.0811C342.828 17.1045 349.508 15.3467 353.727 15.3467C360.055 -0.473591 367.789 5.15141 368.141 5.50297C369.195 5.85453 370.25 6.55766 373.766 13.5889C378.336 12.5342 380.445 15.3467 381.148 16.4014C384.664 23.0811 385.016 35.0342 383.609 42.417C381.852 51.5577 377.984 57.1827 375.172 61.0498C377.633 63.5108 386.422 73.3545 385.367 89.1748C386.773 88.4717 388.18 87.7686 389.586 86.7139C394.156 84.253 400.484 80.0342 408.219 80.0342C413.492 80.0342 417.711 83.1983 418.063 88.1202Z" fill="white" fill-opacity="0.07"/>
</g>
<path d="M83.7402 62.0586C85.6445 61.6191 85.498 58.6895 83.1543 58.6895C80.5176 58.8359 78.3203 60.1543 76.416 61.1797C73.0469 63.2305 71.2891 63.377 71.1426 63.2305C70.8496 62.791 72.168 59.2754 70.7031 55.0273C69.0918 50.4863 66.4551 49.3145 66.6016 49.0215C67.4805 47.5566 69.8242 45.0664 70.7031 40.6719C71.1426 37.8887 70.9961 33.3477 69.8242 31.0039C69.6777 30.7109 67.627 31.7363 67.627 31.7363C67.627 31.7363 65.7227 27.6348 65.2832 27.3418C63.5254 26.1699 61.7676 31.7363 61.7676 31.7363C61.7676 31.7363 57.959 31.1504 54.8828 34.373C54.2969 35.1055 53.418 35.3984 52.6855 35.6914C52.3926 35.8379 52.0996 35.8379 51.3672 37.7422C50.1953 40.8184 53.2715 44.1875 53.2715 44.1875C46.6797 48.7285 47.1191 55.1738 47.2656 56.6387C43.1641 60.3008 44.7754 64.4023 45.6543 65.7207C46.3867 66.7461 47.1191 66.3066 47.1191 66.3066C47.1191 66.3066 45.5078 68.2109 47.1191 69.0898C48.4375 69.8223 50.9277 70.2617 52.2461 68.9434C53.125 68.0645 53.418 65.8672 53.7109 65.1348C53.8574 64.8418 54.0039 65.5742 55.1758 66.3066C55.1758 66.3066 52.832 67.1855 53.8574 69.5293C54.1504 70.2617 55.1758 70.7012 57.0801 70.7012C57.666 70.7012 65.1367 70.2617 67.041 69.8223C68.2129 69.5293 68.5059 68.9434 68.5059 68.9434C76.709 66.7461 78.0273 63.377 83.7402 62.0586ZM98.8281 48.875C98.8281 28.9531 82.4219 12.5469 62.5 12.5469C42.4316 12.5469 26.1719 28.9531 26.1719 48.875C26.1719 68.9434 42.4316 85.2031 62.5 85.2031C82.4219 85.2031 98.8281 68.9434 98.8281 48.875ZM87.1094 60.0078C87.4023 61.9121 86.2305 63.6699 84.3262 64.1094C82.2754 64.5488 81.3965 64.9883 78.7598 66.5996C75.0977 69.0898 71.1426 70.4082 69.6777 70.8477C69.2383 71.2871 68.5059 71.5801 67.4805 71.873C65.4297 72.459 57.959 72.8984 56.9336 72.8984C54.5898 72.8984 53.2715 72.166 52.5391 71.2871C50.4883 72.3125 47.998 71.873 46.0938 70.9941C44.9219 70.2617 44.043 69.0898 44.3359 67.4785C43.457 66.4531 40.2344 61.0332 45.2148 55.7598C44.9219 49.6074 47.7051 46.0918 50.3418 43.748C49.4629 42.1367 48.4375 39.5 49.3164 37.0098C50.0488 35.252 50.6348 34.2266 51.8066 33.7871C52.3926 33.4941 52.9785 33.3477 53.2715 32.9082C55.7617 30.418 58.5449 29.6855 60.3027 29.6855C62.9395 23.0938 66.1621 25.4375 66.3086 25.584C66.748 25.7305 67.1875 26.0234 68.6523 28.9531C70.5566 28.5137 71.4355 29.6855 71.7285 30.125C73.1934 32.9082 73.3398 37.8887 72.7539 40.9648C72.0215 44.7734 70.4102 47.1172 69.2383 48.7285C70.2637 49.7539 73.9258 53.8555 73.4863 60.4473C74.0723 60.1543 74.6582 59.8613 75.2441 59.4219C77.1484 58.3965 79.7852 56.6387 83.0078 56.6387C85.2051 56.6387 86.9629 57.957 87.1094 60.0078Z" fill="#5E5E5E" fill-opacity="0.45"/>
<path d="M84.7402 62.0586C86.6445 61.6191 86.498 58.6895 84.1543 58.6895C81.5176 58.8359 79.3203 60.1543 77.416 61.1797C74.0469 63.2305 72.2891 63.377 72.1426 63.2305C71.8496 62.791 73.168 59.2754 71.7031 55.0273C70.0918 50.4863 67.4551 49.3145 67.6016 49.0215C68.4805 47.5566 70.8242 45.0664 71.7031 40.6719C72.1426 37.8887 71.9961 33.3477 70.8242 31.0039C70.6777 30.7109 68.627 31.7363 68.627 31.7363C68.627 31.7363 66.7227 27.6348 66.2832 27.3418C64.5254 26.1699 62.7676 31.7363 62.7676 31.7363C62.7676 31.7363 58.959 31.1504 55.8828 34.373C55.2969 35.1055 54.418 35.3984 53.6855 35.6914C53.3926 35.8379 53.0996 35.8379 52.3672 37.7422C51.1953 40.8184 54.2715 44.1875 54.2715 44.1875C47.6797 48.7285 48.1191 55.1738 48.2656 56.6387C44.1641 60.3008 45.7754 64.4023 46.6543 65.7207C47.3867 66.7461 48.1191 66.3066 48.1191 66.3066C48.1191 66.3066 46.5078 68.2109 48.1191 69.0898C49.4375 69.8223 51.9277 70.2617 53.2461 68.9434C54.125 68.0645 54.418 65.8672 54.7109 65.1348C54.8574 64.8418 55.0039 65.5742 56.1758 66.3066C56.1758 66.3066 53.832 67.1855 54.8574 69.5293C55.1504 70.2617 56.1758 70.7012 58.0801 70.7012C58.666 70.7012 66.1367 70.2617 68.041 69.8223C69.2129 69.5293 69.5059 68.9434 69.5059 68.9434C77.709 66.7461 79.0273 63.377 84.7402 62.0586ZM99.8281 48.875C99.8281 28.9531 83.4219 12.5469 63.5 12.5469C43.4316 12.5469 27.1719 28.9531 27.1719 48.875C27.1719 68.9434 43.4316 85.2031 63.5 85.2031C83.4219 85.2031 99.8281 68.9434 99.8281 48.875ZM88.1094 60.0078C88.4023 61.9121 87.2305 63.6699 85.3262 64.1094C83.2754 64.5488 82.3965 64.9883 79.7598 66.5996C76.0977 69.0898 72.1426 70.4082 70.6777 70.8477C70.2383 71.2871 69.5059 71.5801 68.4805 71.873C66.4297 72.459 58.959 72.8984 57.9336 72.8984C55.5898 72.8984 54.2715 72.166 53.5391 71.2871C51.4883 72.3125 48.998 71.873 47.0938 70.9941C45.9219 70.2617 45.043 69.0898 45.3359 67.4785C44.457 66.4531 41.2344 61.0332 46.2148 55.7598C45.9219 49.6074 48.7051 46.0918 51.3418 43.748C50.4629 42.1367 49.4375 39.5 50.3164 37.0098C51.0488 35.252 51.6348 34.2266 52.8066 33.7871C53.3926 33.4941 53.9785 33.3477 54.2715 32.9082C56.7617 30.418 59.5449 29.6855 61.3027 29.6855C63.9395 23.0938 67.1621 25.4375 67.3086 25.584C67.748 25.7305 68.1875 26.0234 69.6523 28.9531C71.5566 28.5137 72.4355 29.6855 72.7285 30.125C74.1934 32.9082 74.3398 37.8887 73.7539 40.9648C73.0215 44.7734 71.4102 47.1172 70.2383 48.7285C71.2637 49.7539 74.9258 53.8555 74.4863 60.4473C75.0723 60.1543 75.6582 59.8613 76.2441 59.4219C78.1484 58.3965 80.7852 56.6387 84.0078 56.6387C86.2051 56.6387 87.9629 57.957 88.1094 60.0078Z" fill="white"/>
<path d="M160.959 47.7598L172.092 26.3438H178.479L163.771 53.0918V69H158.146V53.0918L143.439 26.3438H149.885L160.959 47.7598ZM200.539 69C200.227 68.375 199.973 67.2617 199.777 65.6602C197.258 68.2773 194.25 69.5859 190.754 69.5859C187.629 69.5859 185.061 68.707 183.049 66.9492C181.057 65.1719 180.061 62.9258 180.061 60.2109C180.061 56.9102 181.311 54.3516 183.811 52.5352C186.33 50.6992 189.865 49.7812 194.416 49.7812H199.689V47.291C199.689 45.3965 199.123 43.8926 197.99 42.7793C196.857 41.6465 195.188 41.0801 192.98 41.0801C191.047 41.0801 189.426 41.5684 188.117 42.5449C186.809 43.5215 186.154 44.7031 186.154 46.0898H180.705C180.705 44.5078 181.262 42.9844 182.375 41.5195C183.508 40.0352 185.031 38.8633 186.945 38.0039C188.879 37.1445 190.998 36.7148 193.303 36.7148C196.955 36.7148 199.816 37.6328 201.887 39.4688C203.957 41.2852 205.031 43.7949 205.109 46.998V61.5879C205.109 64.498 205.48 66.8125 206.223 68.5312V69H200.539ZM191.545 64.8691C193.244 64.8691 194.855 64.4297 196.379 63.5508C197.902 62.6719 199.006 61.5293 199.689 60.123V53.6191H195.441C188.801 53.6191 185.48 55.5625 185.48 59.4492C185.48 61.1484 186.047 62.4766 187.18 63.4336C188.312 64.3906 189.768 64.8691 191.545 64.8691ZM228.928 42.1641C228.107 42.0273 227.219 41.959 226.262 41.959C222.707 41.959 220.295 43.4727 219.025 46.5V69H213.605V37.3008H218.879L218.967 40.9629C220.744 38.1309 223.264 36.7148 226.525 36.7148C227.58 36.7148 228.381 36.8516 228.928 37.125V42.1641ZM239.064 37.3008L239.24 41.2852C241.662 38.2383 244.826 36.7148 248.732 36.7148C255.432 36.7148 258.811 40.4941 258.869 48.0527V69H253.449V48.0234C253.43 45.7383 252.902 44.0488 251.867 42.9551C250.852 41.8613 249.26 41.3145 247.092 41.3145C245.334 41.3145 243.791 41.7832 242.463 42.7207C241.135 43.6582 240.1 44.8887 239.357 46.4121V69H233.938V37.3008H239.064Z" fill="#5E5E5E" fill-opacity="0.45"/>
<path d="M161.959 47.7598L173.092 26.3438H179.479L164.771 53.0918V69H159.146V53.0918L144.439 26.3438H150.885L161.959 47.7598ZM201.539 69C201.227 68.375 200.973 67.2617 200.777 65.6602C198.258 68.2773 195.25 69.5859 191.754 69.5859C188.629 69.5859 186.061 68.707 184.049 66.9492C182.057 65.1719 181.061 62.9258 181.061 60.2109C181.061 56.9102 182.311 54.3516 184.811 52.5352C187.33 50.6992 190.865 49.7812 195.416 49.7812H200.689V47.291C200.689 45.3965 200.123 43.8926 198.99 42.7793C197.857 41.6465 196.188 41.0801 193.98 41.0801C192.047 41.0801 190.426 41.5684 189.117 42.5449C187.809 43.5215 187.154 44.7031 187.154 46.0898H181.705C181.705 44.5078 182.262 42.9844 183.375 41.5195C184.508 40.0352 186.031 38.8633 187.945 38.0039C189.879 37.1445 191.998 36.7148 194.303 36.7148C197.955 36.7148 200.816 37.6328 202.887 39.4688C204.957 41.2852 206.031 43.7949 206.109 46.998V61.5879C206.109 64.498 206.48 66.8125 207.223 68.5312V69H201.539ZM192.545 64.8691C194.244 64.8691 195.855 64.4297 197.379 63.5508C198.902 62.6719 200.006 61.5293 200.689 60.123V53.6191H196.441C189.801 53.6191 186.48 55.5625 186.48 59.4492C186.48 61.1484 187.047 62.4766 188.18 63.4336C189.312 64.3906 190.768 64.8691 192.545 64.8691ZM229.928 42.1641C229.107 42.0273 228.219 41.959 227.262 41.959C223.707 41.959 221.295 43.4727 220.025 46.5V69H214.605V37.3008H219.879L219.967 40.9629C221.744 38.1309 224.264 36.7148 227.525 36.7148C228.58 36.7148 229.381 36.8516 229.928 37.125V42.1641ZM240.064 37.3008L240.24 41.2852C242.662 38.2383 245.826 36.7148 249.732 36.7148C256.432 36.7148 259.811 40.4941 259.869 48.0527V69H254.449V48.0234C254.43 45.7383 253.902 44.0488 252.867 42.9551C251.852 41.8613 250.26 41.3145 248.092 41.3145C246.334 41.3145 244.791 41.7832 243.463 42.7207C242.135 43.6582 241.1 44.8887 240.357 46.4121V69H234.938V37.3008H240.064Z" fill="white"/>
<defs>
<linearGradient id="paint0_linear" x1="54" y1="-10" x2="54" y2="114" gradientUnits="userSpaceOnUse">
<stop stop-color="white" stop-opacity="0"/>
<stop offset="1" stop-opacity="0.33"/>
</linearGradient>
<linearGradient id="paint1_linear" x1="315.5" y1="-10" x2="315.5" y2="114" gradientUnits="userSpaceOnUse">
<stop stop-opacity="0.78"/>
<stop offset="0.454792" stop-color="#242424"/>
<stop offset="1" stop-color="#020202"/>
</linearGradient>
</defs>
</svg>
