<svg width="500" height="97" viewBox="0 0 500 97" fill="none" xmlns="http://www.w3.org/2000/svg">
<mask id="mask0" mask-type="alpha" maskUnits="userSpaceOnUse" x="0" y="0" width="500" height="97">
<rect width="500" height="97" rx="15" fill="white"/>
</mask>
<g mask="url(#mask0)">
<rect x="-15" y="-10" width="138" height="124" fill="#7289DC"/>
<rect x="-15" y="-10" width="138" height="124" fill="url(#paint0_linear)" fill-opacity="0.6"/>
<rect x="123" y="-10" width="385" height="124" fill="url(#paint1_linear)"/>
<path d="M474.664 37.1827C474.664 31.5577 470.445 26.9874 465.523 26.9874C460.25 26.9874 456.031 31.5577 456.031 37.1827C456.031 42.4561 460.25 47.0264 465.523 47.0264C470.445 47.0264 474.664 42.4561 474.664 37.1827ZM432.477 26.9874C427.555 26.9874 423.336 31.5577 423.336 37.1827C423.336 42.4561 427.555 47.0264 432.477 47.0264C437.75 47.0264 441.617 42.4561 441.617 37.1827C441.969 31.5577 437.75 26.9874 432.477 26.9874ZM527.75 -29.9658C527.75 -40.1611 519.313 -48.5986 509.117 -48.5986H388.531C378.336 -48.5986 370.25 -40.1611 370.25 -29.9658V91.6749C370.25 102.222 378.336 110.308 388.531 110.308H490.484L485.914 93.7842C512.281 118.042 504.898 111.714 527.75 131.401V-29.9658ZM502.086 55.4639C502.086 55.4639 494.352 68.4717 474.313 69.1749C474.313 69.1749 471.148 65.3077 468.336 61.792C480.289 58.628 484.859 51.2452 484.859 51.2452C480.992 53.7061 477.477 55.1124 474.313 56.5186C454.977 64.6045 433.531 61.792 418.063 53.3545C418.063 53.003 415.953 51.9483 414.547 50.8936C414.547 50.8936 418.766 58.2764 430.367 61.792C427.555 64.9561 424.391 69.1749 424.391 69.1749C404.352 68.4717 396.969 55.4639 396.969 55.4639C396.969 26.2842 409.625 3.0811 409.625 3.0811C422.633 -6.76265 434.938 -6.41109 434.938 -6.41109L435.992 -5.3564C419.82 -0.786087 412.438 6.24516 412.438 6.24516C412.438 6.24516 414.195 5.19048 417.711 3.78423C438.453 -5.3564 463.414 -5.3564 484.859 6.24516C484.859 6.24516 477.828 -0.434525 462.359 -5.00484L463.766 -6.41109C463.766 -6.41109 476.07 -6.76265 489.078 3.0811C489.078 3.0811 502.086 26.2842 502.086 55.4639Z" fill="white" fill-opacity="0.07"/>
</g>
<path d="M73.1934 47.1172C73.1934 44.7734 71.4355 42.8691 69.3848 42.8691C67.1875 42.8691 65.4297 44.7734 65.4297 47.1172C65.4297 49.3145 67.1875 51.2188 69.3848 51.2188C71.4355 51.2188 73.1934 49.3145 73.1934 47.1172ZM55.6152 42.8691C53.5645 42.8691 51.8066 44.7734 51.8066 47.1172C51.8066 49.3145 53.5645 51.2188 55.6152 51.2188C57.8125 51.2188 59.4238 49.3145 59.4238 47.1172C59.5703 44.7734 57.8125 42.8691 55.6152 42.8691ZM95.3125 19.1387C95.3125 14.8906 91.7969 11.375 87.5488 11.375H37.3047C33.0566 11.375 29.6875 14.8906 29.6875 19.1387V69.8223C29.6875 74.2168 33.0566 77.5859 37.3047 77.5859H79.7852L77.8809 70.7012C88.8672 80.8086 85.791 78.1719 95.3125 86.375V19.1387ZM84.6191 54.7344C84.6191 54.7344 81.3965 60.1543 73.0469 60.4473C73.0469 60.4473 71.7285 58.8359 70.5566 57.3711C75.5371 56.0527 77.4414 52.9766 77.4414 52.9766C75.8301 54.002 74.3652 54.5879 73.0469 55.1738C64.9902 58.543 56.0547 57.3711 49.6094 53.8555C49.6094 53.709 48.7305 53.2695 48.1445 52.8301C48.1445 52.8301 49.9023 55.9062 54.7363 57.3711C53.5645 58.6895 52.2461 60.4473 52.2461 60.4473C43.8965 60.1543 40.8203 54.7344 40.8203 54.7344C40.8203 42.5762 46.0938 32.9082 46.0938 32.9082C51.5137 28.8066 56.6406 28.9531 56.6406 28.9531L57.0801 29.3926C50.3418 31.2969 47.2656 34.2266 47.2656 34.2266C47.2656 34.2266 47.998 33.7871 49.4629 33.2012C58.1055 29.3926 68.5059 29.3926 77.4414 34.2266C77.4414 34.2266 74.5117 31.4434 68.0664 29.5391L68.6523 28.9531C68.6523 28.9531 73.7793 28.8066 79.1992 32.9082C79.1992 32.9082 84.6191 42.5762 84.6191 54.7344Z" fill="#5E5E5E" fill-opacity="0.45"/>
<path d="M74.1934 47.1172C74.1934 44.7734 72.4355 42.8691 70.3848 42.8691C68.1875 42.8691 66.4297 44.7734 66.4297 47.1172C66.4297 49.3145 68.1875 51.2188 70.3848 51.2188C72.4355 51.2188 74.1934 49.3145 74.1934 47.1172ZM56.6152 42.8691C54.5645 42.8691 52.8066 44.7734 52.8066 47.1172C52.8066 49.3145 54.5645 51.2188 56.6152 51.2188C58.8125 51.2188 60.4238 49.3145 60.4238 47.1172C60.5703 44.7734 58.8125 42.8691 56.6152 42.8691ZM96.3125 19.1387C96.3125 14.8906 92.7969 11.375 88.5488 11.375H38.3047C34.0566 11.375 30.6875 14.8906 30.6875 19.1387V69.8223C30.6875 74.2168 34.0566 77.5859 38.3047 77.5859H80.7852L78.8809 70.7012C89.8672 80.8086 86.791 78.1719 96.3125 86.375V19.1387ZM85.6191 54.7344C85.6191 54.7344 82.3965 60.1543 74.0469 60.4473C74.0469 60.4473 72.7285 58.8359 71.5566 57.3711C76.5371 56.0527 78.4414 52.9766 78.4414 52.9766C76.8301 54.002 75.3652 54.5879 74.0469 55.1738C65.9902 58.543 57.0547 57.3711 50.6094 53.8555C50.6094 53.709 49.7305 53.2695 49.1445 52.8301C49.1445 52.8301 50.9023 55.9062 55.7363 57.3711C54.5645 58.6895 53.2461 60.4473 53.2461 60.4473C44.8965 60.1543 41.8203 54.7344 41.8203 54.7344C41.8203 42.5762 47.0938 32.9082 47.0938 32.9082C52.5137 28.8066 57.6406 28.9531 57.6406 28.9531L58.0801 29.3926C51.3418 31.2969 48.2656 34.2266 48.2656 34.2266C48.2656 34.2266 48.998 33.7871 50.4629 33.2012C59.1055 29.3926 69.5059 29.3926 78.4414 34.2266C78.4414 34.2266 75.5117 31.4434 69.0664 29.5391L69.6523 28.9531C69.6523 28.9531 74.7793 28.8066 80.1992 32.9082C80.1992 32.9082 85.6191 42.5762 85.6191 54.7344Z" fill="white"/>
<path d="M147.951 69V26.3438H159.992C163.703 26.3438 166.984 27.1641 169.836 28.8047C172.688 30.4453 174.885 32.7793 176.428 35.8066C177.99 38.834 178.781 42.3105 178.801 46.2363V48.9609C178.801 52.9844 178.02 56.5098 176.457 59.5371C174.914 62.5645 172.697 64.8887 169.807 66.5098C166.936 68.1309 163.586 68.9609 159.758 69H147.951ZM153.576 30.9727V64.4004H159.494C163.83 64.4004 167.199 63.0527 169.602 60.3574C172.023 57.6621 173.234 53.8242 173.234 48.8438V46.3535C173.234 41.5098 172.092 37.75 169.807 35.0742C167.541 32.3789 164.318 31.0117 160.139 30.9727H153.576ZM192.365 69H186.945V37.3008H192.365V69ZM186.506 28.8926C186.506 28.0137 186.77 27.2715 187.297 26.666C187.844 26.0605 188.645 25.7578 189.699 25.7578C190.754 25.7578 191.555 26.0605 192.102 26.666C192.648 27.2715 192.922 28.0137 192.922 28.8926C192.922 29.7715 192.648 30.5039 192.102 31.0898C191.555 31.6758 190.754 31.9688 189.699 31.9688C188.645 31.9688 187.844 31.6758 187.297 31.0898C186.77 30.5039 186.506 29.7715 186.506 28.8926ZM219.523 60.5918C219.523 59.127 218.967 57.9941 217.854 57.1934C216.76 56.373 214.836 55.6699 212.082 55.084C209.348 54.498 207.17 53.7949 205.549 52.9746C203.947 52.1543 202.756 51.1777 201.975 50.0449C201.213 48.9121 200.832 47.5645 200.832 46.002C200.832 43.4043 201.926 41.207 204.113 39.4102C206.32 37.6133 209.133 36.7148 212.551 36.7148C216.145 36.7148 219.055 37.6426 221.281 39.498C223.527 41.3535 224.65 43.7266 224.65 46.6172H219.201C219.201 45.1328 218.566 43.8535 217.297 42.7793C216.047 41.7051 214.465 41.168 212.551 41.168C210.578 41.168 209.035 41.5977 207.922 42.457C206.809 43.3164 206.252 44.4395 206.252 45.8262C206.252 47.1348 206.77 48.1211 207.805 48.7852C208.84 49.4492 210.705 50.084 213.4 50.6895C216.115 51.2949 218.312 52.0176 219.992 52.8574C221.672 53.6973 222.912 54.7129 223.713 55.9043C224.533 57.0762 224.943 58.5117 224.943 60.2109C224.943 63.043 223.811 65.3184 221.545 67.0371C219.279 68.7363 216.34 69.5859 212.727 69.5859C210.188 69.5859 207.941 69.1367 205.988 68.2383C204.035 67.3398 202.502 66.0898 201.389 64.4883C200.295 62.8672 199.748 61.1191 199.748 59.2441H205.168C205.266 61.0605 205.988 62.5059 207.336 63.5801C208.703 64.6348 210.5 65.1621 212.727 65.1621C214.777 65.1621 216.418 64.752 217.648 63.9316C218.898 63.0918 219.523 61.9785 219.523 60.5918ZM244.719 65.1621C246.652 65.1621 248.342 64.5762 249.787 63.4043C251.232 62.2324 252.033 60.7676 252.189 59.0098H257.316C257.219 60.8262 256.594 62.5547 255.441 64.1953C254.289 65.8359 252.746 67.1445 250.812 68.1211C248.898 69.0977 246.867 69.5859 244.719 69.5859C240.402 69.5859 236.965 68.1504 234.406 65.2793C231.867 62.3887 230.598 58.4434 230.598 53.4434V52.5352C230.598 49.4492 231.164 46.7051 232.297 44.3027C233.43 41.9004 235.051 40.0352 237.16 38.707C239.289 37.3789 241.799 36.7148 244.689 36.7148C248.244 36.7148 251.193 37.7793 253.537 39.9082C255.9 42.0371 257.16 44.8008 257.316 48.1992H252.189C252.033 46.1484 251.252 44.4688 249.846 43.1602C248.459 41.832 246.74 41.168 244.689 41.168C241.936 41.168 239.797 42.1641 238.273 44.1562C236.77 46.1289 236.018 48.9902 236.018 52.7402V53.7656C236.018 57.418 236.77 60.2305 238.273 62.2031C239.777 64.1758 241.926 65.1621 244.719 65.1621ZM261.975 52.8574C261.975 49.752 262.58 46.959 263.791 44.4785C265.021 41.998 266.721 40.084 268.889 38.7363C271.076 37.3887 273.566 36.7148 276.359 36.7148C280.676 36.7148 284.162 38.209 286.818 41.1973C289.494 44.1855 290.832 48.1602 290.832 53.1211V53.502C290.832 56.5879 290.236 59.3613 289.045 61.8223C287.873 64.2637 286.184 66.168 283.977 67.5352C281.789 68.9023 279.27 69.5859 276.418 69.5859C272.121 69.5859 268.635 68.0918 265.959 65.1035C263.303 62.1152 261.975 58.1602 261.975 53.2383V52.8574ZM267.424 53.502C267.424 57.0176 268.234 59.8398 269.855 61.9688C271.496 64.0977 273.684 65.1621 276.418 65.1621C279.172 65.1621 281.359 64.0879 282.98 61.9395C284.602 59.7715 285.412 56.7441 285.412 52.8574C285.412 49.3809 284.582 46.5684 282.922 44.4199C281.281 42.252 279.094 41.168 276.359 41.168C273.684 41.168 271.525 42.2324 269.885 44.3613C268.244 46.4902 267.424 49.5371 267.424 53.502ZM312.951 42.1641C312.131 42.0273 311.242 41.959 310.285 41.959C306.73 41.959 304.318 43.4727 303.049 46.5V69H297.629V37.3008H302.902L302.99 40.9629C304.768 38.1309 307.287 36.7148 310.549 36.7148C311.604 36.7148 312.404 36.8516 312.951 37.125V42.1641ZM316.057 52.8867C316.057 48.0234 317.209 44.1172 319.514 41.168C321.818 38.1992 324.836 36.7148 328.566 36.7148C332.277 36.7148 335.217 37.9844 337.385 40.5234V24H342.805V69H337.824L337.561 65.6016C335.393 68.2578 332.375 69.5859 328.508 69.5859C324.836 69.5859 321.838 68.082 319.514 65.0742C317.209 62.0664 316.057 58.1406 316.057 53.2969V52.8867ZM321.477 53.502C321.477 57.0957 322.219 59.9082 323.703 61.9395C325.188 63.9707 327.238 64.9863 329.855 64.9863C333.293 64.9863 335.803 63.4434 337.385 60.3574V45.7969C335.764 42.8086 333.273 41.3145 329.914 41.3145C327.258 41.3145 325.188 42.3398 323.703 44.3906C322.219 46.4414 321.477 49.4785 321.477 53.502Z" fill="#5E5E5E" fill-opacity="0.45"/>
<path d="M148.951 69V26.3438H160.992C164.703 26.3438 167.984 27.1641 170.836 28.8047C173.688 30.4453 175.885 32.7793 177.428 35.8066C178.99 38.834 179.781 42.3105 179.801 46.2363V48.9609C179.801 52.9844 179.02 56.5098 177.457 59.5371C175.914 62.5645 173.697 64.8887 170.807 66.5098C167.936 68.1309 164.586 68.9609 160.758 69H148.951ZM154.576 30.9727V64.4004H160.494C164.83 64.4004 168.199 63.0527 170.602 60.3574C173.023 57.6621 174.234 53.8242 174.234 48.8438V46.3535C174.234 41.5098 173.092 37.75 170.807 35.0742C168.541 32.3789 165.318 31.0117 161.139 30.9727H154.576ZM193.365 69H187.945V37.3008H193.365V69ZM187.506 28.8926C187.506 28.0137 187.77 27.2715 188.297 26.666C188.844 26.0605 189.645 25.7578 190.699 25.7578C191.754 25.7578 192.555 26.0605 193.102 26.666C193.648 27.2715 193.922 28.0137 193.922 28.8926C193.922 29.7715 193.648 30.5039 193.102 31.0898C192.555 31.6758 191.754 31.9688 190.699 31.9688C189.645 31.9688 188.844 31.6758 188.297 31.0898C187.77 30.5039 187.506 29.7715 187.506 28.8926ZM220.523 60.5918C220.523 59.127 219.967 57.9941 218.854 57.1934C217.76 56.373 215.836 55.6699 213.082 55.084C210.348 54.498 208.17 53.7949 206.549 52.9746C204.947 52.1543 203.756 51.1777 202.975 50.0449C202.213 48.9121 201.832 47.5645 201.832 46.002C201.832 43.4043 202.926 41.207 205.113 39.4102C207.32 37.6133 210.133 36.7148 213.551 36.7148C217.145 36.7148 220.055 37.6426 222.281 39.498C224.527 41.3535 225.65 43.7266 225.65 46.6172H220.201C220.201 45.1328 219.566 43.8535 218.297 42.7793C217.047 41.7051 215.465 41.168 213.551 41.168C211.578 41.168 210.035 41.5977 208.922 42.457C207.809 43.3164 207.252 44.4395 207.252 45.8262C207.252 47.1348 207.77 48.1211 208.805 48.7852C209.84 49.4492 211.705 50.084 214.4 50.6895C217.115 51.2949 219.312 52.0176 220.992 52.8574C222.672 53.6973 223.912 54.7129 224.713 55.9043C225.533 57.0762 225.943 58.5117 225.943 60.2109C225.943 63.043 224.811 65.3184 222.545 67.0371C220.279 68.7363 217.34 69.5859 213.727 69.5859C211.188 69.5859 208.941 69.1367 206.988 68.2383C205.035 67.3398 203.502 66.0898 202.389 64.4883C201.295 62.8672 200.748 61.1191 200.748 59.2441H206.168C206.266 61.0605 206.988 62.5059 208.336 63.5801C209.703 64.6348 211.5 65.1621 213.727 65.1621C215.777 65.1621 217.418 64.752 218.648 63.9316C219.898 63.0918 220.523 61.9785 220.523 60.5918ZM245.719 65.1621C247.652 65.1621 249.342 64.5762 250.787 63.4043C252.232 62.2324 253.033 60.7676 253.189 59.0098H258.316C258.219 60.8262 257.594 62.5547 256.441 64.1953C255.289 65.8359 253.746 67.1445 251.812 68.1211C249.898 69.0977 247.867 69.5859 245.719 69.5859C241.402 69.5859 237.965 68.1504 235.406 65.2793C232.867 62.3887 231.598 58.4434 231.598 53.4434V52.5352C231.598 49.4492 232.164 46.7051 233.297 44.3027C234.43 41.9004 236.051 40.0352 238.16 38.707C240.289 37.3789 242.799 36.7148 245.689 36.7148C249.244 36.7148 252.193 37.7793 254.537 39.9082C256.9 42.0371 258.16 44.8008 258.316 48.1992H253.189C253.033 46.1484 252.252 44.4688 250.846 43.1602C249.459 41.832 247.74 41.168 245.689 41.168C242.936 41.168 240.797 42.1641 239.273 44.1562C237.77 46.1289 237.018 48.9902 237.018 52.7402V53.7656C237.018 57.418 237.77 60.2305 239.273 62.2031C240.777 64.1758 242.926 65.1621 245.719 65.1621ZM262.975 52.8574C262.975 49.752 263.58 46.959 264.791 44.4785C266.021 41.998 267.721 40.084 269.889 38.7363C272.076 37.3887 274.566 36.7148 277.359 36.7148C281.676 36.7148 285.162 38.209 287.818 41.1973C290.494 44.1855 291.832 48.1602 291.832 53.1211V53.502C291.832 56.5879 291.236 59.3613 290.045 61.8223C288.873 64.2637 287.184 66.168 284.977 67.5352C282.789 68.9023 280.27 69.5859 277.418 69.5859C273.121 69.5859 269.635 68.0918 266.959 65.1035C264.303 62.1152 262.975 58.1602 262.975 53.2383V52.8574ZM268.424 53.502C268.424 57.0176 269.234 59.8398 270.855 61.9688C272.496 64.0977 274.684 65.1621 277.418 65.1621C280.172 65.1621 282.359 64.0879 283.98 61.9395C285.602 59.7715 286.412 56.7441 286.412 52.8574C286.412 49.3809 285.582 46.5684 283.922 44.4199C282.281 42.252 280.094 41.168 277.359 41.168C274.684 41.168 272.525 42.2324 270.885 44.3613C269.244 46.4902 268.424 49.5371 268.424 53.502ZM313.951 42.1641C313.131 42.0273 312.242 41.959 311.285 41.959C307.73 41.959 305.318 43.4727 304.049 46.5V69H298.629V37.3008H303.902L303.99 40.9629C305.768 38.1309 308.287 36.7148 311.549 36.7148C312.604 36.7148 313.404 36.8516 313.951 37.125V42.1641ZM317.057 52.8867C317.057 48.0234 318.209 44.1172 320.514 41.168C322.818 38.1992 325.836 36.7148 329.566 36.7148C333.277 36.7148 336.217 37.9844 338.385 40.5234V24H343.805V69H338.824L338.561 65.6016C336.393 68.2578 333.375 69.5859 329.508 69.5859C325.836 69.5859 322.838 68.082 320.514 65.0742C318.209 62.0664 317.057 58.1406 317.057 53.2969V52.8867ZM322.477 53.502C322.477 57.0957 323.219 59.9082 324.703 61.9395C326.188 63.9707 328.238 64.9863 330.855 64.9863C334.293 64.9863 336.803 63.4434 338.385 60.3574V45.7969C336.764 42.8086 334.273 41.3145 330.914 41.3145C328.258 41.3145 326.188 42.3398 324.703 44.3906C323.219 46.4414 322.477 49.4785 322.477 53.502Z" fill="white"/>
<defs>
<linearGradient id="paint0_linear" x1="54" y1="-10" x2="54" y2="114" gradientUnits="userSpaceOnUse">
<stop stop-color="white" stop-opacity="0"/>
<stop offset="1" stop-opacity="0.33"/>
</linearGradient>
<linearGradient id="paint1_linear" x1="315.5" y1="-10" x2="315.5" y2="114" gradientUnits="userSpaceOnUse">
<stop stop-opacity="0.78"/>
<stop offset="0.454792" stop-color="#242424"/>
<stop offset="1" stop-color="#020202"/>
</linearGradient>
</defs>
</svg>
