<svg width="500" height="97" viewBox="0 0 500 97" fill="none" xmlns="http://www.w3.org/2000/svg">
<g id="GitHub">
<mask id="mask0" mask-type="alpha" maskUnits="userSpaceOnUse" x="0" y="0" width="500" height="97">
<rect id="background" width="500" height="97" rx="15" fill="white"/>
</mask>
<g mask="url(#mask0)">
<g id="Mask Group">
<mask id="mask1" mask-type="alpha" maskUnits="userSpaceOnUse" x="0" y="0" width="500" height="97">
<rect id="background_2" width="500" height="97" rx="15" fill="#C4C4C4"/>
</mask>
<g mask="url(#mask1)">
<g id="Rectangle 1">
<rect x="-15" y="-10" width="138" height="124" fill="black"/>
<rect x="-15" y="-10" width="138" height="124" fill="url(#paint0_linear)" fill-opacity="0.6"/>
</g>
<rect id="Rectangle 2" x="123" y="-10" width="385" height="124" fill="url(#paint1_linear)"/>
<g id="Icon">
<path id="&#239;&#130;&#155;" d="M419.82 91.3233C419.82 90.6202 419.117 89.917 418.063 89.917C417.008 89.917 416.305 90.6202 416.305 91.3233C416.305 92.0264 417.008 92.7295 418.063 92.378C419.117 92.378 419.82 92.0264 419.82 91.3233ZM408.922 89.5655C408.922 90.2686 409.625 91.3233 410.68 91.3233C411.383 91.6748 412.438 91.3233 412.789 90.6202C412.789 89.917 412.438 89.2139 411.383 88.8623C410.328 88.5108 409.273 88.8623 408.922 89.5655ZM424.742 89.2139C423.688 89.2139 422.984 89.917 422.984 90.9717C422.984 91.6748 424.039 92.0264 425.094 91.6748C426.148 91.3233 426.852 90.9717 426.5 90.2686C426.5 89.5655 425.445 88.8623 424.742 89.2139ZM447.594 -45.7861C399.078 -45.7861 361.813 -8.52047 361.813 39.9952C361.813 79.0186 386.07 112.417 421.227 124.37C425.797 125.073 427.203 122.261 427.203 120.151C427.203 117.69 427.203 105.737 427.203 98.3545C427.203 98.3545 402.594 103.628 397.32 87.8077C397.32 87.8077 393.453 77.6123 387.828 75.1514C387.828 75.1514 379.742 69.5264 388.18 69.5264C388.18 69.5264 396.969 70.2295 401.891 78.667C409.625 92.378 422.281 88.5108 427.555 86.0498C428.258 80.4248 430.367 76.5577 433.18 74.0967C413.492 71.9873 393.453 69.1748 393.453 35.4248C393.453 25.5811 396.266 21.0108 401.891 14.6827C400.836 12.2217 398.023 3.0811 402.945 -9.22359C409.977 -11.333 427.203 0.268597 427.203 0.268597C434.234 -1.84078 441.617 -2.5439 449 -2.5439C456.734 -2.5439 464.117 -1.84078 471.148 0.268597C471.148 0.268597 488.023 -11.6845 495.406 -9.22359C500.328 3.0811 497.164 12.2217 496.461 14.6827C502.086 21.0108 505.602 25.5811 505.602 35.4248C505.602 69.1748 484.859 71.9873 465.172 74.0967C468.336 76.9092 471.148 82.1827 471.148 90.6202C471.148 102.222 470.797 116.987 470.797 119.8C470.797 122.261 472.555 125.073 477.125 124.019C512.281 112.417 536.188 79.0186 536.188 39.9952C536.188 -8.52047 496.461 -45.7861 447.594 -45.7861ZM395.914 75.503C395.211 75.8545 395.563 76.9092 395.914 77.6123C396.617 77.9639 397.32 78.3155 398.023 77.9639C398.375 77.6123 398.375 76.5577 397.672 75.8545C396.969 75.503 396.266 75.1514 395.914 75.503ZM392.047 72.6905C391.695 73.3936 392.047 73.7452 392.75 74.0967C393.453 74.4483 394.156 74.4483 394.508 73.7452C394.508 73.3936 394.156 73.042 393.453 72.6905C392.75 72.3389 392.398 72.3389 392.047 72.6905ZM403.297 85.3467C402.945 85.6983 402.945 86.753 404 87.4561C404.703 88.1592 405.758 88.5108 406.109 87.8077C406.461 87.4561 406.461 86.4014 405.758 85.6983C405.055 84.9952 404 84.6436 403.297 85.3467ZM399.43 80.0733C398.727 80.4248 398.727 81.4795 399.43 82.1827C400.133 82.8858 400.836 83.2373 401.539 82.8858C401.891 82.5342 401.891 81.4795 401.539 80.7764C400.836 80.0733 400.133 79.7217 399.43 80.0733Z" fill="white" fill-opacity="0.07"/>
</g>
</g>
</g>
<g id="Icon_2">
<path id="&#239;&#130;&#155;_2" d="M50.3418 69.6758C50.3418 69.3828 50.0488 69.0898 49.6094 69.0898C49.1699 69.0898 48.877 69.3828 48.877 69.6758C48.877 69.9688 49.1699 70.2617 49.6094 70.1152C50.0488 70.1152 50.3418 69.9688 50.3418 69.6758ZM45.8008 68.9434C45.8008 69.2363 46.0938 69.6758 46.5332 69.6758C46.8262 69.8223 47.2656 69.6758 47.4121 69.3828C47.4121 69.0898 47.2656 68.7969 46.8262 68.6504C46.3867 68.5039 45.9473 68.6504 45.8008 68.9434ZM52.3926 68.7969C51.9531 68.7969 51.6602 69.0898 51.6602 69.5293C51.6602 69.8223 52.0996 69.9688 52.5391 69.8223C52.9785 69.6758 53.2715 69.5293 53.125 69.2363C53.125 68.9434 52.6855 68.6504 52.3926 68.7969ZM61.9141 12.5469C41.6992 12.5469 26.1719 28.0742 26.1719 48.2891C26.1719 64.5488 36.2793 78.4648 50.9277 83.4453C52.832 83.7383 53.418 82.5664 53.418 81.6875C53.418 80.6621 53.418 75.6816 53.418 72.6055C53.418 72.6055 43.1641 74.8027 40.9668 68.2109C40.9668 68.2109 39.3555 63.9629 37.0117 62.9375C37.0117 62.9375 33.6426 60.5938 37.1582 60.5938C37.1582 60.5938 40.8203 60.8867 42.8711 64.4023C46.0938 70.1152 51.3672 68.5039 53.5645 67.4785C53.8574 65.1348 54.7363 63.5234 55.9082 62.498C47.7051 61.6191 39.3555 60.4473 39.3555 46.3848C39.3555 42.2832 40.5273 40.3789 42.8711 37.7422C42.4316 36.7168 41.2598 32.9082 43.3105 27.7812C46.2402 26.9023 53.418 31.7363 53.418 31.7363C56.3477 30.8574 59.4238 30.5645 62.5 30.5645C65.7227 30.5645 68.7988 30.8574 71.7285 31.7363C71.7285 31.7363 78.7598 26.7559 81.8359 27.7812C83.8867 32.9082 82.5684 36.7168 82.2754 37.7422C84.6191 40.3789 86.084 42.2832 86.084 46.3848C86.084 60.4473 77.4414 61.6191 69.2383 62.498C70.5566 63.6699 71.7285 65.8672 71.7285 69.3828C71.7285 74.2168 71.582 80.3691 71.582 81.541C71.582 82.5664 72.3145 83.7383 74.2188 83.2988C88.8672 78.4648 98.8281 64.5488 98.8281 48.2891C98.8281 28.0742 82.2754 12.5469 61.9141 12.5469ZM40.3809 63.084C40.0879 63.2305 40.2344 63.6699 40.3809 63.9629C40.6738 64.1094 40.9668 64.2559 41.2598 64.1094C41.4062 63.9629 41.4062 63.5234 41.1133 63.2305C40.8203 63.084 40.5273 62.9375 40.3809 63.084ZM38.7695 61.9121C38.623 62.2051 38.7695 62.3516 39.0625 62.498C39.3555 62.6445 39.6484 62.6445 39.7949 62.3516C39.7949 62.2051 39.6484 62.0586 39.3555 61.9121C39.0625 61.7656 38.916 61.7656 38.7695 61.9121ZM43.457 67.1855C43.3105 67.332 43.3105 67.7715 43.75 68.0645C44.043 68.3574 44.4824 68.5039 44.6289 68.2109C44.7754 68.0645 44.7754 67.625 44.4824 67.332C44.1895 67.0391 43.75 66.8926 43.457 67.1855ZM41.8457 64.9883C41.5527 65.1348 41.5527 65.5742 41.8457 65.8672C42.1387 66.1602 42.4316 66.3066 42.7246 66.1602C42.8711 66.0137 42.8711 65.5742 42.7246 65.2812C42.4316 64.9883 42.1387 64.8418 41.8457 64.9883Z" fill="#5E5E5E" fill-opacity="0.45"/>
</g>
<g id="Icon_3">
<path id="&#239;&#130;&#155;_3" d="M51.3418 69.6758C51.3418 69.3828 51.0488 69.0898 50.6094 69.0898C50.1699 69.0898 49.877 69.3828 49.877 69.6758C49.877 69.9688 50.1699 70.2617 50.6094 70.1152C51.0488 70.1152 51.3418 69.9688 51.3418 69.6758ZM46.8008 68.9434C46.8008 69.2363 47.0938 69.6758 47.5332 69.6758C47.8262 69.8223 48.2656 69.6758 48.4121 69.3828C48.4121 69.0898 48.2656 68.7969 47.8262 68.6504C47.3867 68.5039 46.9473 68.6504 46.8008 68.9434ZM53.3926 68.7969C52.9531 68.7969 52.6602 69.0898 52.6602 69.5293C52.6602 69.8223 53.0996 69.9688 53.5391 69.8223C53.9785 69.6758 54.2715 69.5293 54.125 69.2363C54.125 68.9434 53.6855 68.6504 53.3926 68.7969ZM62.9141 12.5469C42.6992 12.5469 27.1719 28.0742 27.1719 48.2891C27.1719 64.5488 37.2793 78.4648 51.9277 83.4453C53.832 83.7383 54.418 82.5664 54.418 81.6875C54.418 80.6621 54.418 75.6816 54.418 72.6055C54.418 72.6055 44.1641 74.8027 41.9668 68.2109C41.9668 68.2109 40.3555 63.9629 38.0117 62.9375C38.0117 62.9375 34.6426 60.5938 38.1582 60.5938C38.1582 60.5938 41.8203 60.8867 43.8711 64.4023C47.0938 70.1152 52.3672 68.5039 54.5645 67.4785C54.8574 65.1348 55.7363 63.5234 56.9082 62.498C48.7051 61.6191 40.3555 60.4473 40.3555 46.3848C40.3555 42.2832 41.5273 40.3789 43.8711 37.7422C43.4316 36.7168 42.2598 32.9082 44.3105 27.7812C47.2402 26.9023 54.418 31.7363 54.418 31.7363C57.3477 30.8574 60.4238 30.5645 63.5 30.5645C66.7227 30.5645 69.7988 30.8574 72.7285 31.7363C72.7285 31.7363 79.7598 26.7559 82.8359 27.7812C84.8867 32.9082 83.5684 36.7168 83.2754 37.7422C85.6191 40.3789 87.084 42.2832 87.084 46.3848C87.084 60.4473 78.4414 61.6191 70.2383 62.498C71.5566 63.6699 72.7285 65.8672 72.7285 69.3828C72.7285 74.2168 72.582 80.3691 72.582 81.541C72.582 82.5664 73.3145 83.7383 75.2188 83.2988C89.8672 78.4648 99.8281 64.5488 99.8281 48.2891C99.8281 28.0742 83.2754 12.5469 62.9141 12.5469ZM41.3809 63.084C41.0879 63.2305 41.2344 63.6699 41.3809 63.9629C41.6738 64.1094 41.9668 64.2559 42.2598 64.1094C42.4062 63.9629 42.4062 63.5234 42.1133 63.2305C41.8203 63.084 41.5273 62.9375 41.3809 63.084ZM39.7695 61.9121C39.623 62.2051 39.7695 62.3516 40.0625 62.498C40.3555 62.6445 40.6484 62.6445 40.7949 62.3516C40.7949 62.2051 40.6484 62.0586 40.3555 61.9121C40.0625 61.7656 39.916 61.7656 39.7695 61.9121ZM44.457 67.1855C44.3105 67.332 44.3105 67.7715 44.75 68.0645C45.043 68.3574 45.4824 68.5039 45.6289 68.2109C45.7754 68.0645 45.7754 67.625 45.4824 67.332C45.1895 67.0391 44.75 66.8926 44.457 67.1855ZM42.8457 64.9883C42.5527 65.1348 42.5527 65.5742 42.8457 65.8672C43.1387 66.1602 43.4316 66.3066 43.7246 66.1602C43.8711 66.0137 43.8711 65.5742 43.7246 65.2812C43.4316 64.9883 43.1387 64.8418 42.8457 64.9883Z" fill="white"/>
</g>
<g id="Text">
<path id="Typescript" d="M179.445 63.4043C178 65.4746 175.979 67.0273 173.381 68.0625C170.803 69.0781 167.795 69.5859 164.357 69.5859C160.881 69.5859 157.795 68.7754 155.1 67.1543C152.404 65.5137 150.314 63.1895 148.83 60.1816C147.365 57.1738 146.613 53.6875 146.574 49.7227V46.002C146.574 39.5762 148.068 34.5957 151.057 31.0605C154.064 27.5254 158.283 25.7578 163.713 25.7578C168.166 25.7578 171.75 26.9004 174.465 29.1855C177.18 31.4512 178.84 34.6738 179.445 38.8535H173.82C172.766 33.209 169.406 30.3867 163.742 30.3867C159.973 30.3867 157.111 31.7148 155.158 34.3711C153.225 37.0078 152.248 40.8359 152.229 45.8555V49.3418C152.229 54.127 153.322 57.9355 155.51 60.7676C157.697 63.5801 160.656 64.9863 164.387 64.9863C166.496 64.9863 168.342 64.752 169.924 64.2832C171.506 63.8145 172.814 63.0234 173.85 61.9102V52.3301H163.977V47.7598H179.445V63.4043ZM193.889 69H188.469V37.3008H193.889V69ZM188.029 28.8926C188.029 28.0137 188.293 27.2715 188.82 26.666C189.367 26.0605 190.168 25.7578 191.223 25.7578C192.277 25.7578 193.078 26.0605 193.625 26.666C194.172 27.2715 194.445 28.0137 194.445 28.8926C194.445 29.7715 194.172 30.5039 193.625 31.0898C193.078 31.6758 192.277 31.9688 191.223 31.9688C190.168 31.9688 189.367 31.6758 188.82 31.0898C188.293 30.5039 188.029 29.7715 188.029 28.8926ZM209.943 29.625V37.3008H215.861V41.4902H209.943V61.1484C209.943 62.418 210.207 63.375 210.734 64.0195C211.262 64.6445 212.16 64.957 213.43 64.957C214.055 64.957 214.914 64.8398 216.008 64.6055V69C214.582 69.3906 213.195 69.5859 211.848 69.5859C209.426 69.5859 207.6 68.8535 206.369 67.3887C205.139 65.9238 204.523 63.8438 204.523 61.1484V41.4902H198.752V37.3008H204.523V29.625H209.943ZM255.852 69H250.197V49.2832H228.693V69H223.068V26.3438H228.693V44.6836H250.197V26.3438H255.852V69ZM284.562 65.8652C282.453 68.3457 279.357 69.5859 275.275 69.5859C271.896 69.5859 269.318 68.6094 267.541 66.6562C265.783 64.6836 264.895 61.7734 264.875 57.9258V37.3008H270.295V57.7793C270.295 62.584 272.248 64.9863 276.154 64.9863C280.295 64.9863 283.049 63.4434 284.416 60.3574V37.3008H289.836V69H284.68L284.562 65.8652ZM324.934 53.502C324.934 58.3457 323.82 62.2422 321.594 65.1914C319.367 68.1211 316.379 69.5859 312.629 69.5859C308.625 69.5859 305.529 68.1699 303.342 65.3379L303.078 69H298.098V24H303.518V40.7871C305.705 38.0723 308.723 36.7148 312.57 36.7148C316.418 36.7148 319.436 38.1699 321.623 41.0801C323.83 43.9902 324.934 47.9746 324.934 53.0332V53.502ZM319.514 52.8867C319.514 49.1953 318.801 46.3438 317.375 44.332C315.949 42.3203 313.898 41.3145 311.223 41.3145C307.648 41.3145 305.08 42.9746 303.518 46.2949V60.0059C305.178 63.3262 307.766 64.9863 311.281 64.9863C313.879 64.9863 315.9 63.9805 317.346 61.9688C318.791 59.957 319.514 56.9297 319.514 52.8867Z" fill="#5E5E5E" fill-opacity="0.45"/>
</g>
<g id="Text_2">
<path id="Typescript_2" d="M180.445 63.4043C179 65.4746 176.979 67.0273 174.381 68.0625C171.803 69.0781 168.795 69.5859 165.357 69.5859C161.881 69.5859 158.795 68.7754 156.1 67.1543C153.404 65.5137 151.314 63.1895 149.83 60.1816C148.365 57.1738 147.613 53.6875 147.574 49.7227V46.002C147.574 39.5762 149.068 34.5957 152.057 31.0605C155.064 27.5254 159.283 25.7578 164.713 25.7578C169.166 25.7578 172.75 26.9004 175.465 29.1855C178.18 31.4512 179.84 34.6738 180.445 38.8535H174.82C173.766 33.209 170.406 30.3867 164.742 30.3867C160.973 30.3867 158.111 31.7148 156.158 34.3711C154.225 37.0078 153.248 40.8359 153.229 45.8555V49.3418C153.229 54.127 154.322 57.9355 156.51 60.7676C158.697 63.5801 161.656 64.9863 165.387 64.9863C167.496 64.9863 169.342 64.752 170.924 64.2832C172.506 63.8145 173.814 63.0234 174.85 61.9102V52.3301H164.977V47.7598H180.445V63.4043ZM194.889 69H189.469V37.3008H194.889V69ZM189.029 28.8926C189.029 28.0137 189.293 27.2715 189.82 26.666C190.367 26.0605 191.168 25.7578 192.223 25.7578C193.277 25.7578 194.078 26.0605 194.625 26.666C195.172 27.2715 195.445 28.0137 195.445 28.8926C195.445 29.7715 195.172 30.5039 194.625 31.0898C194.078 31.6758 193.277 31.9688 192.223 31.9688C191.168 31.9688 190.367 31.6758 189.82 31.0898C189.293 30.5039 189.029 29.7715 189.029 28.8926ZM210.943 29.625V37.3008H216.861V41.4902H210.943V61.1484C210.943 62.418 211.207 63.375 211.734 64.0195C212.262 64.6445 213.16 64.957 214.43 64.957C215.055 64.957 215.914 64.8398 217.008 64.6055V69C215.582 69.3906 214.195 69.5859 212.848 69.5859C210.426 69.5859 208.6 68.8535 207.369 67.3887C206.139 65.9238 205.523 63.8438 205.523 61.1484V41.4902H199.752V37.3008H205.523V29.625H210.943ZM256.852 69H251.197V49.2832H229.693V69H224.068V26.3438H229.693V44.6836H251.197V26.3438H256.852V69ZM285.562 65.8652C283.453 68.3457 280.357 69.5859 276.275 69.5859C272.896 69.5859 270.318 68.6094 268.541 66.6562C266.783 64.6836 265.895 61.7734 265.875 57.9258V37.3008H271.295V57.7793C271.295 62.584 273.248 64.9863 277.154 64.9863C281.295 64.9863 284.049 63.4434 285.416 60.3574V37.3008H290.836V69H285.68L285.562 65.8652ZM325.934 53.502C325.934 58.3457 324.82 62.2422 322.594 65.1914C320.367 68.1211 317.379 69.5859 313.629 69.5859C309.625 69.5859 306.529 68.1699 304.342 65.3379L304.078 69H299.098V24H304.518V40.7871C306.705 38.0723 309.723 36.7148 313.57 36.7148C317.418 36.7148 320.436 38.1699 322.623 41.0801C324.83 43.9902 325.934 47.9746 325.934 53.0332V53.502ZM320.514 52.8867C320.514 49.1953 319.801 46.3438 318.375 44.332C316.949 42.3203 314.898 41.3145 312.223 41.3145C308.648 41.3145 306.08 42.9746 304.518 46.2949V60.0059C306.178 63.3262 308.766 64.9863 312.281 64.9863C314.879 64.9863 316.9 63.9805 318.346 61.9688C319.791 59.957 320.514 56.9297 320.514 52.8867Z" fill="white"/>
</g>
</g>
</g>
<defs>
<linearGradient id="paint0_linear" x1="54" y1="-10" x2="54" y2="114" gradientUnits="userSpaceOnUse">
<stop stop-color="white" stop-opacity="0"/>
<stop offset="1" stop-opacity="0.33"/>
</linearGradient>
<linearGradient id="paint1_linear" x1="315.5" y1="-10" x2="315.5" y2="114" gradientUnits="userSpaceOnUse">
<stop stop-opacity="0.78"/>
<stop offset="0.454792" stop-color="#242424"/>
<stop offset="1" stop-color="#020202"/>
</linearGradient>
</defs>
</svg>
