<svg width="500" height="97" viewBox="0 0 500 97" fill="none" xmlns="http://www.w3.org/2000/svg">
<mask id="mask0" mask-type="alpha" maskUnits="userSpaceOnUse" x="0" y="0" width="500" height="97">
<rect width="500" height="97" rx="15" fill="white"/>
</mask>
<g mask="url(#mask0)">
<mask id="mask1" mask-type="alpha" maskUnits="userSpaceOnUse" x="0" y="0" width="500" height="97">
<rect width="500" height="97" rx="15" fill="#C4C4C4"/>
</mask>
<g mask="url(#mask1)">
<rect x="-15" y="-10" width="138" height="124" fill="#0077B7"/>
<rect x="-15" y="-10" width="138" height="124" fill="url(#paint0_linear)" fill-opacity="0.6"/>
<rect x="123" y="-10" width="385" height="124" fill="url(#paint1_linear)"/>
<path d="M405.406 108.901V3.78423H372.711V108.901H405.406ZM388.883 -10.2783C399.43 -10.2783 407.867 -19.0673 407.867 -29.6142C407.867 -39.8095 399.43 -48.247 388.883 -48.247C378.688 -48.247 370.25 -39.8095 370.25 -29.6142C370.25 -19.0673 378.688 -10.2783 388.883 -10.2783ZM527.398 108.901H527.75V51.2452C527.75 23.1202 521.422 1.32329 488.375 1.32329C472.555 1.32329 462.008 10.1124 457.438 18.1983H457.086V3.78423H425.797V108.901H458.492V56.8702C458.492 43.1592 460.953 30.1514 477.828 30.1514C494.703 30.1514 495.055 45.6202 495.055 57.9249V108.901H527.398Z" fill="white" fill-opacity="0.07"/>
</g>
<path d="M44.3359 77V33.2012H30.7129V77H44.3359ZM37.4512 27.3418C41.8457 27.3418 45.3613 23.6797 45.3613 19.2852C45.3613 15.0371 41.8457 11.5215 37.4512 11.5215C33.2031 11.5215 29.6875 15.0371 29.6875 19.2852C29.6875 23.6797 33.2031 27.3418 37.4512 27.3418ZM95.166 77H95.3125V52.9766C95.3125 41.2578 92.6758 32.1758 78.9062 32.1758C72.3145 32.1758 67.9199 35.8379 66.0156 39.207H65.8691V33.2012H52.832V77H66.4551V55.3203C66.4551 49.6074 67.4805 44.1875 74.5117 44.1875C81.543 44.1875 81.6895 50.6328 81.6895 55.7598V77H95.166Z" fill="#5E5E5E" fill-opacity="0.45"/>
<path d="M45.3359 77V33.2012H31.7129V77H45.3359ZM38.4512 27.3418C42.8457 27.3418 46.3613 23.6797 46.3613 19.2852C46.3613 15.0371 42.8457 11.5215 38.4512 11.5215C34.2031 11.5215 30.6875 15.0371 30.6875 19.2852C30.6875 23.6797 34.2031 27.3418 38.4512 27.3418ZM96.166 77H96.3125V52.9766C96.3125 41.2578 93.6758 32.1758 79.9062 32.1758C73.3145 32.1758 68.9199 35.8379 67.0156 39.207H66.8691V33.2012H53.832V77H67.4551V55.3203C67.4551 49.6074 68.4805 44.1875 75.5117 44.1875C82.543 44.1875 82.6895 50.6328 82.6895 55.7598V77H96.166Z" fill="white"/>
<path d="M153.605 64.4004H173.82V69H147.951V26.3438H153.605V64.4004ZM185.275 69H179.855V37.3008H185.275V69ZM179.416 28.8926C179.416 28.0137 179.68 27.2715 180.207 26.666C180.754 26.0605 181.555 25.7578 182.609 25.7578C183.664 25.7578 184.465 26.0605 185.012 26.666C185.559 27.2715 185.832 28.0137 185.832 28.8926C185.832 29.7715 185.559 30.5039 185.012 31.0898C184.465 31.6758 183.664 31.9688 182.609 31.9688C181.555 31.9688 180.754 31.6758 180.207 31.0898C179.68 30.5039 179.416 29.7715 179.416 28.8926ZM199.104 37.3008L199.279 41.2852C201.701 38.2383 204.865 36.7148 208.771 36.7148C215.471 36.7148 218.85 40.4941 218.908 48.0527V69H213.488V48.0234C213.469 45.7383 212.941 44.0488 211.906 42.9551C210.891 41.8613 209.299 41.3145 207.131 41.3145C205.373 41.3145 203.83 41.7832 202.502 42.7207C201.174 43.6582 200.139 44.8887 199.396 46.4121V69H193.977V37.3008H199.104ZM235.93 54.3223L232.531 57.8672V69H227.111V24H232.531V51.2168L235.432 47.7305L245.305 37.3008H251.896L239.562 50.543L253.332 69H246.975L235.93 54.3223ZM270.061 69.5859C265.764 69.5859 262.268 68.1797 259.572 65.3672C256.877 62.5352 255.529 58.7559 255.529 54.0293V53.0332C255.529 49.8887 256.125 47.0859 257.316 44.625C258.527 42.1445 260.207 40.2109 262.355 38.8242C264.523 37.418 266.867 36.7148 269.387 36.7148C273.508 36.7148 276.711 38.0723 278.996 40.7871C281.281 43.502 282.424 47.3887 282.424 52.4473V54.7031H260.949C261.027 57.8281 261.936 60.3574 263.674 62.291C265.432 64.2051 267.658 65.1621 270.354 65.1621C272.268 65.1621 273.889 64.7715 275.217 63.9902C276.545 63.209 277.707 62.1738 278.703 60.8848L282.014 63.4629C279.357 67.5449 275.373 69.5859 270.061 69.5859ZM269.387 41.168C267.199 41.168 265.363 41.9688 263.879 43.5703C262.395 45.1523 261.477 47.3789 261.125 50.25H277.004V49.8398C276.848 47.0859 276.105 44.957 274.777 43.4531C273.449 41.9297 271.652 41.168 269.387 41.168ZM287.404 52.8867C287.404 48.0234 288.557 44.1172 290.861 41.168C293.166 38.1992 296.184 36.7148 299.914 36.7148C303.625 36.7148 306.564 37.9844 308.732 40.5234V24H314.152V69H309.172L308.908 65.6016C306.74 68.2578 303.723 69.5859 299.855 69.5859C296.184 69.5859 293.186 68.082 290.861 65.0742C288.557 62.0664 287.404 58.1406 287.404 53.2969V52.8867ZM292.824 53.502C292.824 57.0957 293.566 59.9082 295.051 61.9395C296.535 63.9707 298.586 64.9863 301.203 64.9863C304.641 64.9863 307.15 63.4434 308.732 60.3574V45.7969C307.111 42.8086 304.621 41.3145 301.262 41.3145C298.605 41.3145 296.535 42.3398 295.051 44.3906C293.566 46.4414 292.824 49.4785 292.824 53.502ZM328.479 69H323.059V37.3008H328.479V69ZM322.619 28.8926C322.619 28.0137 322.883 27.2715 323.41 26.666C323.957 26.0605 324.758 25.7578 325.812 25.7578C326.867 25.7578 327.668 26.0605 328.215 26.666C328.762 27.2715 329.035 28.0137 329.035 28.8926C329.035 29.7715 328.762 30.5039 328.215 31.0898C327.668 31.6758 326.867 31.9688 325.812 31.9688C324.758 31.9688 323.957 31.6758 323.41 31.0898C322.883 30.5039 322.619 29.7715 322.619 28.8926ZM342.307 37.3008L342.482 41.2852C344.904 38.2383 348.068 36.7148 351.975 36.7148C358.674 36.7148 362.053 40.4941 362.111 48.0527V69H356.691V48.0234C356.672 45.7383 356.145 44.0488 355.109 42.9551C354.094 41.8613 352.502 41.3145 350.334 41.3145C348.576 41.3145 347.033 41.7832 345.705 42.7207C344.377 43.6582 343.342 44.8887 342.6 46.4121V69H337.18V37.3008H342.307Z" fill="#5E5E5E" fill-opacity="0.45"/>
<path d="M154.605 64.4004H174.82V69H148.951V26.3438H154.605V64.4004ZM186.275 69H180.855V37.3008H186.275V69ZM180.416 28.8926C180.416 28.0137 180.68 27.2715 181.207 26.666C181.754 26.0605 182.555 25.7578 183.609 25.7578C184.664 25.7578 185.465 26.0605 186.012 26.666C186.559 27.2715 186.832 28.0137 186.832 28.8926C186.832 29.7715 186.559 30.5039 186.012 31.0898C185.465 31.6758 184.664 31.9688 183.609 31.9688C182.555 31.9688 181.754 31.6758 181.207 31.0898C180.68 30.5039 180.416 29.7715 180.416 28.8926ZM200.104 37.3008L200.279 41.2852C202.701 38.2383 205.865 36.7148 209.771 36.7148C216.471 36.7148 219.85 40.4941 219.908 48.0527V69H214.488V48.0234C214.469 45.7383 213.941 44.0488 212.906 42.9551C211.891 41.8613 210.299 41.3145 208.131 41.3145C206.373 41.3145 204.83 41.7832 203.502 42.7207C202.174 43.6582 201.139 44.8887 200.396 46.4121V69H194.977V37.3008H200.104ZM236.93 54.3223L233.531 57.8672V69H228.111V24H233.531V51.2168L236.432 47.7305L246.305 37.3008H252.896L240.562 50.543L254.332 69H247.975L236.93 54.3223ZM271.061 69.5859C266.764 69.5859 263.268 68.1797 260.572 65.3672C257.877 62.5352 256.529 58.7559 256.529 54.0293V53.0332C256.529 49.8887 257.125 47.0859 258.316 44.625C259.527 42.1445 261.207 40.2109 263.355 38.8242C265.523 37.418 267.867 36.7148 270.387 36.7148C274.508 36.7148 277.711 38.0723 279.996 40.7871C282.281 43.502 283.424 47.3887 283.424 52.4473V54.7031H261.949C262.027 57.8281 262.936 60.3574 264.674 62.291C266.432 64.2051 268.658 65.1621 271.354 65.1621C273.268 65.1621 274.889 64.7715 276.217 63.9902C277.545 63.209 278.707 62.1738 279.703 60.8848L283.014 63.4629C280.357 67.5449 276.373 69.5859 271.061 69.5859ZM270.387 41.168C268.199 41.168 266.363 41.9688 264.879 43.5703C263.395 45.1523 262.477 47.3789 262.125 50.25H278.004V49.8398C277.848 47.0859 277.105 44.957 275.777 43.4531C274.449 41.9297 272.652 41.168 270.387 41.168ZM288.404 52.8867C288.404 48.0234 289.557 44.1172 291.861 41.168C294.166 38.1992 297.184 36.7148 300.914 36.7148C304.625 36.7148 307.564 37.9844 309.732 40.5234V24H315.152V69H310.172L309.908 65.6016C307.74 68.2578 304.723 69.5859 300.855 69.5859C297.184 69.5859 294.186 68.082 291.861 65.0742C289.557 62.0664 288.404 58.1406 288.404 53.2969V52.8867ZM293.824 53.502C293.824 57.0957 294.566 59.9082 296.051 61.9395C297.535 63.9707 299.586 64.9863 302.203 64.9863C305.641 64.9863 308.15 63.4434 309.732 60.3574V45.7969C308.111 42.8086 305.621 41.3145 302.262 41.3145C299.605 41.3145 297.535 42.3398 296.051 44.3906C294.566 46.4414 293.824 49.4785 293.824 53.502ZM329.479 69H324.059V37.3008H329.479V69ZM323.619 28.8926C323.619 28.0137 323.883 27.2715 324.41 26.666C324.957 26.0605 325.758 25.7578 326.812 25.7578C327.867 25.7578 328.668 26.0605 329.215 26.666C329.762 27.2715 330.035 28.0137 330.035 28.8926C330.035 29.7715 329.762 30.5039 329.215 31.0898C328.668 31.6758 327.867 31.9688 326.812 31.9688C325.758 31.9688 324.957 31.6758 324.41 31.0898C323.883 30.5039 323.619 29.7715 323.619 28.8926ZM343.307 37.3008L343.482 41.2852C345.904 38.2383 349.068 36.7148 352.975 36.7148C359.674 36.7148 363.053 40.4941 363.111 48.0527V69H357.691V48.0234C357.672 45.7383 357.145 44.0488 356.109 42.9551C355.094 41.8613 353.502 41.3145 351.334 41.3145C349.576 41.3145 348.033 41.7832 346.705 42.7207C345.377 43.6582 344.342 44.8887 343.6 46.4121V69H338.18V37.3008H343.307Z" fill="white"/>
</g>
<defs>
<linearGradient id="paint0_linear" x1="54" y1="-10" x2="54" y2="114" gradientUnits="userSpaceOnUse">
<stop stop-color="white" stop-opacity="0"/>
<stop offset="1" stop-opacity="0.33"/>
</linearGradient>
<linearGradient id="paint1_linear" x1="315.5" y1="-10" x2="315.5" y2="114" gradientUnits="userSpaceOnUse">
<stop stop-opacity="0.78"/>
<stop offset="0.454792" stop-color="#242424"/>
<stop offset="1" stop-color="#020202"/>
</linearGradient>
</defs>
</svg>
