<svg width="500" height="97" viewBox="0 0 500 97" fill="none" xmlns="http://www.w3.org/2000/svg">
<mask id="mask0" mask-type="alpha" maskUnits="userSpaceOnUse" x="0" y="0" width="500" height="97">
<rect width="500" height="97" rx="15" fill="white"/>
</mask>
<g mask="url(#mask0)">
<rect x="-15" y="-10" width="138" height="124" fill="#0079D6"/>
<rect x="-15" y="-10" width="138" height="124" fill="url(#paint0_linear)" fill-opacity="0.6"/>
<rect x="123" y="-10" width="385" height="124" fill="url(#paint1_linear)"/>
<path d="M449 -45.7861C399.781 -45.7861 361.813 -9.57513 361.813 38.9405C361.813 64.253 372.008 86.4014 389.234 101.519C392.047 104.331 391.344 105.737 392.047 121.909C392.047 125.776 395.211 128.589 399.078 128.589C399.781 128.589 400.836 128.589 401.891 128.237C420.172 120.151 420.523 119.448 423.688 120.151C477.477 134.917 536.188 100.464 536.188 38.9405C536.188 -9.57513 498.219 -45.7861 449 -45.7861ZM501.383 19.6046L475.719 60.0342C473.609 63.9014 469.391 66.3624 464.82 66.3624C461.656 66.3624 459.195 65.3077 456.734 63.5499L436.344 48.4327C435.641 47.7296 434.586 47.378 433.18 47.378C432.125 47.378 431.07 47.7296 430.016 48.4327L402.594 69.1749C398.727 71.9874 394.156 67.4171 396.617 63.5499L422.281 23.1202C424.391 19.253 428.609 16.7921 433.18 16.7921C436.344 16.7921 439.156 17.8467 441.266 19.6046L461.656 34.7217C462.359 35.4249 463.414 35.7764 464.82 35.7764C465.875 35.7764 466.93 35.4249 467.984 34.7217L495.406 13.9796C499.273 11.1671 503.844 15.7374 501.383 19.6046Z" fill="white" fill-opacity="0.07"/>
</g>
<path d="M62.5 12.5469C41.9922 12.5469 26.1719 27.6348 26.1719 47.8496C26.1719 58.3965 30.4199 67.625 37.5977 73.9238C38.7695 75.0957 38.4766 75.6816 38.7695 82.4199C38.7695 84.0312 40.0879 85.2031 41.6992 85.2031C41.9922 85.2031 42.4316 85.2031 42.8711 85.0566C50.4883 81.6875 50.6348 81.3945 51.9531 81.6875C74.3652 87.8398 98.8281 73.4844 98.8281 47.8496C98.8281 27.6348 83.0078 12.5469 62.5 12.5469ZM84.3262 39.793L73.6328 56.6387C72.7539 58.25 70.9961 59.2754 69.0918 59.2754C67.7734 59.2754 66.748 58.8359 65.7227 58.1035L57.2266 51.8047C56.9336 51.5117 56.4941 51.3652 55.9082 51.3652C55.4688 51.3652 55.0293 51.5117 54.5898 51.8047L43.1641 60.4473C41.5527 61.6191 39.6484 59.7148 40.6738 58.1035L51.3672 41.2578C52.2461 39.6465 54.0039 38.6211 55.9082 38.6211C57.2266 38.6211 58.3984 39.0605 59.2773 39.793L67.7734 46.0918C68.0664 46.3848 68.5059 46.5312 69.0918 46.5312C69.5312 46.5312 69.9707 46.3848 70.4102 46.0918L81.8359 37.4492C83.4473 36.2773 85.3516 38.1816 84.3262 39.793Z" fill="#5E5E5E" fill-opacity="0.45"/>
<path d="M63.5 12.5469C42.9922 12.5469 27.1719 27.6348 27.1719 47.8496C27.1719 58.3965 31.4199 67.625 38.5977 73.9238C39.7695 75.0957 39.4766 75.6816 39.7695 82.4199C39.7695 84.0312 41.0879 85.2031 42.6992 85.2031C42.9922 85.2031 43.4316 85.2031 43.8711 85.0566C51.4883 81.6875 51.6348 81.3945 52.9531 81.6875C75.3652 87.8398 99.8281 73.4844 99.8281 47.8496C99.8281 27.6348 84.0078 12.5469 63.5 12.5469ZM85.3262 39.793L74.6328 56.6387C73.7539 58.25 71.9961 59.2754 70.0918 59.2754C68.7734 59.2754 67.748 58.8359 66.7227 58.1035L58.2266 51.8047C57.9336 51.5117 57.4941 51.3652 56.9082 51.3652C56.4688 51.3652 56.0293 51.5117 55.5898 51.8047L44.1641 60.4473C42.5527 61.6191 40.6484 59.7148 41.6738 58.1035L52.3672 41.2578C53.2461 39.6465 55.0039 38.6211 56.9082 38.6211C58.2266 38.6211 59.3984 39.0605 60.2773 39.793L68.7734 46.0918C69.0664 46.3848 69.5059 46.5312 70.0918 46.5312C70.5312 46.5312 70.9707 46.3848 71.4102 46.0918L82.8359 37.4492C84.4473 36.2773 86.3516 38.1816 85.3262 39.793Z" fill="white"/>
<path d="M155.217 26.3438L169.162 61.1484L183.107 26.3438H190.402V69H184.777V52.3887L185.305 34.459L171.301 69H166.994L153.02 34.5469L153.576 52.3887V69H147.951V26.3438H155.217ZM212.639 69.5859C208.342 69.5859 204.846 68.1797 202.15 65.3672C199.455 62.5352 198.107 58.7559 198.107 54.0293V53.0332C198.107 49.8887 198.703 47.0859 199.895 44.625C201.105 42.1445 202.785 40.2109 204.934 38.8242C207.102 37.418 209.445 36.7148 211.965 36.7148C216.086 36.7148 219.289 38.0723 221.574 40.7871C223.859 43.502 225.002 47.3887 225.002 52.4473V54.7031H203.527C203.605 57.8281 204.514 60.3574 206.252 62.291C208.01 64.2051 210.236 65.1621 212.932 65.1621C214.846 65.1621 216.467 64.7715 217.795 63.9902C219.123 63.209 220.285 62.1738 221.281 60.8848L224.592 63.4629C221.936 67.5449 217.951 69.5859 212.639 69.5859ZM211.965 41.168C209.777 41.168 207.941 41.9688 206.457 43.5703C204.973 45.1523 204.055 47.3789 203.703 50.25H219.582V49.8398C219.426 47.0859 218.684 44.957 217.355 43.4531C216.027 41.9297 214.23 41.168 211.965 41.168ZM249.758 60.5918C249.758 59.127 249.201 57.9941 248.088 57.1934C246.994 56.373 245.07 55.6699 242.316 55.084C239.582 54.498 237.404 53.7949 235.783 52.9746C234.182 52.1543 232.99 51.1777 232.209 50.0449C231.447 48.9121 231.066 47.5645 231.066 46.002C231.066 43.4043 232.16 41.207 234.348 39.4102C236.555 37.6133 239.367 36.7148 242.785 36.7148C246.379 36.7148 249.289 37.6426 251.516 39.498C253.762 41.3535 254.885 43.7266 254.885 46.6172H249.436C249.436 45.1328 248.801 43.8535 247.531 42.7793C246.281 41.7051 244.699 41.168 242.785 41.168C240.812 41.168 239.27 41.5977 238.156 42.457C237.043 43.3164 236.486 44.4395 236.486 45.8262C236.486 47.1348 237.004 48.1211 238.039 48.7852C239.074 49.4492 240.939 50.084 243.635 50.6895C246.35 51.2949 248.547 52.0176 250.227 52.8574C251.906 53.6973 253.146 54.7129 253.947 55.9043C254.768 57.0762 255.178 58.5117 255.178 60.2109C255.178 63.043 254.045 65.3184 251.779 67.0371C249.514 68.7363 246.574 69.5859 242.961 69.5859C240.422 69.5859 238.176 69.1367 236.223 68.2383C234.27 67.3398 232.736 66.0898 231.623 64.4883C230.529 62.8672 229.982 61.1191 229.982 59.2441H235.402C235.5 61.0605 236.223 62.5059 237.57 63.5801C238.938 64.6348 240.734 65.1621 242.961 65.1621C245.012 65.1621 246.652 64.752 247.883 63.9316C249.133 63.0918 249.758 61.9785 249.758 60.5918ZM280.695 60.5918C280.695 59.127 280.139 57.9941 279.025 57.1934C277.932 56.373 276.008 55.6699 273.254 55.084C270.52 54.498 268.342 53.7949 266.721 52.9746C265.119 52.1543 263.928 51.1777 263.146 50.0449C262.385 48.9121 262.004 47.5645 262.004 46.002C262.004 43.4043 263.098 41.207 265.285 39.4102C267.492 37.6133 270.305 36.7148 273.723 36.7148C277.316 36.7148 280.227 37.6426 282.453 39.498C284.699 41.3535 285.822 43.7266 285.822 46.6172H280.373C280.373 45.1328 279.738 43.8535 278.469 42.7793C277.219 41.7051 275.637 41.168 273.723 41.168C271.75 41.168 270.207 41.5977 269.094 42.457C267.98 43.3164 267.424 44.4395 267.424 45.8262C267.424 47.1348 267.941 48.1211 268.977 48.7852C270.012 49.4492 271.877 50.084 274.572 50.6895C277.287 51.2949 279.484 52.0176 281.164 52.8574C282.844 53.6973 284.084 54.7129 284.885 55.9043C285.705 57.0762 286.115 58.5117 286.115 60.2109C286.115 63.043 284.982 65.3184 282.717 67.0371C280.451 68.7363 277.512 69.5859 273.898 69.5859C271.359 69.5859 269.113 69.1367 267.16 68.2383C265.207 67.3398 263.674 66.0898 262.561 64.4883C261.467 62.8672 260.92 61.1191 260.92 59.2441H266.34C266.438 61.0605 267.16 62.5059 268.508 63.5801C269.875 64.6348 271.672 65.1621 273.898 65.1621C275.949 65.1621 277.59 64.752 278.82 63.9316C280.07 63.0918 280.695 61.9785 280.695 60.5918ZM306.33 69.5859C302.033 69.5859 298.537 68.1797 295.842 65.3672C293.146 62.5352 291.799 58.7559 291.799 54.0293V53.0332C291.799 49.8887 292.395 47.0859 293.586 44.625C294.797 42.1445 296.477 40.2109 298.625 38.8242C300.793 37.418 303.137 36.7148 305.656 36.7148C309.777 36.7148 312.98 38.0723 315.266 40.7871C317.551 43.502 318.693 47.3887 318.693 52.4473V54.7031H297.219C297.297 57.8281 298.205 60.3574 299.943 62.291C301.701 64.2051 303.928 65.1621 306.623 65.1621C308.537 65.1621 310.158 64.7715 311.486 63.9902C312.814 63.209 313.977 62.1738 314.973 60.8848L318.283 63.4629C315.627 67.5449 311.643 69.5859 306.33 69.5859ZM305.656 41.168C303.469 41.168 301.633 41.9688 300.148 43.5703C298.664 45.1523 297.746 47.3789 297.395 50.25H313.273V49.8398C313.117 47.0859 312.375 44.957 311.047 43.4531C309.719 41.9297 307.922 41.168 305.656 41.168ZM330.119 37.3008L330.295 41.2852C332.717 38.2383 335.881 36.7148 339.787 36.7148C346.486 36.7148 349.865 40.4941 349.924 48.0527V69H344.504V48.0234C344.484 45.7383 343.957 44.0488 342.922 42.9551C341.906 41.8613 340.314 41.3145 338.146 41.3145C336.389 41.3145 334.846 41.7832 333.518 42.7207C332.189 43.6582 331.154 44.8887 330.412 46.4121V69H324.992V37.3008H330.119ZM356.809 52.8867C356.809 47.9453 357.951 44.0195 360.236 41.1094C362.521 38.1797 365.549 36.7148 369.318 36.7148C373.186 36.7148 376.203 38.082 378.371 40.8164L378.635 37.3008H383.586V68.2383C383.586 72.3398 382.365 75.5723 379.924 77.9355C377.502 80.2988 374.24 81.4805 370.139 81.4805C367.854 81.4805 365.617 80.9922 363.43 80.0156C361.242 79.0391 359.572 77.7012 358.42 76.002L361.232 72.75C363.557 75.6211 366.398 77.0566 369.758 77.0566C372.395 77.0566 374.445 76.3145 375.91 74.8301C377.395 73.3457 378.137 71.2559 378.137 68.5605V65.8359C375.969 68.3359 373.01 69.5859 369.26 69.5859C365.549 69.5859 362.541 68.0918 360.236 65.1035C357.951 62.1152 356.809 58.043 356.809 52.8867ZM362.258 53.502C362.258 57.0762 362.99 59.8887 364.455 61.9395C365.92 63.9707 367.971 64.9863 370.607 64.9863C374.025 64.9863 376.535 63.4336 378.137 60.3281V45.8555C376.477 42.8281 373.986 41.3145 370.666 41.3145C368.029 41.3145 365.969 42.3398 364.484 44.3906C363 46.4414 362.258 49.4785 362.258 53.502ZM404.943 69.5859C400.646 69.5859 397.15 68.1797 394.455 65.3672C391.76 62.5352 390.412 58.7559 390.412 54.0293V53.0332C390.412 49.8887 391.008 47.0859 392.199 44.625C393.41 42.1445 395.09 40.2109 397.238 38.8242C399.406 37.418 401.75 36.7148 404.27 36.7148C408.391 36.7148 411.594 38.0723 413.879 40.7871C416.164 43.502 417.307 47.3887 417.307 52.4473V54.7031H395.832C395.91 57.8281 396.818 60.3574 398.557 62.291C400.314 64.2051 402.541 65.1621 405.236 65.1621C407.15 65.1621 408.771 64.7715 410.1 63.9902C411.428 63.209 412.59 62.1738 413.586 60.8848L416.896 63.4629C414.24 67.5449 410.256 69.5859 404.943 69.5859ZM404.27 41.168C402.082 41.168 400.246 41.9688 398.762 43.5703C397.277 45.1523 396.359 47.3789 396.008 50.25H411.887V49.8398C411.73 47.0859 410.988 44.957 409.66 43.4531C408.332 41.9297 406.535 41.168 404.27 41.168ZM438.928 42.1641C438.107 42.0273 437.219 41.959 436.262 41.959C432.707 41.959 430.295 43.4727 429.025 46.5V69H423.605V37.3008H428.879L428.967 40.9629C430.744 38.1309 433.264 36.7148 436.525 36.7148C437.58 36.7148 438.381 36.8516 438.928 37.125V42.1641Z" fill="#5E5E5E" fill-opacity="0.45"/>
<path d="M156.217 26.3438L170.162 61.1484L184.107 26.3438H191.402V69H185.777V52.3887L186.305 34.459L172.301 69H167.994L154.02 34.5469L154.576 52.3887V69H148.951V26.3438H156.217ZM213.639 69.5859C209.342 69.5859 205.846 68.1797 203.15 65.3672C200.455 62.5352 199.107 58.7559 199.107 54.0293V53.0332C199.107 49.8887 199.703 47.0859 200.895 44.625C202.105 42.1445 203.785 40.2109 205.934 38.8242C208.102 37.418 210.445 36.7148 212.965 36.7148C217.086 36.7148 220.289 38.0723 222.574 40.7871C224.859 43.502 226.002 47.3887 226.002 52.4473V54.7031H204.527C204.605 57.8281 205.514 60.3574 207.252 62.291C209.01 64.2051 211.236 65.1621 213.932 65.1621C215.846 65.1621 217.467 64.7715 218.795 63.9902C220.123 63.209 221.285 62.1738 222.281 60.8848L225.592 63.4629C222.936 67.5449 218.951 69.5859 213.639 69.5859ZM212.965 41.168C210.777 41.168 208.941 41.9688 207.457 43.5703C205.973 45.1523 205.055 47.3789 204.703 50.25H220.582V49.8398C220.426 47.0859 219.684 44.957 218.355 43.4531C217.027 41.9297 215.23 41.168 212.965 41.168ZM250.758 60.5918C250.758 59.127 250.201 57.9941 249.088 57.1934C247.994 56.373 246.07 55.6699 243.316 55.084C240.582 54.498 238.404 53.7949 236.783 52.9746C235.182 52.1543 233.99 51.1777 233.209 50.0449C232.447 48.9121 232.066 47.5645 232.066 46.002C232.066 43.4043 233.16 41.207 235.348 39.4102C237.555 37.6133 240.367 36.7148 243.785 36.7148C247.379 36.7148 250.289 37.6426 252.516 39.498C254.762 41.3535 255.885 43.7266 255.885 46.6172H250.436C250.436 45.1328 249.801 43.8535 248.531 42.7793C247.281 41.7051 245.699 41.168 243.785 41.168C241.812 41.168 240.27 41.5977 239.156 42.457C238.043 43.3164 237.486 44.4395 237.486 45.8262C237.486 47.1348 238.004 48.1211 239.039 48.7852C240.074 49.4492 241.939 50.084 244.635 50.6895C247.35 51.2949 249.547 52.0176 251.227 52.8574C252.906 53.6973 254.146 54.7129 254.947 55.9043C255.768 57.0762 256.178 58.5117 256.178 60.2109C256.178 63.043 255.045 65.3184 252.779 67.0371C250.514 68.7363 247.574 69.5859 243.961 69.5859C241.422 69.5859 239.176 69.1367 237.223 68.2383C235.27 67.3398 233.736 66.0898 232.623 64.4883C231.529 62.8672 230.982 61.1191 230.982 59.2441H236.402C236.5 61.0605 237.223 62.5059 238.57 63.5801C239.938 64.6348 241.734 65.1621 243.961 65.1621C246.012 65.1621 247.652 64.752 248.883 63.9316C250.133 63.0918 250.758 61.9785 250.758 60.5918ZM281.695 60.5918C281.695 59.127 281.139 57.9941 280.025 57.1934C278.932 56.373 277.008 55.6699 274.254 55.084C271.52 54.498 269.342 53.7949 267.721 52.9746C266.119 52.1543 264.928 51.1777 264.146 50.0449C263.385 48.9121 263.004 47.5645 263.004 46.002C263.004 43.4043 264.098 41.207 266.285 39.4102C268.492 37.6133 271.305 36.7148 274.723 36.7148C278.316 36.7148 281.227 37.6426 283.453 39.498C285.699 41.3535 286.822 43.7266 286.822 46.6172H281.373C281.373 45.1328 280.738 43.8535 279.469 42.7793C278.219 41.7051 276.637 41.168 274.723 41.168C272.75 41.168 271.207 41.5977 270.094 42.457C268.98 43.3164 268.424 44.4395 268.424 45.8262C268.424 47.1348 268.941 48.1211 269.977 48.7852C271.012 49.4492 272.877 50.084 275.572 50.6895C278.287 51.2949 280.484 52.0176 282.164 52.8574C283.844 53.6973 285.084 54.7129 285.885 55.9043C286.705 57.0762 287.115 58.5117 287.115 60.2109C287.115 63.043 285.982 65.3184 283.717 67.0371C281.451 68.7363 278.512 69.5859 274.898 69.5859C272.359 69.5859 270.113 69.1367 268.16 68.2383C266.207 67.3398 264.674 66.0898 263.561 64.4883C262.467 62.8672 261.92 61.1191 261.92 59.2441H267.34C267.438 61.0605 268.16 62.5059 269.508 63.5801C270.875 64.6348 272.672 65.1621 274.898 65.1621C276.949 65.1621 278.59 64.752 279.82 63.9316C281.07 63.0918 281.695 61.9785 281.695 60.5918ZM307.33 69.5859C303.033 69.5859 299.537 68.1797 296.842 65.3672C294.146 62.5352 292.799 58.7559 292.799 54.0293V53.0332C292.799 49.8887 293.395 47.0859 294.586 44.625C295.797 42.1445 297.477 40.2109 299.625 38.8242C301.793 37.418 304.137 36.7148 306.656 36.7148C310.777 36.7148 313.98 38.0723 316.266 40.7871C318.551 43.502 319.693 47.3887 319.693 52.4473V54.7031H298.219C298.297 57.8281 299.205 60.3574 300.943 62.291C302.701 64.2051 304.928 65.1621 307.623 65.1621C309.537 65.1621 311.158 64.7715 312.486 63.9902C313.814 63.209 314.977 62.1738 315.973 60.8848L319.283 63.4629C316.627 67.5449 312.643 69.5859 307.33 69.5859ZM306.656 41.168C304.469 41.168 302.633 41.9688 301.148 43.5703C299.664 45.1523 298.746 47.3789 298.395 50.25H314.273V49.8398C314.117 47.0859 313.375 44.957 312.047 43.4531C310.719 41.9297 308.922 41.168 306.656 41.168ZM331.119 37.3008L331.295 41.2852C333.717 38.2383 336.881 36.7148 340.787 36.7148C347.486 36.7148 350.865 40.4941 350.924 48.0527V69H345.504V48.0234C345.484 45.7383 344.957 44.0488 343.922 42.9551C342.906 41.8613 341.314 41.3145 339.146 41.3145C337.389 41.3145 335.846 41.7832 334.518 42.7207C333.189 43.6582 332.154 44.8887 331.412 46.4121V69H325.992V37.3008H331.119ZM357.809 52.8867C357.809 47.9453 358.951 44.0195 361.236 41.1094C363.521 38.1797 366.549 36.7148 370.318 36.7148C374.186 36.7148 377.203 38.082 379.371 40.8164L379.635 37.3008H384.586V68.2383C384.586 72.3398 383.365 75.5723 380.924 77.9355C378.502 80.2988 375.24 81.4805 371.139 81.4805C368.854 81.4805 366.617 80.9922 364.43 80.0156C362.242 79.0391 360.572 77.7012 359.42 76.002L362.232 72.75C364.557 75.6211 367.398 77.0566 370.758 77.0566C373.395 77.0566 375.445 76.3145 376.91 74.8301C378.395 73.3457 379.137 71.2559 379.137 68.5605V65.8359C376.969 68.3359 374.01 69.5859 370.26 69.5859C366.549 69.5859 363.541 68.0918 361.236 65.1035C358.951 62.1152 357.809 58.043 357.809 52.8867ZM363.258 53.502C363.258 57.0762 363.99 59.8887 365.455 61.9395C366.92 63.9707 368.971 64.9863 371.607 64.9863C375.025 64.9863 377.535 63.4336 379.137 60.3281V45.8555C377.477 42.8281 374.986 41.3145 371.666 41.3145C369.029 41.3145 366.969 42.3398 365.484 44.3906C364 46.4414 363.258 49.4785 363.258 53.502ZM405.943 69.5859C401.646 69.5859 398.15 68.1797 395.455 65.3672C392.76 62.5352 391.412 58.7559 391.412 54.0293V53.0332C391.412 49.8887 392.008 47.0859 393.199 44.625C394.41 42.1445 396.09 40.2109 398.238 38.8242C400.406 37.418 402.75 36.7148 405.27 36.7148C409.391 36.7148 412.594 38.0723 414.879 40.7871C417.164 43.502 418.307 47.3887 418.307 52.4473V54.7031H396.832C396.91 57.8281 397.818 60.3574 399.557 62.291C401.314 64.2051 403.541 65.1621 406.236 65.1621C408.15 65.1621 409.771 64.7715 411.1 63.9902C412.428 63.209 413.59 62.1738 414.586 60.8848L417.896 63.4629C415.24 67.5449 411.256 69.5859 405.943 69.5859ZM405.27 41.168C403.082 41.168 401.246 41.9688 399.762 43.5703C398.277 45.1523 397.359 47.3789 397.008 50.25H412.887V49.8398C412.73 47.0859 411.988 44.957 410.66 43.4531C409.332 41.9297 407.535 41.168 405.27 41.168ZM439.928 42.1641C439.107 42.0273 438.219 41.959 437.262 41.959C433.707 41.959 431.295 43.4727 430.025 46.5V69H424.605V37.3008H429.879L429.967 40.9629C431.744 38.1309 434.264 36.7148 437.525 36.7148C438.58 36.7148 439.381 36.8516 439.928 37.125V42.1641Z" fill="white"/>
<defs>
<linearGradient id="paint0_linear" x1="54" y1="-10" x2="54" y2="114" gradientUnits="userSpaceOnUse">
<stop stop-color="white" stop-opacity="0"/>
<stop offset="1" stop-opacity="0.33"/>
</linearGradient>
<linearGradient id="paint1_linear" x1="315.5" y1="-10" x2="315.5" y2="114" gradientUnits="userSpaceOnUse">
<stop stop-opacity="0.78"/>
<stop offset="0.454792" stop-color="#242424"/>
<stop offset="1" stop-color="#020202"/>
</linearGradient>
</defs>
</svg>
