<svg width="500" height="97" viewBox="0 0 500 97" fill="none" xmlns="http://www.w3.org/2000/svg">
<mask id="mask0" mask-type="alpha" maskUnits="userSpaceOnUse" x="0" y="0" width="500" height="97">
<rect width="500" height="97" rx="15" fill="white"/>
</mask>
<g mask="url(#mask0)">
<rect x="-15" y="-10" width="138" height="124" fill="#CB2027"/>
<rect x="-15" y="-10" width="138" height="124" fill="url(#paint0_linear)" fill-opacity="0.6"/>
<rect x="123" y="-10" width="385" height="124" fill="url(#paint1_linear)"/>
<path d="M453.219 -46.1377C417.008 -46.1377 381.5 -22.2314 381.5 16.792C381.5 41.4014 395.211 55.4639 403.648 55.4639C407.164 55.4639 409.273 45.9717 409.273 43.1592C409.273 39.9951 400.836 32.9639 400.836 19.253C400.836 -8.87204 422.281 -28.9111 450.055 -28.9111C474.313 -28.9111 491.891 -15.2002 491.891 9.76077C491.891 28.3936 484.508 63.1983 460.25 63.1983C451.461 63.1983 443.727 56.8701 443.727 48.0811C443.727 34.7217 453.219 21.7139 453.219 8.00296C453.219 -15.2002 420.172 -10.9814 420.172 17.1436C420.172 23.1201 420.875 29.4483 423.688 35.0733C418.766 55.8155 408.922 87.1045 408.922 108.55C408.922 115.23 409.625 121.558 410.328 128.237C411.383 129.644 411.031 129.644 412.789 128.94C430.367 104.683 430.016 99.7608 437.75 68.1201C442.32 76.2061 453.219 80.7764 462.359 80.7764C499.625 80.7764 516.5 44.2139 516.5 11.5186C516.5 -23.2861 486.266 -46.1377 453.219 -46.1377Z" fill="white" fill-opacity="0.07"/>
</g>
<path d="M64.2578 12.4004C49.1699 12.4004 34.375 22.3613 34.375 38.6211C34.375 48.875 40.0879 54.7344 43.6035 54.7344C45.0684 54.7344 45.9473 50.7793 45.9473 49.6074C45.9473 48.2891 42.4316 45.3594 42.4316 39.6465C42.4316 27.9277 51.3672 19.5781 62.9395 19.5781C73.0469 19.5781 80.3711 25.291 80.3711 35.6914C80.3711 43.4551 77.2949 57.957 67.1875 57.957C63.5254 57.957 60.3027 55.3203 60.3027 51.6582C60.3027 46.0918 64.2578 40.6719 64.2578 34.959C64.2578 25.291 50.4883 27.0488 50.4883 38.7676C50.4883 41.2578 50.7812 43.8945 51.9531 46.2383C49.9023 54.8809 45.8008 67.918 45.8008 76.8535C45.8008 79.6367 46.0938 82.2734 46.3867 85.0566C46.8262 85.6426 46.6797 85.6426 47.4121 85.3496C54.7363 75.2422 54.5898 73.1914 57.8125 60.0078C59.7168 63.377 64.2578 65.2812 68.0664 65.2812C83.5938 65.2812 90.625 50.0469 90.625 36.4238C90.625 21.9219 78.0273 12.4004 64.2578 12.4004Z" fill="#5E5E5E" fill-opacity="0.45"/>
<path d="M65.2578 12.4004C50.1699 12.4004 35.375 22.3613 35.375 38.6211C35.375 48.875 41.0879 54.7344 44.6035 54.7344C46.0684 54.7344 46.9473 50.7793 46.9473 49.6074C46.9473 48.2891 43.4316 45.3594 43.4316 39.6465C43.4316 27.9277 52.3672 19.5781 63.9395 19.5781C74.0469 19.5781 81.3711 25.291 81.3711 35.6914C81.3711 43.4551 78.2949 57.957 68.1875 57.957C64.5254 57.957 61.3027 55.3203 61.3027 51.6582C61.3027 46.0918 65.2578 40.6719 65.2578 34.959C65.2578 25.291 51.4883 27.0488 51.4883 38.7676C51.4883 41.2578 51.7812 43.8945 52.9531 46.2383C50.9023 54.8809 46.8008 67.918 46.8008 76.8535C46.8008 79.6367 47.0938 82.2734 47.3867 85.0566C47.8262 85.6426 47.6797 85.6426 48.4121 85.3496C55.7363 75.2422 55.5898 73.1914 58.8125 60.0078C60.7168 63.377 65.2578 65.2812 69.0664 65.2812C84.5938 65.2812 91.625 50.0469 91.625 36.4238C91.625 21.9219 79.0273 12.4004 65.2578 12.4004Z" fill="white"/>
<path d="M153.576 52.3008V69H147.951V26.3438H163.684C168.352 26.3438 172.004 27.5352 174.641 29.918C177.297 32.3008 178.625 35.4551 178.625 39.3809C178.625 43.5215 177.326 46.7148 174.729 48.9609C172.15 51.1875 168.449 52.3008 163.625 52.3008H153.576ZM153.576 47.7012H163.684C166.691 47.7012 168.996 46.998 170.598 45.5918C172.199 44.166 173 42.1152 173 39.4395C173 36.9004 172.199 34.8691 170.598 33.3457C168.996 31.8223 166.799 31.0312 164.006 30.9727H153.576V47.7012ZM190.842 69H185.422V37.3008H190.842V69ZM184.982 28.8926C184.982 28.0137 185.246 27.2715 185.773 26.666C186.32 26.0605 187.121 25.7578 188.176 25.7578C189.23 25.7578 190.031 26.0605 190.578 26.666C191.125 27.2715 191.398 28.0137 191.398 28.8926C191.398 29.7715 191.125 30.5039 190.578 31.0898C190.031 31.6758 189.23 31.9688 188.176 31.9688C187.121 31.9688 186.32 31.6758 185.773 31.0898C185.246 30.5039 184.982 29.7715 184.982 28.8926ZM204.67 37.3008L204.846 41.2852C207.268 38.2383 210.432 36.7148 214.338 36.7148C221.037 36.7148 224.416 40.4941 224.475 48.0527V69H219.055V48.0234C219.035 45.7383 218.508 44.0488 217.473 42.9551C216.457 41.8613 214.865 41.3145 212.697 41.3145C210.939 41.3145 209.396 41.7832 208.068 42.7207C206.74 43.6582 205.705 44.8887 204.963 46.4121V69H199.543V37.3008H204.67ZM240.002 29.625V37.3008H245.92V41.4902H240.002V61.1484C240.002 62.418 240.266 63.375 240.793 64.0195C241.32 64.6445 242.219 64.957 243.488 64.957C244.113 64.957 244.973 64.8398 246.066 64.6055V69C244.641 69.3906 243.254 69.5859 241.906 69.5859C239.484 69.5859 237.658 68.8535 236.428 67.3887C235.197 65.9238 234.582 63.8438 234.582 61.1484V41.4902H228.811V37.3008H234.582V29.625H240.002ZM265.432 69.5859C261.135 69.5859 257.639 68.1797 254.943 65.3672C252.248 62.5352 250.9 58.7559 250.9 54.0293V53.0332C250.9 49.8887 251.496 47.0859 252.688 44.625C253.898 42.1445 255.578 40.2109 257.727 38.8242C259.895 37.418 262.238 36.7148 264.758 36.7148C268.879 36.7148 272.082 38.0723 274.367 40.7871C276.652 43.502 277.795 47.3887 277.795 52.4473V54.7031H256.32C256.398 57.8281 257.307 60.3574 259.045 62.291C260.803 64.2051 263.029 65.1621 265.725 65.1621C267.639 65.1621 269.26 64.7715 270.588 63.9902C271.916 63.209 273.078 62.1738 274.074 60.8848L277.385 63.4629C274.729 67.5449 270.744 69.5859 265.432 69.5859ZM264.758 41.168C262.57 41.168 260.734 41.9688 259.25 43.5703C257.766 45.1523 256.848 47.3789 256.496 50.25H272.375V49.8398C272.219 47.0859 271.477 44.957 270.148 43.4531C268.82 41.9297 267.023 41.168 264.758 41.168ZM299.416 42.1641C298.596 42.0273 297.707 41.959 296.75 41.959C293.195 41.959 290.783 43.4727 289.514 46.5V69H284.094V37.3008H289.367L289.455 40.9629C291.232 38.1309 293.752 36.7148 297.014 36.7148C298.068 36.7148 298.869 36.8516 299.416 37.125V42.1641ZM316.994 69.5859C312.697 69.5859 309.201 68.1797 306.506 65.3672C303.811 62.5352 302.463 58.7559 302.463 54.0293V53.0332C302.463 49.8887 303.059 47.0859 304.25 44.625C305.461 42.1445 307.141 40.2109 309.289 38.8242C311.457 37.418 313.801 36.7148 316.32 36.7148C320.441 36.7148 323.645 38.0723 325.93 40.7871C328.215 43.502 329.357 47.3887 329.357 52.4473V54.7031H307.883C307.961 57.8281 308.869 60.3574 310.607 62.291C312.365 64.2051 314.592 65.1621 317.287 65.1621C319.201 65.1621 320.822 64.7715 322.15 63.9902C323.479 63.209 324.641 62.1738 325.637 60.8848L328.947 63.4629C326.291 67.5449 322.307 69.5859 316.994 69.5859ZM316.32 41.168C314.133 41.168 312.297 41.9688 310.812 43.5703C309.328 45.1523 308.41 47.3789 308.059 50.25H323.938V49.8398C323.781 47.0859 323.039 44.957 321.711 43.4531C320.383 41.9297 318.586 41.168 316.32 41.168ZM354.113 60.5918C354.113 59.127 353.557 57.9941 352.443 57.1934C351.35 56.373 349.426 55.6699 346.672 55.084C343.938 54.498 341.76 53.7949 340.139 52.9746C338.537 52.1543 337.346 51.1777 336.564 50.0449C335.803 48.9121 335.422 47.5645 335.422 46.002C335.422 43.4043 336.516 41.207 338.703 39.4102C340.91 37.6133 343.723 36.7148 347.141 36.7148C350.734 36.7148 353.645 37.6426 355.871 39.498C358.117 41.3535 359.24 43.7266 359.24 46.6172H353.791C353.791 45.1328 353.156 43.8535 351.887 42.7793C350.637 41.7051 349.055 41.168 347.141 41.168C345.168 41.168 343.625 41.5977 342.512 42.457C341.398 43.3164 340.842 44.4395 340.842 45.8262C340.842 47.1348 341.359 48.1211 342.395 48.7852C343.43 49.4492 345.295 50.084 347.99 50.6895C350.705 51.2949 352.902 52.0176 354.582 52.8574C356.262 53.6973 357.502 54.7129 358.303 55.9043C359.123 57.0762 359.533 58.5117 359.533 60.2109C359.533 63.043 358.4 65.3184 356.135 67.0371C353.869 68.7363 350.93 69.5859 347.316 69.5859C344.777 69.5859 342.531 69.1367 340.578 68.2383C338.625 67.3398 337.092 66.0898 335.979 64.4883C334.885 62.8672 334.338 61.1191 334.338 59.2441H339.758C339.855 61.0605 340.578 62.5059 341.926 63.5801C343.293 64.6348 345.09 65.1621 347.316 65.1621C349.367 65.1621 351.008 64.752 352.238 63.9316C353.488 63.0918 354.113 61.9785 354.113 60.5918ZM373.947 29.625V37.3008H379.865V41.4902H373.947V61.1484C373.947 62.418 374.211 63.375 374.738 64.0195C375.266 64.6445 376.164 64.957 377.434 64.957C378.059 64.957 378.918 64.8398 380.012 64.6055V69C378.586 69.3906 377.199 69.5859 375.852 69.5859C373.43 69.5859 371.604 68.8535 370.373 67.3887C369.143 65.9238 368.527 63.8438 368.527 61.1484V41.4902H362.756V37.3008H368.527V29.625H373.947Z" fill="#5E5E5E" fill-opacity="0.45"/>
<path d="M154.576 52.3008V69H148.951V26.3438H164.684C169.352 26.3438 173.004 27.5352 175.641 29.918C178.297 32.3008 179.625 35.4551 179.625 39.3809C179.625 43.5215 178.326 46.7148 175.729 48.9609C173.15 51.1875 169.449 52.3008 164.625 52.3008H154.576ZM154.576 47.7012H164.684C167.691 47.7012 169.996 46.998 171.598 45.5918C173.199 44.166 174 42.1152 174 39.4395C174 36.9004 173.199 34.8691 171.598 33.3457C169.996 31.8223 167.799 31.0312 165.006 30.9727H154.576V47.7012ZM191.842 69H186.422V37.3008H191.842V69ZM185.982 28.8926C185.982 28.0137 186.246 27.2715 186.773 26.666C187.32 26.0605 188.121 25.7578 189.176 25.7578C190.23 25.7578 191.031 26.0605 191.578 26.666C192.125 27.2715 192.398 28.0137 192.398 28.8926C192.398 29.7715 192.125 30.5039 191.578 31.0898C191.031 31.6758 190.23 31.9688 189.176 31.9688C188.121 31.9688 187.32 31.6758 186.773 31.0898C186.246 30.5039 185.982 29.7715 185.982 28.8926ZM205.67 37.3008L205.846 41.2852C208.268 38.2383 211.432 36.7148 215.338 36.7148C222.037 36.7148 225.416 40.4941 225.475 48.0527V69H220.055V48.0234C220.035 45.7383 219.508 44.0488 218.473 42.9551C217.457 41.8613 215.865 41.3145 213.697 41.3145C211.939 41.3145 210.396 41.7832 209.068 42.7207C207.74 43.6582 206.705 44.8887 205.963 46.4121V69H200.543V37.3008H205.67ZM241.002 29.625V37.3008H246.92V41.4902H241.002V61.1484C241.002 62.418 241.266 63.375 241.793 64.0195C242.32 64.6445 243.219 64.957 244.488 64.957C245.113 64.957 245.973 64.8398 247.066 64.6055V69C245.641 69.3906 244.254 69.5859 242.906 69.5859C240.484 69.5859 238.658 68.8535 237.428 67.3887C236.197 65.9238 235.582 63.8438 235.582 61.1484V41.4902H229.811V37.3008H235.582V29.625H241.002ZM266.432 69.5859C262.135 69.5859 258.639 68.1797 255.943 65.3672C253.248 62.5352 251.9 58.7559 251.9 54.0293V53.0332C251.9 49.8887 252.496 47.0859 253.688 44.625C254.898 42.1445 256.578 40.2109 258.727 38.8242C260.895 37.418 263.238 36.7148 265.758 36.7148C269.879 36.7148 273.082 38.0723 275.367 40.7871C277.652 43.502 278.795 47.3887 278.795 52.4473V54.7031H257.32C257.398 57.8281 258.307 60.3574 260.045 62.291C261.803 64.2051 264.029 65.1621 266.725 65.1621C268.639 65.1621 270.26 64.7715 271.588 63.9902C272.916 63.209 274.078 62.1738 275.074 60.8848L278.385 63.4629C275.729 67.5449 271.744 69.5859 266.432 69.5859ZM265.758 41.168C263.57 41.168 261.734 41.9688 260.25 43.5703C258.766 45.1523 257.848 47.3789 257.496 50.25H273.375V49.8398C273.219 47.0859 272.477 44.957 271.148 43.4531C269.82 41.9297 268.023 41.168 265.758 41.168ZM300.416 42.1641C299.596 42.0273 298.707 41.959 297.75 41.959C294.195 41.959 291.783 43.4727 290.514 46.5V69H285.094V37.3008H290.367L290.455 40.9629C292.232 38.1309 294.752 36.7148 298.014 36.7148C299.068 36.7148 299.869 36.8516 300.416 37.125V42.1641ZM317.994 69.5859C313.697 69.5859 310.201 68.1797 307.506 65.3672C304.811 62.5352 303.463 58.7559 303.463 54.0293V53.0332C303.463 49.8887 304.059 47.0859 305.25 44.625C306.461 42.1445 308.141 40.2109 310.289 38.8242C312.457 37.418 314.801 36.7148 317.32 36.7148C321.441 36.7148 324.645 38.0723 326.93 40.7871C329.215 43.502 330.357 47.3887 330.357 52.4473V54.7031H308.883C308.961 57.8281 309.869 60.3574 311.607 62.291C313.365 64.2051 315.592 65.1621 318.287 65.1621C320.201 65.1621 321.822 64.7715 323.15 63.9902C324.479 63.209 325.641 62.1738 326.637 60.8848L329.947 63.4629C327.291 67.5449 323.307 69.5859 317.994 69.5859ZM317.32 41.168C315.133 41.168 313.297 41.9688 311.812 43.5703C310.328 45.1523 309.41 47.3789 309.059 50.25H324.938V49.8398C324.781 47.0859 324.039 44.957 322.711 43.4531C321.383 41.9297 319.586 41.168 317.32 41.168ZM355.113 60.5918C355.113 59.127 354.557 57.9941 353.443 57.1934C352.35 56.373 350.426 55.6699 347.672 55.084C344.938 54.498 342.76 53.7949 341.139 52.9746C339.537 52.1543 338.346 51.1777 337.564 50.0449C336.803 48.9121 336.422 47.5645 336.422 46.002C336.422 43.4043 337.516 41.207 339.703 39.4102C341.91 37.6133 344.723 36.7148 348.141 36.7148C351.734 36.7148 354.645 37.6426 356.871 39.498C359.117 41.3535 360.24 43.7266 360.24 46.6172H354.791C354.791 45.1328 354.156 43.8535 352.887 42.7793C351.637 41.7051 350.055 41.168 348.141 41.168C346.168 41.168 344.625 41.5977 343.512 42.457C342.398 43.3164 341.842 44.4395 341.842 45.8262C341.842 47.1348 342.359 48.1211 343.395 48.7852C344.43 49.4492 346.295 50.084 348.99 50.6895C351.705 51.2949 353.902 52.0176 355.582 52.8574C357.262 53.6973 358.502 54.7129 359.303 55.9043C360.123 57.0762 360.533 58.5117 360.533 60.2109C360.533 63.043 359.4 65.3184 357.135 67.0371C354.869 68.7363 351.93 69.5859 348.316 69.5859C345.777 69.5859 343.531 69.1367 341.578 68.2383C339.625 67.3398 338.092 66.0898 336.979 64.4883C335.885 62.8672 335.338 61.1191 335.338 59.2441H340.758C340.855 61.0605 341.578 62.5059 342.926 63.5801C344.293 64.6348 346.09 65.1621 348.316 65.1621C350.367 65.1621 352.008 64.752 353.238 63.9316C354.488 63.0918 355.113 61.9785 355.113 60.5918ZM374.947 29.625V37.3008H380.865V41.4902H374.947V61.1484C374.947 62.418 375.211 63.375 375.738 64.0195C376.266 64.6445 377.164 64.957 378.434 64.957C379.059 64.957 379.918 64.8398 381.012 64.6055V69C379.586 69.3906 378.199 69.5859 376.852 69.5859C374.43 69.5859 372.604 68.8535 371.373 67.3887C370.143 65.9238 369.527 63.8438 369.527 61.1484V41.4902H363.756V37.3008H369.527V29.625H374.947Z" fill="white"/>
<defs>
<linearGradient id="paint0_linear" x1="54" y1="-10" x2="54" y2="114" gradientUnits="userSpaceOnUse">
<stop stop-color="white" stop-opacity="0"/>
<stop offset="1" stop-opacity="0.33"/>
</linearGradient>
<linearGradient id="paint1_linear" x1="315.5" y1="-10" x2="315.5" y2="114" gradientUnits="userSpaceOnUse">
<stop stop-opacity="0.78"/>
<stop offset="0.454792" stop-color="#242424"/>
<stop offset="1" stop-color="#020202"/>
</linearGradient>
</defs>
</svg>
