<svg width="500" height="97" viewBox="0 0 500 97" fill="none" xmlns="http://www.w3.org/2000/svg">
<mask id="mask0" mask-type="alpha" maskUnits="userSpaceOnUse" x="0" y="0" width="500" height="97">
<rect width="500" height="97" rx="15" fill="white"/>
</mask>
<g mask="url(#mask0)">
<rect x="-15" y="-10" width="138" height="124" fill="#269DD8"/>
<rect x="-15" y="-10" width="138" height="124" fill="url(#paint0_linear)" fill-opacity="0.6"/>
<rect x="123" y="-10" width="385" height="124" fill="url(#paint1_linear)"/>
<path d="M527.047 -13.7939C529.156 -23.6377 523.531 -27.5049 517.203 -25.0439L377.281 28.7451C367.789 32.6123 368.141 37.8858 375.875 40.3467L411.383 51.2451L494.352 -0.786102C498.219 -3.5986 502.086 -1.84079 498.922 0.620148L431.773 61.0889L429.313 98.003C433.18 98.003 434.586 96.5967 436.695 94.4873L453.922 77.6123L490.133 104.331C496.813 108.198 501.734 106.089 503.492 98.3545L527.047 -13.7939Z" fill="white" fill-opacity="0.07"/>
</g>
<path d="M95.0195 25.877C95.8984 21.7754 93.5547 20.1641 90.918 21.1895L32.6172 43.6016C28.6621 45.2129 28.8086 47.4102 32.0312 48.4355L46.8262 52.9766L81.3965 31.2969C83.0078 30.125 84.6191 30.8574 83.3008 31.8828L55.3223 57.0781L54.2969 72.459C55.9082 72.459 56.4941 71.873 57.373 70.9941L64.5508 63.9629L79.6387 75.0957C82.4219 76.707 84.4727 75.8281 85.2051 72.6055L95.0195 25.877Z" fill="#5E5E5E" fill-opacity="0.45"/>
<path d="M96.0195 25.877C96.8984 21.7754 94.5547 20.1641 91.918 21.1895L33.6172 43.6016C29.6621 45.2129 29.8086 47.4102 33.0312 48.4355L47.8262 52.9766L82.3965 31.2969C84.0078 30.125 85.6191 30.8574 84.3008 31.8828L56.3223 57.0781L55.2969 72.459C56.9082 72.459 57.4941 71.873 58.373 70.9941L65.5508 63.9629L80.6387 75.0957C83.4219 76.707 85.4727 75.8281 86.2051 72.6055L96.0195 25.877Z" fill="white"/>
<path d="M177.424 30.9727H163.713V69H158.117V30.9727H144.436V26.3438H177.424V30.9727ZM193.127 69.5859C188.83 69.5859 185.334 68.1797 182.639 65.3672C179.943 62.5352 178.596 58.7559 178.596 54.0293V53.0332C178.596 49.8887 179.191 47.0859 180.383 44.625C181.594 42.1445 183.273 40.2109 185.422 38.8242C187.59 37.418 189.934 36.7148 192.453 36.7148C196.574 36.7148 199.777 38.0723 202.062 40.7871C204.348 43.502 205.49 47.3887 205.49 52.4473V54.7031H184.016C184.094 57.8281 185.002 60.3574 186.74 62.291C188.498 64.2051 190.725 65.1621 193.42 65.1621C195.334 65.1621 196.955 64.7715 198.283 63.9902C199.611 63.209 200.773 62.1738 201.77 60.8848L205.08 63.4629C202.424 67.5449 198.439 69.5859 193.127 69.5859ZM192.453 41.168C190.266 41.168 188.43 41.9688 186.945 43.5703C185.461 45.1523 184.543 47.3789 184.191 50.25H200.07V49.8398C199.914 47.0859 199.172 44.957 197.844 43.4531C196.516 41.9297 194.719 41.168 192.453 41.168ZM217.678 69H212.258V24H217.678V69ZM239.533 69.5859C235.236 69.5859 231.74 68.1797 229.045 65.3672C226.35 62.5352 225.002 58.7559 225.002 54.0293V53.0332C225.002 49.8887 225.598 47.0859 226.789 44.625C228 42.1445 229.68 40.2109 231.828 38.8242C233.996 37.418 236.34 36.7148 238.859 36.7148C242.98 36.7148 246.184 38.0723 248.469 40.7871C250.754 43.502 251.896 47.3887 251.896 52.4473V54.7031H230.422C230.5 57.8281 231.408 60.3574 233.146 62.291C234.904 64.2051 237.131 65.1621 239.826 65.1621C241.74 65.1621 243.361 64.7715 244.689 63.9902C246.018 63.209 247.18 62.1738 248.176 60.8848L251.486 63.4629C248.83 67.5449 244.846 69.5859 239.533 69.5859ZM238.859 41.168C236.672 41.168 234.836 41.9688 233.352 43.5703C231.867 45.1523 230.949 47.3789 230.598 50.25H246.477V49.8398C246.32 47.0859 245.578 44.957 244.25 43.4531C242.922 41.9297 241.125 41.168 238.859 41.168ZM256.906 52.8867C256.906 47.9453 258.049 44.0195 260.334 41.1094C262.619 38.1797 265.646 36.7148 269.416 36.7148C273.283 36.7148 276.301 38.082 278.469 40.8164L278.732 37.3008H283.684V68.2383C283.684 72.3398 282.463 75.5723 280.021 77.9355C277.6 80.2988 274.338 81.4805 270.236 81.4805C267.951 81.4805 265.715 80.9922 263.527 80.0156C261.34 79.0391 259.67 77.7012 258.518 76.002L261.33 72.75C263.654 75.6211 266.496 77.0566 269.855 77.0566C272.492 77.0566 274.543 76.3145 276.008 74.8301C277.492 73.3457 278.234 71.2559 278.234 68.5605V65.8359C276.066 68.3359 273.107 69.5859 269.357 69.5859C265.646 69.5859 262.639 68.0918 260.334 65.1035C258.049 62.1152 256.906 58.043 256.906 52.8867ZM262.355 53.502C262.355 57.0762 263.088 59.8887 264.553 61.9395C266.018 63.9707 268.068 64.9863 270.705 64.9863C274.123 64.9863 276.633 63.4336 278.234 60.3281V45.8555C276.574 42.8281 274.084 41.3145 270.764 41.3145C268.127 41.3145 266.066 42.3398 264.582 44.3906C263.098 46.4414 262.355 49.4785 262.355 53.502ZM307.209 42.1641C306.389 42.0273 305.5 41.959 304.543 41.959C300.988 41.959 298.576 43.4727 297.307 46.5V69H291.887V37.3008H297.16L297.248 40.9629C299.025 38.1309 301.545 36.7148 304.807 36.7148C305.861 36.7148 306.662 36.8516 307.209 37.125V42.1641ZM330.617 69C330.305 68.375 330.051 67.2617 329.855 65.6602C327.336 68.2773 324.328 69.5859 320.832 69.5859C317.707 69.5859 315.139 68.707 313.127 66.9492C311.135 65.1719 310.139 62.9258 310.139 60.2109C310.139 56.9102 311.389 54.3516 313.889 52.5352C316.408 50.6992 319.943 49.7812 324.494 49.7812H329.768V47.291C329.768 45.3965 329.201 43.8926 328.068 42.7793C326.936 41.6465 325.266 41.0801 323.059 41.0801C321.125 41.0801 319.504 41.5684 318.195 42.5449C316.887 43.5215 316.232 44.7031 316.232 46.0898H310.783C310.783 44.5078 311.34 42.9844 312.453 41.5195C313.586 40.0352 315.109 38.8633 317.023 38.0039C318.957 37.1445 321.076 36.7148 323.381 36.7148C327.033 36.7148 329.895 37.6328 331.965 39.4688C334.035 41.2852 335.109 43.7949 335.188 46.998V61.5879C335.188 64.498 335.559 66.8125 336.301 68.5312V69H330.617ZM321.623 64.8691C323.322 64.8691 324.934 64.4297 326.457 63.5508C327.98 62.6719 329.084 61.5293 329.768 60.123V53.6191H325.52C318.879 53.6191 315.559 55.5625 315.559 59.4492C315.559 61.1484 316.125 62.4766 317.258 63.4336C318.391 64.3906 319.846 64.8691 321.623 64.8691ZM348.811 37.3008L348.986 41.2852C351.408 38.2383 354.572 36.7148 358.479 36.7148C365.178 36.7148 368.557 40.4941 368.615 48.0527V69H363.195V48.0234C363.176 45.7383 362.648 44.0488 361.613 42.9551C360.598 41.8613 359.006 41.3145 356.838 41.3145C355.08 41.3145 353.537 41.7832 352.209 42.7207C350.881 43.6582 349.846 44.8887 349.104 46.4121V69H343.684V37.3008H348.811Z" fill="#5E5E5E" fill-opacity="0.45"/>
<path d="M178.424 30.9727H164.713V69H159.117V30.9727H145.436V26.3438H178.424V30.9727ZM194.127 69.5859C189.83 69.5859 186.334 68.1797 183.639 65.3672C180.943 62.5352 179.596 58.7559 179.596 54.0293V53.0332C179.596 49.8887 180.191 47.0859 181.383 44.625C182.594 42.1445 184.273 40.2109 186.422 38.8242C188.59 37.418 190.934 36.7148 193.453 36.7148C197.574 36.7148 200.777 38.0723 203.062 40.7871C205.348 43.502 206.49 47.3887 206.49 52.4473V54.7031H185.016C185.094 57.8281 186.002 60.3574 187.74 62.291C189.498 64.2051 191.725 65.1621 194.42 65.1621C196.334 65.1621 197.955 64.7715 199.283 63.9902C200.611 63.209 201.773 62.1738 202.77 60.8848L206.08 63.4629C203.424 67.5449 199.439 69.5859 194.127 69.5859ZM193.453 41.168C191.266 41.168 189.43 41.9688 187.945 43.5703C186.461 45.1523 185.543 47.3789 185.191 50.25H201.07V49.8398C200.914 47.0859 200.172 44.957 198.844 43.4531C197.516 41.9297 195.719 41.168 193.453 41.168ZM218.678 69H213.258V24H218.678V69ZM240.533 69.5859C236.236 69.5859 232.74 68.1797 230.045 65.3672C227.35 62.5352 226.002 58.7559 226.002 54.0293V53.0332C226.002 49.8887 226.598 47.0859 227.789 44.625C229 42.1445 230.68 40.2109 232.828 38.8242C234.996 37.418 237.34 36.7148 239.859 36.7148C243.98 36.7148 247.184 38.0723 249.469 40.7871C251.754 43.502 252.896 47.3887 252.896 52.4473V54.7031H231.422C231.5 57.8281 232.408 60.3574 234.146 62.291C235.904 64.2051 238.131 65.1621 240.826 65.1621C242.74 65.1621 244.361 64.7715 245.689 63.9902C247.018 63.209 248.18 62.1738 249.176 60.8848L252.486 63.4629C249.83 67.5449 245.846 69.5859 240.533 69.5859ZM239.859 41.168C237.672 41.168 235.836 41.9688 234.352 43.5703C232.867 45.1523 231.949 47.3789 231.598 50.25H247.477V49.8398C247.32 47.0859 246.578 44.957 245.25 43.4531C243.922 41.9297 242.125 41.168 239.859 41.168ZM257.906 52.8867C257.906 47.9453 259.049 44.0195 261.334 41.1094C263.619 38.1797 266.646 36.7148 270.416 36.7148C274.283 36.7148 277.301 38.082 279.469 40.8164L279.732 37.3008H284.684V68.2383C284.684 72.3398 283.463 75.5723 281.021 77.9355C278.6 80.2988 275.338 81.4805 271.236 81.4805C268.951 81.4805 266.715 80.9922 264.527 80.0156C262.34 79.0391 260.67 77.7012 259.518 76.002L262.33 72.75C264.654 75.6211 267.496 77.0566 270.855 77.0566C273.492 77.0566 275.543 76.3145 277.008 74.8301C278.492 73.3457 279.234 71.2559 279.234 68.5605V65.8359C277.066 68.3359 274.107 69.5859 270.357 69.5859C266.646 69.5859 263.639 68.0918 261.334 65.1035C259.049 62.1152 257.906 58.043 257.906 52.8867ZM263.355 53.502C263.355 57.0762 264.088 59.8887 265.553 61.9395C267.018 63.9707 269.068 64.9863 271.705 64.9863C275.123 64.9863 277.633 63.4336 279.234 60.3281V45.8555C277.574 42.8281 275.084 41.3145 271.764 41.3145C269.127 41.3145 267.066 42.3398 265.582 44.3906C264.098 46.4414 263.355 49.4785 263.355 53.502ZM308.209 42.1641C307.389 42.0273 306.5 41.959 305.543 41.959C301.988 41.959 299.576 43.4727 298.307 46.5V69H292.887V37.3008H298.16L298.248 40.9629C300.025 38.1309 302.545 36.7148 305.807 36.7148C306.861 36.7148 307.662 36.8516 308.209 37.125V42.1641ZM331.617 69C331.305 68.375 331.051 67.2617 330.855 65.6602C328.336 68.2773 325.328 69.5859 321.832 69.5859C318.707 69.5859 316.139 68.707 314.127 66.9492C312.135 65.1719 311.139 62.9258 311.139 60.2109C311.139 56.9102 312.389 54.3516 314.889 52.5352C317.408 50.6992 320.943 49.7812 325.494 49.7812H330.768V47.291C330.768 45.3965 330.201 43.8926 329.068 42.7793C327.936 41.6465 326.266 41.0801 324.059 41.0801C322.125 41.0801 320.504 41.5684 319.195 42.5449C317.887 43.5215 317.232 44.7031 317.232 46.0898H311.783C311.783 44.5078 312.34 42.9844 313.453 41.5195C314.586 40.0352 316.109 38.8633 318.023 38.0039C319.957 37.1445 322.076 36.7148 324.381 36.7148C328.033 36.7148 330.895 37.6328 332.965 39.4688C335.035 41.2852 336.109 43.7949 336.188 46.998V61.5879C336.188 64.498 336.559 66.8125 337.301 68.5312V69H331.617ZM322.623 64.8691C324.322 64.8691 325.934 64.4297 327.457 63.5508C328.98 62.6719 330.084 61.5293 330.768 60.123V53.6191H326.52C319.879 53.6191 316.559 55.5625 316.559 59.4492C316.559 61.1484 317.125 62.4766 318.258 63.4336C319.391 64.3906 320.846 64.8691 322.623 64.8691ZM349.811 37.3008L349.986 41.2852C352.408 38.2383 355.572 36.7148 359.479 36.7148C366.178 36.7148 369.557 40.4941 369.615 48.0527V69H364.195V48.0234C364.176 45.7383 363.648 44.0488 362.613 42.9551C361.598 41.8613 360.006 41.3145 357.838 41.3145C356.08 41.3145 354.537 41.7832 353.209 42.7207C351.881 43.6582 350.846 44.8887 350.104 46.4121V69H344.684V37.3008H349.811Z" fill="white"/>
<defs>
<linearGradient id="paint0_linear" x1="54" y1="-10" x2="54" y2="114" gradientUnits="userSpaceOnUse">
<stop stop-color="white" stop-opacity="0"/>
<stop offset="1" stop-opacity="0.33"/>
</linearGradient>
<linearGradient id="paint1_linear" x1="315.5" y1="-10" x2="315.5" y2="114" gradientUnits="userSpaceOnUse">
<stop stop-opacity="0.78"/>
<stop offset="0.454792" stop-color="#242424"/>
<stop offset="1" stop-color="#020202"/>
</linearGradient>
</defs>
</svg>
