<svg width="500" height="97" viewBox="0 0 500 97" fill="none" xmlns="http://www.w3.org/2000/svg">
<mask id="mask0" mask-type="alpha" maskUnits="userSpaceOnUse" x="0" y="0" width="500" height="97">
<rect width="500" height="97" rx="15" fill="white"/>
</mask>
<g mask="url(#mask0)">
<rect x="-15" y="-10" width="138" height="124" fill="#25D366"/>
<rect x="-15" y="-10" width="138" height="124" fill="url(#paint0_linear)" fill-opacity="0.6"/>
<rect x="123" y="-10" width="385" height="124" fill="url(#paint1_linear)"/>
<path d="M503.844 -14.1455C489.43 -28.9111 469.742 -37.3486 448.648 -37.3486C405.758 -37.3486 370.602 -2.19234 370.602 40.6983C370.602 54.7608 374.469 68.1202 381.148 79.7217L370.25 120.151L411.383 109.605C422.984 115.581 435.641 119.097 448.648 119.097C491.891 119.097 527.75 83.9405 527.75 41.0499C527.75 19.9561 518.609 0.620163 503.844 -14.1455ZM448.648 105.737C437.047 105.737 425.797 102.573 415.602 96.5967L413.492 95.1905L388.883 101.87L395.563 77.9639L393.805 75.503C387.477 64.9561 383.961 53.003 383.961 40.6983C383.961 5.19048 413.141 -23.9892 449 -23.9892C466.227 -23.9892 482.398 -17.3095 494.703 -5.00484C507.008 7.29985 514.391 23.4717 514.391 41.0499C514.391 76.5577 484.508 105.737 448.648 105.737ZM484.508 57.2217C482.398 56.167 472.906 51.5967 471.148 50.8936C469.391 50.1905 467.984 49.8389 466.578 51.9483C465.523 53.7061 461.656 58.2764 460.602 59.6827C459.195 60.7374 458.141 61.0889 456.383 60.0342C444.781 54.4092 437.398 49.8389 429.664 36.8311C427.555 33.3155 431.773 33.667 435.289 26.2842C435.992 24.878 435.641 23.8233 435.289 22.7686C434.938 21.7139 430.719 12.2217 429.313 8.35454C427.555 4.48735 426.148 4.83891 424.742 4.83891C423.688 4.83891 422.281 4.83891 421.227 4.83891C419.82 4.83891 417.711 5.19048 415.953 7.29985C414.195 9.40923 409.273 13.9795 409.273 23.4717C409.273 33.3155 415.953 42.4561 417.008 43.8624C418.063 44.917 430.719 64.6045 450.406 73.042C462.711 78.667 467.633 79.0186 473.961 77.9639C477.477 77.6124 485.211 73.3936 486.969 68.8233C488.727 64.253 488.727 60.3858 488.023 59.6827C487.672 58.628 486.266 58.2764 484.508 57.2217Z" fill="white" fill-opacity="0.07"/>
</g>
<path d="M85.3516 25.7305C79.3457 19.5781 71.1426 16.0625 62.3535 16.0625C44.4824 16.0625 29.834 30.7109 29.834 48.582C29.834 54.4414 31.4453 60.0078 34.2285 64.8418L29.6875 81.6875L46.8262 77.293C51.6602 79.7832 56.9336 81.248 62.3535 81.248C80.3711 81.248 95.3125 66.5996 95.3125 48.7285C95.3125 39.9395 91.5039 31.8828 85.3516 25.7305ZM62.3535 75.6816C57.5195 75.6816 52.832 74.3633 48.584 71.873L47.7051 71.2871L37.4512 74.0703L40.2344 64.1094L39.502 63.084C36.8652 58.6895 35.4004 53.709 35.4004 48.582C35.4004 33.7871 47.5586 21.6289 62.5 21.6289C69.6777 21.6289 76.416 24.4121 81.543 29.5391C86.6699 34.666 89.7461 41.4043 89.7461 48.7285C89.7461 63.5234 77.2949 75.6816 62.3535 75.6816ZM77.2949 55.4668C76.416 55.0273 72.4609 53.123 71.7285 52.8301C70.9961 52.5371 70.4102 52.3906 69.8242 53.2695C69.3848 54.002 67.7734 55.9062 67.334 56.4922C66.748 56.9316 66.3086 57.0781 65.5762 56.6387C60.7422 54.2949 57.666 52.3906 54.4434 46.9707C53.5645 45.5059 55.3223 45.6523 56.7871 42.5762C57.0801 41.9902 56.9336 41.5508 56.7871 41.1113C56.6406 40.6719 54.8828 36.7168 54.2969 35.1055C53.5645 33.4941 52.9785 33.6406 52.3926 33.6406C51.9531 33.6406 51.3672 33.6406 50.9277 33.6406C50.3418 33.6406 49.4629 33.7871 48.7305 34.666C47.998 35.5449 45.9473 37.4492 45.9473 41.4043C45.9473 45.5059 48.7305 49.3145 49.1699 49.9004C49.6094 50.3398 54.8828 58.543 63.0859 62.0586C68.2129 64.4023 70.2637 64.5488 72.9004 64.1094C74.3652 63.9629 77.5879 62.2051 78.3203 60.3008C79.0527 58.3965 79.0527 56.7852 78.7598 56.4922C78.6133 56.0527 78.0273 55.9062 77.2949 55.4668Z" fill="#5E5E5E" fill-opacity="0.45"/>
<path d="M86.3516 25.7305C80.3457 19.5781 72.1426 16.0625 63.3535 16.0625C45.4824 16.0625 30.834 30.7109 30.834 48.582C30.834 54.4414 32.4453 60.0078 35.2285 64.8418L30.6875 81.6875L47.8262 77.293C52.6602 79.7832 57.9336 81.248 63.3535 81.248C81.3711 81.248 96.3125 66.5996 96.3125 48.7285C96.3125 39.9395 92.5039 31.8828 86.3516 25.7305ZM63.3535 75.6816C58.5195 75.6816 53.832 74.3633 49.584 71.873L48.7051 71.2871L38.4512 74.0703L41.2344 64.1094L40.502 63.084C37.8652 58.6895 36.4004 53.709 36.4004 48.582C36.4004 33.7871 48.5586 21.6289 63.5 21.6289C70.6777 21.6289 77.416 24.4121 82.543 29.5391C87.6699 34.666 90.7461 41.4043 90.7461 48.7285C90.7461 63.5234 78.2949 75.6816 63.3535 75.6816ZM78.2949 55.4668C77.416 55.0273 73.4609 53.123 72.7285 52.8301C71.9961 52.5371 71.4102 52.3906 70.8242 53.2695C70.3848 54.002 68.7734 55.9062 68.334 56.4922C67.748 56.9316 67.3086 57.0781 66.5762 56.6387C61.7422 54.2949 58.666 52.3906 55.4434 46.9707C54.5645 45.5059 56.3223 45.6523 57.7871 42.5762C58.0801 41.9902 57.9336 41.5508 57.7871 41.1113C57.6406 40.6719 55.8828 36.7168 55.2969 35.1055C54.5645 33.4941 53.9785 33.6406 53.3926 33.6406C52.9531 33.6406 52.3672 33.6406 51.9277 33.6406C51.3418 33.6406 50.4629 33.7871 49.7305 34.666C48.998 35.5449 46.9473 37.4492 46.9473 41.4043C46.9473 45.5059 49.7305 49.3145 50.1699 49.9004C50.6094 50.3398 55.8828 58.543 64.0859 62.0586C69.2129 64.4023 71.2637 64.5488 73.9004 64.1094C75.3652 63.9629 78.5879 62.2051 79.3203 60.3008C80.0527 58.3965 80.0527 56.7852 79.7598 56.4922C79.6133 56.0527 79.0273 55.9062 78.2949 55.4668Z" fill="white"/>
<path d="M157.15 55.5527L157.971 61.1777L159.172 56.1094L167.609 26.3438H172.355L180.588 56.1094L181.76 61.2656L182.668 55.5234L189.289 26.3438H194.943L184.602 69H179.475L170.686 37.916L170.012 34.6641L169.338 37.916L160.227 69H155.1L144.787 26.3438H150.412L157.15 55.5527ZM205.783 41.1387C208.186 38.1895 211.311 36.7148 215.158 36.7148C221.857 36.7148 225.236 40.4941 225.295 48.0527V69H219.875V48.0234C219.855 45.7383 219.328 44.0488 218.293 42.9551C217.277 41.8613 215.686 41.3145 213.518 41.3145C211.76 41.3145 210.217 41.7832 208.889 42.7207C207.561 43.6582 206.525 44.8887 205.783 46.4121V69H200.363V24H205.783V41.1387ZM252.98 69C252.668 68.375 252.414 67.2617 252.219 65.6602C249.699 68.2773 246.691 69.5859 243.195 69.5859C240.07 69.5859 237.502 68.707 235.49 66.9492C233.498 65.1719 232.502 62.9258 232.502 60.2109C232.502 56.9102 233.752 54.3516 236.252 52.5352C238.771 50.6992 242.307 49.7812 246.857 49.7812H252.131V47.291C252.131 45.3965 251.564 43.8926 250.432 42.7793C249.299 41.6465 247.629 41.0801 245.422 41.0801C243.488 41.0801 241.867 41.5684 240.559 42.5449C239.25 43.5215 238.596 44.7031 238.596 46.0898H233.146C233.146 44.5078 233.703 42.9844 234.816 41.5195C235.949 40.0352 237.473 38.8633 239.387 38.0039C241.32 37.1445 243.439 36.7148 245.744 36.7148C249.396 36.7148 252.258 37.6328 254.328 39.4688C256.398 41.2852 257.473 43.7949 257.551 46.998V61.5879C257.551 64.498 257.922 66.8125 258.664 68.5312V69H252.98ZM243.986 64.8691C245.686 64.8691 247.297 64.4297 248.82 63.5508C250.344 62.6719 251.447 61.5293 252.131 60.123V53.6191H247.883C241.242 53.6191 237.922 55.5625 237.922 59.4492C237.922 61.1484 238.488 62.4766 239.621 63.4336C240.754 64.3906 242.209 64.8691 243.986 64.8691ZM273.4 29.625V37.3008H279.318V41.4902H273.4V61.1484C273.4 62.418 273.664 63.375 274.191 64.0195C274.719 64.6445 275.617 64.957 276.887 64.957C277.512 64.957 278.371 64.8398 279.465 64.6055V69C278.039 69.3906 276.652 69.5859 275.305 69.5859C272.883 69.5859 271.057 68.8535 269.826 67.3887C268.596 65.9238 267.98 63.8438 267.98 61.1484V41.4902H262.209V37.3008H267.98V29.625H273.4ZM304.133 60.5918C304.133 59.127 303.576 57.9941 302.463 57.1934C301.369 56.373 299.445 55.6699 296.691 55.084C293.957 54.498 291.779 53.7949 290.158 52.9746C288.557 52.1543 287.365 51.1777 286.584 50.0449C285.822 48.9121 285.441 47.5645 285.441 46.002C285.441 43.4043 286.535 41.207 288.723 39.4102C290.93 37.6133 293.742 36.7148 297.16 36.7148C300.754 36.7148 303.664 37.6426 305.891 39.498C308.137 41.3535 309.26 43.7266 309.26 46.6172H303.811C303.811 45.1328 303.176 43.8535 301.906 42.7793C300.656 41.7051 299.074 41.168 297.16 41.168C295.188 41.168 293.645 41.5977 292.531 42.457C291.418 43.3164 290.861 44.4395 290.861 45.8262C290.861 47.1348 291.379 48.1211 292.414 48.7852C293.449 49.4492 295.314 50.084 298.01 50.6895C300.725 51.2949 302.922 52.0176 304.602 52.8574C306.281 53.6973 307.521 54.7129 308.322 55.9043C309.143 57.0762 309.553 58.5117 309.553 60.2109C309.553 63.043 308.42 65.3184 306.154 67.0371C303.889 68.7363 300.949 69.5859 297.336 69.5859C294.797 69.5859 292.551 69.1367 290.598 68.2383C288.645 67.3398 287.111 66.0898 285.998 64.4883C284.904 62.8672 284.357 61.1191 284.357 59.2441H289.777C289.875 61.0605 290.598 62.5059 291.945 63.5801C293.312 64.6348 295.109 65.1621 297.336 65.1621C299.387 65.1621 301.027 64.752 302.258 63.9316C303.508 63.0918 304.133 61.9785 304.133 60.5918ZM341.018 57.8672H323.146L319.133 69H313.332L329.621 26.3438H334.543L350.861 69H345.09L341.018 57.8672ZM324.846 53.2383H339.348L332.082 33.2871L324.846 53.2383ZM382.531 53.502C382.531 58.3262 381.428 62.2129 379.221 65.1621C377.014 68.1113 374.025 69.5859 370.256 69.5859C366.408 69.5859 363.381 68.3652 361.174 65.9238V81.1875H355.754V37.3008H360.705L360.969 40.8164C363.176 38.082 366.242 36.7148 370.168 36.7148C373.977 36.7148 376.984 38.1504 379.191 41.0215C381.418 43.8926 382.531 47.8867 382.531 53.0039V53.502ZM377.111 52.8867C377.111 49.3125 376.35 46.4902 374.826 44.4199C373.303 42.3496 371.213 41.3145 368.557 41.3145C365.275 41.3145 362.814 42.7695 361.174 45.6797V60.8262C362.795 63.7168 365.275 65.1621 368.615 65.1621C371.213 65.1621 373.273 64.1367 374.797 62.0859C376.34 60.0156 377.111 56.9492 377.111 52.8867ZM416.223 53.502C416.223 58.3262 415.119 62.2129 412.912 65.1621C410.705 68.1113 407.717 69.5859 403.947 69.5859C400.1 69.5859 397.072 68.3652 394.865 65.9238V81.1875H389.445V37.3008H394.396L394.66 40.8164C396.867 38.082 399.934 36.7148 403.859 36.7148C407.668 36.7148 410.676 38.1504 412.883 41.0215C415.109 43.8926 416.223 47.8867 416.223 53.0039V53.502ZM410.803 52.8867C410.803 49.3125 410.041 46.4902 408.518 44.4199C406.994 42.3496 404.904 41.3145 402.248 41.3145C398.967 41.3145 396.506 42.7695 394.865 45.6797V60.8262C396.486 63.7168 398.967 65.1621 402.307 65.1621C404.904 65.1621 406.965 64.1367 408.488 62.0859C410.031 60.0156 410.803 56.9492 410.803 52.8867Z" fill="#5E5E5E" fill-opacity="0.45"/>
<path d="M158.15 55.5527L158.971 61.1777L160.172 56.1094L168.609 26.3438H173.355L181.588 56.1094L182.76 61.2656L183.668 55.5234L190.289 26.3438H195.943L185.602 69H180.475L171.686 37.916L171.012 34.6641L170.338 37.916L161.227 69H156.1L145.787 26.3438H151.412L158.15 55.5527ZM206.783 41.1387C209.186 38.1895 212.311 36.7148 216.158 36.7148C222.857 36.7148 226.236 40.4941 226.295 48.0527V69H220.875V48.0234C220.855 45.7383 220.328 44.0488 219.293 42.9551C218.277 41.8613 216.686 41.3145 214.518 41.3145C212.76 41.3145 211.217 41.7832 209.889 42.7207C208.561 43.6582 207.525 44.8887 206.783 46.4121V69H201.363V24H206.783V41.1387ZM253.98 69C253.668 68.375 253.414 67.2617 253.219 65.6602C250.699 68.2773 247.691 69.5859 244.195 69.5859C241.07 69.5859 238.502 68.707 236.49 66.9492C234.498 65.1719 233.502 62.9258 233.502 60.2109C233.502 56.9102 234.752 54.3516 237.252 52.5352C239.771 50.6992 243.307 49.7812 247.857 49.7812H253.131V47.291C253.131 45.3965 252.564 43.8926 251.432 42.7793C250.299 41.6465 248.629 41.0801 246.422 41.0801C244.488 41.0801 242.867 41.5684 241.559 42.5449C240.25 43.5215 239.596 44.7031 239.596 46.0898H234.146C234.146 44.5078 234.703 42.9844 235.816 41.5195C236.949 40.0352 238.473 38.8633 240.387 38.0039C242.32 37.1445 244.439 36.7148 246.744 36.7148C250.396 36.7148 253.258 37.6328 255.328 39.4688C257.398 41.2852 258.473 43.7949 258.551 46.998V61.5879C258.551 64.498 258.922 66.8125 259.664 68.5312V69H253.98ZM244.986 64.8691C246.686 64.8691 248.297 64.4297 249.82 63.5508C251.344 62.6719 252.447 61.5293 253.131 60.123V53.6191H248.883C242.242 53.6191 238.922 55.5625 238.922 59.4492C238.922 61.1484 239.488 62.4766 240.621 63.4336C241.754 64.3906 243.209 64.8691 244.986 64.8691ZM274.4 29.625V37.3008H280.318V41.4902H274.4V61.1484C274.4 62.418 274.664 63.375 275.191 64.0195C275.719 64.6445 276.617 64.957 277.887 64.957C278.512 64.957 279.371 64.8398 280.465 64.6055V69C279.039 69.3906 277.652 69.5859 276.305 69.5859C273.883 69.5859 272.057 68.8535 270.826 67.3887C269.596 65.9238 268.98 63.8438 268.98 61.1484V41.4902H263.209V37.3008H268.98V29.625H274.4ZM305.133 60.5918C305.133 59.127 304.576 57.9941 303.463 57.1934C302.369 56.373 300.445 55.6699 297.691 55.084C294.957 54.498 292.779 53.7949 291.158 52.9746C289.557 52.1543 288.365 51.1777 287.584 50.0449C286.822 48.9121 286.441 47.5645 286.441 46.002C286.441 43.4043 287.535 41.207 289.723 39.4102C291.93 37.6133 294.742 36.7148 298.16 36.7148C301.754 36.7148 304.664 37.6426 306.891 39.498C309.137 41.3535 310.26 43.7266 310.26 46.6172H304.811C304.811 45.1328 304.176 43.8535 302.906 42.7793C301.656 41.7051 300.074 41.168 298.16 41.168C296.188 41.168 294.645 41.5977 293.531 42.457C292.418 43.3164 291.861 44.4395 291.861 45.8262C291.861 47.1348 292.379 48.1211 293.414 48.7852C294.449 49.4492 296.314 50.084 299.01 50.6895C301.725 51.2949 303.922 52.0176 305.602 52.8574C307.281 53.6973 308.521 54.7129 309.322 55.9043C310.143 57.0762 310.553 58.5117 310.553 60.2109C310.553 63.043 309.42 65.3184 307.154 67.0371C304.889 68.7363 301.949 69.5859 298.336 69.5859C295.797 69.5859 293.551 69.1367 291.598 68.2383C289.645 67.3398 288.111 66.0898 286.998 64.4883C285.904 62.8672 285.357 61.1191 285.357 59.2441H290.777C290.875 61.0605 291.598 62.5059 292.945 63.5801C294.312 64.6348 296.109 65.1621 298.336 65.1621C300.387 65.1621 302.027 64.752 303.258 63.9316C304.508 63.0918 305.133 61.9785 305.133 60.5918ZM342.018 57.8672H324.146L320.133 69H314.332L330.621 26.3438H335.543L351.861 69H346.09L342.018 57.8672ZM325.846 53.2383H340.348L333.082 33.2871L325.846 53.2383ZM383.531 53.502C383.531 58.3262 382.428 62.2129 380.221 65.1621C378.014 68.1113 375.025 69.5859 371.256 69.5859C367.408 69.5859 364.381 68.3652 362.174 65.9238V81.1875H356.754V37.3008H361.705L361.969 40.8164C364.176 38.082 367.242 36.7148 371.168 36.7148C374.977 36.7148 377.984 38.1504 380.191 41.0215C382.418 43.8926 383.531 47.8867 383.531 53.0039V53.502ZM378.111 52.8867C378.111 49.3125 377.35 46.4902 375.826 44.4199C374.303 42.3496 372.213 41.3145 369.557 41.3145C366.275 41.3145 363.814 42.7695 362.174 45.6797V60.8262C363.795 63.7168 366.275 65.1621 369.615 65.1621C372.213 65.1621 374.273 64.1367 375.797 62.0859C377.34 60.0156 378.111 56.9492 378.111 52.8867ZM417.223 53.502C417.223 58.3262 416.119 62.2129 413.912 65.1621C411.705 68.1113 408.717 69.5859 404.947 69.5859C401.1 69.5859 398.072 68.3652 395.865 65.9238V81.1875H390.445V37.3008H395.396L395.66 40.8164C397.867 38.082 400.934 36.7148 404.859 36.7148C408.668 36.7148 411.676 38.1504 413.883 41.0215C416.109 43.8926 417.223 47.8867 417.223 53.0039V53.502ZM411.803 52.8867C411.803 49.3125 411.041 46.4902 409.518 44.4199C407.994 42.3496 405.904 41.3145 403.248 41.3145C399.967 41.3145 397.506 42.7695 395.865 45.6797V60.8262C397.486 63.7168 399.967 65.1621 403.307 65.1621C405.904 65.1621 407.965 64.1367 409.488 62.0859C411.031 60.0156 411.803 56.9492 411.803 52.8867Z" fill="white"/>
<defs>
<linearGradient id="paint0_linear" x1="54" y1="-10" x2="54" y2="114" gradientUnits="userSpaceOnUse">
<stop stop-color="white" stop-opacity="0"/>
<stop offset="1" stop-opacity="0.33"/>
</linearGradient>
<linearGradient id="paint1_linear" x1="315.5" y1="-10" x2="315.5" y2="114" gradientUnits="userSpaceOnUse">
<stop stop-opacity="0.78"/>
<stop offset="0.454792" stop-color="#242424"/>
<stop offset="1" stop-color="#020202"/>
</linearGradient>
</defs>
</svg>
